<svg width="49" height="49" viewBox="0 0 49 49" fill="none" xmlns="http://www.w3.org/2000/svg">
<path d="M24.5 38.7916H12.25C10.6255 38.7916 9.06763 38.1463 7.91897 36.9976C6.77031 35.849 6.125 34.291 6.125 32.6666V16.3333C6.125 14.7088 6.77031 13.1509 7.91897 12.0022C9.06763 10.8536 10.6255 10.2083 12.25 10.2083H36.75C38.3745 10.2083 39.9324 10.8536 41.081 12.0022C42.2297 13.1509 42.875 14.7088 42.875 16.3333V25.5208M6.125 20.4166H42.875M14.2917 30.6249H14.3121M22.4583 30.6249H26.5417M32.6667 38.7916H44.9167M32.6667 38.7916L38.7917 32.6666M32.6667 38.7916L38.7917 44.9166" stroke="white" stroke-width="2.5" stroke-linecap="round" stroke-linejoin="round"/>
</svg>
