<svg width="30" height="30" viewBox="0 0 30 30" fill="none" xmlns="http://www.w3.org/2000/svg">
<path d="M22.4999 12.5002C22.4999 12.1687 22.3682 11.8508 22.1338 11.6163C21.8994 11.3819 21.5815 11.2502 21.2499 11.2502H6.76243L9.63743 8.38773C9.87281 8.15235 10.005 7.83311 10.005 7.50023C10.005 7.16735 9.87281 6.84811 9.63743 6.61273C9.40205 6.37735 9.08281 6.24512 8.74993 6.24512C8.41705 6.24512 8.09781 6.37735 7.86243 6.61273L2.86243 11.6127C2.68898 11.7885 2.57149 12.0117 2.52477 12.2542C2.47805 12.4967 2.50421 12.7476 2.59993 12.9752C2.69371 13.2035 2.85295 13.3989 3.0576 13.5368C3.26225 13.6747 3.50315 13.749 3.74993 13.7502H21.2499C21.5815 13.7502 21.8994 13.6185 22.1338 13.3841C22.3682 13.1497 22.4999 12.8318 22.4999 12.5002ZM27.3999 17.0252C27.3062 16.797 27.1469 16.6015 26.9423 16.4636C26.7376 16.3257 26.4967 16.2515 26.2499 16.2502H8.74993C8.41841 16.2502 8.10047 16.3819 7.86605 16.6163C7.63163 16.8508 7.49993 17.1687 7.49993 17.5002C7.49993 17.8318 7.63163 18.1497 7.86605 18.3841C8.10047 18.6185 8.41841 18.7502 8.74993 18.7502H23.2374L20.3624 21.6127C20.2453 21.7289 20.1523 21.8672 20.0888 22.0195C20.0254 22.1718 19.9927 22.3352 19.9927 22.5002C19.9927 22.6652 20.0254 22.8286 20.0888 22.981C20.1523 23.1333 20.2453 23.2715 20.3624 23.3877C20.4786 23.5049 20.6169 23.5979 20.7692 23.6613C20.9215 23.7248 21.0849 23.7575 21.2499 23.7575C21.4149 23.7575 21.5783 23.7248 21.7307 23.6613C21.883 23.5979 22.0212 23.5049 22.1374 23.3877L27.1374 18.3877C27.3109 18.212 27.4284 17.9887 27.4751 17.7462C27.5218 17.5038 27.4957 17.2529 27.3999 17.0252Z" fill="#111111"/>
</svg>
