<svg width="65" height="38" viewBox="0 0 65 38" fill="none" xmlns="http://www.w3.org/2000/svg">
<path d="M37.9303 0C41.4624 0 43.8379 2.47971 43.8379 6.1576V14.6699C43.8379 18.3582 41.4624 20.8379 37.9303 20.8379H28.8971C25.3661 20.8379 23 18.3582 23 14.6699V6.1576C23 2.47971 25.3661 0 28.8971 0H37.9303ZM33.4189 5.38659C32.9813 5.38659 32.6375 5.73042 32.6375 6.16802V12.784L30.064 10.2001C29.9182 10.0543 29.7098 9.97093 29.5118 9.97093C29.3149 9.97093 29.1159 10.0543 28.9596 10.2001C28.6575 10.5023 28.6575 11.0024 28.9596 11.3046L32.8667 15.2325C33.1585 15.5242 33.6794 15.5242 33.9711 15.2325L37.8783 11.3046C38.1804 11.0024 38.1804 10.5023 37.8783 10.2001C37.5657 9.898 37.076 9.898 36.7634 10.2001L34.2004 12.784V6.16802C34.2004 5.73042 33.8461 5.38659 33.4189 5.38659Z" fill="#212121"/>
<path d="M7.008 25.84H9.24L5.712 34.048H3.66L0.12 25.84H2.352L4.68 31.372L7.008 25.84ZM10.6833 27.268C10.0473 27.268 9.54328 26.8 9.54328 26.176C9.54328 25.54 10.0473 25.072 10.6833 25.072C11.3073 25.072 11.8233 25.54 11.8233 26.176C11.8233 26.8 11.3073 27.268 10.6833 27.268ZM9.72328 28.18H11.6673V34H9.72328V28.18ZM15.4095 28.024C17.4615 28.024 18.6975 29.488 18.4095 31.552H14.1975C14.3295 32.152 14.7255 32.62 15.5175 32.62C15.9495 32.62 16.2015 32.524 16.3815 32.308H18.3495C18.0015 33.448 16.9215 34.156 15.5535 34.156C13.6455 34.156 12.3735 32.86 12.3735 31.084C12.3735 29.32 13.6095 28.024 15.4095 28.024ZM15.4575 29.464C14.7735 29.464 14.3775 29.848 14.2215 30.436H16.6455C16.5375 29.764 16.1175 29.464 15.4575 29.464ZM25.4891 28.18H27.5291L25.6091 34H23.8811L22.8371 30.616L21.7811 34H20.0531L18.1331 28.18H20.1731L20.9891 31.528L22.0571 28.18H23.6051L24.6731 31.504L25.4891 28.18ZM31.1499 25.84C33.6699 25.84 35.4579 27.508 35.4579 29.86C35.4579 32.284 33.6699 34 31.1499 34H28.2819V25.84H31.1499ZM31.1499 33.124C33.0939 33.124 34.4859 31.768 34.4859 29.86C34.4859 28.036 33.0939 26.716 31.1499 26.716H29.2299V33.124H31.1499ZM39.0856 28.288C40.8736 28.288 41.9896 29.668 41.8096 31.492H37.1536C37.2616 32.524 37.9696 33.328 39.1336 33.328C39.8416 33.328 40.3816 33.076 40.6216 32.608H41.6416C41.2936 33.568 40.3336 34.144 39.1336 34.144C37.4176 34.144 36.2296 32.86 36.2296 31.216C36.2296 29.572 37.4056 28.288 39.0856 28.288ZM39.0856 29.08C37.9816 29.08 37.2976 29.86 37.1656 30.844H40.8976C40.8496 29.74 40.1416 29.08 39.0856 29.08ZM46.5745 33.1L46.7065 33.94C46.2505 34.096 45.8665 34.144 45.5305 34.144C44.1625 34.144 43.5025 33.388 43.5025 31.936V29.212H42.0505V28.432H43.5025V26.38H44.4145V28.432H46.5145V29.212H44.4145V31.936C44.4145 32.896 44.8225 33.292 45.6145 33.292C45.9265 33.292 46.2745 33.208 46.5745 33.1ZM51.8241 28.432H52.7361V34H51.8241V33.424C51.3321 33.88 50.6601 34.144 49.8681 34.144C48.2721 34.144 47.0001 32.848 47.0001 31.216C47.0001 29.596 48.2721 28.288 49.8681 28.288C50.6601 28.288 51.3321 28.552 51.8241 29.008V28.432ZM49.9881 33.304C50.7201 33.304 51.3681 33.028 51.8241 32.356V30.076C51.3681 29.404 50.7201 29.128 49.9881 29.128C48.8121 29.128 47.9121 30.064 47.9121 31.216C47.9121 32.368 48.8121 33.304 49.9881 33.304ZM54.838 26.944C54.49 26.944 54.226 26.68 54.226 26.344C54.226 25.996 54.49 25.732 54.838 25.732C55.186 25.732 55.462 25.996 55.462 26.344C55.462 26.68 55.186 26.944 54.838 26.944ZM54.394 28.432H55.306V34H54.394V28.432ZM56.9335 25.48H57.8455V34H56.9335V25.48ZM59.7926 32.248C59.9606 32.992 60.5366 33.388 61.5566 33.388C62.4206 33.388 63.0086 33.064 63.0086 32.5C63.0086 32.032 62.6366 31.756 62.0966 31.66L60.8366 31.456C59.9246 31.3 59.1806 30.892 59.1806 29.944C59.1806 28.912 60.0926 28.288 61.4366 28.288C62.6006 28.288 63.7526 28.732 63.8606 30.052H63.0086C62.9126 29.356 62.3246 29.032 61.4366 29.032C60.5966 29.032 60.0926 29.356 60.0926 29.86C60.0926 30.268 60.3686 30.568 61.1246 30.7L62.2286 30.88C63.0326 31.012 63.8846 31.372 63.8846 32.44C63.8846 33.532 62.9006 34.144 61.5326 34.144C60.1166 34.144 59.1086 33.556 58.9406 32.248H59.7926Z" fill="#212121"/>
</svg>
