<svg width="22" height="22" viewBox="0 0 22 22" fill="none" xmlns="http://www.w3.org/2000/svg">
<g clip-path="url(#clip0_2135_3042)">
<path d="M11 0C4.92422 0 0 4.92422 0 11C0 17.0758 4.92422 22 11 22C17.0758 22 22 17.0758 22 11C22 4.92422 17.0758 0 11 0ZM17.4152 11.9152C17.4152 12.4223 17.007 12.8305 16.5 12.8305H12.8348V16.5C12.8348 17.007 12.4266 17.4152 11.9195 17.4152H10.0848C9.57773 17.4152 9.16953 17.0027 9.16953 16.5V12.8348H5.5C4.99297 12.8348 4.58477 12.4223 4.58477 11.9195V10.0848C4.58477 9.57773 4.99297 9.16953 5.5 9.16953H9.16523V5.5C9.16523 4.99297 9.57344 4.58477 10.0805 4.58477H11.9152C12.4223 4.58477 12.8305 4.99727 12.8305 5.5V9.16523H16.5C17.007 9.16523 17.4152 9.57773 17.4152 10.0805V11.9152Z" fill="white"/>
</g>
<defs>
<clipPath id="clip0_2135_3042">
<rect width="22" height="22" fill="white"/>
</clipPath>
</defs>
</svg>
