<svg width="22" height="22" viewBox="0 0 22 22" fill="none" xmlns="http://www.w3.org/2000/svg">
<path d="M1.98278 15.9158C1.03185 12.1121 0.556385 10.2113 1.55497 8.93231C2.55245 7.65332 4.51416 7.65332 8.43426 7.65332H13.5657C17.4869 7.65332 19.4464 7.65332 20.445 8.93231C21.4436 10.2102 20.9681 12.1132 20.0172 15.9158C19.4121 18.3352 19.1106 19.5444 18.2085 20.2493C17.3063 20.9531 16.0594 20.9531 13.5657 20.9531H8.43426C5.94056 20.9531 4.69371 20.9531 3.79154 20.2493C2.88938 19.5444 2.58681 18.3352 1.98278 15.9158Z" stroke="#111111" stroke-width="1.5"/>
<path d="M19.3122 8.20606L18.5253 5.31891C18.2216 4.20506 18.0697 3.64869 17.7583 3.22864C17.4478 2.81132 17.0261 2.48984 16.5414 2.30098C16.0537 2.11035 15.4774 2.11035 14.3248 2.11035M2.6875 8.20606L3.4744 5.31891C3.77808 4.20506 3.92992 3.64869 4.24135 3.22864C4.55188 2.81132 4.9736 2.48984 5.45828 2.30098C5.94593 2.11035 6.52226 2.11035 7.6749 2.11035" stroke="#111111" stroke-width="1.5"/>
<path d="M7.67505 2.11124C7.67505 1.8173 7.79182 1.5354 7.99967 1.32755C8.20751 1.1197 8.48942 1.00293 8.78336 1.00293H13.2166C13.5105 1.00293 13.7924 1.1197 14.0003 1.32755C14.2081 1.5354 14.3249 1.8173 14.3249 2.11124C14.3249 2.40518 14.2081 2.68709 14.0003 2.89494C13.7924 3.10278 13.5105 3.21955 13.2166 3.21955H8.78336C8.48942 3.21955 8.20751 3.10278 7.99967 2.89494C7.79182 2.68709 7.67505 2.40518 7.67505 2.11124Z" stroke="#111111" stroke-width="1.5"/>
</svg>
