<svg width="22" height="22" viewBox="0 0 22 22" fill="none" xmlns="http://www.w3.org/2000/svg">
<path d="M4.63615 3.55251C6.32397 1.91817 8.61314 1 11.0001 1C13.387 1 15.6762 1.91817 17.364 3.55251C19.0518 5.18686 20 7.4035 20 9.71482C20 12.0261 19.0518 14.2428 17.364 15.8771L16.1371 17.0521C15.233 17.9109 14.0595 19.0158 12.6166 20.367C12.183 20.773 11.6033 21 11.0001 21C10.3968 21 9.81718 20.773 9.38351 20.367L5.77519 16.9681C5.32109 16.537 4.94141 16.1734 4.63615 15.8771C3.80039 15.0679 3.13743 14.1072 2.68512 13.0499C2.2328 11.9925 2 10.8593 2 9.71482C2 8.57036 2.2328 7.43711 2.68512 6.37978C3.13743 5.32244 3.80039 4.36173 4.63615 3.55251ZM16.2673 4.61342C15.5755 3.94356 14.7542 3.41222 13.8503 3.04972C12.9463 2.68722 11.9775 2.50067 10.9992 2.50071C10.0208 2.50076 9.05205 2.6874 8.14817 3.04999C7.2443 3.41257 6.42303 3.944 5.73126 4.61392C5.03948 5.28385 4.49075 6.07915 4.11639 6.95442C3.74203 7.8297 3.54938 8.7678 3.54943 9.71517C3.54947 10.6625 3.74223 11.6006 4.11667 12.4759C4.49112 13.3511 5.03993 14.1463 5.73178 14.8162L7.26978 16.2855C8.11596 17.0868 9.17989 18.0877 10.4616 19.2881C10.6061 19.4232 10.7992 19.4987 11.0001 19.4987C11.201 19.4987 11.394 19.4232 11.5386 19.2881L15.0477 15.9852C15.5335 15.5242 15.94 15.1345 16.2673 14.8162C17.6642 13.4635 18.449 11.6288 18.449 9.71582C18.449 7.80281 17.6642 5.96816 16.2673 4.61543M11.0001 6.98647C11.4075 6.98647 11.811 7.06418 12.1875 7.21518C12.5639 7.36617 12.906 7.58749 13.1941 7.86649C13.4823 8.14549 13.7108 8.47671 13.8668 8.84125C14.0227 9.20578 14.103 9.59649 14.103 9.99105C14.103 10.3856 14.0227 10.7763 13.8668 11.1409C13.7108 11.5054 13.4823 11.8366 13.1941 12.1156C12.906 12.3946 12.5639 12.6159 12.1875 12.7669C11.811 12.9179 11.4075 12.9956 11.0001 12.9956C10.1871 12.9813 9.41239 12.6585 8.84269 12.0966C8.27299 11.5348 7.95381 10.7789 7.95381 9.99155C7.95381 9.20419 8.27299 8.44828 8.84269 7.88647C9.41239 7.32466 10.1871 7.00184 11.0001 6.98747M11.0001 8.48876C10.5883 8.48876 10.1934 8.64714 9.9023 8.92906C9.61115 9.21099 9.44759 9.59336 9.44759 9.99205C9.44759 10.3908 9.61115 10.7731 9.9023 11.055C10.1934 11.337 10.5883 11.4953 11.0001 11.4953C11.4047 11.4852 11.7893 11.3225 12.0718 11.0417C12.3544 10.761 12.5125 10.3845 12.5125 9.99255C12.5125 9.60057 12.3544 9.22409 12.0718 8.94337C11.7893 8.66264 11.4047 8.49987 11.0001 8.48976" fill="black"/>
</svg>
