<svg width="22" height="22" viewBox="0 0 22 22" fill="none" xmlns="http://www.w3.org/2000/svg">
<path d="M14.2998 9.8999C14.2998 10.7751 13.9521 11.6145 13.3332 12.2333C12.7144 12.8522 11.875 13.1999 10.9998 13.1999C10.1246 13.1999 9.28521 12.8522 8.66634 12.2333C8.04747 11.6145 7.69979 10.7751 7.69979 9.8999C7.69979 9.02468 8.04747 8.18531 8.66634 7.56644C9.28521 6.94757 10.1246 6.5999 10.9998 6.5999C11.875 6.5999 12.7144 6.94757 13.3332 7.56644C13.9521 8.18531 14.2998 9.02468 14.2998 9.8999ZM13.1998 9.8999C13.1998 9.31642 12.968 8.75684 12.5554 8.34426C12.1428 7.93168 11.5833 7.6999 10.9998 7.6999C10.4163 7.6999 9.85674 7.93168 9.44416 8.34426C9.03158 8.75684 8.79979 9.31642 8.79979 9.8999C8.79979 10.4834 9.03158 11.0429 9.44416 11.4555C9.85674 11.8681 10.4163 12.0999 10.9998 12.0999C11.5833 12.0999 12.1428 11.8681 12.5554 11.4555C12.968 11.0429 13.1998 10.4834 13.1998 9.8999ZM16.4448 15.3504C17.889 13.9054 18.7003 11.9461 18.7003 9.9032C18.7003 7.86026 17.889 5.90094 16.4448 4.456C15.7298 3.7409 14.8809 3.17365 13.9466 2.78664C13.0124 2.39963 12.011 2.20044 10.9998 2.20044C9.98855 2.20044 8.98721 2.39963 8.05295 2.78664C7.11869 3.17365 6.26982 3.7409 5.55479 4.456C4.1106 5.90094 3.29932 7.86026 3.29932 9.9032C3.29932 11.9461 4.1106 13.9054 5.55479 15.3504L7.22789 16.9993L9.47519 19.1828L9.62149 19.3126C10.474 20.0034 11.7225 19.9594 12.5255 19.1828L15.204 16.5758L16.4448 15.3504ZM6.33029 5.2315C6.94326 4.61785 7.67116 4.13104 8.47239 3.7989C9.27362 3.46676 10.1325 3.2958 10.9998 3.2958C11.8671 3.2958 12.726 3.46676 13.5272 3.7989C14.3284 4.13104 15.0563 4.61785 15.6693 5.2315C16.873 6.43676 17.565 8.06012 17.6011 9.76313C17.6371 11.4661 17.0145 13.1173 15.8629 14.3725L15.6693 14.5749L14.2162 16.0093L11.7632 18.3952L11.6598 18.4832C11.4693 18.6258 11.2376 18.7028 10.9996 18.7026C10.7616 18.7024 10.5301 18.6251 10.3398 18.4821L10.2375 18.3941L6.95949 15.1986L6.33029 14.5749L6.13669 14.3736C4.98512 13.1184 4.36245 11.4672 4.39852 9.76423C4.43459 8.06123 5.12661 6.43676 6.33029 5.2315Z" fill="black"/>
</svg>
