<svg width="56" height="55" viewBox="0 0 56 55" fill="none" xmlns="http://www.w3.org/2000/svg">
<path d="M32.3077 19.5523C32.3077 18.981 32.0808 18.4332 31.6768 18.0293C31.2729 17.6254 30.7251 17.3984 30.1538 17.3984H12.9231C12.3518 17.3984 11.804 17.6254 11.4001 18.0293C10.9961 18.4332 10.7692 18.981 10.7692 19.5523C10.7692 20.1235 10.9961 20.6714 11.4001 21.0753C11.804 21.4792 12.3518 21.7061 12.9231 21.7061H30.1538C30.7251 21.7061 31.2729 21.4792 31.6768 21.0753C32.0808 20.6714 32.3077 20.1235 32.3077 19.5523ZM29.4359 28.1677C29.4359 27.5964 29.209 27.0486 28.805 26.6447C28.4011 26.2407 27.8533 26.0138 27.282 26.0138H12.9231C12.3518 26.0138 11.804 26.2407 11.4001 26.6447C10.9961 27.0486 10.7692 27.5964 10.7692 28.1677C10.7692 28.7389 10.9961 29.2867 11.4001 29.6907C11.804 30.0946 12.3518 30.3215 12.9231 30.3215H27.282C27.8533 30.3215 28.4011 30.0946 28.805 29.6907C29.209 29.2867 29.4359 28.7389 29.4359 28.1677ZM30.1538 34.6292C30.7251 34.6292 31.2729 34.8561 31.6768 35.2601C32.0808 35.664 32.3077 36.2118 32.3077 36.7831C32.3077 37.3543 32.0808 37.9021 31.6768 38.3061C31.2729 38.71 30.7251 38.9369 30.1538 38.9369H12.9231C12.3518 38.9369 11.804 38.71 11.4001 38.3061C10.9961 37.9021 10.7692 37.3543 10.7692 36.7831C10.7692 36.2118 10.9961 35.664 11.4001 35.2601C11.804 34.8561 12.3518 34.6292 12.9231 34.6292H30.1538Z" fill="#111111"/>
<path fill-rule="evenodd" clip-rule="evenodd" d="M10.7692 54.0141H48.1026C50.1971 54.0141 52.2058 53.182 53.6869 51.701C55.168 50.2199 56 48.2112 56 46.1166V30.3218C56 29.7505 55.7731 29.2027 55.3692 28.7988C54.9652 28.3948 54.4174 28.1679 53.8462 28.1679H44.5128V5.74781C44.5128 1.66124 39.8921 -0.716602 36.5666 1.65837L36.064 2.01735C34.9635 2.79855 33.6468 3.21726 32.2972 3.2152C30.9477 3.21314 29.6323 2.79042 28.5342 2.00586C26.7009 0.701112 24.5066 0 22.2564 0C20.0062 0 17.812 0.701112 15.9787 2.00586C14.8805 2.79042 13.5652 3.21314 12.2156 3.2152C10.866 3.21726 9.54933 2.79855 8.44882 2.01735L7.94626 1.65837C4.62072 -0.716602 0 1.65837 0 5.74781V43.2448C0 46.101 1.13461 48.8402 3.15423 50.8598C5.17386 52.8795 7.91305 54.0141 10.7692 54.0141ZM18.4829 5.50945C19.5855 4.72673 20.9042 4.30625 22.2564 4.30625C23.6086 4.30625 24.9273 4.72673 26.0299 5.50945C27.8584 6.81646 30.0492 7.52032 32.2968 7.52289C34.5444 7.52547 36.7367 6.82663 38.5682 5.52381L39.0708 5.16483C39.178 5.08847 39.3042 5.04307 39.4355 5.0336C39.5669 5.02412 39.6983 5.05095 39.8154 5.11113C39.9325 5.17131 40.0308 5.26253 40.0995 5.37482C40.1682 5.48711 40.2048 5.61615 40.2051 5.74781V46.1166C40.2051 47.4089 40.5153 48.6294 41.0667 49.7064H10.7692C9.05552 49.7064 7.41201 49.0256 6.20023 47.8138C4.98846 46.6021 4.30769 44.9585 4.30769 43.2448V5.74781C4.30804 5.61615 4.34458 5.48711 4.41332 5.37482C4.48207 5.26253 4.58037 5.17131 4.69747 5.11113C4.81457 5.05095 4.94597 5.02412 5.07729 5.0336C5.20861 5.04307 5.3348 5.08847 5.44205 5.16483L5.94462 5.52381C7.77609 6.82663 9.96846 7.52547 12.216 7.52289C14.4636 7.52032 16.6544 6.81646 18.4829 5.50945ZM44.5128 46.1166V32.4756H51.6923V46.1166C51.6923 47.0687 51.3141 47.9818 50.6409 48.655C49.9677 49.3282 49.0546 49.7064 48.1026 49.7064C47.1505 49.7064 46.2374 49.3282 45.5642 48.655C44.891 47.9818 44.5128 47.0687 44.5128 46.1166Z" fill="#111111"/>
</svg>
