<svg width="30" height="30" viewBox="0 0 30 30" fill="none" xmlns="http://www.w3.org/2000/svg">
<path d="M4.65625 3.4375C4.33018 3.44565 4.0202 3.58094 3.7925 3.81448C3.5648 4.04803 3.4374 4.36132 3.4375 4.6875V8.875L21.125 26.5625H25.3437C25.6753 26.5625 25.9932 26.4308 26.2276 26.1964C26.4621 25.962 26.5937 25.644 26.5937 25.3125V4.65625C26.5856 4.33018 26.4503 4.0202 26.2168 3.7925C25.9832 3.5648 25.6699 3.4374 25.3437 3.4375H4.65625ZM18.85 5.86875C20.2497 5.87205 21.5911 6.42953 22.5808 7.41924C23.5705 8.40895 24.1279 9.75034 24.1313 11.15C24.1313 14.225 21.6312 16.6188 18.85 19.7625C16.1875 16.75 13.7875 14.425 13.5875 11.5375V11.15C13.5875 9.74933 14.1439 8.40602 15.1343 7.41559C16.1248 6.42517 17.4681 5.86875 18.8688 5.86875H18.85ZM18.85 8.6125C18.177 8.6125 17.5316 8.87984 17.0557 9.35572C16.5798 9.83159 16.3125 10.477 16.3125 11.15C16.3125 11.823 16.5798 12.4684 17.0557 12.9443C17.5316 13.4202 18.177 13.6875 18.85 13.6875C19.523 13.6875 20.1684 13.4202 20.6443 12.9443C21.1202 12.4684 21.3875 11.823 21.3875 11.15C21.3875 10.477 21.1202 9.83159 20.6443 9.35572C20.1684 8.87984 19.523 8.6125 18.85 8.6125ZM3.4375 16.9875V25.3437C3.4375 25.6753 3.5692 25.9932 3.80362 26.2276C4.03804 26.4621 4.35598 26.5937 4.6875 26.5937H13.0125L3.4375 16.9875Z" stroke="white" stroke-linecap="round" stroke-linejoin="round"/>
</svg>
