<svg width="20" height="20" viewBox="0 0 20 20" fill="none" xmlns="http://www.w3.org/2000/svg">
<path opacity="0.4" d="M20 10C20 15.515 15.514 20 10 20C4.486 20 0 15.515 0 10C0 4.486 4.486 0 10 0C15.514 0 20 4.486 20 10Z" fill="black"/>
<path d="M14.2211 8.55748C14.2211 8.74848 14.1481 8.94048 14.0021 9.08648L10.5321 12.5735C10.3911 12.7145 10.2001 12.7935 10.0001 12.7935C9.80107 12.7935 9.61007 12.7145 9.46907 12.5735L5.99707 9.08648C5.70507 8.79348 5.70507 8.31948 5.99907 8.02648C6.29307 7.73448 6.76807 7.73548 7.06007 8.02848L10.0001 10.9815L12.9401 8.02848C13.2321 7.73548 13.7061 7.73448 14.0001 8.02648C14.1481 8.17248 14.2211 8.36548 14.2211 8.55748Z" fill="black"/>
</svg>
