<svg width="21" height="21" viewBox="0 0 21 21" fill="none" xmlns="http://www.w3.org/2000/svg">
<path d="M9.65038 2.22204C9.91029 2.0777 10.2027 2.00195 10.5 2.00195C10.7973 2.00195 11.0897 2.0777 11.3496 2.22204L17.9253 5.87429C18.0616 5.9501 18.1752 6.06098 18.2542 6.19544C18.3333 6.3299 18.375 6.48305 18.375 6.63904V13.8447C18.3749 14.1567 18.2914 14.4631 18.1331 14.732C17.9748 15.001 17.7474 15.2227 17.4746 15.3742L11.3496 18.7779C11.0897 18.9223 10.7973 18.998 10.5 18.998C10.2027 18.998 9.91029 18.9223 9.65038 18.7779L3.52537 15.3742C3.25269 15.2227 3.02543 15.0012 2.86713 14.7324C2.70882 14.4636 2.62523 14.1575 2.625 13.8455V6.63904C2.62499 6.48305 2.66669 6.3299 2.74576 6.19544C2.82484 6.06098 2.93842 5.9501 3.07475 5.87429L9.65038 2.22204Z" stroke="white" stroke-width="1.5" stroke-linecap="round" stroke-linejoin="round"/>
<path d="M6.5625 3.9375L14.4375 8.3125V11.375M5.25 10.787L7.875 12.25" stroke="white" stroke-width="1.5" stroke-linecap="round" stroke-linejoin="round"/>
<path d="M2.625 6.125L10.5 10.5M10.5 10.5L18.375 6.125M10.5 10.5V19.25" stroke="white" stroke-width="1.5" stroke-linejoin="round"/>
</svg>
