<svg width="25" height="25" viewBox="0 0 25 25" fill="none" xmlns="http://www.w3.org/2000/svg">
<path d="M12.4405 1.30209C10.0353 1.30209 8.15096 1.30209 6.68013 1.50001C5.17596 1.70209 3.98846 2.12501 3.05617 3.05626C2.12388 3.98855 1.702 5.17605 1.49992 6.68126C1.302 8.15105 1.302 10.0354 1.302 12.4406V12.5594C1.302 14.9646 1.302 16.849 1.49992 18.3198C1.702 19.824 2.12492 21.0115 3.05617 21.9438C3.98846 22.8761 5.17596 23.2979 6.68117 23.5C8.15096 23.6979 10.0353 23.6979 12.4405 23.6979H12.5593C14.9645 23.6979 16.8489 23.6979 18.3197 23.5C19.8239 23.2979 21.0114 22.875 21.9437 21.9438C22.876 21.0115 23.2978 19.824 23.4999 18.3188C23.6978 16.849 23.6978 14.9646 23.6978 12.5594V10.9375C23.6978 10.7303 23.6155 10.5316 23.469 10.3851C23.3225 10.2386 23.1238 10.1563 22.9166 10.1563C22.7094 10.1563 22.5107 10.2386 22.3642 10.3851C22.2176 10.5316 22.1353 10.7303 22.1353 10.9375V12.5C22.1353 14.9771 22.1333 16.7563 21.952 18.1104C21.7728 19.4427 21.4312 20.2458 20.8385 20.8396C20.2447 21.4323 19.4426 21.7729 18.1103 21.9521C16.7562 22.1333 14.977 22.1354 12.4999 22.1354C10.0228 22.1354 8.24367 22.1333 6.8895 21.9521C5.55721 21.7729 4.75409 21.4313 4.16034 20.8386C3.56763 20.2448 3.227 19.4427 3.04784 18.1104C2.86659 16.7563 2.8645 14.9771 2.8645 12.5C2.8645 10.0229 2.86659 8.24376 3.04784 6.88959C3.227 5.5573 3.56867 4.75418 4.16138 4.16043C4.75513 3.56772 5.55721 3.22709 6.8895 3.04793C8.24367 2.86668 10.0228 2.86459 12.4999 2.86459H14.0624C14.2696 2.86459 14.4683 2.78228 14.6148 2.63577C14.7614 2.48926 14.8437 2.29054 14.8437 2.08334C14.8437 1.87614 14.7614 1.67743 14.6148 1.53092C14.4683 1.3844 14.2696 1.30209 14.0624 1.30209H12.4405Z" fill="white"/>
<path fill-rule="evenodd" clip-rule="evenodd" d="M19.7915 1.30209C18.7555 1.30209 17.7619 1.71364 17.0294 2.44621C16.2968 3.17877 15.8853 4.17234 15.8853 5.20834C15.8853 6.24435 16.2968 7.23792 17.0294 7.97048C17.7619 8.70304 18.7555 9.11459 19.7915 9.11459C20.8275 9.11459 21.8211 8.70304 22.5536 7.97048C23.2862 7.23792 23.6978 6.24435 23.6978 5.20834C23.6978 4.17234 23.2862 3.17877 22.5536 2.44621C21.8211 1.71364 20.8275 1.30209 19.7915 1.30209ZM17.4478 5.20834C17.4478 4.58674 17.6947 3.9906 18.1342 3.55106C18.5738 3.11152 19.1699 2.86459 19.7915 2.86459C20.4131 2.86459 21.0092 3.11152 21.4488 3.55106C21.8883 3.9906 22.1353 4.58674 22.1353 5.20834C22.1353 5.82994 21.8883 6.42609 21.4488 6.86562C21.0092 7.30516 20.4131 7.55209 19.7915 7.55209C19.1699 7.55209 18.5738 7.30516 18.1342 6.86562C17.6947 6.42609 17.4478 5.82994 17.4478 5.20834Z" fill="white"/>
</svg>
