<svg width="53" height="53" viewBox="0 0 53 53" fill="none" xmlns="http://www.w3.org/2000/svg">
<path d="M6.62583 28.7083H8.83416V44.1667C8.83416 46.6025 10.815 48.5833 13.2508 48.5833H39.7508C42.1866 48.5833 44.1675 46.6025 44.1675 44.1667V28.7083H46.3758C46.8125 28.7082 47.2394 28.5787 47.6025 28.336C47.9655 28.0934 48.2485 27.7485 48.4156 27.345C48.5827 26.9416 48.6265 26.4976 48.5413 26.0693C48.4561 25.641 48.2459 25.2476 47.9371 24.9387L28.0621 5.06372C27.8572 4.85846 27.6138 4.69562 27.3459 4.58452C27.078 4.47342 26.7909 4.41623 26.5008 4.41623C26.2108 4.41623 25.9236 4.47342 25.6557 4.58452C25.3878 4.69562 25.1444 4.85846 24.9395 5.06372L5.06454 24.9387C4.75579 25.2476 4.54555 25.641 4.46038 26.0693C4.37521 26.4976 4.41894 26.9416 4.58604 27.345C4.75315 27.7485 5.03612 28.0934 5.39919 28.336C5.76227 28.5787 6.18913 28.7082 6.62583 28.7083ZM26.5008 9.74759L39.7508 22.9976V33.125L39.753 44.1667H13.2508V22.9976L26.5008 9.74759Z" fill="#111111"/>
<path d="M26.4996 39.75C34.6771 39.75 37.3226 31.9347 37.4309 31.6035L33.235 30.2321C33.2174 30.2829 31.5103 35.3333 26.4996 35.3333C21.5574 35.3333 19.8304 30.4286 19.762 30.2188L15.5684 31.6035C15.6766 31.9347 18.3222 39.75 26.4996 39.75Z" fill="#111111"/>
</svg>
