<svg width="27" height="27" viewBox="0 0 27 27" fill="none" xmlns="http://www.w3.org/2000/svg">
<path d="M19.7245 0C24.2422 0 26.7927 2.5624 26.8059 7.08015V19.487C26.8059 24.0034 24.2422 26.5672 19.7245 26.5672H7.31892C2.80117 26.5672 0.23877 24.0034 0.23877 19.487V7.08015C0.23877 2.5624 2.80117 0 7.31892 0H19.7245ZM14.1865 5.48612C13.8133 5.2603 13.3616 5.2603 13.0043 5.48612C12.6443 5.71061 12.4464 6.12373 12.4849 6.53552V20.0715C12.5527 20.6427 13.0295 21.0678 13.5874 21.0678C14.16 21.0678 14.6368 20.6427 14.69 20.0715V6.53552C14.7431 6.12373 14.5452 5.71061 14.1865 5.48612ZM7.9831 9.84313C7.62444 9.61731 7.17147 9.61731 6.81414 9.84313C6.45416 10.069 6.25623 10.4794 6.29608 10.8925V20.0715C6.34789 20.6427 6.8261 21.0678 7.39729 21.0678C7.96981 21.0678 8.44669 20.6427 8.49983 20.0715V10.8925C8.54101 10.4794 8.34043 10.069 7.9831 9.84313ZM20.2824 14.6651C19.925 14.4393 19.4734 14.4393 19.1015 14.6651C18.7415 14.8909 18.5435 15.2881 18.5967 15.7145V20.0715C18.6498 20.6427 19.1267 21.0678 19.6992 21.0678C20.2571 21.0678 20.734 20.6427 20.8018 20.0715V15.7145C20.8403 15.2881 20.6424 14.8909 20.2824 14.6651Z" fill="#838383"/>
</svg>
