<svg width="30" height="30" viewBox="0 0 30 30" fill="none" xmlns="http://www.w3.org/2000/svg">
<path d="M21.1515 0.583862C26.1518 0.583862 29.5 4.00842 29.5 9.10209V20.8592C29.5 25.9385 26.1518 29.3616 21.1515 29.3616H8.36325C3.363 29.3616 0 25.9385 0 20.8592V9.10209C0 4.00842 3.363 0.583862 8.36325 0.583862H21.1515ZM19.1898 10.6144C18.6883 10.1237 17.877 10.1237 17.3608 10.6144L14.75 13.1741L12.1245 10.6144C11.6083 10.1237 10.797 10.1237 10.2955 10.6144C9.794 11.1036 9.794 11.9094 10.2955 12.3971L12.921 14.9598L10.2955 17.5066C9.794 18.0102 9.794 18.8016 10.2955 19.2894C10.5463 19.534 10.8855 19.665 11.21 19.665C11.5492 19.665 11.8738 19.534 12.1245 19.2894L14.75 16.744L17.3755 19.2894C17.6262 19.5499 17.9508 19.665 18.2753 19.665C18.6145 19.665 18.939 19.534 19.1898 19.2894C19.6912 18.8016 19.6912 18.0102 19.1898 17.521L16.5642 14.9598L19.1898 12.3971C19.6912 11.9094 19.6912 11.1036 19.1898 10.6144Z" fill="black"/>
</svg>
