<svg width="30" height="30" viewBox="0 0 30 30" fill="none" xmlns="http://www.w3.org/2000/svg">
<path d="M21.1515 0.5C26.1518 0.5 29.5 4.0105 29.5 9.232V21.2842C29.5 26.491 26.1518 30 21.1515 30H8.36325C3.363 30 0 26.491 0 21.2842V9.232C0 4.0105 3.363 0.5 8.36325 0.5H21.1515ZM19.1898 10.7822C18.6883 10.2793 17.877 10.2793 17.3608 10.7822L14.75 13.4062L12.1245 10.7822C11.6083 10.2793 10.797 10.2793 10.2955 10.7822C9.794 11.2837 9.794 12.1097 10.2955 12.6097L12.921 15.2367L10.2955 17.8475C9.794 18.3637 9.794 19.175 10.2955 19.675C10.5463 19.9258 10.8855 20.06 11.21 20.06C11.5492 20.06 11.8738 19.9258 12.1245 19.675L14.75 17.0657L17.3755 19.675C17.6262 19.942 17.9508 20.06 18.2753 20.06C18.6145 20.06 18.939 19.9258 19.1898 19.675C19.6912 19.175 19.6912 18.3637 19.1898 17.8622L16.5642 15.2367L19.1898 12.6097C19.6912 12.1097 19.6912 11.2837 19.1898 10.7822Z" fill="#050404"/>
</svg>
