<svg width="47" height="36" viewBox="0 0 47 36" fill="none" xmlns="http://www.w3.org/2000/svg">
<path d="M0 15.5C0 6.93959 6.93959 0 15.5 0H31.5C40.0604 0 47 6.93959 47 15.5V15.5C47 24.0604 40.0604 31 31.5 31H15.5C6.93959 31 0 24.0604 0 15.5V15.5Z" fill="#F55C5C"/>
<path d="M19.125 23.375C18.6437 23.375 18.2319 23.2038 17.8895 22.8614C17.5471 22.519 17.3756 22.1068 17.375 21.625V10.25H16.5V8.5H20.875V7.625H26.125V8.5H30.5V10.25H29.625V21.625C29.625 22.1062 29.4538 22.5184 29.1114 22.8614C28.769 23.2044 28.3568 23.3756 27.875 23.375H19.125ZM27.875 10.25H19.125V21.625H27.875V10.25ZM20.875 19.875H22.625V12H20.875V19.875ZM24.375 19.875H26.125V12H24.375V19.875Z" fill="white"/>
</svg>
