<svg width="22" height="22" viewBox="0 0 22 22" fill="none" xmlns="http://www.w3.org/2000/svg">
<circle cx="11" cy="11" r="11" fill="#DD3931"/>
<path d="M9.8 7.4H12.2C12.2 7.08174 12.0736 6.77652 11.8485 6.55147C11.6235 6.32643 11.3183 6.2 11 6.2C10.6817 6.2 10.3765 6.32643 10.1515 6.55147C9.92643 6.77652 9.8 7.08174 9.8 7.4ZM8.6 7.4C8.6 6.76348 8.85286 6.15303 9.30294 5.70294C9.75303 5.25286 10.3635 5 11 5C11.6365 5 12.247 5.25286 12.6971 5.70294C13.1471 6.15303 13.4 6.76348 13.4 7.4H16.4C16.5591 7.4 16.7117 7.46321 16.8243 7.57574C16.9368 7.68826 17 7.84087 17 8C17 8.15913 16.9368 8.31174 16.8243 8.42426C16.7117 8.53679 16.5591 8.6 16.4 8.6H15.8708L15.3392 14.804C15.2881 15.4031 15.014 15.9612 14.5711 16.3678C14.1282 16.7745 13.5489 17.0001 12.9476 17H9.0524C8.45115 17.0001 7.87177 16.7745 7.42889 16.3678C6.98601 15.9612 6.71191 15.4031 6.6608 14.804L6.1292 8.6H5.6C5.44087 8.6 5.28826 8.53679 5.17574 8.42426C5.06321 8.31174 5 8.15913 5 8C5 7.84087 5.06321 7.68826 5.17574 7.57574C5.28826 7.46321 5.44087 7.4 5.6 7.4H8.6ZM12.8 11C12.8 10.8409 12.7368 10.6883 12.6243 10.5757C12.5117 10.4632 12.3591 10.4 12.2 10.4C12.0409 10.4 11.8883 10.4632 11.7757 10.5757C11.6632 10.6883 11.6 10.8409 11.6 11V13.4C11.6 13.5591 11.6632 13.7117 11.7757 13.8243C11.8883 13.9368 12.0409 14 12.2 14C12.3591 14 12.5117 13.9368 12.6243 13.8243C12.7368 13.7117 12.8 13.5591 12.8 13.4V11ZM9.8 10.4C9.64087 10.4 9.48826 10.4632 9.37574 10.5757C9.26321 10.6883 9.2 10.8409 9.2 11V13.4C9.2 13.5591 9.26321 13.7117 9.37574 13.8243C9.48826 13.9368 9.64087 14 9.8 14C9.95913 14 10.1117 13.9368 10.2243 13.8243C10.3368 13.7117 10.4 13.5591 10.4 13.4V11C10.4 10.8409 10.3368 10.6883 10.2243 10.5757C10.1117 10.4632 9.95913 10.4 9.8 10.4Z" fill="white"/>
</svg>
