<svg width="27" height="27" viewBox="0 0 27 27" fill="none" xmlns="http://www.w3.org/2000/svg">
<path d="M13.658 0C20.9914 0 26.943 5.95168 26.943 13.285C26.943 20.6316 20.9914 26.57 13.658 26.57C6.31144 26.57 0.373047 20.6316 0.373047 13.285C0.373047 5.95168 6.31144 0 13.658 0ZM18.7728 8.91424C18.9189 8.44926 18.4938 8.01085 18.0288 8.15699L11.2269 10.2826C10.9479 10.3756 10.7221 10.5881 10.6424 10.8671L8.51675 17.6823C8.37062 18.134 8.80902 18.5724 9.26071 18.4263L16.0361 16.3007C16.315 16.221 16.5409 15.9951 16.6206 15.7162L18.7728 8.91424Z" fill="#838383"/>
</svg>
