<svg width="21" height="21" viewBox="0 0 21 21" fill="none" xmlns="http://www.w3.org/2000/svg">
<path d="M14.9303 0C18.4624 0 20.8379 2.47971 20.8379 6.1576V14.6699C20.8379 18.3582 18.4624 20.8379 14.9303 20.8379H5.89712C2.36614 20.8379 0 18.3582 0 14.6699V6.1576C0 2.47971 2.36614 0 5.89712 0H14.9303ZM10.4189 5.38659C9.98135 5.38659 9.63752 5.73042 9.63752 6.16802V12.784L7.06405 10.2001C6.91818 10.0543 6.7098 9.97093 6.51184 9.97093C6.31492 9.97093 6.11592 10.0543 5.95964 10.2001C5.65749 10.5023 5.65749 11.0024 5.95964 11.3046L9.86674 15.2325C10.1585 15.5242 10.6794 15.5242 10.9711 15.2325L14.8783 11.3046C15.1804 11.0024 15.1804 10.5023 14.8783 10.2001C14.5657 9.898 14.076 9.898 13.7634 10.2001L11.2004 12.784V6.16802C11.2004 5.73042 10.8461 5.38659 10.4189 5.38659Z" fill="#212121"/>
</svg>
