<svg width="22" height="22" viewBox="0 0 22 22" fill="none" xmlns="http://www.w3.org/2000/svg">
<circle cx="11" cy="11" r="11" fill="#4CDB06"/>
<path fill-rule="evenodd" clip-rule="evenodd" d="M15.743 5.84343C15.4148 5.51536 14.9698 5.33105 14.5057 5.33105C14.0417 5.33105 13.5966 5.51536 13.2685 5.84343L12.8561 6.25643L15.7436 9.14393L16.1554 8.73151C16.3179 8.56901 16.4469 8.37608 16.5348 8.16374C16.6228 7.9514 16.6681 7.72381 16.6681 7.49397C16.6681 7.26413 16.6228 7.03655 16.5348 6.82421C16.4469 6.61187 16.3179 6.41894 16.1554 6.25643L15.743 5.84343ZM14.9181 9.96876L12.0306 7.08126L6.72814 12.3843C6.61211 12.5004 6.53105 12.6468 6.49423 12.8067L5.89398 15.4054C5.87161 15.5019 5.87418 15.6025 5.90143 15.6977C5.92869 15.7929 5.97973 15.8796 6.04976 15.9496C6.11979 16.0197 6.20649 16.0707 6.30171 16.098C6.39692 16.1252 6.4975 16.1278 6.59398 16.1054L9.19331 15.5058C9.35303 15.4688 9.49916 15.3878 9.61506 15.2718L14.9181 9.96876Z" fill="white"/>
</svg>
