<svg width="31" height="31" viewBox="0 0 31 31" fill="none" xmlns="http://www.w3.org/2000/svg">
<path d="M16.4688 26.1562V20.3438H20.3438L15.5 14.5312L10.6562 20.3438H14.5312V26.1562H9.6875V26.1078C9.52475 26.1175 9.36975 26.1562 9.20312 26.1562C7.27616 26.1562 5.42812 25.3908 4.06555 24.0282C2.70298 22.6656 1.9375 20.8176 1.9375 18.8906C1.9375 15.1629 4.75656 12.1249 8.37388 11.7083C8.69102 10.0504 9.57598 8.55478 10.8766 7.47875C12.1771 6.40272 13.812 5.81352 15.5 5.8125C17.1882 5.81344 18.8234 6.40257 20.1243 7.47858C21.4252 8.55458 22.3105 10.0502 22.6281 11.7083C26.2454 12.1249 29.0606 15.1629 29.0606 18.8906C29.0606 20.8176 28.2951 22.6656 26.9325 24.0282C25.5699 25.3908 23.7219 26.1562 21.7949 26.1562C21.6322 26.1562 21.4752 26.1175 21.3106 26.1078V26.1562H16.4688Z" fill="#4CDB06"/>
</svg>
