<svg width="34" height="34" viewBox="0 0 34 34" fill="none" xmlns="http://www.w3.org/2000/svg">
<path d="M29.75 8.5V29.75C29.75 30.3366 29.6393 30.8844 29.418 31.3936C29.1966 31.9027 28.8923 32.3509 28.5049 32.7383C28.1175 33.1257 27.6637 33.43 27.1436 33.6514C26.6234 33.8727 26.0755 33.9889 25.5 34H6.375C5.78841 34 5.24056 33.8893 4.73145 33.668C4.22233 33.4466 3.77409 33.1423 3.38672 32.7549C2.99935 32.3675 2.69499 31.9193 2.47363 31.4102C2.25228 30.901 2.13607 30.3477 2.125 29.75V8.5H6.375V6.375C6.375 5.50065 6.54102 4.67611 6.87305 3.90137C7.20508 3.12663 7.66439 2.4515 8.25098 1.87598C8.83756 1.30046 9.5127 0.84668 10.2764 0.514648C11.04 0.182617 11.8646 0.0110677 12.75 0C13.901 0 14.9691 0.28776 15.9541 0.863281C16.9391 0.28776 17.9961 0 19.125 0C19.9993 0 20.8239 0.166016 21.5986 0.498047C22.3734 0.830078 23.0485 1.28939 23.624 1.87598C24.1995 2.46257 24.6533 3.1377 24.9854 3.90137C25.3174 4.66504 25.4889 5.48958 25.5 6.375V8.5H29.75ZM23.375 6.375C23.375 5.79948 23.2643 5.25163 23.043 4.73145C22.8216 4.21126 22.5173 3.76302 22.1299 3.38672C21.7425 3.01042 21.2887 2.70605 20.7686 2.47363C20.2484 2.24121 19.7005 2.125 19.125 2.125C18.627 2.125 18.1566 2.20801 17.7139 2.37402C18.0348 2.77246 18.2894 3.16536 18.4775 3.55273C18.6657 3.9401 18.804 4.32747 18.8926 4.71484C18.9811 5.10221 19.042 5.49512 19.0752 5.89355C19.1084 6.29199 19.125 6.7181 19.125 7.17188V8.5H23.375V6.375ZM8.5 8.5H17V6.375C17 5.79948 16.8893 5.25163 16.668 4.73145C16.4466 4.21126 16.1423 3.76302 15.7549 3.38672C15.3675 3.01042 14.9137 2.70605 14.3936 2.47363C13.8734 2.24121 13.3255 2.125 12.75 2.125C12.1634 2.125 11.6156 2.23568 11.1064 2.45703C10.5973 2.67839 10.1491 2.98275 9.76172 3.37012C9.37435 3.75749 9.06999 4.21126 8.84863 4.73145C8.62728 5.25163 8.51107 5.79948 8.5 6.375V8.5ZM21.8145 31.875C21.4382 31.2109 21.25 30.5026 21.25 29.75V10.625H4.25V29.75C4.25 30.0488 4.30534 30.3255 4.41602 30.5801C4.52669 30.8346 4.67611 31.056 4.86426 31.2441C5.05241 31.4323 5.2793 31.5872 5.54492 31.709C5.81055 31.8307 6.08724 31.8861 6.375 31.875H21.8145ZM27.625 10.625H23.375V29.75C23.375 30.0488 23.4303 30.3255 23.541 30.5801C23.6517 30.8346 23.8011 31.056 23.9893 31.2441C24.1774 31.4323 24.4043 31.5872 24.6699 31.709C24.9355 31.8307 25.2122 31.8861 25.5 31.875C25.7988 31.875 26.0755 31.8197 26.3301 31.709C26.5846 31.5983 26.806 31.4489 26.9941 31.2607C27.1823 31.0726 27.3372 30.8457 27.459 30.5801C27.5807 30.3145 27.6361 30.0378 27.625 29.75V10.625Z" fill="#111111"/>
</svg>
