<svg width="36" height="36" viewBox="0 0 36 36" fill="none" xmlns="http://www.w3.org/2000/svg">
<path d="M9.51442 7.40711C9.65389 7.54642 9.76452 7.71186 9.84001 7.89395C9.9155 8.07605 9.95435 8.27124 9.95435 8.46836C9.95435 8.66549 9.9155 8.86068 9.84001 9.04277C9.76452 9.22487 9.65389 9.3903 9.51442 9.52961C7.26358 11.7808 5.9991 14.8339 5.9991 18.0174C5.9991 21.2008 7.26358 24.2539 9.51442 26.5051C9.65769 26.6435 9.77196 26.809 9.85057 26.992C9.92919 27.175 9.97057 27.3718 9.9723 27.571C9.97403 27.7702 9.93608 27.9677 9.86065 28.152C9.78523 28.3364 9.67385 28.5039 9.53301 28.6447C9.39218 28.7855 9.2247 28.8969 9.04035 28.9723C8.85601 29.0478 8.65849 29.0857 8.45932 29.084C8.26015 29.0823 8.06332 29.0409 7.88032 28.9623C7.69731 28.8837 7.53179 28.7694 7.39342 28.6261C1.53292 22.7671 1.53292 13.2661 7.39342 7.40711C7.67471 7.12591 8.05618 6.96793 8.45392 6.96793C8.85167 6.96793 9.23313 7.12591 9.51442 7.40711ZM28.6124 7.40711C34.4714 13.2676 34.4714 22.7671 28.6124 28.6261C28.3312 28.9076 27.9496 29.0658 27.5517 29.0659C27.1538 29.0661 26.7721 28.9081 26.4907 28.6269C26.2092 28.3456 26.051 27.9641 26.0509 27.5661C26.0507 27.1682 26.2087 26.7866 26.4899 26.5051C28.7408 24.2539 30.0052 21.2008 30.0052 18.0174C30.0052 14.8339 28.7408 11.7808 26.4899 9.52961C26.2085 9.24815 26.0503 8.86641 26.0503 8.46836C26.0503 8.07032 26.2085 7.68858 26.4899 7.40711C26.7714 7.12565 27.1531 6.96753 27.5512 6.96753C27.9492 6.96753 28.331 7.12565 28.6124 7.40711ZM13.9649 11.7181C14.2461 11.9994 14.4041 12.3809 14.4041 12.7786C14.4041 13.1764 14.2461 13.5578 13.9649 13.8391C13.4189 14.3851 12.9857 15.0334 12.6901 15.7468C12.3946 16.4602 12.2425 17.2249 12.2425 17.9971C12.2425 18.7693 12.3946 19.534 12.6901 20.2474C12.9857 20.9609 13.4189 21.6091 13.9649 22.1551C14.1042 22.2945 14.2146 22.4599 14.29 22.642C14.3653 22.824 14.404 23.0191 14.404 23.2161C14.4039 23.4132 14.365 23.6082 14.2896 23.7902C14.2141 23.9722 14.1035 24.1376 13.9642 24.2769C13.8248 24.4161 13.6594 24.5266 13.4773 24.6019C13.2953 24.6772 13.1002 24.716 12.9031 24.7159C12.7061 24.7158 12.511 24.677 12.329 24.6015C12.147 24.526 11.9817 24.4155 11.8424 24.2761C10.1772 22.6108 9.24164 20.3522 9.24164 17.9971C9.24164 15.642 10.1772 13.3834 11.8424 11.7181C11.9817 11.5786 12.1472 11.468 12.3293 11.3925C12.5114 11.317 12.7065 11.2782 12.9037 11.2782C13.1008 11.2782 13.296 11.317 13.4781 11.3925C13.6602 11.468 13.8256 11.5786 13.9649 11.7181ZM24.4019 11.7181C26.0672 13.3834 27.0027 15.642 27.0027 17.9971C27.0027 20.3522 26.0672 22.6108 24.4019 24.2761C24.119 24.5494 23.7401 24.7005 23.3468 24.6971C22.9535 24.6937 22.5773 24.536 22.2992 24.2578C22.0211 23.9797 21.8633 23.6035 21.8599 23.2102C21.8565 22.8169 22.0077 22.438 22.2809 22.1551C22.827 21.6091 23.2602 20.9609 23.5557 20.2474C23.8512 19.534 24.0033 18.7693 24.0033 17.9971C24.0033 17.2249 23.8512 16.4602 23.5557 15.7468C23.2602 15.0334 22.827 14.3851 22.2809 13.8391C22.0077 13.5562 21.8565 13.1773 21.8599 12.784C21.8633 12.3907 22.0211 12.0145 22.2992 11.7364C22.5773 11.4583 22.9535 11.3005 23.3468 11.2971C23.7401 11.2937 24.119 11.4449 24.4019 11.7181ZM18.1229 15.8731C18.4184 15.8731 18.711 15.9313 18.984 16.0444C19.2569 16.1575 19.505 16.3232 19.7139 16.5321C19.9228 16.7411 20.0886 16.9891 20.2017 17.2621C20.3147 17.5351 20.3729 17.8276 20.3729 18.1231C20.3729 18.4186 20.3147 18.7112 20.2017 18.9842C20.0886 19.2571 19.9228 19.5052 19.7139 19.7141C19.505 19.923 19.2569 20.0888 18.984 20.2018C18.711 20.3149 18.4184 20.3731 18.1229 20.3731C17.5262 20.3731 16.9539 20.1361 16.5319 19.7141C16.11 19.2921 15.8729 18.7199 15.8729 18.1231C15.8729 17.5264 16.11 16.9541 16.5319 16.5321C16.9539 16.1102 17.5262 15.8731 18.1229 15.8731Z" fill="black"/>
</svg>
