<svg width="20" height="20" viewBox="0 0 20 20" fill="none" xmlns="http://www.w3.org/2000/svg">
<path d="M11.8751 2.18752C11.2591 2.18587 10.6488 2.30631 10.0796 2.54189C9.51043 2.77747 8.99355 3.12351 8.55886 3.56002L2.81511 9.30502C2.63891 9.48089 2.53979 9.71955 2.53955 9.96851C2.53932 10.2175 2.63799 10.4563 2.81386 10.6325C2.98973 10.8087 3.2284 10.9078 3.47735 10.9081C3.72631 10.9083 3.96516 10.8096 4.14136 10.6338L9.88761 4.88627C10.4222 4.39483 11.1259 4.12897 11.8519 4.14422C12.5779 4.15947 13.2698 4.45465 13.7833 4.96809C14.2967 5.48154 14.5919 6.17352 14.6072 6.89948C14.6224 7.62544 14.3565 8.32922 13.8651 8.86377L7.23636 15.4925C7.05864 15.6581 6.82358 15.7483 6.58071 15.744C6.33783 15.7397 6.1061 15.6413 5.93433 15.4695C5.76257 15.2978 5.66418 15.066 5.65989 14.8232C5.65561 14.5803 5.74576 14.3452 5.91136 14.1675L12.5401 7.53877C12.7163 7.36273 12.8154 7.12391 12.8155 6.87483C12.8156 6.62576 12.7168 6.38685 12.5407 6.21064C12.3647 6.03444 12.1259 5.93538 11.8768 5.93527C11.6277 5.93515 11.3888 6.03398 11.2126 6.21002L4.58261 12.8413C4.09118 13.3758 3.82531 14.0796 3.84056 14.8055C3.85581 15.5315 4.15099 16.2235 4.66444 16.7369C5.17788 17.2504 5.86987 17.5456 6.59583 17.5608C7.32179 17.5761 8.02556 17.3102 8.56011 16.8188L15.1889 10.19C15.6257 9.75575 15.972 9.23915 16.2078 8.67013C16.4436 8.10111 16.5642 7.49096 16.5626 6.87502C16.5613 5.63222 16.067 4.44071 15.1882 3.56192C14.3094 2.68313 13.1179 2.18884 11.8751 2.18752Z" fill="#969696"/>
</svg>
