<svg width="17" height="17" viewBox="0 0 17 17" fill="none" xmlns="http://www.w3.org/2000/svg">
<g clip-path="url(#clip0_30_3498)">
<path d="M7.4375 4.25V5.3125H4.25V4.25H7.4375ZM4.25 7.4375V6.375H7.4375V7.4375H4.25ZM4.25 9.5625V8.5H6.375V9.5625H4.25ZM3.1875 4.25V5.3125H2.125V4.25H3.1875ZM3.1875 6.375V7.4375H2.125V6.375H3.1875ZM2.125 9.5625V8.5H3.1875V9.5625H2.125ZM1.0625 1.0625V15.9375H6.375V17H0V0H9.25537L13.8125 4.55713V6.375H12.75V5.3125H8.5V1.0625H1.0625ZM9.5625 1.81787V4.25H11.9946L9.5625 1.81787ZM14.875 8.5H17V17H7.4375V8.5H9.5625V7.4375H10.625V8.5H13.8125V7.4375H14.875V8.5ZM15.9375 15.9375V11.6875H8.5V15.9375H15.9375ZM15.9375 10.625V9.5625H8.5V10.625H15.9375Z" fill="#111111"/>
</g>
<defs>
<clipPath id="clip0_30_3498">
<rect width="17" height="17" fill="white"/>
</clipPath>
</defs>
</svg>
