<svg width="39" height="39" viewBox="0 0 39 39" fill="none" xmlns="http://www.w3.org/2000/svg">
<path d="M29.25 4.875C29.648 4.87505 30.0322 5.02118 30.3296 5.28566C30.627 5.55015 30.8171 5.91459 30.8636 6.30987L30.875 6.5V32.5C30.8745 32.9142 30.7159 33.3126 30.4316 33.6137C30.1473 33.9149 29.7587 34.0961 29.3452 34.1204C28.9318 34.1447 28.5246 34.0102 28.207 33.7443C27.8894 33.4785 27.6853 33.1014 27.6364 32.6901L27.625 32.5V24.375H26C25.602 24.3749 25.2178 24.2288 24.9204 23.9643C24.623 23.6999 24.4329 23.3354 24.3864 22.9401L24.375 22.75V13C24.375 9.40875 26.8125 4.875 29.25 4.875ZM19.5 4.875C19.898 4.87505 20.2822 5.02118 20.5796 5.28566C20.877 5.55015 21.0671 5.91459 21.1136 6.30987L21.125 6.5V14.625C21.1248 16.0662 20.6459 17.4664 19.7635 18.6059C18.8811 19.7453 17.6453 20.5594 16.25 20.9202V32.5C16.2495 32.9142 16.0909 33.3126 15.8066 33.6137C15.5223 33.9149 15.1337 34.0961 14.7202 34.1204C14.3068 34.1447 13.8996 34.0102 13.582 33.7443C13.2644 33.4785 13.0603 33.1014 13.0114 32.6901L13 32.5V20.9202C11.6601 20.5739 10.4657 19.8091 9.59037 18.7371C8.71507 17.6651 8.20458 16.3418 8.13313 14.9598L8.125 14.625V6.5C8.12546 6.08582 8.28405 5.68745 8.56838 5.38628C8.8527 5.08511 9.2413 4.90387 9.65477 4.8796C10.0682 4.85532 10.4754 4.98985 10.793 5.25568C11.1106 5.52151 11.3147 5.89859 11.3636 6.30987L11.375 6.5V14.625C11.375 15.1955 11.5252 15.7559 11.8104 16.25C12.0957 16.744 12.5059 17.1543 13 17.4395V6.5C13.0005 6.08582 13.1591 5.68745 13.4434 5.38628C13.7277 5.08511 14.1163 4.90387 14.5298 4.8796C14.9432 4.85532 15.3504 4.98985 15.668 5.25568C15.9856 5.52151 16.1897 5.89859 16.2386 6.30987L16.25 6.5L16.2516 17.4395C16.7051 17.1774 17.0885 16.8095 17.3692 16.3673C17.6499 15.9251 17.8195 15.4215 17.8636 14.8996L17.875 14.625V6.5C17.875 6.06902 18.0462 5.6557 18.351 5.35095C18.6557 5.0462 19.069 4.875 19.5 4.875Z" fill="#111111"/>
</svg>
