<svg width="23" height="23" viewBox="0 0 23 23" fill="none" xmlns="http://www.w3.org/2000/svg">
<g clip-path="url(#clip0_30_3489)">
<path fill-rule="evenodd" clip-rule="evenodd" d="M15.3332 8.62502C15.3332 9.64168 14.9293 10.6167 14.2104 11.3356C13.4915 12.0545 12.5165 12.4584 11.4998 12.4584C10.4832 12.4584 9.50815 12.0545 8.78926 11.3356C8.07037 10.6167 7.6665 9.64168 7.6665 8.62502C7.6665 7.60836 8.07037 6.63333 8.78926 5.91444C9.50815 5.19555 10.4832 4.79169 11.4998 4.79169C12.5165 4.79169 13.4915 5.19555 14.2104 5.91444C14.9293 6.63333 15.3332 7.60836 15.3332 8.62502ZM13.4165 8.62502C13.4165 9.13335 13.2146 9.62086 12.8551 9.98031C12.4957 10.3398 12.0082 10.5417 11.4998 10.5417C10.9915 10.5417 10.504 10.3398 10.1445 9.98031C9.7851 9.62086 9.58317 9.13335 9.58317 8.62502C9.58317 8.11669 9.7851 7.62918 10.1445 7.26973C10.504 6.91029 10.9915 6.70835 11.4998 6.70835C12.0082 6.70835 12.4957 6.91029 12.8551 7.26973C13.2146 7.62918 13.4165 8.11669 13.4165 8.62502Z" fill="#111111"/>
<path fill-rule="evenodd" clip-rule="evenodd" d="M11.4999 0.958344C5.67804 0.958344 0.958252 5.67813 0.958252 11.5C0.958252 17.3219 5.67804 22.0417 11.4999 22.0417C17.3218 22.0417 22.0416 17.3219 22.0416 11.5C22.0416 5.67813 17.3218 0.958344 11.4999 0.958344ZM2.87492 11.5C2.87492 13.5029 3.55821 15.3468 4.70342 16.8111C5.50768 15.7549 6.54524 14.899 7.73504 14.3101C8.92484 13.7213 10.2347 13.4155 11.5622 13.4167C12.8726 13.4154 14.1659 13.7133 15.3437 14.2876C16.5215 14.8619 17.5527 15.6974 18.3587 16.7306C19.1891 15.6415 19.7481 14.3704 19.9897 13.0224C20.2312 11.6744 20.1483 10.2882 19.7478 8.97862C19.3473 7.66901 18.6407 6.4736 17.6864 5.4913C16.7322 4.50899 15.5577 3.76804 14.2603 3.32975C12.9628 2.89145 11.5796 2.76842 10.2252 2.97082C8.87075 3.17322 7.58397 3.69524 6.47132 4.49369C5.35868 5.29213 4.45215 6.34405 3.82676 7.56241C3.20137 8.78076 2.87509 10.1305 2.87492 11.5ZM11.4999 20.125C9.51995 20.128 7.59976 19.4468 6.06425 18.1968C6.68231 17.312 7.50495 16.5896 8.46219 16.0911C9.41942 15.5925 10.4829 15.3326 11.5622 15.3333C12.628 15.3325 13.6787 15.5859 14.6269 16.0726C15.5751 16.5593 16.3935 17.2652 17.0142 18.1317C15.4667 19.4223 13.5149 20.1278 11.4999 20.125Z" fill="#111111"/>
</g>
<defs>
<clipPath id="clip0_30_3489">
<rect width="23" height="23" fill="white"/>
</clipPath>
</defs>
</svg>
