<svg width="15" height="19" viewBox="0 0 15 19" fill="none" xmlns="http://www.w3.org/2000/svg">
<path d="M10.375 6.66126C10.375 5.67251 11.6912 5.41001 12.04 6.33626C12.885 8.57376 13.5 10.5788 13.5 11.6613C13.5 13.3189 12.8415 14.9086 11.6694 16.0807C10.4973 17.2528 8.9076 17.9113 7.25 17.9113C5.5924 17.9113 4.00269 17.2528 2.83058 16.0807C1.65848 14.9086 1 13.3189 1 11.6613C1 10.4988 1.71 8.27251 2.6525 5.83251C3.87125 2.67251 4.48125 1.09251 5.235 1.00751C5.475 0.980014 5.73875 1.02876 5.95375 1.14126C6.625 1.49126 6.625 3.21501 6.625 6.66126C6.625 7.15854 6.82254 7.63546 7.17417 7.98709C7.52581 8.33872 8.00272 8.53626 8.5 8.53626C8.99728 8.53626 9.47419 8.33872 9.82583 7.98709C10.1775 7.63546 10.375 7.15854 10.375 6.66126Z" stroke="#111111" stroke-width="1.5"/>
<path d="M5.99997 17.9111L5.67122 17.0899C5.39147 16.3905 5.30227 15.6295 5.41273 14.8843C5.52319 14.1392 5.82935 13.4368 6.29997 12.8486C6.41391 12.7061 6.55846 12.5911 6.72291 12.512C6.88736 12.4329 7.06749 12.3918 7.24997 12.3918C7.43244 12.3918 7.61258 12.4329 7.77703 12.512C7.94148 12.5911 8.08603 12.7061 8.19997 12.8486C9.15747 14.0461 9.39747 15.6661 8.82872 17.0899L8.49997 17.9111" stroke="#111111" stroke-width="1.5"/>
</svg>
