<svg width="45" height="37" viewBox="0 0 45 37" fill="none" xmlns="http://www.w3.org/2000/svg">
<mask id="mask0_16_18" style="mask-type:luminance" maskUnits="userSpaceOnUse" x="12" y="4" width="30" height="30">
<path d="M27.1345 6.53144L14.8136 18.803C11.5246 22.0788 11.5246 27.3899 14.8136 30.6657L14.8136 30.6657C18.1026 33.9414 23.4351 33.9414 26.724 30.6657L39.045 18.3941C42.3339 15.1183 42.3339 9.80724 39.0449 6.53144C35.756 3.25565 30.4235 3.25565 27.1345 6.53144Z" fill="white"/>
</mask>
<g mask="url(#mask0_16_18)">
<mask id="mask1_16_18" style="mask-type:luminance" maskUnits="userSpaceOnUse" x="10" y="2" width="33" height="33">
<path d="M42.9836 2.60855H10.8793V34.5886H42.9836V2.60855Z" fill="white"/>
</mask>
<g mask="url(#mask1_16_18)">
<path d="M31.7188 2.09078L17.3068 16.5028C14.193 19.6166 14.046 24.6177 16.9716 27.909C20.1507 31.4855 25.6847 31.6481 29.0684 28.2644L43.5924 13.7404C44.3537 12.9791 44.3537 11.7446 43.5924 10.9833L34.6999 2.09078C33.8767 1.26758 32.542 1.26758 31.7188 2.09078Z" fill="url(#paint0_linear_16_18)"/>
</g>
</g>
<path d="M23.8623 15.9888L14.3772 6.54168C11.0882 3.26589 5.7557 3.26589 2.46673 6.54168C-0.822242 9.81746 -0.822242 15.1286 2.46673 18.4044L14.7876 30.6759C18.0766 33.9517 23.4091 33.9517 26.698 30.6759L35.969 21.4576C32.8964 24.5179 23.8811 16.0065 23.8623 15.9888Z" fill="#4CDB06"/>
<defs>
<linearGradient id="paint0_linear_16_18" x1="38.7442" y1="6.13512" x2="17.9884" y2="31.042" gradientUnits="userSpaceOnUse">
<stop offset="0.0617752" stop-color="#53F007"/>
<stop offset="0.333333" stop-color="#44C404"/>
<stop offset="0.880208" stop-color="#1A4B00"/>
</linearGradient>
</defs>
</svg>
