<svg width="134" height="38" viewBox="0 0 134 38" fill="none" xmlns="http://www.w3.org/2000/svg">
<g clip-path="url(#clip0_9_7)">
<path d="M77.6318 10.875C79.5911 10.875 83 12.5176 83 14.5C83 16.5391 79.5911 18.125 77.6318 18.125H70.9516L65.1938 28.0881C64.8672 28.6545 64.2599 29 63.601 29H60.3813C59.774 29 59.3328 28.4223 59.499 27.8445L62.3063 18.125H56.4167L53.9417 21.3875C53.7698 21.6141 53.4948 21.75 53.2083 21.75H50.8021C50.3552 21.75 50 21.3932 50 20.957C50 20.8834 50.0115 20.8098 50.0286 20.7361L51.8333 14.5L50.0286 8.26387C50.0057 8.19023 50 8.1166 50 8.04297C50 7.60117 50.3609 7.25 50.8021 7.25H53.2083C53.4948 7.25 53.7698 7.38594 53.9417 7.6125L56.4167 10.875H62.312L59.5047 1.15547C59.3328 0.577734 59.774 0 60.3813 0H63.601C64.2599 0 64.8672 0.351172 65.1938 0.911914L70.9516 10.875H77.6318Z" fill="#111111"/>
</g>
<path d="M1 37C21.9136 20.3983 77.5926 -2.84412 133 37" stroke="black" stroke-dasharray="2 2"/>
<defs>
<clipPath id="clip0_9_7">
<rect width="33" height="29" fill="white" transform="translate(50)"/>
</clipPath>
</defs>
</svg>
