<svg width="14" height="12" viewBox="0 0 14 12" fill="none" xmlns="http://www.w3.org/2000/svg">
<path d="M10.0286 0.5C7.99983 0.5 6.99983 2.5 6.99983 2.5C6.99983 2.5 5.99983 0.5 3.97108 0.5C2.32233 0.5 1.01671 1.87938 0.999831 3.52531C0.965456 6.94188 3.71014 9.37156 6.71858 11.4134C6.80152 11.4699 6.89952 11.5 6.99983 11.5C7.10015 11.5 7.19814 11.4699 7.28108 11.4134C10.2892 9.37156 13.0339 6.94188 12.9998 3.52531C12.983 1.87938 11.6773 0.5 10.0286 0.5Z" stroke="#111111" stroke-width="0.875" stroke-linecap="round" stroke-linejoin="round"/>
<path d="M0.5 6H4L5.5 3L7 8L8.5 5L9.5 7H13.5" stroke="#111111" stroke-width="0.875" stroke-linecap="round" stroke-linejoin="round"/>
</svg>
