<svg width="394" height="92" viewBox="0 0 394 92" fill="none" xmlns="http://www.w3.org/2000/svg">
<rect width="394" height="92" rx="14" fill="url(#paint0_linear_9_23)"/>
<path d="M31.086 40.08V53H27.875V46.521L25.006 50.948V50.967H23.22V50.948L20.332 46.483L20.351 53H17.14V40.08H19.534L24.113 46.977L28.692 40.08H31.086ZM39.9498 43.785H43.1988L37.4608 57.389H34.2308L36.1498 52.81L31.6468 43.785H34.9148L37.5368 49.504L39.9498 43.785ZM61.5336 40.08H64.9346L60.6976 53.076H57.6576L55.0546 45.153L52.4516 53.076H49.4116L45.1746 40.08H48.5756L50.9886 48.098L53.7246 40.08H56.3846L59.1206 48.098L61.5336 40.08ZM70.5123 43.785H73.5903V53H70.5123V52.506C69.8283 52.962 69.0113 53.247 67.9853 53.247C65.4963 53.247 63.4063 51.119 63.4063 48.383C63.4063 45.628 65.4963 43.538 67.9853 43.538C69.0113 43.538 69.8283 43.804 70.5123 44.26V43.785ZM68.6123 50.625C69.2773 50.625 69.9233 50.454 70.5123 49.808V46.958C69.9233 46.312 69.2773 46.141 68.6123 46.141C67.3583 46.141 66.4273 47.11 66.4273 48.383C66.4273 49.656 67.3583 50.625 68.6123 50.625ZM74.9208 39.51H78.0178V53H74.9208V39.51ZM79.3561 39.51H82.4531V53H79.3561V39.51ZM88.1062 43.538C91.3552 43.538 93.3122 45.856 92.8562 49.124H86.1872C86.3962 50.074 87.0232 50.815 88.2772 50.815C88.9612 50.815 89.3602 50.663 89.6452 50.321H92.7612C92.2102 52.126 90.5002 53.247 88.3342 53.247C85.3132 53.247 83.2992 51.195 83.2992 48.383C83.2992 45.59 85.2562 43.538 88.1062 43.538ZM88.1822 45.818C87.0992 45.818 86.4722 46.426 86.2252 47.357H90.0632C89.8922 46.293 89.2272 45.818 88.1822 45.818ZM100.898 50.036L101.24 52.791C100.29 53.19 99.3018 53.247 98.7698 53.247C96.2618 53.247 94.7418 51.613 94.7418 49.124V46.426H92.9368V43.785H94.7418V40.65H97.8198V43.785H100.955V46.426H97.8198V49.029C97.8198 49.979 98.3708 50.416 99.2638 50.416C99.8528 50.416 100.347 50.245 100.898 50.036Z" fill="#4CDB06"/>
<g clip-path="url(#clip0_9_23)">
<path d="M346.667 56.8334L357.5 46L346.667 35.1667" stroke="#4CDB06" stroke-width="2.5" stroke-linecap="round" stroke-linejoin="round"/>
</g>
<defs>
<linearGradient id="paint0_linear_9_23" x1="11" y1="4.50001" x2="383.5" y2="80" gradientUnits="userSpaceOnUse">
<stop stop-color="white"/>
<stop offset="1" stop-color="#DEDEDE"/>
</linearGradient>
<clipPath id="clip0_9_23">
<rect width="52" height="52" fill="white" transform="translate(377 20) rotate(90)"/>
</clipPath>
</defs>
</svg>
