<svg width="42" height="42" viewBox="0 0 42 42" fill="none" xmlns="http://www.w3.org/2000/svg">
<g filter="url(#filter0_d_2_10)">
<circle cx="21" cy="21" r="17" fill="white"/>
</g>
<path d="M16.125 19.5497V27.41C16.125 27.5133 16.209 27.5971 16.3125 27.5971H25.6875C25.7372 27.5971 25.7849 27.5774 25.8201 27.5423C25.8552 27.5072 25.875 27.4596 25.875 27.41V19.5497C25.875 19.5001 25.8552 19.4525 25.8201 19.4174C25.7849 19.3823 25.7372 19.3626 25.6875 19.3626H23.8125C23.6633 19.3626 23.5202 19.3034 23.4148 19.1981C23.3093 19.0928 23.25 18.95 23.25 18.8011C23.25 18.6522 23.3093 18.5094 23.4148 18.4041C23.5202 18.2988 23.6633 18.2397 23.8125 18.2397H25.6875C26.412 18.2397 27 18.8266 27 19.5497V27.41C27 27.7574 26.8617 28.0906 26.6156 28.3363C26.3694 28.582 26.0356 28.72 25.6875 28.72H16.3125C15.9644 28.72 15.6306 28.582 15.3844 28.3363C15.1383 28.0906 15 27.7574 15 27.41V19.5497C15 18.8266 15.588 18.2397 16.3125 18.2397H18.1875C18.3367 18.2397 18.4798 18.2988 18.5852 18.4041C18.6907 18.5094 18.75 18.6522 18.75 18.8011C18.75 18.95 18.6907 19.0928 18.5852 19.1981C18.4798 19.3034 18.3367 19.3626 18.1875 19.3626H16.3125C16.2628 19.3626 16.2151 19.3823 16.1799 19.4174C16.1448 19.4525 16.125 19.5001 16.125 19.5497ZM21.3975 13.1642L23.835 15.5971C23.909 15.6658 23.9632 15.753 23.9917 15.8498C24.0202 15.9466 24.022 16.0492 23.997 16.1469C23.972 16.2446 23.921 16.3338 23.8495 16.405C23.7779 16.4762 23.6885 16.5269 23.5905 16.5516C23.4927 16.5766 23.39 16.5749 23.2931 16.5465C23.1962 16.5182 23.1088 16.4644 23.04 16.3906L21.5625 14.9159V22.9184C21.5625 23.0673 21.5032 23.2101 21.3977 23.3154C21.2923 23.4207 21.1492 23.4798 21 23.4798C20.8508 23.4798 20.7077 23.4207 20.6023 23.3154C20.4968 23.2101 20.4375 23.0673 20.4375 22.9184V14.9159L18.96 16.3906C18.8533 16.4898 18.7123 16.5437 18.5665 16.5412C18.4208 16.5387 18.2817 16.4799 18.1785 16.3772C18.0756 16.2742 18.0167 16.1353 18.0141 15.9899C18.0116 15.8444 18.0657 15.7036 18.165 15.5971L20.6025 13.1642C20.708 13.0591 20.8509 13 21 13C21.1491 13 21.292 13.0591 21.3975 13.1642Z" fill="#656565"/>
<g filter="url(#filter1_d_2_10)">
<circle cx="21" cy="21" r="17" fill="white"/>
</g>
<path d="M16.125 19.5497V27.41C16.125 27.5133 16.209 27.5971 16.3125 27.5971H25.6875C25.7372 27.5971 25.7849 27.5774 25.8201 27.5423C25.8552 27.5072 25.875 27.4596 25.875 27.41V19.5497C25.875 19.5001 25.8552 19.4525 25.8201 19.4174C25.7849 19.3823 25.7372 19.3626 25.6875 19.3626H23.8125C23.6633 19.3626 23.5202 19.3034 23.4148 19.1981C23.3093 19.0928 23.25 18.95 23.25 18.8011C23.25 18.6522 23.3093 18.5094 23.4148 18.4041C23.5202 18.2988 23.6633 18.2397 23.8125 18.2397H25.6875C26.412 18.2397 27 18.8266 27 19.5497V27.41C27 27.7574 26.8617 28.0906 26.6156 28.3363C26.3694 28.582 26.0356 28.72 25.6875 28.72H16.3125C15.9644 28.72 15.6306 28.582 15.3844 28.3363C15.1383 28.0906 15 27.7574 15 27.41V19.5497C15 18.8266 15.588 18.2397 16.3125 18.2397H18.1875C18.3367 18.2397 18.4798 18.2988 18.5852 18.4041C18.6907 18.5094 18.75 18.6522 18.75 18.8011C18.75 18.95 18.6907 19.0928 18.5852 19.1981C18.4798 19.3034 18.3367 19.3626 18.1875 19.3626H16.3125C16.2628 19.3626 16.2151 19.3823 16.1799 19.4174C16.1448 19.4525 16.125 19.5001 16.125 19.5497ZM21.3975 13.1642L23.835 15.5971C23.909 15.6658 23.9632 15.753 23.9917 15.8498C24.0202 15.9466 24.022 16.0492 23.997 16.1469C23.972 16.2446 23.921 16.3338 23.8495 16.405C23.7779 16.4762 23.6885 16.5269 23.5905 16.5516C23.4927 16.5766 23.39 16.5749 23.2931 16.5465C23.1962 16.5182 23.1088 16.4644 23.04 16.3906L21.5625 14.9159V22.9184C21.5625 23.0673 21.5032 23.2101 21.3977 23.3154C21.2923 23.4207 21.1492 23.4798 21 23.4798C20.8508 23.4798 20.7077 23.4207 20.6023 23.3154C20.4968 23.2101 20.4375 23.0673 20.4375 22.9184V14.9159L18.96 16.3906C18.8533 16.4898 18.7123 16.5437 18.5665 16.5412C18.4208 16.5387 18.2817 16.4799 18.1785 16.3772C18.0756 16.2742 18.0167 16.1353 18.0141 15.9899C18.0116 15.8444 18.0657 15.7036 18.165 15.5971L20.6025 13.1642C20.708 13.0591 20.8509 13 21 13C21.1491 13 21.292 13.0591 21.3975 13.1642Z" fill="#656565"/>
<defs>
<filter id="filter0_d_2_10" x="0" y="0" width="42" height="42" filterUnits="userSpaceOnUse" color-interpolation-filters="sRGB">
<feFlood flood-opacity="0" result="BackgroundImageFix"/>
<feColorMatrix in="SourceAlpha" type="matrix" values="0 0 0 0 0 0 0 0 0 0 0 0 0 0 0 0 0 0 127 0" result="hardAlpha"/>
<feOffset/>
<feGaussianBlur stdDeviation="2"/>
<feComposite in2="hardAlpha" operator="out"/>
<feColorMatrix type="matrix" values="0 0 0 0 0 0 0 0 0 0 0 0 0 0 0 0 0 0 0.45 0"/>
<feBlend mode="normal" in2="BackgroundImageFix" result="effect1_dropShadow_2_10"/>
<feBlend mode="normal" in="SourceGraphic" in2="effect1_dropShadow_2_10" result="shape"/>
</filter>
<filter id="filter1_d_2_10" x="0" y="0" width="42" height="42" filterUnits="userSpaceOnUse" color-interpolation-filters="sRGB">
<feFlood flood-opacity="0" result="BackgroundImageFix"/>
<feColorMatrix in="SourceAlpha" type="matrix" values="0 0 0 0 0 0 0 0 0 0 0 0 0 0 0 0 0 0 127 0" result="hardAlpha"/>
<feOffset/>
<feGaussianBlur stdDeviation="2"/>
<feComposite in2="hardAlpha" operator="out"/>
<feColorMatrix type="matrix" values="0 0 0 0 0 0 0 0 0 0 0 0 0 0 0 0 0 0 0.45 0"/>
<feBlend mode="normal" in2="BackgroundImageFix" result="effect1_dropShadow_2_10"/>
<feBlend mode="normal" in="SourceGraphic" in2="effect1_dropShadow_2_10" result="shape"/>
</filter>
</defs>
</svg>
