<svg width="42" height="42" viewBox="0 0 42 42" fill="none" xmlns="http://www.w3.org/2000/svg">
<g filter="url(#filter0_d_3_14)">
<circle cx="21" cy="21" r="17" fill="white"/>
</g>
<path d="M21 30.49L19.84 29.3926C18.4933 28.1123 17.38 27.0079 16.5 26.0794C15.62 25.1508 14.92 24.3171 14.4 23.5782C13.88 22.8398 13.5168 22.1611 13.3104 21.5421C13.104 20.9231 13.0005 20.29 13 19.6428C13 18.3203 13.42 17.2159 14.26 16.3295C15.1 15.4432 16.1467 15 17.4 15C18.0933 15 18.7533 15.1548 19.38 15.4643C20.0067 15.7738 20.5467 16.2099 21 16.7727C21.4533 16.2099 21.9933 15.7738 22.62 15.4643C23.2467 15.1548 23.9067 15 24.6 15C25.8533 15 26.9 15.4432 27.74 16.3295C28.58 17.2159 29 18.3203 29 19.6428C29 20.29 28.8968 20.9231 28.6904 21.5421C28.484 22.1611 28.1205 22.8398 27.6 23.5782C27.08 24.3171 26.38 25.1508 25.5 26.0794C24.62 27.0079 23.5067 28.1123 22.16 29.3926L21 30.49ZM21 28.2108C22.28 27.0009 23.3333 25.9634 24.16 25.0985C24.9867 24.2335 25.64 23.4808 26.12 22.8404C26.6 22.2 26.9333 21.6299 27.12 21.1302C27.3067 20.6304 27.4 20.1346 27.4 19.6428C27.4 18.7986 27.1333 18.0952 26.6 17.5324C26.0667 16.9697 25.4 16.6883 24.6 16.6883C23.9733 16.6883 23.3933 16.8746 22.86 17.2471C22.3267 17.6197 21.96 18.0946 21.76 18.672H20.24C20.04 18.0952 19.6733 17.6205 19.14 17.2479C18.6067 16.8754 18.0267 16.6888 17.4 16.6883C16.6 16.6883 15.9333 16.9697 15.4 17.5324C14.8667 18.0952 14.6 18.7986 14.6 19.6428C14.6 20.1352 14.6933 20.6313 14.88 21.131C15.0667 21.6307 15.4 22.2005 15.88 22.8404C16.36 23.4802 17.0133 24.2329 17.84 25.0985C18.6667 25.964 19.72 27.0014 21 28.2108Z" fill="#656565"/>
<defs>
<filter id="filter0_d_3_14" x="0" y="0" width="42" height="42" filterUnits="userSpaceOnUse" color-interpolation-filters="sRGB">
<feFlood flood-opacity="0" result="BackgroundImageFix"/>
<feColorMatrix in="SourceAlpha" type="matrix" values="0 0 0 0 0 0 0 0 0 0 0 0 0 0 0 0 0 0 127 0" result="hardAlpha"/>
<feOffset/>
<feGaussianBlur stdDeviation="2"/>
<feComposite in2="hardAlpha" operator="out"/>
<feColorMatrix type="matrix" values="0 0 0 0 0 0 0 0 0 0 0 0 0 0 0 0 0 0 0.45 0"/>
<feBlend mode="normal" in2="BackgroundImageFix" result="effect1_dropShadow_3_14"/>
<feBlend mode="normal" in="SourceGraphic" in2="effect1_dropShadow_3_14" result="shape"/>
</filter>
</defs>
</svg>
