<svg width="394" height="92" viewBox="0 0 394 92" fill="none" xmlns="http://www.w3.org/2000/svg">
<rect width="394" height="92" rx="14" fill="url(#paint0_linear_9_24)"/>
<path d="M25.918 46.35C27.495 46.692 28.274 48.022 28.274 49.409C28.274 51.556 26.545 53 23.638 53H17.14V40.08H23.258C26.07 40.08 27.704 41.41 27.704 43.519C27.704 44.716 27.039 45.951 25.918 46.35ZM22.764 42.702H20.351V45.4H22.764C23.98 45.4 24.645 44.792 24.645 43.956C24.645 43.139 23.999 42.702 22.764 42.702ZM23.22 50.34C24.55 50.34 25.139 49.751 25.139 48.991C25.139 48.193 24.474 47.737 23.277 47.737H20.351V50.34H23.22ZM35.683 43.785H38.761V53H35.683V52.506C34.999 52.962 34.182 53.247 33.156 53.247C30.667 53.247 28.577 51.119 28.577 48.383C28.577 45.628 30.667 43.538 33.156 43.538C34.182 43.538 34.999 43.804 35.683 44.26V43.785ZM33.783 50.625C34.448 50.625 35.094 50.454 35.683 49.808V46.958C35.094 46.312 34.448 46.141 33.783 46.141C32.529 46.141 31.598 47.11 31.598 48.383C31.598 49.656 32.529 50.625 33.783 50.625ZM45.7154 43.538C48.0334 43.538 49.6294 45.115 49.6294 47.737V53H46.5514V48.231C46.5514 46.92 45.8864 46.331 44.8604 46.331C44.3094 46.331 43.7204 46.616 43.1884 47.205V53H40.0914V43.785H43.1884V44.393C43.9294 43.842 44.7274 43.538 45.7154 43.538ZM57.4279 53L55.2239 49.808L53.9509 51.176V53H50.8539V39.51H53.9509V47.224L57.1429 43.785H60.8099L57.3139 47.547L61.1139 53H57.4279ZM75.8797 40.08V42.949H71.7567V53H68.5647V42.949H64.4417V40.08H75.8797ZM81.4142 43.633V46.559C79.9132 46.616 78.9632 47.015 78.2412 47.718V53H75.1442V43.785H78.2412V44.773C79.0582 44.07 80.0462 43.633 81.4142 43.633ZM88.5868 43.785H91.6648V53H88.5868V52.506C87.9028 52.962 87.0858 53.247 86.0598 53.247C83.5708 53.247 81.4808 51.119 81.4808 48.383C81.4808 45.628 83.5708 43.538 86.0598 43.538C87.0858 43.538 87.9028 43.804 88.5868 44.26V43.785ZM86.6868 50.625C87.3518 50.625 87.9978 50.454 88.5868 49.808V46.958C87.9978 46.312 87.3518 46.141 86.6868 46.141C85.4328 46.141 84.5018 47.11 84.5018 48.383C84.5018 49.656 85.4328 50.625 86.6868 50.625ZM98.6193 43.538C100.937 43.538 102.533 45.115 102.533 47.737V53H99.4553V48.231C99.4553 46.92 98.7903 46.331 97.7643 46.331C97.2133 46.331 96.6243 46.616 96.0923 47.205V53H92.9953V43.785H96.0923V44.393C96.8333 43.842 97.6313 43.538 98.6193 43.538ZM105.867 49.846C106 50.644 106.722 50.986 107.691 50.986C108.508 50.986 109.021 50.758 109.021 50.359C109.021 50.036 108.66 49.808 108.052 49.713L106.19 49.39C104.613 49.124 103.492 48.231 103.492 46.616C103.492 44.678 105.145 43.538 107.596 43.538C109.781 43.538 111.757 44.279 111.89 46.711H109.173C109.116 46.027 108.451 45.723 107.596 45.723C106.798 45.723 106.437 46.008 106.437 46.35C106.437 46.673 106.665 46.958 107.406 47.091L109.116 47.376C110.826 47.699 111.985 48.535 111.985 50.169C111.985 52.297 110.085 53.247 107.672 53.247C105.297 53.247 103.34 52.278 103.131 49.827L105.867 49.846ZM117.257 43.253V43.785H120.506V46.426H117.257V53H114.179V46.426H111.918V43.785H114.179V43.253C114.179 40.574 115.984 39.092 118.34 39.092C119.081 39.092 119.727 39.206 120.677 39.453L120.259 42.018C119.803 41.866 119.252 41.733 118.853 41.733C117.865 41.733 117.257 42.322 117.257 43.253ZM125.126 43.538C128.375 43.538 130.332 45.856 129.876 49.124H123.207C123.416 50.074 124.043 50.815 125.297 50.815C125.981 50.815 126.38 50.663 126.665 50.321H129.781C129.23 52.126 127.52 53.247 125.354 53.247C122.333 53.247 120.319 51.195 120.319 48.383C120.319 45.59 122.276 43.538 125.126 43.538ZM125.202 45.818C124.119 45.818 123.492 46.426 123.245 47.357H127.083C126.912 46.293 126.247 45.818 125.202 45.818ZM136.99 43.633V46.559C135.489 46.616 134.539 47.015 133.817 47.718V53H130.72V43.785H133.817V44.773C134.634 44.07 135.622 43.633 136.99 43.633Z" fill="#4CDB06"/>
<g clip-path="url(#clip0_9_24)">
<path d="M346.667 56.8334L357.5 46L346.667 35.1667" stroke="white" stroke-width="2.5" stroke-linecap="round" stroke-linejoin="round"/>
</g>
<defs>
<linearGradient id="paint0_linear_9_24" x1="11" y1="4.50001" x2="383.5" y2="80" gradientUnits="userSpaceOnUse">
<stop stop-color="#292929"/>
<stop offset="1"/>
</linearGradient>
<clipPath id="clip0_9_24">
<rect width="52" height="52" fill="white" transform="translate(377 20) rotate(90)"/>
</clipPath>
</defs>
</svg>
