<svg width="22" height="22" viewBox="0 0 22 22" fill="none" xmlns="http://www.w3.org/2000/svg">
<path d="M1.98278 15.9128C1.03185 12.1091 0.556385 10.2084 1.55497 8.92938C2.55245 7.65039 4.51416 7.65039 8.43426 7.65039H13.5657C17.4869 7.65039 19.4464 7.65039 20.445 8.92938C21.4436 10.2073 20.9681 12.1102 20.0172 15.9128C19.4121 18.3323 19.1106 19.5415 18.2085 20.2463C17.3063 20.9501 16.0594 20.9501 13.5657 20.9501H8.43426C5.94056 20.9501 4.69371 20.9501 3.79154 20.2463C2.88938 19.5415 2.58681 18.3323 1.98278 15.9128Z" stroke="white" stroke-width="1.5"/>
<path d="M19.3122 8.20362L18.5253 5.31647C18.2216 4.20262 18.0697 3.64625 17.7583 3.2262C17.4478 2.80888 17.0261 2.4874 16.5414 2.29854C16.0537 2.10791 15.4774 2.10791 14.3248 2.10791M2.6875 8.20362L3.4744 5.31647C3.77808 4.20262 3.92992 3.64625 4.24135 3.2262C4.55188 2.80888 4.9736 2.4874 5.45828 2.29854C5.94593 2.10791 6.52226 2.10791 7.6749 2.10791" stroke="white" stroke-width="1.5"/>
<path d="M7.67505 2.10831C7.67505 1.81437 7.79182 1.53247 7.99967 1.32462C8.20751 1.11677 8.48942 1 8.78336 1H13.2166C13.5105 1 13.7924 1.11677 14.0003 1.32462C14.2081 1.53247 14.3249 1.81437 14.3249 2.10831C14.3249 2.40225 14.2081 2.68416 14.0003 2.89201C13.7924 3.09985 13.5105 3.21662 13.2166 3.21662H8.78336C8.48942 3.21662 8.20751 3.09985 7.99967 2.89201C7.79182 2.68416 7.67505 2.40225 7.67505 2.10831Z" stroke="white" stroke-width="1.5"/>
</svg>
