<svg width="53" height="53" viewBox="0 0 53 53" fill="none" xmlns="http://www.w3.org/2000/svg">
<path d="M19.875 46.3751V35.3334C17.5931 35.1494 15.3567 34.8918 13.1661 34.5605C10.9754 34.2292 8.79506 33.7508 6.625 33.1251L7.72917 28.7084C10.784 29.5549 13.8757 30.135 17.0042 30.4486C20.1326 30.7622 23.2979 30.9182 26.5 30.9168C29.6653 30.9168 32.8122 30.76 35.9406 30.4464C39.0691 30.1328 42.1792 29.5535 45.2708 28.7084L46.375 33.1251C44.1667 33.7508 41.9672 34.2292 39.7765 34.5605C37.5858 34.8918 35.3687 35.1494 33.125 35.3334V46.3751H19.875ZM26.5 28.7084C25.2486 28.7084 24.1997 28.2852 23.3531 27.4386C22.5066 26.5921 22.0833 25.5431 22.0833 24.2918C22.0833 23.0772 22.5066 22.037 23.3531 21.1714C24.1997 20.3057 25.2486 19.8736 26.5 19.8751C27.7146 19.8751 28.7547 20.3079 29.6204 21.1736C30.486 22.0393 30.9181 23.0786 30.9167 24.2918C30.9167 25.5431 30.4838 26.5921 29.6182 27.4386C28.7525 28.2852 27.7131 28.7084 26.5 28.7084ZM9.9375 22.0834C8.98056 22.0834 8.18924 21.7706 7.56354 21.1449C6.93785 20.5192 6.625 19.7279 6.625 18.7709C6.625 17.8508 6.93785 17.0683 7.56354 16.4235C8.18924 15.7786 8.98056 15.4569 9.9375 15.4584C10.8576 15.4584 11.6401 15.7808 12.285 16.4257C12.9298 17.0705 13.2515 17.8523 13.25 18.7709C13.25 19.7279 12.9276 20.5192 12.2827 21.1449C11.6379 21.7706 10.8562 22.0834 9.9375 22.0834ZM43.0625 22.0834C42.1056 22.0834 41.3142 21.7706 40.6885 21.1449C40.0628 20.5192 39.75 19.7279 39.75 18.7709C39.75 17.8508 40.0628 17.0683 40.6885 16.4235C41.3142 15.7786 42.1056 15.4569 43.0625 15.4584C43.9826 15.4584 44.7651 15.7808 45.41 16.4257C46.0548 17.0705 46.3765 17.8523 46.375 18.7709C46.375 19.7279 46.0526 20.5192 45.4077 21.1449C44.7629 21.7706 43.9812 22.0834 43.0625 22.0834ZM16.0104 13.8022C15.0535 13.8022 14.2622 13.4893 13.6365 12.8636C13.0108 12.2379 12.6979 11.4466 12.6979 10.4897C12.6979 9.56953 13.0108 8.78704 13.6365 8.14221C14.2622 7.49738 15.0535 7.1757 16.0104 7.17717C16.9306 7.17717 17.713 7.49959 18.3579 8.14442C19.0027 8.78925 19.3244 9.571 19.3229 10.4897C19.3229 11.4466 19.0005 12.2379 18.3557 12.8636C17.7108 13.4893 16.9291 13.8022 16.0104 13.8022ZM36.9896 13.8022C36.0326 13.8022 35.2413 13.4893 34.6156 12.8636C33.9899 12.2379 33.6771 11.4466 33.6771 10.4897C33.6771 9.56953 33.9899 8.78704 34.6156 8.14221C35.2413 7.49738 36.0326 7.1757 36.9896 7.17717C37.9097 7.17717 38.6922 7.49959 39.337 8.14442C39.9819 8.78925 40.3036 9.571 40.3021 10.4897C40.3021 11.4466 39.9797 12.2379 39.3348 12.8636C38.69 13.4893 37.9082 13.8022 36.9896 13.8022ZM26.5 11.0418C25.5431 11.0418 24.7517 10.7289 24.126 10.1032C23.5003 9.47752 23.1875 8.6862 23.1875 7.72925C23.1875 6.80911 23.5003 6.02663 24.126 5.38179C24.7517 4.73696 25.5431 4.41528 26.5 4.41675C27.4201 4.41675 28.2026 4.73917 28.8475 5.384C29.4923 6.02884 29.814 6.81059 29.8125 7.72925C29.8125 8.6862 29.4901 9.47752 28.8452 10.1032C28.2004 10.7289 27.4187 11.0418 26.5 11.0418Z" fill="#111111"/>
</svg>
