<svg width="160" height="131" viewBox="0 0 160 131" fill="none" xmlns="http://www.w3.org/2000/svg">
<path d="M128.281 52.1451C128.281 64.4058 124.05 75.6723 116.981 84.5679C107.425 96.5753 92.6887 104.281 76.1403 104.281C47.4412 104.281 24 81.0211 24 52.1403C24 39.8892 28.2303 28.6227 35.3095 19.7223C45.0798 7.39945 59.9935 0 76.1403 0C104.935 0.00478001 128.281 23.336 128.281 52.1451Z" fill="#EDEDED"/>
<path d="M30.6442 97.4071C31.997 97.1442 33.3067 98.0476 33.5696 99.4004C33.8325 100.753 32.9434 102.058 31.5955 102.321C30.2427 102.584 28.9187 101.7 28.6558 100.347C28.3929 98.9988 29.2963 97.6652 30.6442 97.4071Z" fill="#D6DCE8"/>
<path d="M26.7342 92.6796C27.5946 92.5123 28.4311 93.0907 28.5936 93.9511C28.7609 94.8115 28.1969 95.6432 27.3365 95.8105C26.4761 95.9778 25.6348 95.4138 25.4675 94.5534C25.3002 93.693 25.8738 92.8469 26.7342 92.6796Z" fill="#D6DCE8"/>
<path d="M26.9731 0.492367C28.3259 0.229467 29.6356 1.13289 29.8985 2.48563C30.1614 3.83837 29.2723 5.14332 27.9244 5.40622C26.5716 5.66912 25.2476 4.78481 24.9847 3.43207C24.7265 2.07933 25.6252 0.750488 26.9731 0.492367Z" fill="#D6DCE8"/>
<path d="M112.755 11.7398C112.421 11.4339 112.401 10.9176 112.703 10.583C113.147 10.0954 113.573 9.58877 113.965 9.07253C114.237 8.71403 114.748 8.64233 115.112 8.91479C115.47 9.18725 115.542 9.69871 115.269 10.062C114.849 10.6213 114.39 11.1662 113.912 11.692C113.606 12.0266 113.09 12.0457 112.755 11.7398Z" fill="url(#paint0_linear_166_232)"/>
<path d="M52.6036 37.2554C51.5042 36.6818 50.247 36.2086 48.856 35.8405C48.421 35.7258 48.1581 35.2765 48.2729 34.8415C48.3876 34.4065 48.8369 34.1484 49.2719 34.2584C50.7776 34.6551 52.1495 35.1761 53.354 35.8071C53.7555 36.0174 53.9085 36.5097 53.703 36.9113C53.4926 37.3128 52.9955 37.461 52.6036 37.2554ZM44.8456 35.1044C43.6984 34.9658 42.5321 34.8606 40.6918 34.6838C40.2425 34.6408 39.9126 34.2392 39.9557 33.7899C39.9987 33.3406 40.3859 33.006 40.8495 33.0538L41.9489 33.159C42.9814 33.2546 44.0139 33.3549 45.0416 33.4792C45.4909 33.5318 45.8112 33.9429 45.7538 34.3922C45.7012 34.8367 45.2997 35.157 44.8456 35.1044ZM36.4662 34.1436C34.6976 33.8282 33.2923 33.4171 32.2694 33.0203C31.8488 32.8578 31.6384 32.3798 31.8057 31.9592C31.9683 31.5385 32.4463 31.3282 32.8621 31.4955C34.0667 31.964 35.4577 32.3033 36.7531 32.5328C37.1976 32.614 37.494 33.0347 37.4127 33.4792C37.3362 33.9285 36.906 34.2201 36.4662 34.1436ZM28.4263 30.8454C27.1691 29.8655 26.1606 28.7518 25.4292 27.5281C25.195 27.1409 25.324 26.639 25.7112 26.4048C26.0984 26.1706 26.6003 26.2996 26.8345 26.6868C27.4607 27.7336 28.3355 28.6992 29.4349 29.5548C29.7934 29.8321 29.8555 30.3483 29.5783 30.702C29.2962 31.0557 28.7848 31.1274 28.4263 30.8454ZM24.9416 23.9192C24.5019 23.9192 24.1386 23.6085 24.1243 23.164C24.1243 23.1544 24.1243 23.0684 24.1243 23.0588V22.9728C24.1243 21.5292 24.4971 20.1048 25.2332 18.7281C25.4483 18.3314 25.9407 18.1784 26.3374 18.3935C26.7342 18.6086 26.8871 19.1009 26.672 19.5025C26.065 20.6401 25.759 21.8064 25.759 22.9775C25.759 22.9871 25.759 23.054 25.759 23.0636C25.759 23.5129 25.4005 23.9144 24.956 23.9192C24.9512 23.9192 24.9464 23.9192 24.9416 23.9192ZM85.2223 21.4671C84.7778 21.4671 84.4145 21.1086 84.405 20.664C84.3954 20.2099 84.7587 19.8371 85.208 19.8323C86.5225 19.8084 87.7844 19.5264 88.9794 19.0197C89.3953 18.8428 89.8733 19.0388 90.0501 19.4547C90.227 19.8705 90.031 20.3533 89.6152 20.5254C88.2003 21.1277 86.7424 21.4384 85.2367 21.4671C85.2367 21.4671 85.2271 21.4671 85.2223 21.4671ZM80.8678 20.8696C79.3716 20.4633 77.9185 19.8849 76.8239 19.426C76.408 19.2539 76.2072 18.7711 76.3841 18.3553C76.5562 17.9394 77.039 17.7386 77.4548 17.9155C78.5064 18.3553 79.8974 18.9097 81.3027 19.2921C81.7377 19.4116 81.9958 19.861 81.8763 20.296C81.7568 20.7214 81.3171 20.9891 80.8678 20.8696ZM97.8416 18.6182C97.7938 18.1688 98.1188 17.7673 98.5681 17.7195C99.3042 17.6096 100.456 17.5474 102.526 16.9356C102.961 16.8065 103.415 17.0551 103.544 17.4853C103.673 17.9203 103.425 18.3744 102.994 18.5034C100.767 19.1631 99.1656 19.2826 98.7402 19.3495C98.7115 19.3495 97.8894 19.0531 97.8416 18.6182ZM94.333 19.2348C92.8512 18.9671 91.3264 18.3983 90.141 17.4662C89.7872 17.1889 89.7251 16.6727 90.0023 16.319C90.2796 15.9653 90.7958 15.9031 91.1495 16.1804C91.4746 16.4337 91.8713 16.6727 92.2442 16.8591C93.2528 15.8936 94.0128 14.7703 94.4525 13.7569C94.6342 13.341 95.1122 13.1498 95.528 13.3363C95.9439 13.5179 96.1303 14.0007 95.9534 14.4118C95.5185 15.406 94.8254 16.5006 93.9315 17.4757C94.1562 17.5331 94.3856 17.5809 94.6198 17.6239C95.0644 17.7052 95.3607 18.1306 95.2795 18.5751C95.203 19.0245 94.7728 19.316 94.333 19.2348ZM72.9712 17.7912C71.6997 17.275 70.3947 16.7922 69.085 16.3524C68.6548 16.209 68.4254 15.7454 68.5736 15.3152C68.717 14.8898 69.1806 14.6555 69.6108 14.7989C70.9492 15.2483 72.2876 15.7454 73.5878 16.2712C74.0084 16.4385 74.2092 16.9165 74.0371 17.3371C73.865 17.753 73.3918 17.9633 72.9712 17.7912ZM106.656 16.9882C105.795 16.9882 105.523 15.8266 106.288 15.4395C107.492 14.8324 108.644 14.1106 109.72 13.3028C110.078 13.0303 110.595 13.102 110.867 13.4605C111.14 13.819 111.068 14.3353 110.709 14.6077C109.557 15.4777 108.319 16.2473 107.034 16.9021C106.904 16.9595 106.78 16.9882 106.656 16.9882ZM27.977 16.4289C27.6854 16.08 27.7332 15.5637 28.0821 15.2769C29.2293 14.3209 30.5151 13.6039 31.9061 13.0447C32.322 12.8774 32.8048 13.0781 32.9721 13.4988C33.1394 13.9194 32.9386 14.3926 32.518 14.5647C31.2943 15.0571 30.1519 15.688 29.1289 16.5389C28.7896 16.8209 28.2733 16.7779 27.977 16.4289ZM65.1176 15.1479C63.7888 14.7846 62.4313 14.4596 61.0881 14.1775C60.6435 14.0867 60.3615 13.6517 60.4571 13.2072C60.5479 12.7627 60.9829 12.4806 61.4275 12.5762C62.8041 12.863 64.1903 13.1976 65.5526 13.5705C65.9876 13.69 66.2457 14.1393 66.1262 14.5743C66.0067 15.0045 65.5574 15.2674 65.1176 15.1479ZM87.5311 13.6422C87.1869 12.4281 87.1917 11.1614 87.641 9.98069C87.7844 9.60785 87.9804 9.24935 88.229 8.91953C88.4966 8.55625 89.0081 8.47977 89.3714 8.75223C89.7347 9.01991 89.8111 9.53615 89.5387 9.89465C88.8599 10.8029 88.7834 12.0743 89.1037 13.1929C89.228 13.6278 88.9746 14.0819 88.5397 14.2062C88.1047 14.3305 87.6554 14.0772 87.5311 13.6422ZM35.4385 12.8152C35.3525 12.3707 35.6489 11.9453 36.0934 11.8592C38.1297 11.4768 40.0321 11.3382 40.3285 11.3095C40.7922 11.2761 41.1746 11.6011 41.2176 12.0504C41.2558 12.4998 40.926 12.8965 40.4767 12.9395L39.9031 12.9921C38.5456 13.1212 37.4366 13.2741 36.3993 13.4701C35.9548 13.5514 35.5246 13.2598 35.4385 12.8152ZM57.0107 13.4414C55.6484 13.2359 54.2622 13.0734 52.8951 12.9491C52.4458 12.9061 52.1112 12.5093 52.1542 12.06C52.1973 11.6107 52.6083 11.2856 53.0433 11.3191C54.4439 11.4434 55.8587 11.6155 57.2545 11.821C57.7038 11.8879 58.0097 12.3038 57.9428 12.7531C57.8711 13.2072 57.4553 13.5083 57.0107 13.4414ZM48.7556 12.7005C47.3742 12.6575 45.988 12.6575 44.6114 12.6957C44.1668 12.7101 43.7844 12.3516 43.7701 11.9023C43.7558 11.4482 44.1143 11.0753 44.5636 11.061C45.9737 11.0227 47.3886 11.0227 48.8034 11.0658C49.2528 11.0801 49.6113 11.4577 49.5969 11.907C49.5826 12.3755 49.1859 12.7196 48.7556 12.7005ZM94.8445 10.234C94.5242 9.17287 93.7069 8.47499 92.5071 8.45587C92.0577 8.44631 91.6945 8.07347 91.704 7.62415C91.7136 7.17961 92.0769 6.82111 92.5214 6.82111C92.5262 6.82111 92.531 6.82111 92.5357 6.82111C94.4477 6.85457 95.8818 8.02567 96.4123 9.76081C96.5414 10.1958 96.2976 10.6499 95.8674 10.7837C95.4372 10.9128 94.9783 10.669 94.8445 10.234Z" fill="#C7CFDE"/>
<path d="M56.9008 41.132C56.5853 40.6014 56.2125 40.0947 55.7823 39.6311C55.4764 39.2965 55.5003 38.7802 55.8301 38.4743C56.1647 38.1684 56.6809 38.1923 56.9868 38.5221C57.4935 39.0718 57.9381 39.6693 58.3061 40.2955C58.5356 40.6827 58.4065 41.1846 58.0193 41.414C57.6369 41.6482 57.135 41.5239 56.9008 41.132Z" fill="url(#paint1_linear_166_232)"/>
<path d="M118.687 56.0026V37.6904C118.687 34.2344 115.886 31.4334 112.43 31.4334H67.8804C65.7533 31.4334 63.7744 30.3531 62.6224 28.5654L60.3519 25.0473C59.1999 23.2595 57.221 22.1793 55.0939 22.1793H40.7156C37.2597 22.1793 34.4586 24.9803 34.4586 28.4363V56.0026H118.687Z" fill="url(#paint2_linear_166_232)"/>
<path d="M128.462 55.9501L120.441 89.0755C119.414 93.325 115.609 96.3173 111.235 96.3173H41.9106C37.5369 96.3173 33.732 93.325 32.7043 89.0755L24.6835 55.9501C23.3403 50.4101 27.5371 45.0756 33.2397 45.0756H119.901C125.604 45.0756 129.801 50.4101 128.462 55.9501Z" fill="url(#paint3_linear_166_232)"/>
<path d="M79.6536 83.9752C79.3429 83.9752 79.0322 83.8557 78.7932 83.6214C77.5409 82.3882 75.5954 82.3786 74.3574 83.5975C73.8746 84.0755 73.1002 84.066 72.6222 83.5832C72.149 83.1004 72.1538 82.3261 72.6366 81.8481C74.8019 79.7162 78.3391 79.721 80.5188 81.872C81.0016 82.35 81.0064 83.1243 80.5332 83.6071C80.2846 83.8557 79.9691 83.9752 79.6536 83.9752Z" fill="black"/>
<path d="M93.9554 72.6419C93.9554 74.7929 92.2107 76.5376 90.0596 76.5376C87.9086 76.5376 86.1639 74.7929 86.1639 72.6419C86.1639 70.4909 87.9086 68.7462 90.0596 68.7462C92.2107 68.7414 93.9554 70.4861 93.9554 72.6419Z" fill="black"/>
<path d="M97.4735 65.6774C97.3253 65.6774 97.1771 65.6487 97.0289 65.5962L88.0425 62.1163C87.4116 61.8725 87.0961 61.1603 87.3399 60.5293C87.5836 59.8984 88.2959 59.5829 88.9268 59.8267L97.9132 63.3065C98.5442 63.5503 98.8597 64.2625 98.6159 64.8935C98.4295 65.3763 97.9658 65.6774 97.4735 65.6774Z" fill="black"/>
<path d="M88.9364 74.2192C88.9364 74.8407 89.4383 75.3426 90.0597 75.3426C90.6811 75.3426 91.183 74.8407 91.183 74.2192C91.183 73.5978 90.6811 73.0959 90.0597 73.0959C89.4383 73.0959 88.9364 73.5978 88.9364 74.2192Z" fill="white"/>
<path d="M59.1952 72.6418C59.1952 74.7928 60.9399 76.5375 63.0909 76.5375C65.2419 76.5375 66.9866 74.7928 66.9866 72.6418C66.9866 70.4908 65.2419 68.7461 63.0909 68.7461C60.9399 68.7461 59.1952 70.486 59.1952 72.6418Z" fill="black"/>
<path d="M55.6771 65.6774C55.1847 65.6774 54.7211 65.381 54.5347 64.8935C54.2909 64.2625 54.6016 63.5503 55.2373 63.3065L64.2237 59.8267C64.8595 59.5829 65.5669 59.8936 65.8107 60.5293C66.0545 61.1603 65.7438 61.8725 65.108 62.1163L56.1216 65.5961C55.9734 65.6487 55.8205 65.6774 55.6771 65.6774Z" fill="black"/>
<path d="M63.273 75.3278C63.8854 75.2284 64.3013 74.6514 64.2019 74.0391C64.1025 73.4267 63.5255 73.0108 62.9131 73.1102C62.3008 73.2096 61.8849 73.7866 61.9843 74.399C62.0837 75.0114 62.6607 75.4272 63.273 75.3278Z" fill="white"/>
<path d="M123.516 98.0124C129.319 92.2089 129.319 82.7994 123.516 76.9959C117.712 71.1924 108.303 71.1924 102.499 76.9959C96.6958 82.7995 96.6958 92.2088 102.499 98.0124C108.303 103.816 117.712 103.816 123.516 98.0124Z" fill="white"/>
<path d="M113.009 103.186C104.361 103.186 97.3253 96.1499 97.3253 87.5029C97.3253 78.8559 104.361 71.8197 113.009 71.8197C121.656 71.8197 128.692 78.8559 128.692 87.5029C128.692 96.1499 121.656 103.186 113.009 103.186ZM113.009 73.4592C105.265 73.4592 98.9649 79.7593 98.9649 87.5029C98.9649 95.2465 105.265 101.547 113.009 101.547C120.752 101.547 127.052 95.2465 127.052 87.5029C127.052 79.7593 120.757 73.4592 113.009 73.4592Z" fill="#AAB2C5"/>
<path d="M113.009 97.5313C118.547 97.5313 123.037 93.0414 123.037 87.5028C123.037 81.9643 118.547 77.4744 113.009 77.4744C107.47 77.4744 102.98 81.9643 102.98 87.5028C102.98 93.0414 107.47 97.5313 113.009 97.5313Z" fill="#F31D1D"/>
<path d="M117.277 91.7714C116.79 92.2733 115.967 92.2733 115.48 91.7714L113.009 89.3049L110.542 91.7714C110.045 92.2733 109.232 92.2733 108.745 91.7714C108.243 91.2838 108.243 90.4616 108.745 89.9741L111.211 87.5076L108.745 85.0363C108.243 84.5344 108.243 83.7314 108.745 83.2295C109.228 82.7324 110.04 82.7276 110.542 83.2295L113.009 85.696L115.48 83.2295C115.977 82.7324 116.785 82.7324 117.277 83.2295C117.755 83.6979 117.798 84.5153 117.277 85.0363L114.811 87.5076L117.277 89.9741C117.784 90.4712 117.784 91.279 117.277 91.7714Z" fill="white"/>
<path d="M125.068 2.01719L125.781 1.53919C125.656 1.45793 125.513 1.39101 125.341 1.34321C124.5 1.01339 124.949 -0.23419 125.805 0.0430502C126.249 0.215131 126.665 0.449351 126.961 0.740932L127.315 0.501931C127.64 0.282051 128.056 0.377651 128.262 0.683571C128.467 0.989492 128.4 1.41013 128.08 1.63001L127.726 1.86901C127.874 2.26097 127.946 2.68162 127.941 3.15962C127.936 3.53724 127.64 3.8575 127.258 3.8575C126.88 3.85272 126.574 3.54202 126.579 3.1644C126.574 2.98275 126.56 2.82502 126.531 2.67684L125.838 3.14528C125.752 2.94452 125.637 2.74375 125.503 2.54777C125.365 2.35657 125.217 2.17493 125.068 2.01719Z" fill="black"/>
<path d="M119.237 11.9309C119.141 11.6202 119.108 11.2904 119.103 10.9654C120.771 10.2914 122.85 9.18719 124.16 8.08301C124.906 9.61739 124.251 12.1604 122.645 13.2454C121.24 14.2014 119.715 13.6087 119.237 11.9309Z" fill="url(#paint4_linear_166_232)"/>
<path d="M114.505 1.21413C116.106 0.129065 118.725 0.473226 119.853 1.71125C118.319 2.52863 116.517 4.05823 115.298 5.33449C114.983 5.21977 114.705 5.05247 114.462 4.86605C113.08 3.80011 113.099 2.16057 114.505 1.21413Z" fill="url(#paint5_linear_166_232)"/>
<path d="M123.195 8.81433C119.519 11.2999 113.41 13.3267 112.201 11.5389C110.991 9.75599 115.15 4.83258 118.821 2.34698C122.492 -0.133844 124.289 0.760018 125.499 2.54296C126.708 4.33546 126.866 6.33351 123.195 8.81433Z" fill="url(#paint6_linear_166_232)"/>
<path d="M6.68487 117.48H8.58887V127H7.11887L1.96687 121.022V127H0.0628662V117.48H1.47687L6.68487 123.626V117.48Z" fill="#6B6B6B"/>
<path d="M13.1252 120.154C15.2112 120.154 16.6672 121.596 16.6672 123.668C16.6672 125.726 15.2112 127.168 13.1252 127.168C11.0252 127.168 9.56919 125.726 9.56919 123.668C9.56919 121.596 11.0252 120.154 13.1252 120.154ZM13.1252 125.502C14.1332 125.502 14.8332 124.746 14.8332 123.668C14.8332 122.576 14.1332 121.82 13.1252 121.82C12.1032 121.82 11.4032 122.576 11.4032 123.668C11.4032 124.746 12.1032 125.502 13.1252 125.502Z" fill="#6B6B6B"/>
<path d="M27.0227 117.48H28.9267V127H27.0227V123.234H22.6267V127H20.7227V117.48H22.6267V121.47H27.0227V117.48Z" fill="#6B6B6B"/>
<path d="M33.3449 120.154C35.6409 120.154 37.0269 121.89 36.6769 124.2H31.7769C31.9169 124.97 32.4209 125.558 33.4709 125.558C33.9609 125.558 34.2969 125.474 34.5349 125.18H36.5649C36.1169 126.44 34.9269 127.168 33.4569 127.168C31.3149 127.168 29.9009 125.656 29.9009 123.668C29.9009 121.68 31.3009 120.154 33.3449 120.154ZM33.3589 121.708C32.4629 121.708 31.9869 122.254 31.8189 122.954H34.8569C34.7589 122.1 34.2129 121.708 33.3589 121.708Z" fill="#6B6B6B"/>
<path d="M42.5479 120.322H44.3819V127H42.5479V126.622C42.0299 126.958 41.3719 127.168 40.6299 127.168C38.7819 127.168 37.2979 125.6 37.2979 123.668C37.2979 121.722 38.7819 120.154 40.6299 120.154C41.3719 120.154 42.0299 120.364 42.5479 120.7V120.322ZM40.9099 125.502C41.5119 125.502 42.1139 125.334 42.5479 124.718V122.604C42.1139 121.988 41.5119 121.82 40.9099 121.82C39.8599 121.82 39.1319 122.66 39.1319 123.668C39.1319 124.662 39.8599 125.502 40.9099 125.502Z" fill="#6B6B6B"/>
<path d="M45.5912 117.06H47.4252V127H45.5912V117.06Z" fill="#6B6B6B"/>
<path d="M53.4149 125.208L53.6669 126.874C53.0509 127.112 52.5469 127.168 52.0569 127.168C50.2649 127.168 49.2569 126.048 49.2569 124.34V121.862H47.8289V120.322H49.2569V117.9H51.0909V120.322H53.5409V121.862H51.0909V124.34C51.0909 125.124 51.5809 125.474 52.2669 125.474C52.6869 125.474 53.0789 125.348 53.4149 125.208Z" fill="#6B6B6B"/>
<path d="M58.163 120.154C59.941 120.154 61.117 121.414 61.117 123.374V127H59.283V123.486C59.283 122.394 58.737 121.82 57.771 121.82C57.267 121.82 56.707 122.114 56.231 122.674V127H54.397V117.06H56.231V120.826C56.777 120.392 57.407 120.154 58.163 120.154Z" fill="#6B6B6B"/>
<path d="M69.0606 117.48C71.3426 117.48 72.8546 118.81 72.8546 120.812C72.8546 122.94 71.2306 124.34 68.7806 124.34H67.2966V127H65.3926V117.48H69.0606ZM68.9906 122.59C70.1806 122.59 70.9786 121.876 70.9786 120.812C70.9786 119.874 70.1806 119.23 68.9906 119.23H67.2966V122.59H68.9906Z" fill="#6B6B6B"/>
<path d="M78.2895 120.322H80.1235V127H78.2895V126.622C77.7715 126.958 77.1135 127.168 76.3715 127.168C74.5235 127.168 73.0395 125.6 73.0395 123.668C73.0395 121.722 74.5235 120.154 76.3715 120.154C77.1135 120.154 77.7715 120.364 78.2895 120.7V120.322ZM76.6515 125.502C77.2535 125.502 77.8555 125.334 78.2895 124.718V122.604C77.8555 121.988 77.2535 121.82 76.6515 121.82C75.6015 121.82 74.8735 122.66 74.8735 123.668C74.8735 124.662 75.6015 125.502 76.6515 125.502Z" fill="#6B6B6B"/>
<path d="M84.43 125.502C85.186 125.502 85.746 125.068 85.886 124.424H87.762C87.552 126.034 86.152 127.168 84.43 127.168C82.428 127.168 80.874 125.656 80.874 123.668C80.874 121.68 82.428 120.154 84.43 120.154C86.152 120.154 87.552 121.302 87.762 122.912H85.886C85.746 122.268 85.186 121.82 84.43 121.82C83.38 121.82 82.708 122.646 82.708 123.668C82.708 124.69 83.38 125.502 84.43 125.502Z" fill="#6B6B6B"/>
<path d="M93.3674 127L91.5334 124.424L90.4134 125.6V127H88.5794V117.06H90.4134V123.192L93.0874 120.322H95.4114L92.7934 123.094L95.7334 127H93.3674Z" fill="#6B6B6B"/>
<path d="M100.563 120.322H102.397V127H100.563V126.622C100.045 126.958 99.3866 127.168 98.6446 127.168C96.7966 127.168 95.3126 125.6 95.3126 123.668C95.3126 121.722 96.7966 120.154 98.6446 120.154C99.3866 120.154 100.045 120.364 100.563 120.7V120.322ZM98.9246 125.502C99.5266 125.502 100.129 125.334 100.563 124.718V122.604C100.129 121.988 99.5266 121.82 98.9246 121.82C97.8746 121.82 97.1466 122.66 97.1466 123.668C97.1466 124.662 97.8746 125.502 98.9246 125.502Z" fill="#6B6B6B"/>
<path d="M108.534 120.322H110.368V127.042C110.368 129.128 108.94 130.388 106.952 130.388C105.034 130.388 103.606 129.198 103.466 127.518H105.328C105.412 128.232 106 128.722 106.952 128.722C107.848 128.722 108.534 128.134 108.534 127.042V126.188C108.016 126.524 107.358 126.72 106.616 126.72C104.768 126.72 103.284 125.222 103.284 123.5C103.284 121.498 104.768 120.154 106.616 120.154C107.358 120.154 108.016 120.35 108.534 120.686V120.322ZM106.896 125.138C107.498 125.138 108.1 124.928 108.534 124.298V122.576C108.1 121.946 107.498 121.736 106.896 121.736C105.846 121.736 105.118 122.436 105.118 123.5C105.118 124.284 105.846 125.138 106.896 125.138Z" fill="#6B6B6B"/>
<path d="M114.631 120.154C116.927 120.154 118.313 121.89 117.963 124.2H113.063C113.203 124.97 113.707 125.558 114.757 125.558C115.247 125.558 115.583 125.474 115.821 125.18H117.851C117.403 126.44 116.213 127.168 114.743 127.168C112.601 127.168 111.187 125.656 111.187 123.668C111.187 121.68 112.587 120.154 114.631 120.154ZM114.645 121.708C113.749 121.708 113.273 122.254 113.105 122.954H116.143C116.045 122.1 115.499 121.708 114.645 121.708Z" fill="#6B6B6B"/>
<path d="M128.983 119.244H123.985V121.694H128.353V123.458H123.985V127H122.081V117.48H128.983V119.244Z" fill="#6B6B6B"/>
<path d="M132.272 120.154C134.358 120.154 135.814 121.596 135.814 123.668C135.814 125.726 134.358 127.168 132.272 127.168C130.172 127.168 128.716 125.726 128.716 123.668C128.716 121.596 130.172 120.154 132.272 120.154ZM132.272 125.502C133.28 125.502 133.98 124.746 133.98 123.668C133.98 122.576 133.28 121.82 132.272 121.82C131.25 121.82 130.55 122.576 130.55 123.668C130.55 124.746 131.25 125.502 132.272 125.502Z" fill="#6B6B6B"/>
<path d="M141.414 120.322H143.248V127H141.414V126.468C140.868 126.902 140.238 127.168 139.482 127.168C137.704 127.168 136.528 125.866 136.528 123.906V120.322H138.362V123.794C138.362 124.886 138.908 125.502 139.874 125.502C140.378 125.502 140.938 125.194 141.414 124.62V120.322Z" fill="#6B6B6B"/>
<path d="M148.213 120.154C149.991 120.154 151.167 121.414 151.167 123.374V127H149.333V123.486C149.333 122.394 148.787 121.82 147.821 121.82C147.317 121.82 146.757 122.114 146.281 122.674V127H144.447V120.322H146.281V120.826C146.827 120.392 147.457 120.154 148.213 120.154Z" fill="#6B6B6B"/>
<path d="M157.196 117.06H159.03V127H157.196V126.622C156.678 126.958 156.02 127.168 155.278 127.168C153.43 127.168 151.946 125.6 151.946 123.654C151.946 121.722 153.43 120.154 155.278 120.154C156.02 120.154 156.678 120.364 157.196 120.7V117.06ZM155.558 125.502C156.16 125.502 156.762 125.334 157.196 124.718V122.604C156.762 121.988 156.16 121.82 155.558 121.82C154.508 121.82 153.78 122.66 153.78 123.654C153.78 124.662 154.508 125.502 155.558 125.502Z" fill="#6B6B6B"/>
<defs>
<linearGradient id="paint0_linear_166_232" x1="24.1166" y1="10.3529" x2="115.438" y2="10.3529" gradientUnits="userSpaceOnUse">
<stop stop-color="#D6DCE8"/>
<stop offset="1" stop-color="white"/>
</linearGradient>
<linearGradient id="paint1_linear_166_232" x1="24.122" y1="39.8976" x2="115.438" y2="39.8976" gradientUnits="userSpaceOnUse">
<stop stop-color="#D6DCE8"/>
<stop offset="1" stop-color="white"/>
</linearGradient>
<linearGradient id="paint2_linear_166_232" x1="76.4077" y1="35.3026" x2="76.7007" y2="55.6696" gradientUnits="userSpaceOnUse">
<stop/>
<stop offset="1" stop-color="#818181"/>
</linearGradient>
<linearGradient id="paint3_linear_166_232" x1="76.4897" y1="38.8039" x2="76.6616" y2="69.7397" gradientUnits="userSpaceOnUse">
<stop stop-color="#4CDB06"/>
<stop offset="1" stop-color="#4CDB06"/>
</linearGradient>
<linearGradient id="paint4_linear_166_232" x1="123.771" y1="7.99141" x2="118.53" y2="10.5076" gradientUnits="userSpaceOnUse">
<stop stop-color="#2E2E2E"/>
<stop offset="1" stop-color="white"/>
</linearGradient>
<linearGradient id="paint5_linear_166_232" x1="119.021" y1="0.485584" x2="113.729" y2="4.06486" gradientUnits="userSpaceOnUse">
<stop stop-color="#2E2E2E"/>
<stop offset="1" stop-color="white"/>
</linearGradient>
<linearGradient id="paint6_linear_166_232" x1="116.662" y1="3.80937" x2="121.036" y2="10.2768" gradientUnits="userSpaceOnUse">
<stop/>
<stop offset="1" stop-color="#656565"/>
</linearGradient>
</defs>
</svg>
