<svg width="66" height="66" viewBox="0 0 66 66" fill="none" xmlns="http://www.w3.org/2000/svg">
<path d="M29.7 10.725L13.2 23.1C11.825 24.145 11 25.7675 11 27.5V52.25C11 55.275 13.475 57.75 16.5 57.75H49.5C52.525 57.75 55 55.275 55 52.25V27.5C55 25.7675 54.175 24.145 52.8 23.1L36.3 10.725C35.3462 10.0152 34.1889 9.63184 33 9.63184C31.8111 9.63184 30.6538 10.0152 29.7 10.725ZM34.375 34.375C34.375 36.6575 32.5325 38.5 30.25 38.5V48.125C30.25 48.895 29.645 49.5 28.875 49.5C28.105 49.5 27.5 48.895 27.5 48.125V38.5C25.2175 38.5 23.375 36.6575 23.375 34.375V27.5C23.375 26.73 23.98 26.125 24.75 26.125C25.52 26.125 26.125 26.73 26.125 27.5V34.375H27.5V27.5C27.5 26.73 28.105 26.125 28.875 26.125C29.645 26.125 30.25 26.73 30.25 27.5V34.375H31.625V27.5C31.625 26.73 32.23 26.125 33 26.125C33.77 26.125 34.375 26.73 34.375 27.5V34.375ZM39.875 49.5C39.105 49.5 38.5 48.895 38.5 48.125V39.875H37.125C36.355 39.875 35.75 39.27 35.75 38.5V31.625C35.75 29.205 37.3175 27.1425 39.49 26.4275C40.3425 26.125 41.25 26.8125 41.25 27.7475V48.125C41.25 48.895 40.645 49.5 39.875 49.5Z" fill="#111111"/>
</svg>
