<svg width="21" height="21" viewBox="0 0 21 21" fill="none" xmlns="http://www.w3.org/2000/svg">
<path d="M2.625 17.7538V4.375C2.625 3.91087 2.80937 3.46575 3.13756 3.13756C3.46575 2.80937 3.91087 2.625 4.375 2.625H16.625C17.0891 2.625 17.5342 2.80937 17.8624 3.13756C18.1906 3.46575 18.375 3.91087 18.375 4.375V13.125C18.375 13.5891 18.1906 14.0342 17.8624 14.3624C17.5342 14.6906 17.0891 14.875 16.625 14.875H6.96587C6.70358 14.875 6.44465 14.934 6.20822 15.0476C5.9718 15.1612 5.76393 15.3265 5.6 15.5312L3.56037 18.081C3.4925 18.1661 3.39986 18.2279 3.29528 18.2581C3.19071 18.2882 3.07935 18.285 2.97663 18.2491C2.8739 18.2132 2.78489 18.1462 2.72189 18.0574C2.6589 17.9687 2.62504 17.8626 2.625 17.7538Z" stroke="#111111" stroke-width="0.875"/>
</svg>
