<svg width="25" height="25" viewBox="0 0 25 25" fill="none" xmlns="http://www.w3.org/2000/svg">
<circle cx="12.5" cy="12.5" r="12.5" fill="#4CDB06"/>
<path d="M12.4277 19.0352C12.8811 19.0352 13.293 18.8042 13.5296 18.4171C15.1872 15.7052 17.163 12.1312 17.163 10.5048C17.163 7.89376 15.0388 5.76953 12.4277 5.76953C9.81661 5.76953 7.69238 7.89376 7.69238 10.5048C7.69238 12.1312 9.66824 15.7052 11.3258 18.4171C11.5623 18.8042 11.9743 19.0352 12.4277 19.0352ZM10.5244 10.1797C10.5244 9.13022 11.3782 8.27642 12.4277 8.27642C13.4772 8.27642 14.331 9.13022 14.331 10.1797C14.331 11.2292 13.4772 12.083 12.4277 12.083C11.3782 12.083 10.5244 11.2292 10.5244 10.1797Z" fill="black"/>
</svg>
