<svg width="17" height="17" viewBox="0 0 17 17" fill="none" xmlns="http://www.w3.org/2000/svg">
<path d="M8.49984 8.14583C8.03018 8.14583 7.57976 7.95926 7.24767 7.62717C6.91557 7.29507 6.729 6.84465 6.729 6.375C6.729 5.90535 6.91557 5.45493 7.24767 5.12283C7.57976 4.79074 8.03018 4.60417 8.49984 4.60417C8.96949 4.60417 9.41991 4.79074 9.75201 5.12283C10.0841 5.45493 10.2707 5.90535 10.2707 6.375C10.2707 6.60755 10.2249 6.83782 10.1359 7.05267C10.0469 7.26752 9.91644 7.46273 9.75201 7.62717C9.58757 7.7916 9.39235 7.92204 9.17751 8.01104C8.96266 8.10003 8.73239 8.14583 8.49984 8.14583ZM8.49984 1.41667C7.18481 1.41667 5.92363 1.93906 4.99377 2.86893C4.0639 3.7988 3.5415 5.05997 3.5415 6.375C3.5415 10.0938 8.49984 15.5833 8.49984 15.5833C8.49984 15.5833 13.4582 10.0938 13.4582 6.375C13.4582 5.05997 12.9358 3.7988 12.0059 2.86893C11.076 1.93906 9.81487 1.41667 8.49984 1.41667Z" fill="black"/>
</svg>
