<svg width="43" height="61" viewBox="0 0 43 61" fill="none" xmlns="http://www.w3.org/2000/svg">
<path d="M21.5 13.725C23.5365 13.725 25.4896 14.5283 26.9296 15.9583C28.3696 17.3883 29.1786 19.3277 29.1786 21.35C29.1786 22.3513 28.98 23.3429 28.5941 24.268C28.2082 25.1931 27.6426 26.0336 26.9296 26.7417C26.2165 27.4497 25.3701 28.0114 24.4385 28.3946C23.5069 28.7778 22.5084 28.975 21.5 28.975C19.4635 28.975 17.5104 28.1717 16.0704 26.7417C14.6304 25.3117 13.8214 23.3723 13.8214 21.35C13.8214 19.3277 14.6304 17.3883 16.0704 15.9583C17.5104 14.5283 19.4635 13.725 21.5 13.725ZM21.5 0C27.2022 0 32.6708 2.24937 36.7028 6.25327C40.7348 10.2572 43 15.6876 43 21.35C43 37.3625 21.5 61 21.5 61C21.5 61 0 37.3625 0 21.35C0 15.6876 2.26517 10.2572 6.2972 6.25327C10.3292 2.24937 15.7978 0 21.5 0ZM21.5 6.1C17.427 6.1 13.5209 7.70669 10.6409 10.5666C7.76084 13.4266 6.14286 17.3054 6.14286 21.35C6.14286 24.4 6.14286 30.5 21.5 50.9655C36.8571 30.5 36.8571 24.4 36.8571 21.35C36.8571 17.3054 35.2392 13.4266 32.3591 10.5666C29.4791 7.70669 25.573 6.1 21.5 6.1Z" fill="#111111"/>
</svg>
