<svg width="104" height="29" viewBox="0 0 104 29" fill="none" xmlns="http://www.w3.org/2000/svg">
<path d="M19.85 3V20H15.625V11.475L11.85 17.3V17.325H9.5V17.3L5.7 11.425L5.725 20H1.5V3H4.65L10.675 12.075L16.7 3H19.85ZM27.9129 3C33.2629 3 37.0879 6.475 37.0879 11.45C37.0879 16.5 33.2629 20 27.9129 20H21.0879V3H27.9129ZM27.9129 16.2C30.6879 16.2 32.8129 14.15 32.8129 11.45C32.8129 8.825 30.6879 6.8 27.9129 6.8H25.3129V16.2H27.9129ZM44.5414 8.1C47.4914 8.1 49.5164 10.075 49.5164 13.35V20H47.6164V13.45C47.6164 11.1 46.2414 9.85 44.1914 9.85C42.8164 9.85 41.3914 10.55 40.3914 11.85V20H38.4914V2.25H40.3914V9.7C41.4664 8.675 42.8914 8.1 44.5414 8.1ZM56.7398 8.1C60.4648 8.1 62.7898 10.975 62.4148 14.775H52.7148C52.9398 16.925 54.4148 18.6 56.8398 18.6C58.3148 18.6 59.4398 18.075 59.9398 17.1H62.0648C61.3398 19.1 59.3398 20.3 56.8398 20.3C53.2648 20.3 50.7898 17.625 50.7898 14.2C50.7898 10.775 53.2398 8.1 56.7398 8.1ZM56.7398 9.75C54.4398 9.75 53.0148 11.375 52.7398 13.425H60.5148C60.4148 11.125 58.9398 9.75 56.7398 9.75ZM73.665 8.4H75.565V20H73.665V18.8C72.64 19.75 71.24 20.3 69.59 20.3C66.265 20.3 63.615 17.6 63.615 14.2C63.615 10.825 66.265 8.1 69.59 8.1C71.24 8.1 72.64 8.65 73.665 9.6V8.4ZM69.84 18.55C71.365 18.55 72.715 17.975 73.665 16.575V11.825C72.715 10.425 71.365 9.85 69.84 9.85C67.39 9.85 65.515 11.8 65.515 14.2C65.515 16.6 67.39 18.55 69.84 18.55ZM77.9191 2.25H79.8191V20H77.9191V2.25ZM89.6006 18.125L89.8756 19.875C88.9256 20.2 88.1256 20.3 87.4256 20.3C84.5756 20.3 83.2006 18.725 83.2006 15.7V10.025H80.1756V8.4H83.2006V4.125H85.1006V8.4H89.4756V10.025H85.1006V15.7C85.1006 17.7 85.9506 18.525 87.6006 18.525C88.2506 18.525 88.9756 18.35 89.6006 18.125ZM97.1439 8.1C100.094 8.1 102.119 10.075 102.119 13.35V20H100.219V13.45C100.219 11.1 98.8439 9.85 96.7939 9.85C95.4189 9.85 93.9939 10.55 92.9939 11.85V20H91.0939V2.25H92.9939V9.7C94.0689 8.675 95.4939 8.1 97.1439 8.1Z" fill="#050404"/>
</svg>
