<svg width="22" height="22" viewBox="0 0 22 22" fill="none" xmlns="http://www.w3.org/2000/svg">
<path d="M19.1675 8.10334L7.8467 2.04418C7.59121 1.90854 7.30637 1.83762 7.01711 1.83762C6.72786 1.83762 6.44301 1.90854 6.18753 2.04418L2.84169 3.78584C2.54002 3.95116 2.28763 4.1936 2.11031 4.48839C1.933 4.78318 1.83711 5.11975 1.83245 5.46373C1.82779 5.8077 1.91452 6.14675 2.08379 6.44624C2.25305 6.74572 2.49877 6.99491 2.79586 7.16834L13.9975 13.5208C14.2696 13.6717 14.5756 13.7509 14.8867 13.7509C15.1978 13.7509 15.5038 13.6717 15.7759 13.5208L19.25 11.4675C19.541 11.2897 19.7801 11.0385 19.9432 10.739C20.1064 10.4396 20.1878 10.1025 20.1795 9.76162C20.1711 9.42073 20.0732 9.08804 19.8956 8.79696C19.718 8.50588 19.4669 8.26667 19.1675 8.10334Z" stroke="#111111" stroke-width="1.16667" stroke-linecap="round" stroke-linejoin="round"/>
<path d="M11.0001 20.1667V11.9167M2.83261 8.10334L14.1534 2.04418C14.4089 1.90854 14.6938 1.83762 14.983 1.83762C15.2723 1.83762 15.5571 1.90854 15.8126 2.04418L19.1584 3.78584C19.4626 3.94699 19.7184 4.18601 19.8999 4.47846C20.0813 4.77091 20.1818 5.10631 20.1912 5.45035C20.2005 5.79439 20.1183 6.13473 19.9529 6.43658C19.7876 6.73843 19.545 6.99096 19.2501 7.16834L8.00261 13.5208C7.73054 13.6717 7.42455 13.7509 7.11344 13.7509C6.80233 13.7509 6.49634 13.6717 6.22427 13.5208L2.75011 11.4675C2.45914 11.2897 2.22007 11.0385 2.05693 10.739C1.89378 10.4396 1.81229 10.1025 1.82065 9.76162C1.82901 9.42073 1.92692 9.08804 2.10455 8.79696C2.28218 8.50588 2.53327 8.26667 2.83261 8.10334Z" stroke="#111111" stroke-width="1.16667" stroke-linecap="round" stroke-linejoin="round"/>
<path d="M18.3334 12.375V15.4642C18.3338 15.8102 18.2391 16.1496 18.0596 16.4454C17.8802 16.7413 17.6229 16.9821 17.3159 17.1417L11.8159 19.965C11.5639 20.096 11.2841 20.1643 11.0001 20.1643C10.7161 20.1643 10.4363 20.096 10.1842 19.965L4.68425 17.1417C4.37724 16.9821 4.11998 16.7413 3.94054 16.4454C3.7611 16.1496 3.66639 15.8102 3.66675 15.4642V12.375" stroke="#111111" stroke-width="1.16667" stroke-linecap="round" stroke-linejoin="round"/>
</svg>
