<svg width="14" height="14" viewBox="0 0 14 14" fill="none" xmlns="http://www.w3.org/2000/svg">
<path d="M13.2245 11.48H8.67978V12.6H13.2709C13.3722 12.605 13.472 12.575 13.5537 12.5151C13.6354 12.4552 13.6941 12.369 13.7198 12.271V11.9994C13.7198 11.9994 13.7164 11.48 13.2245 11.48ZM12.5959 11.2588C12.8942 11.2584 13.1802 11.1395 13.3909 10.9284C13.6016 10.7172 13.7199 10.431 13.7198 10.1327C13.7198 9.5091 13.2158 9.00622 12.5959 9.00622C12.4482 9.00648 12.3021 9.03583 12.1658 9.09259C12.0295 9.14934 11.9058 9.2324 11.8016 9.33701C11.6974 9.44162 11.6149 9.56574 11.5587 9.70226C11.5025 9.83878 11.4738 9.98503 11.4742 10.1327C11.4742 10.754 11.9768 11.2588 12.5959 11.2588ZM10.2287 11.2C10.8184 11.2 11.2927 10.7845 11.2927 10.1957C11.2925 9.60794 10.8165 9.29966 10.2313 9.29518L8.67978 9.49174V11.2H10.2287ZM5.18623 3.90126C5.87475 3.90126 6.43167 3.34126 6.43167 2.6505C6.43167 1.95974 5.87475 1.40002 5.18623 1.40002C4.49827 1.40002 3.94051 1.95974 3.94051 2.6505C3.94051 3.34126 4.49827 3.90126 5.18623 3.90126ZM3.91447 7.94894L3.90327 7.9327L3.33879 6.61838L3.33795 9.24002H5.02495L5.39343 8.84802L4.39411 8.4633C4.15723 8.37426 3.98895 8.17266 3.91447 7.94894ZM4.27203 7.83106C4.32663 7.9537 4.42771 8.0531 4.55483 8.09874L6.48039 8.81246C6.53905 8.83828 6.60224 8.85225 6.66631 8.85358C6.73039 8.85491 6.79411 8.84357 6.85379 8.8202C6.91347 8.79684 6.96795 8.76192 7.0141 8.71744C7.06025 8.67296 7.09716 8.61981 7.1227 8.56102C7.17483 8.4419 7.17771 8.30699 7.1307 8.18575C7.0837 8.06451 6.99063 7.9668 6.87182 7.91394L5.09523 7.24306L4.54643 5.92678L4.90427 5.7935L5.36935 6.92134L6.71979 7.42198V6.04382L7.43658 6.47026L7.79387 8.2701C7.81444 8.331 7.84688 8.38722 7.88931 8.4355C7.93175 8.48378 7.98333 8.52317 8.04108 8.55139C8.09883 8.57962 8.1616 8.59612 8.22577 8.59993C8.28993 8.60375 8.35422 8.59481 8.41491 8.57362C8.53712 8.53015 8.63727 8.44024 8.69362 8.3234C8.74997 8.20656 8.75797 8.07221 8.71591 7.9495L8.31551 6.21602C8.28927 6.12006 8.23437 6.03439 8.15814 5.97046C7.95291 5.7431 6.91495 4.5825 6.84103 4.50494C6.73267 4.3963 6.48487 4.20002 6.01671 4.20002H4.33671C3.38191 4.20002 3.19823 5.17442 3.39339 5.67002L4.27203 7.83106ZM8.39979 9.52002H0.830545C0.555025 9.52002 0.279785 9.67542 0.279785 10.0173V12.6H8.39979V9.52002Z" fill="#111111"/>
</svg>
