<svg width="17" height="17" viewBox="0 0 17 17" fill="none" xmlns="http://www.w3.org/2000/svg">
<path d="M6.37523 2.12499V0.708328H10.6252V2.12499H6.37523ZM7.08356 10.4479L6.30439 8.88958C6.24537 8.75972 6.15682 8.6622 6.03877 8.59704C5.92071 8.53187 5.79676 8.49952 5.66689 8.49999H2.16064C2.33773 6.90624 3.02835 5.56324 4.23252 4.47099C5.43669 3.37874 6.85926 2.83286 8.50023 2.83333C9.23217 2.83333 9.9346 2.95138 10.6075 3.18749C11.2804 3.42361 11.912 3.76597 12.5023 4.21458L13.494 3.22291L14.4856 4.21458L13.494 5.20624C13.8718 5.70208 14.1728 6.22459 14.3971 6.77379C14.6214 7.32298 14.769 7.89838 14.8398 8.49999H11.7763L10.5544 6.05624C10.4245 5.78472 10.212 5.64895 9.91689 5.64895C9.62176 5.64895 9.40926 5.78472 9.27939 6.05624L7.08356 10.4479ZM8.50023 15.5833C6.85926 15.5833 5.43669 15.0372 4.23252 13.945C3.02835 12.8527 2.33773 11.5099 2.16064 9.91666H5.22419L6.44606 12.3604C6.57592 12.6319 6.78842 12.7677 7.08356 12.7677C7.3787 12.7677 7.5912 12.6319 7.72106 12.3604L9.91689 7.96874L10.6961 9.52708C10.7551 9.65694 10.8436 9.75445 10.9617 9.81962C11.0797 9.88479 11.2037 9.91713 11.3336 9.91666H14.8398C14.6627 11.5104 13.9721 12.8532 12.7679 13.945C11.5638 15.0367 10.1412 15.5829 8.50023 15.5833Z" fill="black"/>
</svg>
