<svg width="27" height="27" viewBox="0 0 27 27" fill="none" xmlns="http://www.w3.org/2000/svg">
<path d="M18 6.75H11.8125V11.25H1.125V16.875H3.375C3.375 17.7701 3.73058 18.6286 4.36351 19.2615C4.99645 19.8944 5.85489 20.25 6.75 20.25C7.64511 20.25 8.50355 19.8944 9.13649 19.2615C9.76942 18.6286 10.125 17.7701 10.125 16.875H16.875C16.875 17.7701 17.2306 18.6286 17.8635 19.2615C18.4964 19.8944 19.3549 20.25 20.25 20.25C21.1451 20.25 22.0036 19.8944 22.6365 19.2615C23.2694 18.6286 23.625 17.7701 23.625 16.875H25.875V13.5C25.875 12.2512 24.8738 11.25 23.625 11.25H21.375L18 6.75ZM13.5 8.4375H17.4375L19.6425 11.25H13.5V8.4375ZM6.75 15.1875C7.19755 15.1875 7.62678 15.3653 7.94324 15.6818C8.25971 15.9982 8.4375 16.4274 8.4375 16.875C8.4375 17.3226 8.25971 17.7518 7.94324 18.0682C7.62678 18.3847 7.19755 18.5625 6.75 18.5625C6.30245 18.5625 5.87322 18.3847 5.55676 18.0682C5.24029 17.7518 5.0625 17.3226 5.0625 16.875C5.0625 16.4274 5.24029 15.9982 5.55676 15.6818C5.87322 15.3653 6.30245 15.1875 6.75 15.1875ZM20.25 15.1875C20.6976 15.1875 21.1268 15.3653 21.4432 15.6818C21.7597 15.9982 21.9375 16.4274 21.9375 16.875C21.9375 17.3226 21.7597 17.7518 21.4432 18.0682C21.1268 18.3847 20.6976 18.5625 20.25 18.5625C19.8024 18.5625 19.3732 18.3847 19.0568 18.0682C18.7403 17.7518 18.5625 17.3226 18.5625 16.875C18.5625 16.4274 18.7403 15.9982 19.0568 15.6818C19.3732 15.3653 19.8024 15.1875 20.25 15.1875Z" fill="#111111"/>
</svg>
