<svg width="19" height="19" viewBox="0 0 19 19" fill="none" xmlns="http://www.w3.org/2000/svg">
<path d="M4.74992 10.2917C3.00034 10.2917 1.58325 11.7087 1.58325 13.4583C1.58325 15.2079 3.00034 16.625 4.74992 16.625C6.4995 16.625 7.91658 15.2079 7.91658 13.4583C7.91658 11.7087 6.4995 10.2917 4.74992 10.2917ZM4.74992 15.0417C3.87909 15.0417 3.16659 14.3292 3.16659 13.4583C3.16659 12.5875 3.87909 11.875 4.74992 11.875C5.62075 11.875 6.33325 12.5875 6.33325 13.4583C6.33325 14.3292 5.62075 15.0417 4.74992 15.0417ZM4.74992 2.375C3.00034 2.375 1.58325 3.79208 1.58325 5.54167C1.58325 7.29125 3.00034 8.70833 4.74992 8.70833C6.4995 8.70833 7.91658 7.29125 7.91658 5.54167C7.91658 3.79208 6.4995 2.375 4.74992 2.375ZM9.49992 3.95833H17.4166V5.54167H9.49992V3.95833ZM9.49992 15.0417V13.4583H17.4166V15.0417H9.49992ZM9.49992 8.70833H17.4166V10.2917H9.49992V8.70833Z" fill="#111111"/>
</svg>
