<svg width="20" height="20" viewBox="0 0 20 20" fill="none" xmlns="http://www.w3.org/2000/svg">
<path d="M10.8335 6.07146H15.4168L10.8335 1.48812V6.07146ZM5.00016 0.238124H11.6668L16.6668 5.23812V15.2381C16.6668 15.6802 16.4912 16.1041 16.1787 16.4166C15.8661 16.7292 15.4422 16.9048 15.0002 16.9048H5.00016C4.55814 16.9048 4.13421 16.7292 3.82165 16.4166C3.50909 16.1041 3.3335 15.6802 3.3335 15.2381V1.90479C3.3335 0.979791 4.07516 0.238124 5.00016 0.238124ZM5.8335 15.2381H7.50016V10.2381H5.8335V15.2381ZM9.16683 15.2381H10.8335V8.57146H9.16683V15.2381ZM12.5002 15.2381H14.1668V11.9048H12.5002V15.2381Z" fill="#111111"/>
</svg>
