<svg width="13" height="13" viewBox="0 0 13 13" fill="none" xmlns="http://www.w3.org/2000/svg">
<path d="M6.50004 1.0835C9.47921 1.0835 11.9167 3.521 11.9167 6.50016C11.9167 9.47933 9.47921 11.9168 6.50004 11.9168C3.52087 11.9168 1.08337 9.47933 1.08337 6.50016C1.08337 3.521 3.52087 1.0835 6.50004 1.0835ZM6.50004 2.16683C5.47087 2.16683 4.55004 2.49183 3.84587 3.08766L9.91254 9.15433C10.4542 8.396 10.8334 7.47516 10.8334 6.50016C10.8334 4.11683 8.88337 2.16683 6.50004 2.16683ZM9.15421 9.91266L3.08754 3.846C2.49171 4.55016 2.16671 5.471 2.16671 6.50016C2.16671 8.8835 4.11671 10.8335 6.50004 10.8335C7.52921 10.8335 8.45004 10.5085 9.15421 9.91266Z" fill="#111111"/>
</svg>
