<svg width="20" height="20" viewBox="0 0 20 20" fill="none" xmlns="http://www.w3.org/2000/svg">
<path d="M15.8333 19.4167L15.3333 19C13.6666 17.4167 12.4999 16.4167 12.4999 15.1667C12.4999 14.1667 13.3333 13.3333 14.3333 13.3333C14.9166 13.3333 15.4999 13.5833 15.8333 14C16.1666 13.5833 16.7499 13.3333 17.3333 13.3333C18.3333 13.3333 19.1666 14.0833 19.1666 15.1667C19.1666 16.4167 17.9999 17.4167 16.3333 19L15.8333 19.4167ZM14.9999 1.66667C15.9166 1.66667 16.6666 2.41667 16.6666 3.33333V10.9L15.8333 10.8333L14.9999 10.9V3.33333H10.8333V10L8.74992 8.125L6.66659 10V3.33333H4.99992V16.6667H10.8999C10.9999 17.2667 11.2083 17.825 11.4999 18.3333H4.99992C4.08325 18.3333 3.33325 17.5833 3.33325 16.6667V3.33333C3.33325 2.41667 4.08325 1.66667 4.99992 1.66667H14.9999Z" fill="#111111"/>
</svg>
