<svg width="20" height="20" viewBox="0 0 20 20" fill="none" xmlns="http://www.w3.org/2000/svg">
<path d="M7.50016 15.8334H12.5002V17.5001H7.50016C5.20016 17.5001 3.3335 15.6334 3.3335 13.3334V5.83343H5.00016V13.3334C5.00016 14.7168 6.11683 15.8334 7.50016 15.8334ZM8.6835 4.50843C9.3335 3.85843 9.3335 2.8001 8.6835 2.1501C8.0335 1.5001 6.97516 1.5001 6.32516 2.1501C5.67516 2.8001 5.67516 3.85843 6.32516 4.50843C6.97516 5.16676 8.02516 5.16676 8.6835 4.50843ZM9.5835 7.5001C9.5835 6.58343 8.8335 5.83343 7.91683 5.83343H7.50016C6.5835 5.83343 5.8335 6.58343 5.8335 7.5001V12.5001C5.8335 13.8834 6.95016 15.0001 8.3335 15.0001H12.5585L15.4752 17.9168L16.6668 16.7251L12.4418 12.5001H9.5835V7.5001Z" fill="#111111"/>
</svg>
