<svg width="30" height="30" viewBox="0 0 30 30" fill="none" xmlns="http://www.w3.org/2000/svg">
<g clip-path="url(#clip0_1094_4970)">
<path d="M18.7816 9.64355C18.7816 11.7796 17.0477 13.5107 14.9097 13.5107C12.7741 13.5107 11.043 11.7792 11.043 9.64355C11.043 7.50793 12.7741 5.77637 14.9097 5.77637C17.0477 5.77637 18.7816 7.50793 18.7816 9.64355Z" fill="#111111"/>
<path d="M14.9156 0.245605C13.1259 0.245605 10.626 0.959043 8.81525 2.76982L10.9659 6.68811C11.4358 6.09005 12.0356 5.60667 12.7199 5.27453C13.4041 4.94239 14.155 4.77018 14.9156 4.77092C16.537 4.77092 17.9798 5.53686 18.899 6.72795L21.0084 2.67982C19.4413 0.96748 16.6312 0.245605 14.9156 0.245605ZM16.5093 3.12279H15.5081V4.12311H14.3053V3.12279H13.304V1.92045H14.3053V0.915918H15.5081V1.92045H16.5093V3.12279ZM9.82775 20.4614H10.8182L9.40353 25.3101H20.4571L19.049 20.4614H20.0404L21.4574 25.3101H24.7101L22.4901 17.9639C22.1432 16.7512 20.6226 14.6161 17.9985 14.5514L11.9657 14.5462C9.28213 14.5594 7.72963 16.7362 7.37854 17.9634L5.11541 25.3097H8.414L9.82775 20.4614ZM0.443848 26.8561H29.3798V29.609H0.443848V26.8561Z" fill="#111111"/>
</g>
<defs>
<clipPath id="clip0_1094_4970">
<rect width="30" height="30" fill="white"/>
</clipPath>
</defs>
</svg>
