<svg width="17" height="15" viewBox="0 0 17 15" fill="none" xmlns="http://www.w3.org/2000/svg">
<path d="M1.11772e-06 4.99501C-0.000438193 4.33851 0.128627 3.68837 0.379807 3.08183C0.630986 2.47528 0.999345 1.92424 1.46379 1.46026C1.92824 0.996279 2.47965 0.628471 3.08644 0.377898C3.69324 0.127326 4.3435 -0.00108918 5 6.95854e-06H11.6667C14.4275 6.95854e-06 16.6667 2.24584 16.6667 4.99501V15H5C2.23917 15 1.11772e-06 12.7542 1.11772e-06 10.005V4.99501ZM15 13.3333V4.99501C14.9978 4.11209 14.6457 3.26604 14.021 2.64219C13.3962 2.01834 12.5496 1.66755 11.6667 1.66667H5C4.56237 1.66558 4.12884 1.75088 3.72425 1.9177C3.31966 2.08451 2.95198 2.32955 2.6423 2.63877C2.33262 2.94799 2.08703 3.3153 1.9196 3.71963C1.75218 4.12397 1.66623 4.55738 1.66667 4.99501V10.005C1.66887 10.8879 2.02093 11.734 2.64572 12.3578C3.2705 12.9817 4.11708 13.3325 5 13.3333H15ZM10 6.66667H11.6667V8.33334H10V6.66667ZM5 6.66667H6.66667V8.33334H5V6.66667Z" fill="black"/>
</svg>
