<svg width="15" height="15" viewBox="0 0 15 15" fill="none" xmlns="http://www.w3.org/2000/svg">
<g clip-path="url(#clip0_1152_669)">
<path d="M10 8.75C10.8288 8.75 11.6237 9.07924 12.2097 9.66529C12.7958 10.2513 13.125 11.0462 13.125 11.875V12.5C13.125 12.8315 12.9933 13.1495 12.7589 13.3839C12.5245 13.6183 12.2065 13.75 11.875 13.75H3.125C2.79348 13.75 2.47554 13.6183 2.24112 13.3839C2.0067 13.1495 1.875 12.8315 1.875 12.5V11.875C1.875 11.0462 2.20424 10.2513 2.79029 9.66529C3.37634 9.07924 4.1712 8.75 5 8.75H10ZM13.3837 5.67563C13.496 5.56234 13.6472 5.49623 13.8066 5.49082C13.966 5.48542 14.1214 5.54112 14.241 5.64654C14.3606 5.75196 14.4354 5.89912 14.4501 6.05789C14.4648 6.21666 14.4183 6.37505 14.32 6.50063L14.2675 6.56L12.5 8.3275C12.3924 8.43511 12.2492 8.49976 12.0973 8.50931C11.9454 8.51886 11.7953 8.47266 11.675 8.37938L11.6163 8.3275L10.7325 7.44375C10.6192 7.33154 10.5531 7.18027 10.5477 7.02091C10.5423 6.86155 10.598 6.70615 10.7034 6.58651C10.8088 6.46688 10.956 6.39206 11.1148 6.37737C11.2735 6.36268 11.4319 6.40924 11.5575 6.5075L11.6163 6.56L12.0581 7.00188L13.3837 5.67563ZM7.5 1.25C8.3288 1.25 9.12366 1.57924 9.70971 2.16529C10.2958 2.75134 10.625 3.5462 10.625 4.375C10.625 5.2038 10.2958 5.99866 9.70971 6.58471C9.12366 7.17076 8.3288 7.5 7.5 7.5C6.6712 7.5 5.87634 7.17076 5.29029 6.58471C4.70424 5.99866 4.375 5.2038 4.375 4.375C4.375 3.5462 4.70424 2.75134 5.29029 2.16529C5.87634 1.57924 6.6712 1.25 7.5 1.25Z" fill="black"/>
</g>
<defs>
<clipPath id="clip0_1152_669">
<rect width="15" height="15" fill="white"/>
</clipPath>
</defs>
</svg>
