<svg width="394" height="92" viewBox="0 0 394 92" fill="none" xmlns="http://www.w3.org/2000/svg">
<rect width="394" height="92" rx="14" fill="url(#paint0_linear_1_3)"/>
<path d="M23.657 50.245C25.367 50.245 26.507 49.257 26.849 47.642H30.155C29.737 50.986 27.191 53.247 23.676 53.247C19.781 53.247 16.836 50.435 16.836 46.54C16.836 42.645 19.781 39.833 23.676 39.833C27.191 39.833 29.737 42.094 30.155 45.438H26.849C26.507 43.823 25.367 42.835 23.657 42.835C21.548 42.835 20.085 44.393 20.085 46.54C20.085 48.687 21.548 50.245 23.657 50.245ZM37.5472 43.633V46.559C36.0462 46.616 35.0962 47.015 34.3742 47.718V53H31.2772V43.785H34.3742V44.773C35.1912 44.07 36.1792 43.633 37.5472 43.633ZM42.4208 43.538C45.6698 43.538 47.6268 45.856 47.1708 49.124H40.5018C40.7108 50.074 41.3378 50.815 42.5918 50.815C43.2758 50.815 43.6748 50.663 43.9598 50.321H47.0758C46.5248 52.126 44.8148 53.247 42.6488 53.247C39.6278 53.247 37.6138 51.195 37.6138 48.383C37.6138 45.59 39.5708 43.538 42.4208 43.538ZM42.4968 45.818C41.4138 45.818 40.7868 46.426 40.5398 47.357H44.3778C44.2068 46.293 43.5418 45.818 42.4968 45.818ZM54.8514 39.51H57.9294V53H54.8514V52.544C54.1674 52.981 53.3504 53.247 52.3244 53.247C49.8354 53.247 47.7454 51.157 47.7454 48.402C47.7454 45.666 49.8354 43.576 52.3244 43.576C53.3504 43.576 54.1674 43.842 54.8514 44.298V39.51ZM52.9514 50.663C53.6164 50.663 54.2624 50.492 54.8514 49.846V46.996C54.2624 46.35 53.6164 46.179 52.9514 46.179C51.6974 46.179 50.7664 47.148 50.7664 48.402C50.7664 49.694 51.6974 50.663 52.9514 50.663ZM61.0649 42.341C60.0579 42.341 59.2599 41.6 59.2599 40.612C59.2599 39.605 60.0579 38.864 61.0649 38.864C62.0529 38.864 62.8699 39.605 62.8699 40.612C62.8699 41.6 62.0529 42.341 61.0649 42.341ZM59.5449 43.785H62.6229V53H59.5449V43.785ZM71.2637 50.036L71.6057 52.791C70.6557 53.19 69.6677 53.247 69.1357 53.247C66.6277 53.247 65.1077 51.613 65.1077 49.124V46.426H63.3027V43.785H65.1077V40.65H68.1857V43.785H71.3207V46.426H68.1857V49.029C68.1857 49.979 68.7367 50.416 69.6297 50.416C70.2187 50.416 70.7127 50.245 71.2637 50.036ZM81.1544 43.538C84.1184 43.538 86.2084 45.571 86.2084 48.402C86.2084 51.252 84.1184 53.247 81.1544 53.247C78.1904 53.247 76.0814 51.252 76.0814 48.402C76.0814 45.571 78.1904 43.538 81.1544 43.538ZM81.1544 50.682C82.4274 50.682 83.3204 49.751 83.3204 48.402C83.3204 47.072 82.4274 46.122 81.1544 46.122C79.8624 46.122 78.9694 47.072 78.9694 48.402C78.9694 49.751 79.8624 50.682 81.1544 50.682ZM93.235 43.633V46.559C91.734 46.616 90.784 47.015 90.062 47.718V53H86.965V43.785H90.062V44.773C90.879 44.07 91.867 43.633 93.235 43.633ZM102.992 40.08C107.058 40.08 109.965 42.721 109.965 46.502C109.965 50.34 107.058 53 102.992 53H97.8047V40.08H102.992ZM102.992 50.112C105.101 50.112 106.716 48.554 106.716 46.502C106.716 44.507 105.101 42.968 102.992 42.968H101.016V50.112H102.992ZM115.236 43.538C118.485 43.538 120.442 45.856 119.986 49.124H113.317C113.526 50.074 114.153 50.815 115.407 50.815C116.091 50.815 116.49 50.663 116.775 50.321H119.891C119.34 52.126 117.63 53.247 115.464 53.247C112.443 53.247 110.429 51.195 110.429 48.383C110.429 45.59 112.386 43.538 115.236 43.538ZM115.312 45.818C114.229 45.818 113.602 46.426 113.355 47.357H117.193C117.022 46.293 116.357 45.818 115.312 45.818ZM126.528 43.576C129.017 43.576 131.107 45.666 131.107 48.402C131.107 51.157 129.017 53.247 126.528 53.247C125.521 53.247 124.704 52.981 124.02 52.544V53H120.923V39.51H124.02V44.279C124.704 43.842 125.521 43.576 126.528 43.576ZM125.92 50.663C127.174 50.663 128.086 49.694 128.086 48.402C128.086 47.148 127.174 46.179 125.92 46.179C125.255 46.179 124.59 46.35 124.02 46.977V49.865C124.59 50.492 125.255 50.663 125.92 50.663ZM133.769 42.341C132.762 42.341 131.964 41.6 131.964 40.612C131.964 39.605 132.762 38.864 133.769 38.864C134.757 38.864 135.574 39.605 135.574 40.612C135.574 41.6 134.757 42.341 133.769 42.341ZM132.249 43.785H135.327V53H132.249V43.785ZM143.968 50.036L144.31 52.791C143.36 53.19 142.372 53.247 141.84 53.247C139.332 53.247 137.812 51.613 137.812 49.124V46.426H136.007V43.785H137.812V40.65H140.89V43.785H144.025V46.426H140.89V49.029C140.89 49.979 141.441 50.416 142.334 50.416C142.923 50.416 143.417 50.245 143.968 50.036ZM155.11 50.245C156.82 50.245 157.96 49.257 158.302 47.642H161.608C161.19 50.986 158.644 53.247 155.129 53.247C151.234 53.247 148.289 50.435 148.289 46.54C148.289 42.645 151.234 39.833 155.129 39.833C158.644 39.833 161.19 42.094 161.608 45.438H158.302C157.96 43.823 156.82 42.835 155.11 42.835C153.001 42.835 151.538 44.393 151.538 46.54C151.538 48.687 153.001 50.245 155.11 50.245ZM169.177 43.785H172.255V53H169.177V52.506C168.493 52.962 167.676 53.247 166.65 53.247C164.161 53.247 162.071 51.119 162.071 48.383C162.071 45.628 164.161 43.538 166.65 43.538C167.676 43.538 168.493 43.804 169.177 44.26V43.785ZM167.277 50.625C167.942 50.625 168.588 50.454 169.177 49.808V46.958C168.588 46.312 167.942 46.141 167.277 46.141C166.023 46.141 165.092 47.11 165.092 48.383C165.092 49.656 166.023 50.625 167.277 50.625ZM179.856 43.633V46.559C178.355 46.616 177.405 47.015 176.683 47.718V53H173.586V43.785H176.683V44.773C177.5 44.07 178.488 43.633 179.856 43.633ZM187.028 39.51H190.106V53H187.028V52.544C186.344 52.981 185.527 53.247 184.501 53.247C182.012 53.247 179.922 51.157 179.922 48.402C179.922 45.666 182.012 43.576 184.501 43.576C185.527 43.576 186.344 43.842 187.028 44.298V39.51ZM185.128 50.663C185.793 50.663 186.439 50.492 187.028 49.846V46.996C186.439 46.35 185.793 46.179 185.128 46.179C183.874 46.179 182.943 47.148 182.943 48.402C182.943 49.694 183.874 50.663 185.128 50.663Z" fill="white"/>
<path d="M346.667 56.8333L357.5 46L346.667 35.1667" stroke="white" stroke-width="2.5" stroke-linecap="round" stroke-linejoin="round"/>
<defs>
<linearGradient id="paint0_linear_1_3" x1="11" y1="4.50001" x2="383.5" y2="80" gradientUnits="userSpaceOnUse">
<stop stop-color="#4CDB06"/>
<stop offset="1" stop-color="#3A9C0A"/>
</linearGradient>
</defs>
</svg>
