<svg width="148" height="131" viewBox="0 0 148 131" fill="none" xmlns="http://www.w3.org/2000/svg">
<path d="M123.281 52.1451C123.281 64.4058 119.05 75.6723 111.981 84.5679C102.425 96.5753 87.6887 104.281 71.1403 104.281C42.4412 104.281 19 81.0211 19 52.1403C19 39.8892 23.2303 28.6227 30.3095 19.7223C40.0798 7.39945 54.9935 0 71.1403 0C99.9351 0.00478001 123.281 23.336 123.281 52.1451Z" fill="#EDEDED"/>
<path d="M25.6442 97.4071C26.997 97.1442 28.3067 98.0476 28.5696 99.4004C28.8325 100.753 27.9434 102.058 26.5955 102.321C25.2427 102.584 23.9187 101.7 23.6558 100.347C23.3929 98.9988 24.2963 97.6652 25.6442 97.4071Z" fill="#D6DCE8"/>
<path d="M21.7342 92.6796C22.5946 92.5123 23.4311 93.0907 23.5936 93.9511C23.7609 94.8115 23.1969 95.6432 22.3365 95.8105C21.4761 95.9778 20.6348 95.4138 20.4675 94.5534C20.3002 93.693 20.8738 92.8469 21.7342 92.6796Z" fill="#D6DCE8"/>
<path d="M21.9731 0.492367C23.3259 0.229467 24.6356 1.13289 24.8985 2.48563C25.1614 3.83837 24.2723 5.14332 22.9244 5.40622C21.5716 5.66912 20.2476 4.78481 19.9847 3.43207C19.7265 2.07933 20.6252 0.750488 21.9731 0.492367Z" fill="#D6DCE8"/>
<path d="M107.755 11.7398C107.421 11.4339 107.401 10.9176 107.703 10.583C108.147 10.0954 108.573 9.58877 108.965 9.07253C109.237 8.71403 109.748 8.64233 110.112 8.91479C110.47 9.18725 110.542 9.69871 110.269 10.062C109.849 10.6213 109.39 11.1662 108.912 11.692C108.606 12.0266 108.09 12.0457 107.755 11.7398Z" fill="url(#paint0_linear_166_340)"/>
<path d="M47.6036 37.2554C46.5042 36.6818 45.247 36.2086 43.856 35.8405C43.421 35.7258 43.1581 35.2765 43.2729 34.8415C43.3876 34.4065 43.8369 34.1484 44.2719 34.2584C45.7776 34.6551 47.1495 35.1761 48.354 35.8071C48.7555 36.0174 48.9085 36.5097 48.703 36.9113C48.4926 37.3128 47.9955 37.461 47.6036 37.2554ZM39.8456 35.1044C38.6984 34.9658 37.5321 34.8606 35.6918 34.6838C35.2425 34.6408 34.9126 34.2392 34.9557 33.7899C34.9987 33.3406 35.3859 33.006 35.8495 33.0538L36.9489 33.159C37.9814 33.2546 39.0139 33.3549 40.0416 33.4792C40.4909 33.5318 40.8112 33.9429 40.7538 34.3922C40.7012 34.8367 40.2997 35.157 39.8456 35.1044ZM31.4662 34.1436C29.6976 33.8282 28.2923 33.4171 27.2694 33.0203C26.8488 32.8578 26.6384 32.3798 26.8057 31.9592C26.9683 31.5385 27.4463 31.3282 27.8621 31.4955C29.0667 31.964 30.4577 32.3033 31.7531 32.5328C32.1976 32.614 32.494 33.0347 32.4127 33.4792C32.3362 33.9285 31.906 34.2201 31.4662 34.1436ZM23.4263 30.8454C22.1691 29.8655 21.1606 28.7518 20.4292 27.5281C20.195 27.1409 20.324 26.639 20.7112 26.4048C21.0984 26.1706 21.6003 26.2996 21.8345 26.6868C22.4607 27.7336 23.3355 28.6992 24.4349 29.5548C24.7934 29.8321 24.8555 30.3483 24.5783 30.702C24.2962 31.0557 23.7848 31.1274 23.4263 30.8454ZM19.9416 23.9192C19.5019 23.9192 19.1386 23.6085 19.1243 23.164C19.1243 23.1544 19.1243 23.0684 19.1243 23.0588V22.9728C19.1243 21.5292 19.4971 20.1048 20.2332 18.7281C20.4483 18.3314 20.9407 18.1784 21.3374 18.3935C21.7342 18.6086 21.8871 19.1009 21.672 19.5025C21.065 20.6401 20.759 21.8064 20.759 22.9775C20.759 22.9871 20.759 23.054 20.759 23.0636C20.759 23.5129 20.4005 23.9144 19.956 23.9192C19.9512 23.9192 19.9464 23.9192 19.9416 23.9192ZM80.2223 21.4671C79.7778 21.4671 79.4145 21.1086 79.405 20.664C79.3954 20.2099 79.7587 19.8371 80.208 19.8323C81.5225 19.8084 82.7844 19.5264 83.9794 19.0197C84.3953 18.8428 84.8733 19.0388 85.0501 19.4547C85.227 19.8705 85.031 20.3533 84.6152 20.5254C83.2003 21.1277 81.7424 21.4384 80.2367 21.4671C80.2367 21.4671 80.2271 21.4671 80.2223 21.4671ZM75.8678 20.8696C74.3716 20.4633 72.9185 19.8849 71.8239 19.426C71.408 19.2539 71.2072 18.7711 71.3841 18.3553C71.5562 17.9394 72.039 17.7386 72.4548 17.9155C73.5064 18.3553 74.8974 18.9097 76.3027 19.2921C76.7377 19.4116 76.9958 19.861 76.8763 20.296C76.7568 20.7214 76.3171 20.9891 75.8678 20.8696ZM92.8416 18.6182C92.7938 18.1688 93.1188 17.7673 93.5681 17.7195C94.3042 17.6096 95.4562 17.5474 97.526 16.9356C97.9609 16.8065 98.415 17.0551 98.5441 17.4853C98.6732 17.9203 98.4246 18.3744 97.9944 18.5034C95.7669 19.1631 94.1656 19.2826 93.7402 19.3495C93.7115 19.3495 92.8894 19.0531 92.8416 18.6182ZM89.333 19.2348C87.8512 18.9671 86.3264 18.3983 85.141 17.4662C84.7872 17.1889 84.7251 16.6727 85.0023 16.319C85.2796 15.9653 85.7958 15.9031 86.1495 16.1804C86.4746 16.4337 86.8713 16.6727 87.2442 16.8591C88.2528 15.8936 89.0128 14.7703 89.4525 13.7569C89.6342 13.341 90.1122 13.1498 90.528 13.3363C90.9439 13.5179 91.1303 14.0007 90.9534 14.4118C90.5185 15.406 89.8254 16.5006 88.9315 17.4757C89.1562 17.5331 89.3856 17.5809 89.6198 17.6239C90.0644 17.7052 90.3607 18.1306 90.2795 18.5751C90.203 19.0245 89.7728 19.316 89.333 19.2348ZM67.9712 17.7912C66.6997 17.275 65.3947 16.7922 64.085 16.3524C63.6548 16.209 63.4254 15.7454 63.5736 15.3152C63.717 14.8898 64.1806 14.6555 64.6108 14.7989C65.9492 15.2483 67.2876 15.7454 68.5878 16.2712C69.0084 16.4385 69.2092 16.9165 69.0371 17.3371C68.865 17.753 68.3918 17.9633 67.9712 17.7912ZM101.656 16.9882C100.795 16.9882 100.523 15.8266 101.288 15.4395C102.492 14.8324 103.644 14.1106 104.72 13.3028C105.078 13.0303 105.595 13.102 105.867 13.4605C106.14 13.819 106.068 14.3353 105.709 14.6077C104.557 15.4777 103.319 16.2473 102.034 16.9021C101.904 16.9595 101.78 16.9882 101.656 16.9882ZM22.977 16.4289C22.6854 16.08 22.7332 15.5637 23.0821 15.2769C24.2293 14.3209 25.5151 13.6039 26.9061 13.0447C27.322 12.8774 27.8048 13.0781 27.9721 13.4988C28.1394 13.9194 27.9386 14.3926 27.518 14.5647C26.2943 15.0571 25.1519 15.688 24.1289 16.5389C23.7896 16.8209 23.2733 16.7779 22.977 16.4289ZM60.1176 15.1479C58.7888 14.7846 57.4313 14.4596 56.0881 14.1775C55.6435 14.0867 55.3615 13.6517 55.4571 13.2072C55.5479 12.7627 55.9829 12.4806 56.4275 12.5762C57.8041 12.863 59.1903 13.1976 60.5526 13.5705C60.9876 13.69 61.2457 14.1393 61.1262 14.5743C61.0067 15.0045 60.5574 15.2674 60.1176 15.1479ZM82.5311 13.6422C82.1869 12.4281 82.1917 11.1614 82.641 9.98069C82.7844 9.60785 82.9804 9.24935 83.229 8.91953C83.4966 8.55625 84.0081 8.47977 84.3714 8.75223C84.7347 9.01991 84.8111 9.53615 84.5387 9.89465C83.8599 10.8029 83.7834 12.0743 84.1037 13.1929C84.228 13.6278 83.9746 14.0819 83.5397 14.2062C83.1047 14.3305 82.6554 14.0772 82.5311 13.6422ZM30.4385 12.8152C30.3525 12.3707 30.6489 11.9453 31.0934 11.8592C33.1297 11.4768 35.0321 11.3382 35.3285 11.3095C35.7922 11.2761 36.1746 11.6011 36.2176 12.0504C36.2558 12.4998 35.926 12.8965 35.4767 12.9395L34.9031 12.9921C33.5456 13.1212 32.4366 13.2741 31.3993 13.4701C30.9548 13.5514 30.5246 13.2598 30.4385 12.8152ZM52.0107 13.4414C50.6484 13.2359 49.2622 13.0734 47.8951 12.9491C47.4458 12.9061 47.1112 12.5093 47.1542 12.06C47.1973 11.6107 47.6083 11.2856 48.0433 11.3191C49.4439 11.4434 50.8587 11.6155 52.2545 11.821C52.7038 11.8879 53.0097 12.3038 52.9428 12.7531C52.8711 13.2072 52.4553 13.5083 52.0107 13.4414ZM43.7556 12.7005C42.3742 12.6575 40.988 12.6575 39.6114 12.6957C39.1668 12.7101 38.7844 12.3516 38.7701 11.9023C38.7558 11.4482 39.1143 11.0753 39.5636 11.061C40.9737 11.0227 42.3886 11.0227 43.8034 11.0658C44.2528 11.0801 44.6113 11.4577 44.5969 11.907C44.5826 12.3755 44.1859 12.7196 43.7556 12.7005ZM89.8445 10.234C89.5242 9.17287 88.7069 8.47499 87.5071 8.45587C87.0577 8.44631 86.6945 8.07347 86.704 7.62415C86.7136 7.17961 87.0769 6.82111 87.5214 6.82111C87.5262 6.82111 87.531 6.82111 87.5357 6.82111C89.4477 6.85457 90.8818 8.02567 91.4123 9.76081C91.5414 10.1958 91.2976 10.6499 90.8674 10.7837C90.4372 10.9128 89.9783 10.669 89.8445 10.234Z" fill="#C7CFDE"/>
<path d="M51.9008 41.132C51.5853 40.6014 51.2125 40.0947 50.7823 39.6311C50.4764 39.2965 50.5003 38.7802 50.8301 38.4743C51.1647 38.1684 51.6809 38.1923 51.9868 38.5221C52.4935 39.0718 52.9381 39.6693 53.3061 40.2955C53.5356 40.6827 53.4065 41.1846 53.0193 41.414C52.6369 41.6482 52.135 41.5239 51.9008 41.132Z" fill="url(#paint1_linear_166_340)"/>
<path d="M113.687 56.0026V37.6904C113.687 34.2344 110.886 31.4334 107.43 31.4334H62.8804C60.7533 31.4334 58.7744 30.3531 57.6224 28.5654L55.3519 25.0473C54.1999 23.2595 52.221 22.1793 50.0939 22.1793H35.7156C32.2597 22.1793 29.4586 24.9803 29.4586 28.4363V56.0026H113.687Z" fill="url(#paint2_linear_166_340)"/>
<path d="M123.462 55.9501L115.441 89.0755C114.414 93.325 110.609 96.3173 106.235 96.3173H36.9106C32.5369 96.3173 28.732 93.325 27.7043 89.0755L19.6835 55.9501C18.3403 50.4101 22.5371 45.0756 28.2397 45.0756H114.901C120.604 45.0756 124.801 50.4101 123.462 55.9501Z" fill="url(#paint3_linear_166_340)"/>
<path d="M74.6536 83.9752C74.3429 83.9752 74.0322 83.8557 73.7932 83.6214C72.5409 82.3882 70.5954 82.3786 69.3574 83.5975C68.8746 84.0755 68.1002 84.066 67.6222 83.5832C67.149 83.1004 67.1538 82.3261 67.6366 81.8481C69.8019 79.7162 73.3391 79.721 75.5188 81.872C76.0016 82.35 76.0064 83.1243 75.5332 83.6071C75.2846 83.8557 74.9691 83.9752 74.6536 83.9752Z" fill="black"/>
<path d="M88.9554 72.6419C88.9554 74.7929 87.2107 76.5376 85.0596 76.5376C82.9086 76.5376 81.1639 74.7929 81.1639 72.6419C81.1639 70.4909 82.9086 68.7462 85.0596 68.7462C87.2107 68.7414 88.9554 70.4861 88.9554 72.6419Z" fill="black"/>
<path d="M92.4735 65.6774C92.3253 65.6774 92.1771 65.6487 92.0289 65.5962L83.0425 62.1163C82.4116 61.8725 82.0961 61.1603 82.3399 60.5293C82.5836 59.8984 83.2959 59.5829 83.9268 59.8267L92.9132 63.3065C93.5442 63.5503 93.8597 64.2625 93.6159 64.8935C93.4295 65.3763 92.9658 65.6774 92.4735 65.6774Z" fill="black"/>
<path d="M83.9364 74.2192C83.9364 74.8407 84.4383 75.3426 85.0597 75.3426C85.6811 75.3426 86.183 74.8407 86.183 74.2192C86.183 73.5978 85.6811 73.0959 85.0597 73.0959C84.4383 73.0959 83.9364 73.5978 83.9364 74.2192Z" fill="white"/>
<path d="M54.1952 72.6418C54.1952 74.7928 55.9399 76.5375 58.0909 76.5375C60.2419 76.5375 61.9866 74.7928 61.9866 72.6418C61.9866 70.4908 60.2419 68.7461 58.0909 68.7461C55.9399 68.7461 54.1952 70.486 54.1952 72.6418Z" fill="black"/>
<path d="M50.6771 65.6774C50.1847 65.6774 49.7211 65.381 49.5347 64.8935C49.2909 64.2625 49.6016 63.5503 50.2373 63.3065L59.2237 59.8267C59.8595 59.5829 60.5669 59.8936 60.8107 60.5293C61.0545 61.1603 60.7438 61.8725 60.108 62.1163L51.1216 65.5961C50.9734 65.6487 50.8205 65.6774 50.6771 65.6774Z" fill="black"/>
<path d="M58.273 75.3278C58.8854 75.2284 59.3013 74.6514 59.2019 74.0391C59.1025 73.4267 58.5255 73.0108 57.9131 73.1102C57.3008 73.2096 56.8849 73.7866 56.9843 74.399C57.0837 75.0114 57.6607 75.4272 58.273 75.3278Z" fill="white"/>
<path d="M118.516 98.0124C124.319 92.2089 124.319 82.7994 118.516 76.9959C112.712 71.1924 103.303 71.1924 97.4993 76.9959C91.6958 82.7995 91.6958 92.2088 97.4993 98.0124C103.303 103.816 112.712 103.816 118.516 98.0124Z" fill="white"/>
<path d="M108.009 103.186C99.3615 103.186 92.3253 96.1499 92.3253 87.5029C92.3253 78.8559 99.3615 71.8197 108.009 71.8197C116.656 71.8197 123.692 78.8559 123.692 87.5029C123.692 96.1499 116.656 103.186 108.009 103.186ZM108.009 73.4592C100.265 73.4592 93.9649 79.7593 93.9649 87.5029C93.9649 95.2465 100.265 101.547 108.009 101.547C115.752 101.547 122.052 95.2465 122.052 87.5029C122.052 79.7593 115.757 73.4592 108.009 73.4592Z" fill="#AAB2C5"/>
<path d="M108.009 97.5313C113.547 97.5313 118.037 93.0414 118.037 87.5028C118.037 81.9643 113.547 77.4744 108.009 77.4744C102.47 77.4744 97.9801 81.9643 97.9801 87.5028C97.9801 93.0414 102.47 97.5313 108.009 97.5313Z" fill="#F31D1D"/>
<path d="M112.277 91.7714C111.79 92.2733 110.967 92.2733 110.48 91.7714L108.009 89.3049L105.542 91.7714C105.045 92.2733 104.232 92.2733 103.745 91.7714C103.243 91.2838 103.243 90.4616 103.745 89.9741L106.211 87.5076L103.745 85.0363C103.243 84.5344 103.243 83.7314 103.745 83.2295C104.228 82.7324 105.04 82.7276 105.542 83.2295L108.009 85.696L110.48 83.2295C110.977 82.7324 111.785 82.7324 112.277 83.2295C112.755 83.6979 112.798 84.5153 112.277 85.0363L109.811 87.5076L112.277 89.9741C112.784 90.4712 112.784 91.279 112.277 91.7714Z" fill="white"/>
<path d="M120.068 2.01719L120.781 1.53919C120.656 1.45793 120.513 1.39101 120.341 1.34321C119.5 1.01339 119.949 -0.23419 120.805 0.0430502C121.249 0.215131 121.665 0.449351 121.961 0.740932L122.315 0.501931C122.64 0.282051 123.056 0.377651 123.262 0.683571C123.467 0.989492 123.4 1.41013 123.08 1.63001L122.726 1.86901C122.874 2.26097 122.946 2.68162 122.941 3.15962C122.936 3.53724 122.64 3.8575 122.258 3.8575C121.88 3.85272 121.574 3.54202 121.579 3.1644C121.574 2.98275 121.56 2.82502 121.531 2.67684L120.838 3.14528C120.752 2.94452 120.637 2.74375 120.503 2.54777C120.365 2.35657 120.217 2.17493 120.068 2.01719Z" fill="black"/>
<path d="M114.237 11.9309C114.141 11.6202 114.108 11.2904 114.103 10.9654C115.771 10.2914 117.85 9.18719 119.16 8.08301C119.906 9.61739 119.251 12.1604 117.645 13.2454C116.24 14.2014 114.715 13.6087 114.237 11.9309Z" fill="url(#paint4_linear_166_340)"/>
<path d="M109.505 1.21413C111.106 0.129065 113.725 0.473226 114.853 1.71125C113.319 2.52863 111.517 4.05823 110.298 5.33449C109.983 5.21977 109.705 5.05247 109.462 4.86605C108.08 3.80011 108.099 2.16057 109.505 1.21413Z" fill="url(#paint5_linear_166_340)"/>
<path d="M118.195 8.81433C114.519 11.2999 108.41 13.3267 107.201 11.5389C105.991 9.75599 110.15 4.83258 113.821 2.34698C117.492 -0.133844 119.289 0.760018 120.499 2.54296C121.708 4.33546 121.866 6.33351 118.195 8.81433Z" fill="url(#paint6_linear_166_340)"/>
<path d="M6.81133 117.48H8.71533V127H7.24533L2.09333 121.022V127H0.189331V117.48H1.60333L6.81133 123.626V117.48Z" fill="#6B6B6B"/>
<path d="M13.2517 120.154C15.3377 120.154 16.7937 121.596 16.7937 123.668C16.7937 125.726 15.3377 127.168 13.2517 127.168C11.1517 127.168 9.69566 125.726 9.69566 123.668C9.69566 121.596 11.1517 120.154 13.2517 120.154ZM13.2517 125.502C14.2597 125.502 14.9597 124.746 14.9597 123.668C14.9597 122.576 14.2597 121.82 13.2517 121.82C12.2297 121.82 11.5297 122.576 11.5297 123.668C11.5297 124.746 12.2297 125.502 13.2517 125.502Z" fill="#6B6B6B"/>
<path d="M27.7512 119.244H22.7532V121.694H27.1212V123.458H22.7532V127H20.8492V117.48H27.7512V119.244Z" fill="#6B6B6B"/>
<path d="M31.0404 120.154C33.1264 120.154 34.5824 121.596 34.5824 123.668C34.5824 125.726 33.1264 127.168 31.0404 127.168C28.9404 127.168 27.4844 125.726 27.4844 123.668C27.4844 121.596 28.9404 120.154 31.0404 120.154ZM31.0404 125.502C32.0484 125.502 32.7484 124.746 32.7484 123.668C32.7484 122.576 32.0484 121.82 31.0404 121.82C30.0184 121.82 29.3184 122.576 29.3184 123.668C29.3184 124.746 30.0184 125.502 31.0404 125.502Z" fill="#6B6B6B"/>
<path d="M38.6972 120.154C40.7832 120.154 42.2392 121.596 42.2392 123.668C42.2392 125.726 40.7832 127.168 38.6972 127.168C36.5972 127.168 35.1412 125.726 35.1412 123.668C35.1412 121.596 36.5972 120.154 38.6972 120.154ZM38.6972 125.502C39.7052 125.502 40.4052 124.746 40.4052 123.668C40.4052 122.576 39.7052 121.82 38.6972 121.82C37.6752 121.82 36.9752 122.576 36.9752 123.668C36.9752 124.746 37.6752 125.502 38.6972 125.502Z" fill="#6B6B6B"/>
<path d="M48.048 117.06H49.882V127H48.048V126.622C47.53 126.958 46.872 127.168 46.13 127.168C44.282 127.168 42.798 125.6 42.798 123.654C42.798 121.722 44.282 120.154 46.13 120.154C46.872 120.154 47.53 120.364 48.048 120.7V117.06ZM46.41 125.502C47.012 125.502 47.614 125.334 48.048 124.718V122.604C47.614 121.988 47.012 121.82 46.41 121.82C45.36 121.82 44.632 122.66 44.632 123.654C44.632 124.662 45.36 125.502 46.41 125.502Z" fill="#6B6B6B"/>
<path d="M57.934 117.48C60.216 117.48 61.728 118.81 61.728 120.812C61.728 122.94 60.104 124.34 57.654 124.34H56.17V127H54.266V117.48H57.934ZM57.864 122.59C59.054 122.59 59.852 121.876 59.852 120.812C59.852 119.874 59.054 119.23 57.864 119.23H56.17V122.59H57.864Z" fill="#6B6B6B"/>
<path d="M67.1629 120.322H68.9969V127H67.1629V126.622C66.6449 126.958 65.9869 127.168 65.2449 127.168C63.3969 127.168 61.9129 125.6 61.9129 123.668C61.9129 121.722 63.3969 120.154 65.2449 120.154C65.9869 120.154 66.6449 120.364 67.1629 120.7V120.322ZM65.5249 125.502C66.1269 125.502 66.7289 125.334 67.1629 124.718V122.604C66.7289 121.988 66.1269 121.82 65.5249 121.82C64.4749 121.82 63.7469 122.66 63.7469 123.668C63.7469 124.662 64.4749 125.502 65.5249 125.502Z" fill="#6B6B6B"/>
<path d="M73.3035 125.502C74.0595 125.502 74.6195 125.068 74.7595 124.424H76.6355C76.4255 126.034 75.0255 127.168 73.3035 127.168C71.3015 127.168 69.7475 125.656 69.7475 123.668C69.7475 121.68 71.3015 120.154 73.3035 120.154C75.0255 120.154 76.4255 121.302 76.6355 122.912H74.7595C74.6195 122.268 74.0595 121.82 73.3035 121.82C72.2535 121.82 71.5815 122.646 71.5815 123.668C71.5815 124.69 72.2535 125.502 73.3035 125.502Z" fill="#6B6B6B"/>
<path d="M82.2408 127L80.4068 124.424L79.2868 125.6V127H77.4528V117.06H79.2868V123.192L81.9608 120.322H84.2848L81.6668 123.094L84.6068 127H82.2408Z" fill="#6B6B6B"/>
<path d="M89.4361 120.322H91.2701V127H89.4361V126.622C88.9181 126.958 88.2601 127.168 87.5181 127.168C85.6701 127.168 84.1861 125.6 84.1861 123.668C84.1861 121.722 85.6701 120.154 87.5181 120.154C88.2601 120.154 88.9181 120.364 89.4361 120.7V120.322ZM87.798 125.502C88.4001 125.502 89.0021 125.334 89.4361 124.718V122.604C89.0021 121.988 88.4001 121.82 87.798 121.82C86.748 121.82 86.0201 122.66 86.0201 123.668C86.0201 124.662 86.748 125.502 87.798 125.502Z" fill="#6B6B6B"/>
<path d="M97.4073 120.322H99.2413V127.042C99.2413 129.128 97.8133 130.388 95.8253 130.388C93.9073 130.388 92.4793 129.198 92.3393 127.518H94.2013C94.2853 128.232 94.8733 128.722 95.8253 128.722C96.7213 128.722 97.4073 128.134 97.4073 127.042V126.188C96.8893 126.524 96.2313 126.72 95.4893 126.72C93.6413 126.72 92.1573 125.222 92.1573 123.5C92.1573 121.498 93.6413 120.154 95.4893 120.154C96.2313 120.154 96.8893 120.35 97.4073 120.686V120.322ZM95.7693 125.138C96.3713 125.138 96.9733 124.928 97.4073 124.298V122.576C96.9733 121.946 96.3713 121.736 95.7693 121.736C94.7193 121.736 93.9913 122.436 93.9913 123.5C93.9913 124.284 94.7193 125.138 95.7693 125.138Z" fill="#6B6B6B"/>
<path d="M103.504 120.154C105.8 120.154 107.186 121.89 106.836 124.2H101.936C102.076 124.97 102.58 125.558 103.63 125.558C104.12 125.558 104.456 125.474 104.694 125.18H106.724C106.276 126.44 105.086 127.168 103.616 127.168C101.474 127.168 100.06 125.656 100.06 123.668C100.06 121.68 101.46 120.154 103.504 120.154ZM103.518 121.708C102.622 121.708 102.146 122.254 101.978 122.954H105.016C104.918 122.1 104.372 121.708 103.518 121.708Z" fill="#6B6B6B"/>
<path d="M117.856 119.244H112.858V121.694H117.226V123.458H112.858V127H110.954V117.48H117.856V119.244Z" fill="#6B6B6B"/>
<path d="M121.145 120.154C123.231 120.154 124.687 121.596 124.687 123.668C124.687 125.726 123.231 127.168 121.145 127.168C119.045 127.168 117.589 125.726 117.589 123.668C117.589 121.596 119.045 120.154 121.145 120.154ZM121.145 125.502C122.153 125.502 122.853 124.746 122.853 123.668C122.853 122.576 122.153 121.82 121.145 121.82C120.123 121.82 119.423 122.576 119.423 123.668C119.423 124.746 120.123 125.502 121.145 125.502Z" fill="#6B6B6B"/>
<path d="M130.288 120.322H132.122V127H130.288V126.468C129.742 126.902 129.112 127.168 128.356 127.168C126.578 127.168 125.402 125.866 125.402 123.906V120.322H127.236V123.794C127.236 124.886 127.782 125.502 128.748 125.502C129.252 125.502 129.812 125.194 130.288 124.62V120.322Z" fill="#6B6B6B"/>
<path d="M137.086 120.154C138.864 120.154 140.04 121.414 140.04 123.374V127H138.206V123.486C138.206 122.394 137.66 121.82 136.694 121.82C136.19 121.82 135.63 122.114 135.154 122.674V127H133.32V120.322H135.154V120.826C135.7 120.392 136.33 120.154 137.086 120.154Z" fill="#6B6B6B"/>
<path d="M146.069 117.06H147.903V127H146.069V126.622C145.551 126.958 144.893 127.168 144.151 127.168C142.303 127.168 140.819 125.6 140.819 123.654C140.819 121.722 142.303 120.154 144.151 120.154C144.893 120.154 145.551 120.364 146.069 120.7V117.06ZM144.431 125.502C145.033 125.502 145.635 125.334 146.069 124.718V122.604C145.635 121.988 145.033 121.82 144.431 121.82C143.381 121.82 142.653 122.66 142.653 123.654C142.653 124.662 143.381 125.502 144.431 125.502Z" fill="#6B6B6B"/>
<defs>
<linearGradient id="paint0_linear_166_340" x1="19.1166" y1="10.3529" x2="110.438" y2="10.3529" gradientUnits="userSpaceOnUse">
<stop stop-color="#D6DCE8"/>
<stop offset="1" stop-color="white"/>
</linearGradient>
<linearGradient id="paint1_linear_166_340" x1="19.122" y1="39.8976" x2="110.438" y2="39.8976" gradientUnits="userSpaceOnUse">
<stop stop-color="#D6DCE8"/>
<stop offset="1" stop-color="white"/>
</linearGradient>
<linearGradient id="paint2_linear_166_340" x1="71.4077" y1="35.3026" x2="71.7007" y2="55.6696" gradientUnits="userSpaceOnUse">
<stop/>
<stop offset="1" stop-color="#818181"/>
</linearGradient>
<linearGradient id="paint3_linear_166_340" x1="71.4897" y1="38.8039" x2="71.6616" y2="69.7397" gradientUnits="userSpaceOnUse">
<stop stop-color="#4CDB06"/>
<stop offset="1" stop-color="#4CDB06"/>
</linearGradient>
<linearGradient id="paint4_linear_166_340" x1="118.771" y1="7.99141" x2="113.53" y2="10.5076" gradientUnits="userSpaceOnUse">
<stop stop-color="#2E2E2E"/>
<stop offset="1" stop-color="white"/>
</linearGradient>
<linearGradient id="paint5_linear_166_340" x1="114.021" y1="0.485584" x2="108.729" y2="4.06486" gradientUnits="userSpaceOnUse">
<stop stop-color="#2E2E2E"/>
<stop offset="1" stop-color="white"/>
</linearGradient>
<linearGradient id="paint6_linear_166_340" x1="111.662" y1="3.80937" x2="116.036" y2="10.2768" gradientUnits="userSpaceOnUse">
<stop/>
<stop offset="1" stop-color="#656565"/>
</linearGradient>
</defs>
</svg>
