<svg width="155" height="131" viewBox="0 0 155 131" fill="none" xmlns="http://www.w3.org/2000/svg">
<path d="M126.281 52.1451C126.281 64.4058 122.05 75.6723 114.981 84.5679C105.425 96.5753 90.6887 104.281 74.1403 104.281C45.4412 104.281 22 81.0211 22 52.1403C22 39.8892 26.2303 28.6227 33.3095 19.7223C43.0798 7.39945 57.9935 0 74.1403 0C102.935 0.00478001 126.281 23.336 126.281 52.1451Z" fill="#EDEDED"/>
<path d="M28.6442 97.4071C29.997 97.1442 31.3067 98.0476 31.5696 99.4004C31.8325 100.753 30.9434 102.058 29.5955 102.321C28.2427 102.584 26.9187 101.7 26.6558 100.347C26.3929 98.9988 27.2963 97.6652 28.6442 97.4071Z" fill="#D6DCE8"/>
<path d="M24.7342 92.6796C25.5946 92.5123 26.4311 93.0907 26.5936 93.9511C26.7609 94.8115 26.1969 95.6432 25.3365 95.8105C24.4761 95.9778 23.6348 95.4138 23.4675 94.5534C23.3002 93.693 23.8738 92.8469 24.7342 92.6796Z" fill="#D6DCE8"/>
<path d="M24.9731 0.492367C26.3259 0.229467 27.6356 1.13289 27.8985 2.48563C28.1614 3.83837 27.2723 5.14332 25.9244 5.40622C24.5716 5.66912 23.2476 4.78481 22.9847 3.43207C22.7265 2.07933 23.6252 0.750488 24.9731 0.492367Z" fill="#D6DCE8"/>
<path d="M110.755 11.7398C110.421 11.4339 110.401 10.9176 110.703 10.583C111.147 10.0954 111.573 9.58877 111.965 9.07253C112.237 8.71403 112.748 8.64233 113.112 8.91479C113.47 9.18725 113.542 9.69871 113.269 10.062C112.849 10.6213 112.39 11.1662 111.912 11.692C111.606 12.0266 111.09 12.0457 110.755 11.7398Z" fill="url(#paint0_linear_166_394)"/>
<path d="M50.6036 37.2554C49.5042 36.6818 48.247 36.2086 46.856 35.8405C46.421 35.7258 46.1581 35.2765 46.2729 34.8415C46.3876 34.4065 46.8369 34.1484 47.2719 34.2584C48.7776 34.6551 50.1495 35.1761 51.354 35.8071C51.7555 36.0174 51.9085 36.5097 51.703 36.9113C51.4926 37.3128 50.9955 37.461 50.6036 37.2554ZM42.8456 35.1044C41.6984 34.9658 40.5321 34.8606 38.6918 34.6838C38.2425 34.6408 37.9126 34.2392 37.9557 33.7899C37.9987 33.3406 38.3859 33.006 38.8495 33.0538L39.9489 33.159C40.9814 33.2546 42.0139 33.3549 43.0416 33.4792C43.4909 33.5318 43.8112 33.9429 43.7538 34.3922C43.7012 34.8367 43.2997 35.157 42.8456 35.1044ZM34.4662 34.1436C32.6976 33.8282 31.2923 33.4171 30.2694 33.0203C29.8488 32.8578 29.6384 32.3798 29.8057 31.9592C29.9683 31.5385 30.4463 31.3282 30.8621 31.4955C32.0667 31.964 33.4577 32.3033 34.7531 32.5328C35.1976 32.614 35.494 33.0347 35.4127 33.4792C35.3362 33.9285 34.906 34.2201 34.4662 34.1436ZM26.4263 30.8454C25.1691 29.8655 24.1606 28.7518 23.4292 27.5281C23.195 27.1409 23.324 26.639 23.7112 26.4048C24.0984 26.1706 24.6003 26.2996 24.8345 26.6868C25.4607 27.7336 26.3355 28.6992 27.4349 29.5548C27.7934 29.8321 27.8555 30.3483 27.5783 30.702C27.2962 31.0557 26.7848 31.1274 26.4263 30.8454ZM22.9416 23.9192C22.5019 23.9192 22.1386 23.6085 22.1243 23.164C22.1243 23.1544 22.1243 23.0684 22.1243 23.0588V22.9728C22.1243 21.5292 22.4971 20.1048 23.2332 18.7281C23.4483 18.3314 23.9407 18.1784 24.3374 18.3935C24.7342 18.6086 24.8871 19.1009 24.672 19.5025C24.065 20.6401 23.759 21.8064 23.759 22.9775C23.759 22.9871 23.759 23.054 23.759 23.0636C23.759 23.5129 23.4005 23.9144 22.956 23.9192C22.9512 23.9192 22.9464 23.9192 22.9416 23.9192ZM83.2223 21.4671C82.7778 21.4671 82.4145 21.1086 82.405 20.664C82.3954 20.2099 82.7587 19.8371 83.208 19.8323C84.5225 19.8084 85.7844 19.5264 86.9794 19.0197C87.3953 18.8428 87.8733 19.0388 88.0501 19.4547C88.227 19.8705 88.031 20.3533 87.6152 20.5254C86.2003 21.1277 84.7424 21.4384 83.2367 21.4671C83.2367 21.4671 83.2271 21.4671 83.2223 21.4671ZM78.8678 20.8696C77.3716 20.4633 75.9185 19.8849 74.8239 19.426C74.408 19.2539 74.2072 18.7711 74.3841 18.3553C74.5562 17.9394 75.039 17.7386 75.4548 17.9155C76.5064 18.3553 77.8974 18.9097 79.3027 19.2921C79.7377 19.4116 79.9958 19.861 79.8763 20.296C79.7568 20.7214 79.3171 20.9891 78.8678 20.8696ZM95.8416 18.6182C95.7938 18.1688 96.1188 17.7673 96.5681 17.7195C97.3042 17.6096 98.4562 17.5474 100.526 16.9356C100.961 16.8065 101.415 17.0551 101.544 17.4853C101.673 17.9203 101.425 18.3744 100.994 18.5034C98.7669 19.1631 97.1656 19.2826 96.7402 19.3495C96.7115 19.3495 95.8894 19.0531 95.8416 18.6182ZM92.333 19.2348C90.8512 18.9671 89.3264 18.3983 88.141 17.4662C87.7872 17.1889 87.7251 16.6727 88.0023 16.319C88.2796 15.9653 88.7958 15.9031 89.1495 16.1804C89.4746 16.4337 89.8713 16.6727 90.2442 16.8591C91.2528 15.8936 92.0128 14.7703 92.4525 13.7569C92.6342 13.341 93.1122 13.1498 93.528 13.3363C93.9439 13.5179 94.1303 14.0007 93.9534 14.4118C93.5185 15.406 92.8254 16.5006 91.9315 17.4757C92.1562 17.5331 92.3856 17.5809 92.6198 17.6239C93.0644 17.7052 93.3607 18.1306 93.2795 18.5751C93.203 19.0245 92.7728 19.316 92.333 19.2348ZM70.9712 17.7912C69.6997 17.275 68.3947 16.7922 67.085 16.3524C66.6548 16.209 66.4254 15.7454 66.5736 15.3152C66.717 14.8898 67.1806 14.6555 67.6108 14.7989C68.9492 15.2483 70.2876 15.7454 71.5878 16.2712C72.0084 16.4385 72.2092 16.9165 72.0371 17.3371C71.865 17.753 71.3918 17.9633 70.9712 17.7912ZM104.656 16.9882C103.795 16.9882 103.523 15.8266 104.288 15.4395C105.492 14.8324 106.644 14.1106 107.72 13.3028C108.078 13.0303 108.595 13.102 108.867 13.4605C109.14 13.819 109.068 14.3353 108.709 14.6077C107.557 15.4777 106.319 16.2473 105.034 16.9021C104.904 16.9595 104.78 16.9882 104.656 16.9882ZM25.977 16.4289C25.6854 16.08 25.7332 15.5637 26.0821 15.2769C27.2293 14.3209 28.5151 13.6039 29.9061 13.0447C30.322 12.8774 30.8048 13.0781 30.9721 13.4988C31.1394 13.9194 30.9386 14.3926 30.518 14.5647C29.2943 15.0571 28.1519 15.688 27.1289 16.5389C26.7896 16.8209 26.2733 16.7779 25.977 16.4289ZM63.1176 15.1479C61.7888 14.7846 60.4313 14.4596 59.0881 14.1775C58.6435 14.0867 58.3615 13.6517 58.4571 13.2072C58.5479 12.7627 58.9829 12.4806 59.4275 12.5762C60.8041 12.863 62.1903 13.1976 63.5526 13.5705C63.9876 13.69 64.2457 14.1393 64.1262 14.5743C64.0067 15.0045 63.5574 15.2674 63.1176 15.1479ZM85.5311 13.6422C85.1869 12.4281 85.1917 11.1614 85.641 9.98069C85.7844 9.60785 85.9804 9.24935 86.229 8.91953C86.4966 8.55625 87.0081 8.47977 87.3714 8.75223C87.7347 9.01991 87.8111 9.53615 87.5387 9.89465C86.8599 10.8029 86.7834 12.0743 87.1037 13.1929C87.228 13.6278 86.9746 14.0819 86.5397 14.2062C86.1047 14.3305 85.6554 14.0772 85.5311 13.6422ZM33.4385 12.8152C33.3525 12.3707 33.6489 11.9453 34.0934 11.8592C36.1297 11.4768 38.0321 11.3382 38.3285 11.3095C38.7922 11.2761 39.1746 11.6011 39.2176 12.0504C39.2558 12.4998 38.926 12.8965 38.4767 12.9395L37.9031 12.9921C36.5456 13.1212 35.4366 13.2741 34.3993 13.4701C33.9548 13.5514 33.5246 13.2598 33.4385 12.8152ZM55.0107 13.4414C53.6484 13.2359 52.2622 13.0734 50.8951 12.9491C50.4458 12.9061 50.1112 12.5093 50.1542 12.06C50.1973 11.6107 50.6083 11.2856 51.0433 11.3191C52.4439 11.4434 53.8587 11.6155 55.2545 11.821C55.7038 11.8879 56.0097 12.3038 55.9428 12.7531C55.8711 13.2072 55.4553 13.5083 55.0107 13.4414ZM46.7556 12.7005C45.3742 12.6575 43.988 12.6575 42.6114 12.6957C42.1668 12.7101 41.7844 12.3516 41.7701 11.9023C41.7558 11.4482 42.1143 11.0753 42.5636 11.061C43.9737 11.0227 45.3886 11.0227 46.8034 11.0658C47.2528 11.0801 47.6113 11.4577 47.5969 11.907C47.5826 12.3755 47.1859 12.7196 46.7556 12.7005ZM92.8445 10.234C92.5242 9.17287 91.7069 8.47499 90.5071 8.45587C90.0577 8.44631 89.6945 8.07347 89.704 7.62415C89.7136 7.17961 90.0769 6.82111 90.5214 6.82111C90.5262 6.82111 90.531 6.82111 90.5357 6.82111C92.4477 6.85457 93.8818 8.02567 94.4123 9.76081C94.5414 10.1958 94.2976 10.6499 93.8674 10.7837C93.4372 10.9128 92.9783 10.669 92.8445 10.234Z" fill="#C7CFDE"/>
<path d="M54.9008 41.132C54.5853 40.6014 54.2125 40.0947 53.7823 39.6311C53.4764 39.2965 53.5003 38.7802 53.8301 38.4743C54.1647 38.1684 54.6809 38.1923 54.9868 38.5221C55.4935 39.0718 55.9381 39.6693 56.3061 40.2955C56.5356 40.6827 56.4065 41.1846 56.0193 41.414C55.6369 41.6482 55.135 41.5239 54.9008 41.132Z" fill="url(#paint1_linear_166_394)"/>
<path d="M116.687 56.0026V37.6904C116.687 34.2344 113.886 31.4334 110.43 31.4334H65.8804C63.7533 31.4334 61.7744 30.3531 60.6224 28.5654L58.3519 25.0473C57.1999 23.2595 55.221 22.1793 53.0939 22.1793H38.7156C35.2597 22.1793 32.4586 24.9803 32.4586 28.4363V56.0026H116.687Z" fill="url(#paint2_linear_166_394)"/>
<path d="M126.462 55.9501L118.441 89.0755C117.414 93.325 113.609 96.3173 109.235 96.3173H39.9106C35.5369 96.3173 31.732 93.325 30.7043 89.0755L22.6835 55.9501C21.3403 50.4101 25.5371 45.0756 31.2397 45.0756H117.901C123.604 45.0756 127.801 50.4101 126.462 55.9501Z" fill="url(#paint3_linear_166_394)"/>
<path d="M77.6536 83.9752C77.3429 83.9752 77.0322 83.8557 76.7932 83.6214C75.5409 82.3882 73.5954 82.3786 72.3574 83.5975C71.8746 84.0755 71.1002 84.066 70.6222 83.5832C70.149 83.1004 70.1538 82.3261 70.6366 81.8481C72.8019 79.7162 76.3391 79.721 78.5188 81.872C79.0016 82.35 79.0064 83.1243 78.5332 83.6071C78.2846 83.8557 77.9691 83.9752 77.6536 83.9752Z" fill="black"/>
<path d="M91.9554 72.6419C91.9554 74.7929 90.2107 76.5376 88.0596 76.5376C85.9086 76.5376 84.1639 74.7929 84.1639 72.6419C84.1639 70.4909 85.9086 68.7462 88.0596 68.7462C90.2107 68.7414 91.9554 70.4861 91.9554 72.6419Z" fill="black"/>
<path d="M95.4735 65.6774C95.3253 65.6774 95.1771 65.6487 95.0289 65.5962L86.0425 62.1163C85.4116 61.8725 85.0961 61.1603 85.3399 60.5293C85.5836 59.8984 86.2959 59.5829 86.9268 59.8267L95.9132 63.3065C96.5442 63.5503 96.8597 64.2625 96.6159 64.8935C96.4295 65.3763 95.9658 65.6774 95.4735 65.6774Z" fill="black"/>
<path d="M86.9364 74.2192C86.9364 74.8407 87.4383 75.3426 88.0597 75.3426C88.6811 75.3426 89.183 74.8407 89.183 74.2192C89.183 73.5978 88.6811 73.0959 88.0597 73.0959C87.4383 73.0959 86.9364 73.5978 86.9364 74.2192Z" fill="white"/>
<path d="M57.1952 72.6418C57.1952 74.7928 58.9399 76.5375 61.0909 76.5375C63.2419 76.5375 64.9866 74.7928 64.9866 72.6418C64.9866 70.4908 63.2419 68.7461 61.0909 68.7461C58.9399 68.7461 57.1952 70.486 57.1952 72.6418Z" fill="black"/>
<path d="M53.6771 65.6774C53.1847 65.6774 52.7211 65.381 52.5347 64.8935C52.2909 64.2625 52.6016 63.5503 53.2373 63.3065L62.2237 59.8267C62.8595 59.5829 63.5669 59.8936 63.8107 60.5293C64.0545 61.1603 63.7438 61.8725 63.108 62.1163L54.1216 65.5961C53.9734 65.6487 53.8205 65.6774 53.6771 65.6774Z" fill="black"/>
<path d="M61.273 75.3278C61.8854 75.2284 62.3013 74.6514 62.2019 74.0391C62.1025 73.4267 61.5255 73.0108 60.9131 73.1102C60.3008 73.2096 59.8849 73.7866 59.9843 74.399C60.0837 75.0114 60.6607 75.4272 61.273 75.3278Z" fill="white"/>
<path d="M121.516 98.0124C127.319 92.2089 127.319 82.7994 121.516 76.9959C115.712 71.1924 106.303 71.1924 100.499 76.9959C94.6958 82.7995 94.6958 92.2088 100.499 98.0124C106.303 103.816 115.712 103.816 121.516 98.0124Z" fill="white"/>
<path d="M111.009 103.186C102.361 103.186 95.3253 96.1499 95.3253 87.5029C95.3253 78.8559 102.361 71.8197 111.009 71.8197C119.656 71.8197 126.692 78.8559 126.692 87.5029C126.692 96.1499 119.656 103.186 111.009 103.186ZM111.009 73.4592C103.265 73.4592 96.9649 79.7593 96.9649 87.5029C96.9649 95.2465 103.265 101.547 111.009 101.547C118.752 101.547 125.052 95.2465 125.052 87.5029C125.052 79.7593 118.757 73.4592 111.009 73.4592Z" fill="#AAB2C5"/>
<path d="M111.009 97.5313C116.547 97.5313 121.037 93.0414 121.037 87.5028C121.037 81.9643 116.547 77.4744 111.009 77.4744C105.47 77.4744 100.98 81.9643 100.98 87.5028C100.98 93.0414 105.47 97.5313 111.009 97.5313Z" fill="#F31D1D"/>
<path d="M115.277 91.7714C114.79 92.2733 113.967 92.2733 113.48 91.7714L111.009 89.3049L108.542 91.7714C108.045 92.2733 107.232 92.2733 106.745 91.7714C106.243 91.2838 106.243 90.4616 106.745 89.9741L109.211 87.5076L106.745 85.0363C106.243 84.5344 106.243 83.7314 106.745 83.2295C107.228 82.7324 108.04 82.7276 108.542 83.2295L111.009 85.696L113.48 83.2295C113.977 82.7324 114.785 82.7324 115.277 83.2295C115.755 83.6979 115.798 84.5153 115.277 85.0363L112.811 87.5076L115.277 89.9741C115.784 90.4712 115.784 91.279 115.277 91.7714Z" fill="white"/>
<path d="M123.068 2.01719L123.781 1.53919C123.656 1.45793 123.513 1.39101 123.341 1.34321C122.5 1.01339 122.949 -0.23419 123.805 0.0430502C124.249 0.215131 124.665 0.449351 124.961 0.740932L125.315 0.501931C125.64 0.282051 126.056 0.377651 126.262 0.683571C126.467 0.989492 126.4 1.41013 126.08 1.63001L125.726 1.86901C125.874 2.26097 125.946 2.68162 125.941 3.15962C125.936 3.53724 125.64 3.8575 125.258 3.8575C124.88 3.85272 124.574 3.54202 124.579 3.1644C124.574 2.98275 124.56 2.82502 124.531 2.67684L123.838 3.14528C123.752 2.94452 123.637 2.74375 123.503 2.54777C123.365 2.35657 123.217 2.17493 123.068 2.01719Z" fill="black"/>
<path d="M117.237 11.9309C117.141 11.6202 117.108 11.2904 117.103 10.9654C118.771 10.2914 120.85 9.18719 122.16 8.08301C122.906 9.61739 122.251 12.1604 120.645 13.2454C119.24 14.2014 117.715 13.6087 117.237 11.9309Z" fill="url(#paint4_linear_166_394)"/>
<path d="M112.505 1.21413C114.106 0.129065 116.725 0.473226 117.853 1.71125C116.319 2.52863 114.517 4.05823 113.298 5.33449C112.983 5.21977 112.705 5.05247 112.462 4.86605C111.08 3.80011 111.099 2.16057 112.505 1.21413Z" fill="url(#paint5_linear_166_394)"/>
<path d="M121.195 8.81433C117.519 11.2999 111.41 13.3267 110.201 11.5389C108.991 9.75599 113.15 4.83258 116.821 2.34698C120.492 -0.133844 122.289 0.760018 123.499 2.54296C124.708 4.33546 124.866 6.33351 121.195 8.81433Z" fill="url(#paint6_linear_166_394)"/>
<path d="M6.64629 117.48H8.55029V127H7.08029L1.92829 121.022V127H0.024292V117.48H1.43829L6.64629 123.626V117.48Z" fill="#6B6B6B"/>
<path d="M13.0866 120.154C15.1726 120.154 16.6286 121.596 16.6286 123.668C16.6286 125.726 15.1726 127.168 13.0866 127.168C10.9866 127.168 9.53062 125.726 9.53062 123.668C9.53062 121.596 10.9866 120.154 13.0866 120.154ZM13.0866 125.502C14.0946 125.502 14.7946 124.746 14.7946 123.668C14.7946 122.576 14.0946 121.82 13.0866 121.82C12.0646 121.82 11.3646 122.576 11.3646 123.668C11.3646 124.746 12.0646 125.502 13.0866 125.502Z" fill="#6B6B6B"/>
<path d="M26.9841 117.48H28.8881V127H26.9841V123.234H22.5881V127H20.6841V117.48H22.5881V121.47H26.9841V117.48Z" fill="#6B6B6B"/>
<path d="M33.4183 120.154C35.5043 120.154 36.9603 121.596 36.9603 123.668C36.9603 125.726 35.5043 127.168 33.4183 127.168C31.3183 127.168 29.8623 125.726 29.8623 123.668C29.8623 121.596 31.3183 120.154 33.4183 120.154ZM33.4183 125.502C34.4263 125.502 35.1263 124.746 35.1263 123.668C35.1263 122.576 34.4263 121.82 33.4183 121.82C32.3963 121.82 31.6963 122.576 31.6963 123.668C31.6963 124.746 32.3963 125.502 33.4183 125.502Z" fill="#6B6B6B"/>
<path d="M45.6844 120.154C47.4904 120.154 48.7504 121.274 48.7504 123.29V127H46.9164V123.29C46.9164 122.254 46.3704 121.82 45.5584 121.82C45.0544 121.82 44.5364 121.988 44.1024 122.52C44.1304 122.73 44.1444 122.94 44.1444 123.178V127H42.3104V123.178C42.3104 122.156 41.7644 121.82 41.0644 121.82C40.4904 121.82 39.9724 122.044 39.5384 122.604V127H37.7044V120.322H39.5384V120.77C39.9864 120.392 40.5044 120.154 41.3024 120.154C42.1844 120.154 42.9264 120.434 43.4304 120.994C44.0884 120.434 44.7744 120.154 45.6844 120.154Z" fill="#6B6B6B"/>
<path d="M52.9813 120.154C55.2773 120.154 56.6633 121.89 56.3133 124.2H51.4133C51.5533 124.97 52.0573 125.558 53.1073 125.558C53.5973 125.558 53.9333 125.474 54.1713 125.18H56.2013C55.7533 126.44 54.5633 127.168 53.0933 127.168C50.9513 127.168 49.5373 125.656 49.5373 123.668C49.5373 121.68 50.9373 120.154 52.9813 120.154ZM52.9953 121.708C52.0993 121.708 51.6233 122.254 51.4553 122.954H54.4933C54.3953 122.1 53.8493 121.708 52.9953 121.708Z" fill="#6B6B6B"/>
<path d="M64.099 117.48C66.381 117.48 67.893 118.81 67.893 120.812C67.893 122.94 66.269 124.34 63.819 124.34H62.335V127H60.431V117.48H64.099ZM64.029 122.59C65.219 122.59 66.017 121.876 66.017 120.812C66.017 119.874 65.219 119.23 64.029 119.23H62.335V122.59H64.029Z" fill="#6B6B6B"/>
<path d="M73.328 120.322H75.162V127H73.328V126.622C72.81 126.958 72.152 127.168 71.41 127.168C69.562 127.168 68.078 125.6 68.078 123.668C68.078 121.722 69.562 120.154 71.41 120.154C72.152 120.154 72.81 120.364 73.328 120.7V120.322ZM71.69 125.502C72.292 125.502 72.894 125.334 73.328 124.718V122.604C72.894 121.988 72.292 121.82 71.69 121.82C70.64 121.82 69.912 122.66 69.912 123.668C69.912 124.662 70.64 125.502 71.69 125.502Z" fill="#6B6B6B"/>
<path d="M79.4685 125.502C80.2245 125.502 80.7845 125.068 80.9245 124.424H82.8005C82.5905 126.034 81.1905 127.168 79.4685 127.168C77.4665 127.168 75.9125 125.656 75.9125 123.668C75.9125 121.68 77.4665 120.154 79.4685 120.154C81.1905 120.154 82.5905 121.302 82.8005 122.912H80.9245C80.7845 122.268 80.2245 121.82 79.4685 121.82C78.4185 121.82 77.7465 122.646 77.7465 123.668C77.7465 124.69 78.4185 125.502 79.4685 125.502Z" fill="#6B6B6B"/>
<path d="M88.4059 127L86.5719 124.424L85.4519 125.6V127H83.6179V117.06H85.4519V123.192L88.1259 120.322H90.4499L87.8318 123.094L90.7719 127H88.4059Z" fill="#6B6B6B"/>
<path d="M95.6011 120.322H97.4351V127H95.6011V126.622C95.0831 126.958 94.4251 127.168 93.6831 127.168C91.8351 127.168 90.3511 125.6 90.3511 123.668C90.3511 121.722 91.8351 120.154 93.6831 120.154C94.4251 120.154 95.0831 120.364 95.6011 120.7V120.322ZM93.9631 125.502C94.5651 125.502 95.1671 125.334 95.6011 124.718V122.604C95.1671 121.988 94.5651 121.82 93.9631 121.82C92.9131 121.82 92.1851 122.66 92.1851 123.668C92.1851 124.662 92.9131 125.502 93.9631 125.502Z" fill="#6B6B6B"/>
<path d="M103.572 120.322H105.406V127.042C105.406 129.128 103.978 130.388 101.99 130.388C100.072 130.388 98.6443 129.198 98.5043 127.518H100.366C100.45 128.232 101.038 128.722 101.99 128.722C102.886 128.722 103.572 128.134 103.572 127.042V126.188C103.054 126.524 102.396 126.72 101.654 126.72C99.8063 126.72 98.3223 125.222 98.3223 123.5C98.3223 121.498 99.8063 120.154 101.654 120.154C102.396 120.154 103.054 120.35 103.572 120.686V120.322ZM101.934 125.138C102.536 125.138 103.138 124.928 103.572 124.298V122.576C103.138 121.946 102.536 121.736 101.934 121.736C100.884 121.736 100.156 122.436 100.156 123.5C100.156 124.284 100.884 125.138 101.934 125.138Z" fill="#6B6B6B"/>
<path d="M109.669 120.154C111.965 120.154 113.351 121.89 113.001 124.2H108.101C108.241 124.97 108.745 125.558 109.795 125.558C110.285 125.558 110.621 125.474 110.859 125.18H112.889C112.441 126.44 111.251 127.168 109.781 127.168C107.639 127.168 106.225 125.656 106.225 123.668C106.225 121.68 107.625 120.154 109.669 120.154ZM109.683 121.708C108.787 121.708 108.311 122.254 108.143 122.954H111.181C111.083 122.1 110.537 121.708 109.683 121.708Z" fill="#6B6B6B"/>
<path d="M124.021 119.244H119.023V121.694H123.391V123.458H119.023V127H117.119V117.48H124.021V119.244Z" fill="#6B6B6B"/>
<path d="M127.31 120.154C129.396 120.154 130.852 121.596 130.852 123.668C130.852 125.726 129.396 127.168 127.31 127.168C125.21 127.168 123.754 125.726 123.754 123.668C123.754 121.596 125.21 120.154 127.31 120.154ZM127.31 125.502C128.318 125.502 129.018 124.746 129.018 123.668C129.018 122.576 128.318 121.82 127.31 121.82C126.288 121.82 125.588 122.576 125.588 123.668C125.588 124.746 126.288 125.502 127.31 125.502Z" fill="#6B6B6B"/>
<path d="M136.453 120.322H138.287V127H136.453V126.468C135.907 126.902 135.277 127.168 134.521 127.168C132.743 127.168 131.567 125.866 131.567 123.906V120.322H133.401V123.794C133.401 124.886 133.947 125.502 134.913 125.502C135.417 125.502 135.977 125.194 136.453 124.62V120.322Z" fill="#6B6B6B"/>
<path d="M143.252 120.154C145.03 120.154 146.206 121.414 146.206 123.374V127H144.372V123.486C144.372 122.394 143.825 121.82 142.859 121.82C142.355 121.82 141.796 122.114 141.32 122.674V127H139.486V120.322H141.32V120.826C141.866 120.392 142.496 120.154 143.252 120.154Z" fill="#6B6B6B"/>
<path d="M152.234 117.06H154.068V127H152.234V126.622C151.716 126.958 151.058 127.168 150.316 127.168C148.468 127.168 146.984 125.6 146.984 123.654C146.984 121.722 148.468 120.154 150.316 120.154C151.058 120.154 151.716 120.364 152.234 120.7V117.06ZM150.596 125.502C151.198 125.502 151.8 125.334 152.234 124.718V122.604C151.8 121.988 151.198 121.82 150.596 121.82C149.546 121.82 148.818 122.66 148.818 123.654C148.818 124.662 149.546 125.502 150.596 125.502Z" fill="#6B6B6B"/>
<defs>
<linearGradient id="paint0_linear_166_394" x1="22.1166" y1="10.3529" x2="113.438" y2="10.3529" gradientUnits="userSpaceOnUse">
<stop stop-color="#D6DCE8"/>
<stop offset="1" stop-color="white"/>
</linearGradient>
<linearGradient id="paint1_linear_166_394" x1="22.122" y1="39.8976" x2="113.438" y2="39.8976" gradientUnits="userSpaceOnUse">
<stop stop-color="#D6DCE8"/>
<stop offset="1" stop-color="white"/>
</linearGradient>
<linearGradient id="paint2_linear_166_394" x1="74.4077" y1="35.3026" x2="74.7007" y2="55.6696" gradientUnits="userSpaceOnUse">
<stop/>
<stop offset="1" stop-color="#818181"/>
</linearGradient>
<linearGradient id="paint3_linear_166_394" x1="74.4897" y1="38.8039" x2="74.6616" y2="69.7397" gradientUnits="userSpaceOnUse">
<stop stop-color="#4CDB06"/>
<stop offset="1" stop-color="#4CDB06"/>
</linearGradient>
<linearGradient id="paint4_linear_166_394" x1="121.771" y1="7.99141" x2="116.53" y2="10.5076" gradientUnits="userSpaceOnUse">
<stop stop-color="#2E2E2E"/>
<stop offset="1" stop-color="white"/>
</linearGradient>
<linearGradient id="paint5_linear_166_394" x1="117.021" y1="0.485584" x2="111.729" y2="4.06486" gradientUnits="userSpaceOnUse">
<stop stop-color="#2E2E2E"/>
<stop offset="1" stop-color="white"/>
</linearGradient>
<linearGradient id="paint6_linear_166_394" x1="114.662" y1="3.80937" x2="119.036" y2="10.2768" gradientUnits="userSpaceOnUse">
<stop/>
<stop offset="1" stop-color="#656565"/>
</linearGradient>
</defs>
</svg>
