<svg width="146" height="131" viewBox="0 0 146 131" fill="none" xmlns="http://www.w3.org/2000/svg">
<path d="M122.281 52.1451C122.281 64.4058 118.05 75.6723 110.981 84.5679C101.425 96.5753 86.6887 104.281 70.1403 104.281C41.4412 104.281 18 81.0211 18 52.1403C18 39.8892 22.2303 28.6227 29.3095 19.7223C39.0798 7.39945 53.9935 0 70.1403 0C98.9351 0.00478001 122.281 23.336 122.281 52.1451Z" fill="#EDEDED"/>
<path d="M24.6442 97.4071C25.997 97.1442 27.3067 98.0476 27.5696 99.4004C27.8325 100.753 26.9434 102.058 25.5955 102.321C24.2427 102.584 22.9187 101.7 22.6558 100.347C22.3929 98.9988 23.2963 97.6652 24.6442 97.4071Z" fill="#D6DCE8"/>
<path d="M20.7342 92.6796C21.5946 92.5123 22.4311 93.0907 22.5936 93.9511C22.7609 94.8115 22.1969 95.6432 21.3365 95.8105C20.4761 95.9778 19.6348 95.4138 19.4675 94.5534C19.3002 93.693 19.8738 92.8469 20.7342 92.6796Z" fill="#D6DCE8"/>
<path d="M20.9731 0.492367C22.3259 0.229467 23.6356 1.13289 23.8985 2.48563C24.1614 3.83837 23.2723 5.14332 21.9244 5.40622C20.5716 5.66912 19.2476 4.78481 18.9847 3.43207C18.7265 2.07933 19.6252 0.750488 20.9731 0.492367Z" fill="#D6DCE8"/>
<path d="M106.755 11.7398C106.421 11.4339 106.401 10.9176 106.703 10.583C107.147 10.0954 107.573 9.58877 107.965 9.07253C108.237 8.71403 108.748 8.64233 109.112 8.91479C109.47 9.18725 109.542 9.69871 109.269 10.062C108.849 10.6213 108.39 11.1662 107.912 11.692C107.606 12.0266 107.09 12.0457 106.755 11.7398Z" fill="url(#paint0_linear_166_286)"/>
<path d="M46.6036 37.2554C45.5042 36.6818 44.247 36.2086 42.856 35.8405C42.421 35.7258 42.1581 35.2765 42.2729 34.8415C42.3876 34.4065 42.8369 34.1484 43.2719 34.2584C44.7776 34.6551 46.1495 35.1761 47.354 35.8071C47.7555 36.0174 47.9085 36.5097 47.703 36.9113C47.4926 37.3128 46.9955 37.461 46.6036 37.2554ZM38.8456 35.1044C37.6984 34.9658 36.5321 34.8606 34.6918 34.6838C34.2425 34.6408 33.9126 34.2392 33.9557 33.7899C33.9987 33.3406 34.3859 33.006 34.8495 33.0538L35.9489 33.159C36.9814 33.2546 38.0139 33.3549 39.0416 33.4792C39.4909 33.5318 39.8112 33.9429 39.7538 34.3922C39.7012 34.8367 39.2997 35.157 38.8456 35.1044ZM30.4662 34.1436C28.6976 33.8282 27.2923 33.4171 26.2694 33.0203C25.8488 32.8578 25.6384 32.3798 25.8057 31.9592C25.9683 31.5385 26.4463 31.3282 26.8621 31.4955C28.0667 31.964 29.4577 32.3033 30.7531 32.5328C31.1976 32.614 31.494 33.0347 31.4127 33.4792C31.3362 33.9285 30.906 34.2201 30.4662 34.1436ZM22.4263 30.8454C21.1691 29.8655 20.1606 28.7518 19.4292 27.5281C19.195 27.1409 19.324 26.639 19.7112 26.4048C20.0984 26.1706 20.6003 26.2996 20.8345 26.6868C21.4607 27.7336 22.3355 28.6992 23.4349 29.5548C23.7934 29.8321 23.8555 30.3483 23.5783 30.702C23.2962 31.0557 22.7848 31.1274 22.4263 30.8454ZM18.9416 23.9192C18.5019 23.9192 18.1386 23.6085 18.1243 23.164C18.1243 23.1544 18.1243 23.0684 18.1243 23.0588V22.9728C18.1243 21.5292 18.4971 20.1048 19.2332 18.7281C19.4483 18.3314 19.9407 18.1784 20.3374 18.3935C20.7342 18.6086 20.8871 19.1009 20.672 19.5025C20.065 20.6401 19.759 21.8064 19.759 22.9775C19.759 22.9871 19.759 23.054 19.759 23.0636C19.759 23.5129 19.4005 23.9144 18.956 23.9192C18.9512 23.9192 18.9464 23.9192 18.9416 23.9192ZM79.2223 21.4671C78.7778 21.4671 78.4145 21.1086 78.405 20.664C78.3954 20.2099 78.7587 19.8371 79.208 19.8323C80.5225 19.8084 81.7844 19.5264 82.9794 19.0197C83.3953 18.8428 83.8733 19.0388 84.0501 19.4547C84.227 19.8705 84.031 20.3533 83.6152 20.5254C82.2003 21.1277 80.7424 21.4384 79.2367 21.4671C79.2367 21.4671 79.2271 21.4671 79.2223 21.4671ZM74.8678 20.8696C73.3716 20.4633 71.9185 19.8849 70.8239 19.426C70.408 19.2539 70.2072 18.7711 70.3841 18.3553C70.5562 17.9394 71.039 17.7386 71.4548 17.9155C72.5064 18.3553 73.8974 18.9097 75.3027 19.2921C75.7377 19.4116 75.9958 19.861 75.8763 20.296C75.7568 20.7214 75.3171 20.9891 74.8678 20.8696ZM91.8416 18.6182C91.7938 18.1688 92.1188 17.7673 92.5681 17.7195C93.3042 17.6096 94.4562 17.5474 96.526 16.9356C96.9609 16.8065 97.415 17.0551 97.5441 17.4853C97.6732 17.9203 97.4246 18.3744 96.9944 18.5034C94.7669 19.1631 93.1656 19.2826 92.7402 19.3495C92.7115 19.3495 91.8894 19.0531 91.8416 18.6182ZM88.333 19.2348C86.8512 18.9671 85.3264 18.3983 84.141 17.4662C83.7872 17.1889 83.7251 16.6727 84.0023 16.319C84.2796 15.9653 84.7958 15.9031 85.1495 16.1804C85.4746 16.4337 85.8713 16.6727 86.2442 16.8591C87.2528 15.8936 88.0128 14.7703 88.4525 13.7569C88.6342 13.341 89.1122 13.1498 89.528 13.3363C89.9439 13.5179 90.1303 14.0007 89.9534 14.4118C89.5185 15.406 88.8254 16.5006 87.9315 17.4757C88.1562 17.5331 88.3856 17.5809 88.6198 17.6239C89.0644 17.7052 89.3607 18.1306 89.2795 18.5751C89.203 19.0245 88.7728 19.316 88.333 19.2348ZM66.9712 17.7912C65.6997 17.275 64.3947 16.7922 63.085 16.3524C62.6548 16.209 62.4254 15.7454 62.5736 15.3152C62.717 14.8898 63.1806 14.6555 63.6108 14.7989C64.9492 15.2483 66.2876 15.7454 67.5878 16.2712C68.0084 16.4385 68.2092 16.9165 68.0371 17.3371C67.865 17.753 67.3918 17.9633 66.9712 17.7912ZM100.656 16.9882C99.7955 16.9882 99.523 15.8266 100.288 15.4395C101.492 14.8324 102.644 14.1106 103.72 13.3028C104.078 13.0303 104.595 13.102 104.867 13.4605C105.14 13.819 105.068 14.3353 104.709 14.6077C103.557 15.4777 102.319 16.2473 101.034 16.9021C100.904 16.9595 100.78 16.9882 100.656 16.9882ZM21.977 16.4289C21.6854 16.08 21.7332 15.5637 22.0821 15.2769C23.2293 14.3209 24.5151 13.6039 25.9061 13.0447C26.322 12.8774 26.8048 13.0781 26.9721 13.4988C27.1394 13.9194 26.9386 14.3926 26.518 14.5647C25.2943 15.0571 24.1519 15.688 23.1289 16.5389C22.7896 16.8209 22.2733 16.7779 21.977 16.4289ZM59.1176 15.1479C57.7888 14.7846 56.4313 14.4596 55.0881 14.1775C54.6435 14.0867 54.3615 13.6517 54.4571 13.2072C54.5479 12.7627 54.9829 12.4806 55.4275 12.5762C56.8041 12.863 58.1903 13.1976 59.5526 13.5705C59.9876 13.69 60.2457 14.1393 60.1262 14.5743C60.0067 15.0045 59.5574 15.2674 59.1176 15.1479ZM81.5311 13.6422C81.1869 12.4281 81.1917 11.1614 81.641 9.98069C81.7844 9.60785 81.9804 9.24935 82.229 8.91953C82.4966 8.55625 83.0081 8.47977 83.3714 8.75223C83.7347 9.01991 83.8111 9.53615 83.5387 9.89465C82.8599 10.8029 82.7834 12.0743 83.1037 13.1929C83.228 13.6278 82.9746 14.0819 82.5397 14.2062C82.1047 14.3305 81.6554 14.0772 81.5311 13.6422ZM29.4385 12.8152C29.3525 12.3707 29.6489 11.9453 30.0934 11.8592C32.1297 11.4768 34.0321 11.3382 34.3285 11.3095C34.7922 11.2761 35.1746 11.6011 35.2176 12.0504C35.2558 12.4998 34.926 12.8965 34.4767 12.9395L33.9031 12.9921C32.5456 13.1212 31.4366 13.2741 30.3993 13.4701C29.9548 13.5514 29.5246 13.2598 29.4385 12.8152ZM51.0107 13.4414C49.6484 13.2359 48.2622 13.0734 46.8951 12.9491C46.4458 12.9061 46.1112 12.5093 46.1542 12.06C46.1973 11.6107 46.6083 11.2856 47.0433 11.3191C48.4439 11.4434 49.8587 11.6155 51.2545 11.821C51.7038 11.8879 52.0097 12.3038 51.9428 12.7531C51.8711 13.2072 51.4553 13.5083 51.0107 13.4414ZM42.7556 12.7005C41.3742 12.6575 39.988 12.6575 38.6114 12.6957C38.1668 12.7101 37.7844 12.3516 37.7701 11.9023C37.7558 11.4482 38.1143 11.0753 38.5636 11.061C39.9737 11.0227 41.3886 11.0227 42.8034 11.0658C43.2528 11.0801 43.6113 11.4577 43.5969 11.907C43.5826 12.3755 43.1859 12.7196 42.7556 12.7005ZM88.8445 10.234C88.5242 9.17287 87.7069 8.47499 86.5071 8.45587C86.0577 8.44631 85.6945 8.07347 85.704 7.62415C85.7136 7.17961 86.0769 6.82111 86.5214 6.82111C86.5262 6.82111 86.531 6.82111 86.5357 6.82111C88.4477 6.85457 89.8818 8.02567 90.4123 9.76081C90.5414 10.1958 90.2976 10.6499 89.8674 10.7837C89.4372 10.9128 88.9783 10.669 88.8445 10.234Z" fill="#C7CFDE"/>
<path d="M50.9008 41.132C50.5853 40.6014 50.2125 40.0947 49.7823 39.6311C49.4764 39.2965 49.5003 38.7802 49.8301 38.4743C50.1647 38.1684 50.6809 38.1923 50.9868 38.5221C51.4935 39.0718 51.9381 39.6693 52.3061 40.2955C52.5356 40.6827 52.4065 41.1846 52.0193 41.414C51.6369 41.6482 51.135 41.5239 50.9008 41.132Z" fill="url(#paint1_linear_166_286)"/>
<path d="M112.687 56.0026V37.6904C112.687 34.2344 109.886 31.4334 106.43 31.4334H61.8804C59.7533 31.4334 57.7744 30.3531 56.6224 28.5654L54.3519 25.0473C53.1999 23.2595 51.221 22.1793 49.0939 22.1793H34.7156C31.2597 22.1793 28.4586 24.9803 28.4586 28.4363V56.0026H112.687Z" fill="url(#paint2_linear_166_286)"/>
<path d="M122.462 55.9501L114.441 89.0755C113.414 93.325 109.609 96.3173 105.235 96.3173H35.9106C31.5369 96.3173 27.732 93.325 26.7043 89.0755L18.6835 55.9501C17.3403 50.4101 21.5371 45.0756 27.2397 45.0756H113.901C119.604 45.0756 123.801 50.4101 122.462 55.9501Z" fill="url(#paint3_linear_166_286)"/>
<path d="M73.6536 83.9752C73.3429 83.9752 73.0322 83.8557 72.7932 83.6214C71.5409 82.3882 69.5954 82.3786 68.3574 83.5975C67.8746 84.0755 67.1002 84.066 66.6222 83.5832C66.149 83.1004 66.1538 82.3261 66.6366 81.8481C68.8019 79.7162 72.3391 79.721 74.5188 81.872C75.0016 82.35 75.0064 83.1243 74.5332 83.6071C74.2846 83.8557 73.9691 83.9752 73.6536 83.9752Z" fill="black"/>
<path d="M87.9554 72.6419C87.9554 74.7929 86.2107 76.5376 84.0596 76.5376C81.9086 76.5376 80.1639 74.7929 80.1639 72.6419C80.1639 70.4909 81.9086 68.7462 84.0596 68.7462C86.2107 68.7414 87.9554 70.4861 87.9554 72.6419Z" fill="black"/>
<path d="M91.4735 65.6774C91.3253 65.6774 91.1771 65.6487 91.0289 65.5962L82.0425 62.1163C81.4116 61.8725 81.0961 61.1603 81.3399 60.5293C81.5836 59.8984 82.2959 59.5829 82.9268 59.8267L91.9132 63.3065C92.5442 63.5503 92.8597 64.2625 92.6159 64.8935C92.4295 65.3763 91.9658 65.6774 91.4735 65.6774Z" fill="black"/>
<path d="M82.9364 74.2192C82.9364 74.8407 83.4383 75.3426 84.0597 75.3426C84.6811 75.3426 85.183 74.8407 85.183 74.2192C85.183 73.5978 84.6811 73.0959 84.0597 73.0959C83.4383 73.0959 82.9364 73.5978 82.9364 74.2192Z" fill="white"/>
<path d="M53.1952 72.6418C53.1952 74.7928 54.9399 76.5375 57.0909 76.5375C59.2419 76.5375 60.9866 74.7928 60.9866 72.6418C60.9866 70.4908 59.2419 68.7461 57.0909 68.7461C54.9399 68.7461 53.1952 70.486 53.1952 72.6418Z" fill="black"/>
<path d="M49.6771 65.6774C49.1847 65.6774 48.7211 65.381 48.5347 64.8935C48.2909 64.2625 48.6016 63.5503 49.2373 63.3065L58.2237 59.8267C58.8595 59.5829 59.5669 59.8936 59.8107 60.5293C60.0545 61.1603 59.7438 61.8725 59.108 62.1163L50.1216 65.5961C49.9734 65.6487 49.8205 65.6774 49.6771 65.6774Z" fill="black"/>
<path d="M57.273 75.3278C57.8854 75.2284 58.3013 74.6514 58.2019 74.0391C58.1025 73.4267 57.5255 73.0108 56.9131 73.1102C56.3008 73.2096 55.8849 73.7866 55.9843 74.399C56.0837 75.0114 56.6607 75.4272 57.273 75.3278Z" fill="white"/>
<path d="M117.516 98.0124C123.319 92.2089 123.319 82.7994 117.516 76.9959C111.712 71.1924 102.303 71.1924 96.4993 76.9959C90.6958 82.7995 90.6958 92.2088 96.4993 98.0124C102.303 103.816 111.712 103.816 117.516 98.0124Z" fill="white"/>
<path d="M107.009 103.186C98.3615 103.186 91.3253 96.1499 91.3253 87.5029C91.3253 78.8559 98.3615 71.8197 107.009 71.8197C115.656 71.8197 122.692 78.8559 122.692 87.5029C122.692 96.1499 115.656 103.186 107.009 103.186ZM107.009 73.4592C99.2649 73.4592 92.9649 79.7593 92.9649 87.5029C92.9649 95.2465 99.2649 101.547 107.009 101.547C114.752 101.547 121.052 95.2465 121.052 87.5029C121.052 79.7593 114.757 73.4592 107.009 73.4592Z" fill="#AAB2C5"/>
<path d="M107.009 97.5313C112.547 97.5313 117.037 93.0414 117.037 87.5028C117.037 81.9643 112.547 77.4744 107.009 77.4744C101.47 77.4744 96.9801 81.9643 96.9801 87.5028C96.9801 93.0414 101.47 97.5313 107.009 97.5313Z" fill="#F31D1D"/>
<path d="M111.277 91.7714C110.79 92.2733 109.967 92.2733 109.48 91.7714L107.009 89.3049L104.542 91.7714C104.045 92.2733 103.232 92.2733 102.745 91.7714C102.243 91.2838 102.243 90.4616 102.745 89.9741L105.211 87.5076L102.745 85.0363C102.243 84.5344 102.243 83.7314 102.745 83.2295C103.228 82.7324 104.04 82.7276 104.542 83.2295L107.009 85.696L109.48 83.2295C109.977 82.7324 110.785 82.7324 111.277 83.2295C111.755 83.6979 111.798 84.5153 111.277 85.0363L108.811 87.5076L111.277 89.9741C111.784 90.4712 111.784 91.279 111.277 91.7714Z" fill="white"/>
<path d="M119.068 2.01719L119.781 1.53919C119.656 1.45793 119.513 1.39101 119.341 1.34321C118.5 1.01339 118.949 -0.23419 119.805 0.0430502C120.249 0.215131 120.665 0.449351 120.961 0.740932L121.315 0.501931C121.64 0.282051 122.056 0.377651 122.262 0.683571C122.467 0.989492 122.4 1.41013 122.08 1.63001L121.726 1.86901C121.874 2.26097 121.946 2.68162 121.941 3.15962C121.936 3.53724 121.64 3.8575 121.258 3.8575C120.88 3.85272 120.574 3.54202 120.579 3.1644C120.574 2.98275 120.56 2.82502 120.531 2.67684L119.838 3.14528C119.752 2.94452 119.637 2.74375 119.503 2.54777C119.365 2.35657 119.217 2.17493 119.068 2.01719Z" fill="black"/>
<path d="M113.237 11.9309C113.141 11.6202 113.108 11.2904 113.103 10.9654C114.771 10.2914 116.85 9.18719 118.16 8.08301C118.906 9.61739 118.251 12.1604 116.645 13.2454C115.24 14.2014 113.715 13.6087 113.237 11.9309Z" fill="url(#paint4_linear_166_286)"/>
<path d="M108.505 1.21413C110.106 0.129065 112.725 0.473226 113.853 1.71125C112.319 2.52863 110.517 4.05823 109.298 5.33449C108.983 5.21977 108.705 5.05247 108.462 4.86605C107.08 3.80011 107.099 2.16057 108.505 1.21413Z" fill="url(#paint5_linear_166_286)"/>
<path d="M117.195 8.81433C113.519 11.2999 107.41 13.3267 106.201 11.5389C104.991 9.75599 109.15 4.83258 112.821 2.34698C116.492 -0.133844 118.289 0.760018 119.499 2.54296C120.708 4.33546 120.866 6.33351 117.195 8.81433Z" fill="url(#paint6_linear_166_286)"/>
<path d="M6.95293 117.48H8.85693V127H7.38693L2.23493 121.022V127H0.330933V117.48H1.74493L6.95293 123.626V117.48Z" fill="#6B6B6B"/>
<path d="M13.3933 120.154C15.4793 120.154 16.9353 121.596 16.9353 123.668C16.9353 125.726 15.4793 127.168 13.3933 127.168C11.2933 127.168 9.83726 125.726 9.83726 123.668C9.83726 121.596 11.2933 120.154 13.3933 120.154ZM13.3933 125.502C14.4013 125.502 15.1013 124.746 15.1013 123.668C15.1013 122.576 14.4013 121.82 13.3933 121.82C12.3713 121.82 11.6713 122.576 11.6713 123.668C11.6713 124.746 12.3713 125.502 13.3933 125.502Z" fill="#6B6B6B"/>
<path d="M24.7008 117.312C26.3108 117.312 28.3968 117.942 28.6208 120.378H26.7308C26.6048 119.496 26.0448 118.95 24.8408 118.95C23.7908 118.95 23.1048 119.356 23.1048 120.14C23.1048 120.826 23.6088 121.12 24.5188 121.302L25.6388 121.526C27.5008 121.904 28.5648 122.618 28.5648 124.186C28.5648 125.992 27.0808 127.168 24.8408 127.168C22.4888 127.168 20.8508 125.908 20.7108 123.864H22.6008C22.7548 124.858 23.6368 125.474 24.9528 125.474C26.0028 125.474 26.6048 125.096 26.6048 124.424C26.6048 124.004 26.3668 123.57 25.3448 123.388L23.8048 123.094C21.9148 122.73 21.0888 121.778 21.0888 120.308C21.0888 118.488 22.5308 117.312 24.7008 117.312Z" fill="#6B6B6B"/>
<path d="M33.341 120.154C35.119 120.154 36.295 121.414 36.295 123.374V127H34.461V123.486C34.461 122.394 33.915 121.82 32.949 121.82C32.445 121.82 31.885 122.114 31.409 122.674V127H29.575V117.06H31.409V120.826C31.955 120.392 32.585 120.154 33.341 120.154Z" fill="#6B6B6B"/>
<path d="M40.6298 120.154C42.7158 120.154 44.1718 121.596 44.1718 123.668C44.1718 125.726 42.7158 127.168 40.6298 127.168C38.5298 127.168 37.0738 125.726 37.0738 123.668C37.0738 121.596 38.5298 120.154 40.6298 120.154ZM40.6298 125.502C41.6378 125.502 42.3378 124.746 42.3378 123.668C42.3378 122.576 41.6378 121.82 40.6298 121.82C39.6078 121.82 38.9078 122.576 38.9078 123.668C38.9078 124.746 39.6078 125.502 40.6298 125.502Z" fill="#6B6B6B"/>
<path d="M48.8046 120.182C50.6526 120.182 52.1366 121.722 52.1366 123.668C52.1366 125.6 50.6526 127.14 48.8046 127.14C48.0626 127.14 47.4046 126.944 46.8866 126.608V130.262H45.0526V120.322H46.8866V120.714C47.4046 120.378 48.0626 120.182 48.8046 120.182ZM48.5246 125.558C49.5746 125.558 50.3026 124.662 50.3026 123.668C50.3026 122.66 49.5746 121.764 48.5246 121.764C47.9226 121.764 47.3206 121.974 46.8866 122.59V124.732C47.3206 125.348 47.9226 125.558 48.5246 125.558Z" fill="#6B6B6B"/>
<path d="M59.8666 117.48C62.1486 117.48 63.6606 118.81 63.6606 120.812C63.6606 122.94 62.0366 124.34 59.5866 124.34H58.1026V127H56.1986V117.48H59.8666ZM59.7966 122.59C60.9866 122.59 61.7846 121.876 61.7846 120.812C61.7846 119.874 60.9866 119.23 59.7966 119.23H58.1026V122.59H59.7966Z" fill="#6B6B6B"/>
<path d="M66.1383 121.092C66.7403 120.518 67.5103 120.21 68.5043 120.21V121.946C67.4683 122.002 66.7123 122.31 66.1383 122.954V127H64.3043V120.322H66.1383V121.092Z" fill="#6B6B6B"/>
<path d="M72.2009 120.154C74.2869 120.154 75.7429 121.596 75.7429 123.668C75.7429 125.726 74.2869 127.168 72.2009 127.168C70.1009 127.168 68.6449 125.726 68.6449 123.668C68.6449 121.596 70.1009 120.154 72.2009 120.154ZM72.2009 125.502C73.2089 125.502 73.9089 124.746 73.9089 123.668C73.9089 122.576 73.2089 121.82 72.2009 121.82C71.1789 121.82 70.4789 122.576 70.4789 123.668C70.4789 124.746 71.1789 125.502 72.2009 125.502Z" fill="#6B6B6B"/>
<path d="M81.5517 117.06H83.3857V127H81.5517V126.622C81.0337 126.958 80.3757 127.168 79.6337 127.168C77.7857 127.168 76.3017 125.6 76.3017 123.654C76.3017 121.722 77.7857 120.154 79.6337 120.154C80.3757 120.154 81.0337 120.364 81.5517 120.7V117.06ZM79.9137 125.502C80.5157 125.502 81.1177 125.334 81.5517 124.718V122.604C81.1177 121.988 80.5157 121.82 79.9137 121.82C78.8637 121.82 78.1357 122.66 78.1357 123.654C78.1357 124.662 78.8637 125.502 79.9137 125.502Z" fill="#6B6B6B"/>
<path d="M89.383 120.322H91.217V127H89.383V126.468C88.837 126.902 88.207 127.168 87.451 127.168C85.673 127.168 84.497 125.866 84.497 123.906V120.322H86.331V123.794C86.331 124.886 86.877 125.502 87.843 125.502C88.347 125.502 88.907 125.194 89.383 124.62V120.322Z" fill="#6B6B6B"/>
<path d="M95.6498 125.502C96.4058 125.502 96.9658 125.068 97.1058 124.424H98.9818C98.7718 126.034 97.3718 127.168 95.6498 127.168C93.6478 127.168 92.0938 125.656 92.0938 123.668C92.0938 121.68 93.6478 120.154 95.6498 120.154C97.3718 120.154 98.7718 121.302 98.9818 122.912H97.1058C96.9658 122.268 96.4058 121.82 95.6498 121.82C94.5998 121.82 93.9278 122.646 93.9278 123.668C93.9278 124.69 94.5998 125.502 95.6498 125.502Z" fill="#6B6B6B"/>
<path d="M104.656 125.208L104.908 126.874C104.292 127.112 103.788 127.168 103.298 127.168C101.506 127.168 100.498 126.048 100.498 124.34V121.862H99.0695V120.322H100.498V117.9H102.332V120.322H104.782V121.862H102.332V124.34C102.332 125.124 102.822 125.474 103.508 125.474C103.928 125.474 104.32 125.348 104.656 125.208Z" fill="#6B6B6B"/>
<path d="M115.714 119.244H110.716V121.694H115.084V123.458H110.716V127H108.812V117.48H115.714V119.244Z" fill="#6B6B6B"/>
<path d="M119.004 120.154C121.09 120.154 122.546 121.596 122.546 123.668C122.546 125.726 121.09 127.168 119.004 127.168C116.904 127.168 115.448 125.726 115.448 123.668C115.448 121.596 116.904 120.154 119.004 120.154ZM119.004 125.502C120.012 125.502 120.712 124.746 120.712 123.668C120.712 122.576 120.012 121.82 119.004 121.82C117.982 121.82 117.282 122.576 117.282 123.668C117.282 124.746 117.982 125.502 119.004 125.502Z" fill="#6B6B6B"/>
<path d="M128.146 120.322H129.98V127H128.146V126.468C127.6 126.902 126.97 127.168 126.214 127.168C124.436 127.168 123.26 125.866 123.26 123.906V120.322H125.094V123.794C125.094 124.886 125.64 125.502 126.606 125.502C127.11 125.502 127.67 125.194 128.146 124.62V120.322Z" fill="#6B6B6B"/>
<path d="M134.945 120.154C136.723 120.154 137.899 121.414 137.899 123.374V127H136.065V123.486C136.065 122.394 135.519 121.82 134.553 121.82C134.049 121.82 133.489 122.114 133.013 122.674V127H131.179V120.322H133.013V120.826C133.559 120.392 134.189 120.154 134.945 120.154Z" fill="#6B6B6B"/>
<path d="M143.928 117.06H145.762V127H143.928V126.622C143.41 126.958 142.752 127.168 142.01 127.168C140.162 127.168 138.678 125.6 138.678 123.654C138.678 121.722 140.162 120.154 142.01 120.154C142.752 120.154 143.41 120.364 143.928 120.7V117.06ZM142.29 125.502C142.892 125.502 143.494 125.334 143.928 124.718V122.604C143.494 121.988 142.892 121.82 142.29 121.82C141.24 121.82 140.512 122.66 140.512 123.654C140.512 124.662 141.24 125.502 142.29 125.502Z" fill="#6B6B6B"/>
<defs>
<linearGradient id="paint0_linear_166_286" x1="18.1166" y1="10.3529" x2="109.438" y2="10.3529" gradientUnits="userSpaceOnUse">
<stop stop-color="#D6DCE8"/>
<stop offset="1" stop-color="white"/>
</linearGradient>
<linearGradient id="paint1_linear_166_286" x1="18.122" y1="39.8976" x2="109.438" y2="39.8976" gradientUnits="userSpaceOnUse">
<stop stop-color="#D6DCE8"/>
<stop offset="1" stop-color="white"/>
</linearGradient>
<linearGradient id="paint2_linear_166_286" x1="70.4077" y1="35.3026" x2="70.7007" y2="55.6696" gradientUnits="userSpaceOnUse">
<stop/>
<stop offset="1" stop-color="#818181"/>
</linearGradient>
<linearGradient id="paint3_linear_166_286" x1="70.4897" y1="38.8039" x2="70.6616" y2="69.7397" gradientUnits="userSpaceOnUse">
<stop stop-color="#4CDB06"/>
<stop offset="1" stop-color="#4CDB06"/>
</linearGradient>
<linearGradient id="paint4_linear_166_286" x1="117.771" y1="7.99141" x2="112.53" y2="10.5076" gradientUnits="userSpaceOnUse">
<stop stop-color="#2E2E2E"/>
<stop offset="1" stop-color="white"/>
</linearGradient>
<linearGradient id="paint5_linear_166_286" x1="113.021" y1="0.485584" x2="107.729" y2="4.06486" gradientUnits="userSpaceOnUse">
<stop stop-color="#2E2E2E"/>
<stop offset="1" stop-color="white"/>
</linearGradient>
<linearGradient id="paint6_linear_166_286" x1="110.662" y1="3.80937" x2="115.036" y2="10.2768" gradientUnits="userSpaceOnUse">
<stop/>
<stop offset="1" stop-color="#656565"/>
</linearGradient>
</defs>
</svg>
