<svg width="156" height="132" viewBox="0 0 156 132" fill="none" xmlns="http://www.w3.org/2000/svg">
<path d="M127.281 52.1451C127.281 64.4058 123.05 75.6723 115.981 84.5679C106.425 96.5753 91.6887 104.281 75.1403 104.281C46.4412 104.281 23 81.0211 23 52.1403C23 39.8892 27.2303 28.6227 34.3095 19.7223C44.0798 7.39945 58.9935 0 75.1403 0C103.935 0.00478001 127.281 23.336 127.281 52.1451Z" fill="#EDEDED"/>
<path d="M29.6442 97.4069C30.997 97.144 32.3067 98.0475 32.5696 99.4002C32.8325 100.753 31.9434 102.058 30.5955 102.321C29.2427 102.584 27.9187 101.699 27.6558 100.347C27.3929 98.9987 28.2963 97.6651 29.6442 97.4069Z" fill="#D6DCE8"/>
<path d="M25.7342 92.6792C26.5946 92.5119 27.4311 93.0903 27.5936 93.9507C27.7609 94.8111 27.1969 95.6428 26.3365 95.8101C25.4761 95.9774 24.6348 95.4134 24.4675 94.553C24.3002 93.6926 24.8738 92.8465 25.7342 92.6792Z" fill="#D6DCE8"/>
<path d="M25.9731 0.492795C27.3259 0.229895 28.6356 1.13332 28.8985 2.48606C29.1614 3.8388 28.2723 5.14375 26.9244 5.40665C25.5716 5.66955 24.2476 4.78524 23.9847 3.4325C23.7265 2.07976 24.6252 0.750916 25.9731 0.492795Z" fill="#D6DCE8"/>
<path d="M111.755 11.7405C111.421 11.4346 111.401 10.9183 111.703 10.5837C112.147 10.0961 112.573 9.5895 112.965 9.07326C113.237 8.71476 113.748 8.64306 114.112 8.91552C114.47 9.18798 114.542 9.69944 114.269 10.0627C113.849 10.622 113.39 11.1669 112.912 11.6927C112.606 12.0273 112.09 12.0464 111.755 11.7405Z" fill="url(#paint0_linear_700_39)"/>
<path d="M51.6036 37.2546C50.5042 36.681 49.247 36.2078 47.856 35.8397C47.421 35.725 47.1581 35.2757 47.2729 34.8407C47.3876 34.4057 47.8369 34.1476 48.2719 34.2576C49.7776 34.6543 51.1495 35.1753 52.354 35.8063C52.7555 36.0166 52.9085 36.5089 52.703 36.9105C52.4926 37.312 51.9955 37.4602 51.6036 37.2546ZM43.8456 35.1036C42.6984 34.965 41.5321 34.8598 39.6918 34.683C39.2425 34.64 38.9126 34.2384 38.9557 33.7891C38.9987 33.3398 39.3859 33.0052 39.8495 33.053L40.9489 33.1582C41.9814 33.2538 43.0139 33.3541 44.0416 33.4784C44.4909 33.531 44.8112 33.9421 44.7538 34.3914C44.7012 34.8359 44.2997 35.1562 43.8456 35.1036ZM35.4662 34.1428C33.6976 33.8274 32.2923 33.4163 31.2694 33.0195C30.8488 32.857 30.6384 32.379 30.8057 31.9584C30.9683 31.5377 31.4463 31.3274 31.8621 31.4947C33.0667 31.9631 34.4577 32.3025 35.753 32.532C36.1976 32.6132 36.494 33.0339 36.4127 33.4784C36.3362 33.9277 35.906 34.2193 35.4662 34.1428ZM27.4263 30.8446C26.1691 29.8647 25.1606 28.751 24.4292 27.5273C24.195 27.1401 24.324 26.6382 24.7112 26.404C25.0984 26.1698 25.6003 26.2988 25.8345 26.686C26.4607 27.7328 27.3355 28.6984 28.4349 29.554C28.7934 29.8313 28.8555 30.3475 28.5783 30.7012C28.2962 31.0549 27.7848 31.1266 27.4263 30.8446ZM23.9416 23.9184C23.5019 23.9184 23.1386 23.6077 23.1243 23.1632C23.1243 23.1536 23.1243 23.0676 23.1243 23.058V22.972C23.1243 21.5284 23.4971 20.104 24.2332 18.7273C24.4483 18.3306 24.9407 18.1776 25.3374 18.3927C25.7342 18.6078 25.8871 19.1001 25.672 19.5017C25.065 20.6393 24.759 21.8056 24.759 22.9767C24.759 22.9863 24.759 23.0532 24.759 23.0628C24.759 23.5121 24.4005 23.9136 23.956 23.9184C23.9512 23.9184 23.9464 23.9184 23.9416 23.9184ZM84.2223 21.4663C83.7778 21.4663 83.4145 21.1078 83.405 20.6632C83.3954 20.2091 83.7587 19.8363 84.208 19.8315C85.5225 19.8076 86.7844 19.5256 87.9794 19.0189C88.3953 18.842 88.8733 19.038 89.0501 19.4539C89.227 19.8697 89.031 20.3525 88.6152 20.5246C87.2003 21.1269 85.7424 21.4376 84.2367 21.4663C84.2367 21.4663 84.2271 21.4663 84.2223 21.4663ZM79.8678 20.8688C78.3716 20.4625 76.9185 19.8841 75.8239 19.4252C75.408 19.2531 75.2072 18.7703 75.3841 18.3545C75.5562 17.9386 76.039 17.7378 76.4548 17.9147C77.5064 18.3545 78.8974 18.9089 80.3027 19.2913C80.7377 19.4108 80.9958 19.8602 80.8763 20.2952C80.7568 20.7206 80.3171 20.9883 79.8678 20.8688ZM96.8416 18.6174C96.7938 18.168 97.1188 17.7665 97.5681 17.7187C98.3042 17.6088 99.4562 17.5466 101.526 16.9348C101.961 16.8057 102.415 17.0543 102.544 17.4845C102.673 17.9195 102.425 18.3736 101.994 18.5026C99.7669 19.1623 98.1656 19.2818 97.7402 19.3487C97.7115 19.3487 96.8894 19.0523 96.8416 18.6174ZM93.333 19.234C91.8512 18.9663 90.3264 18.3975 89.141 17.4654C88.7872 17.1881 88.7251 16.6719 89.0023 16.3182C89.2796 15.9645 89.7958 15.9023 90.1495 16.1796C90.4746 16.4329 90.8713 16.6719 91.2442 16.8583C92.2528 15.8928 93.0128 14.7695 93.4525 13.7561C93.6342 13.3402 94.1122 13.149 94.528 13.3355C94.9439 13.5171 95.1303 13.9999 94.9535 14.411C94.5185 15.4052 93.8254 16.4998 92.9315 17.4749C93.1562 17.5323 93.3856 17.5801 93.6198 17.6231C94.0644 17.7044 94.3607 18.1298 94.2795 18.5743C94.203 19.0237 93.7728 19.3152 93.333 19.234ZM71.9712 17.7904C70.6997 17.2742 69.3947 16.7914 68.085 16.3516C67.6548 16.2082 67.4254 15.7446 67.5736 15.3144C67.717 14.889 68.1806 14.6547 68.6108 14.7981C69.9492 15.2475 71.2876 15.7446 72.5878 16.2704C73.0084 16.4377 73.2092 16.9157 73.0371 17.3363C72.865 17.7522 72.3918 17.9625 71.9712 17.7904ZM105.656 16.9874C104.795 16.9874 104.523 15.8258 105.288 15.4387C106.492 14.8316 107.644 14.1098 108.72 13.302C109.078 13.0295 109.595 13.1012 109.867 13.4597C110.14 13.8182 110.068 14.3345 109.709 14.6069C108.557 15.4769 107.319 16.2465 106.034 16.9013C105.904 16.9587 105.78 16.9874 105.656 16.9874ZM26.977 16.4281C26.6854 16.0792 26.7332 15.5629 27.0821 15.2761C28.2293 14.3201 29.5151 13.6031 30.9061 13.0439C31.322 12.8766 31.8048 13.0773 31.9721 13.498C32.1394 13.9186 31.9386 14.3918 31.518 14.5639C30.2943 15.0563 29.1519 15.6872 28.1289 16.5381C27.7896 16.8201 27.2733 16.7771 26.977 16.4281ZM64.1176 15.1471C62.7888 14.7838 61.4313 14.4588 60.0881 14.1767C59.6435 14.0859 59.3615 13.6509 59.4571 13.2064C59.5479 12.7619 59.9829 12.4798 60.4275 12.5754C61.8041 12.8622 63.1903 13.1968 64.5526 13.5697C64.9876 13.6892 65.2457 14.1385 65.1262 14.5735C65.0067 15.0037 64.5574 15.2666 64.1176 15.1471ZM86.5311 13.6414C86.1869 12.4273 86.1917 11.1606 86.641 9.97989C86.7844 9.60705 86.9804 9.24855 87.229 8.91873C87.4966 8.55545 88.0081 8.47897 88.3714 8.75143C88.7347 9.01911 88.8111 9.53535 88.5387 9.89385C87.8599 10.8021 87.7834 12.0735 88.1037 13.1921C88.228 13.627 87.9746 14.0811 87.5397 14.2054C87.1047 14.3297 86.6554 14.0764 86.5311 13.6414ZM34.4385 12.8144C34.3525 12.3699 34.6489 11.9445 35.0934 11.8584C37.1297 11.476 39.0321 11.3374 39.3285 11.3087C39.7922 11.2753 40.1746 11.6003 40.2176 12.0496C40.2558 12.499 39.926 12.8957 39.4767 12.9387L38.9031 12.9913C37.5456 13.1204 36.4366 13.2733 35.3993 13.4693C34.9548 13.5506 34.5246 13.259 34.4385 12.8144ZM56.0107 13.4406C54.6484 13.2351 53.2622 13.0726 51.8951 12.9483C51.4458 12.9053 51.1112 12.5085 51.1542 12.0592C51.1973 11.6099 51.6083 11.2848 52.0433 11.3183C53.4439 11.4426 54.8587 11.6147 56.2545 11.8202C56.7038 11.8871 57.0097 12.303 56.9428 12.7523C56.8711 13.2064 56.4553 13.5075 56.0107 13.4406ZM47.7556 12.6997C46.3742 12.6567 44.988 12.6567 43.6114 12.6949C43.1668 12.7093 42.7844 12.3508 42.7701 11.9015C42.7558 11.4474 43.1143 11.0745 43.5636 11.0602C44.9737 11.0219 46.3886 11.0219 47.8034 11.065C48.2528 11.0793 48.6113 11.4569 48.5969 11.9062C48.5826 12.3747 48.1859 12.7188 47.7556 12.6997ZM93.8445 10.2332C93.5242 9.17207 92.7069 8.47419 91.5071 8.45507C91.0577 8.44551 90.6945 8.07267 90.704 7.62335C90.7136 7.17881 91.0769 6.82031 91.5214 6.82031C91.5262 6.82031 91.531 6.82031 91.5357 6.82031C93.4477 6.85377 94.8818 8.02487 95.4123 9.76001C95.5414 10.195 95.2976 10.6491 94.8674 10.7829C94.4372 10.912 93.9783 10.6682 93.8445 10.2332Z" fill="#C7CFDE"/>
<path d="M55.9008 41.1327C55.5853 40.6021 55.2125 40.0954 54.7823 39.6318C54.4764 39.2972 54.5003 38.7809 54.8301 38.475C55.1647 38.1691 55.6809 38.193 55.9868 38.5228C56.4935 39.0725 56.9381 39.67 57.3061 40.2962C57.5356 40.6834 57.4065 41.1853 57.0193 41.4147C56.6369 41.6489 56.135 41.5246 55.9008 41.1327Z" fill="url(#paint1_linear_700_39)"/>
<path d="M124.068 2.01792L124.781 1.53992C124.656 1.45866 124.513 1.39174 124.341 1.34394C123.5 1.01412 123.949 -0.233458 124.805 0.0437826C125.249 0.215863 125.665 0.450083 125.961 0.741664L126.315 0.502663C126.64 0.282783 127.056 0.378383 127.262 0.684303C127.467 0.990224 127.4 1.41086 127.08 1.63074L126.726 1.86974C126.874 2.2617 126.946 2.68235 126.941 3.16035C126.936 3.53797 126.64 3.85823 126.258 3.85823C125.88 3.85345 125.574 3.54275 125.579 3.16513C125.574 2.98348 125.56 2.82575 125.531 2.67757L124.838 3.14601C124.752 2.94525 124.637 2.74448 124.503 2.5485C124.365 2.3573 124.217 2.17566 124.068 2.01792Z" fill="black"/>
<path d="M118.237 11.9319C118.141 11.6212 118.108 11.2914 118.103 10.9664C119.771 10.2924 121.851 9.18816 123.16 8.08398C123.906 9.61836 123.251 12.1614 121.645 13.2464C120.24 14.2024 118.715 13.6097 118.237 11.9319Z" fill="url(#paint2_linear_700_39)"/>
<path d="M113.505 1.21328C115.106 0.12821 117.725 0.472371 118.853 1.71039C117.319 2.52777 115.517 4.05737 114.298 5.33363C113.983 5.21891 113.705 5.05161 113.462 4.86519C112.08 3.79925 112.099 2.15971 113.505 1.21328Z" fill="url(#paint3_linear_700_39)"/>
<path d="M122.195 8.81409C118.519 11.2997 112.41 13.3265 111.201 11.5387C109.991 9.75575 114.15 4.83234 117.821 2.34674C121.492 -0.134088 123.289 0.759774 124.499 2.54272C125.708 4.33522 125.866 6.33327 122.195 8.81409Z" fill="url(#paint4_linear_700_39)"/>
<path d="M72.2613 54.6481L33.1793 38.1925C32.6194 37.9566 32 38.3679 32 38.9755V82.9681C32 84.0797 32.6768 85.0796 33.7091 85.4923L71.6161 100.655C72.1741 100.878 72.7812 100.467 72.7812 99.8663V55.4311C72.7812 55.0894 72.5763 54.7808 72.2613 54.6481Z" fill="#4CDB06"/>
<path d="M51.2281 79.5299C51.0167 79.4832 50.8193 79.3737 50.6839 79.2149C49.9753 78.3794 48.6532 78.0818 47.6697 78.5353C47.2859 78.7135 46.7603 78.592 46.4912 78.2668C46.2254 77.9423 46.3185 77.5366 46.7023 77.3584C48.4224 76.5652 50.8276 77.0997 52.0605 78.5563C52.3335 78.8797 52.2469 79.2868 51.869 79.469C51.6711 79.5621 51.4426 79.5773 51.2281 79.5299Z" fill="black"/>
<path d="M62.4725 74.3369C62.1745 75.6847 60.8395 76.5362 59.4917 76.2382C58.1439 75.9402 57.2924 74.6053 57.5904 73.2575C57.8884 71.9096 59.2234 71.0581 60.5712 71.3561C61.9196 71.6512 62.7712 72.9861 62.4725 74.3369Z" fill="black"/>
<path d="M65.5368 70.4049C65.4356 70.3826 65.3386 70.3413 65.2451 70.2843L59.6161 66.637C59.2208 66.3813 59.109 65.8648 59.3673 65.4862C59.6256 65.1077 60.1578 65.0076 60.5531 65.2633L66.1822 68.9106C66.5774 69.1664 66.6892 69.6828 66.4309 70.0614C66.2333 70.3511 65.8729 70.4793 65.5368 70.4049Z" fill="black"/>
<path d="M58.3507 74.4491C58.291 74.7192 58.679 75.0338 59.2191 75.1532C59.7593 75.2727 60.2438 75.151 60.3035 74.8809C60.3632 74.6109 59.9752 74.2963 59.435 74.1768C58.8949 74.0574 58.4104 74.1791 58.3507 74.4491Z" fill="white"/>
<path d="M39.0383 69.1559C38.7403 70.5037 39.8104 71.887 41.4278 72.2446C43.0452 72.6022 44.5988 71.7991 44.8968 70.4513C45.1948 69.1034 44.1246 67.7201 42.5073 67.3625C40.8899 67.0049 39.3369 67.8051 39.0383 69.1559Z" fill="black"/>
<path d="M37.9172 64.2996C37.5811 64.2253 37.3077 63.9603 37.2514 63.6112C37.1768 63.1591 37.4926 62.7372 37.962 62.6727L44.6034 61.7387C45.0729 61.6742 45.5106 61.9855 45.5845 62.4408C45.6591 62.8928 45.3434 63.3147 44.8738 63.3792L38.2325 64.3133C38.1237 64.3255 38.0151 64.3213 37.9172 64.2996Z" fill="black"/>
<path d="M41.8013 71.2947C42.3431 71.3692 42.76 71.1984 42.7325 70.9132C42.7049 70.628 42.2434 70.3364 41.7016 70.2619C41.1599 70.1874 40.743 70.3582 40.7706 70.6435C40.7981 70.9287 41.2596 71.2203 41.8013 71.2947Z" fill="white"/>
<path d="M75.8297 49.9738L113.606 34.0681C114.285 33.7823 114.303 32.8266 113.635 32.5152L76.6497 15.255C75.9209 14.915 75.0791 14.915 74.3503 15.255L37.3646 32.515C36.697 32.8265 36.7152 33.7821 37.3942 34.0679L75.1704 49.9736C75.3811 50.0625 75.619 50.0625 75.8297 49.9738Z" fill="black"/>
<path d="M108.199 90.1982C113.555 84.8417 113.555 76.157 108.199 70.8006C102.842 65.4441 94.1579 65.4441 88.8009 70.8006C83.4448 76.1571 83.4448 84.8416 88.8009 90.1982C94.1579 95.5548 102.842 95.5548 108.199 90.1982Z" fill="white"/>
<path d="M98.5003 95C90.5057 95 84 88.4947 84 80.5C84 72.5054 90.5057 66 98.5003 66C106.495 66 113 72.5054 113 80.5C113 88.4947 106.495 95 98.5003 95ZM98.5003 67.5159C91.3406 67.5159 85.5159 73.3406 85.5159 80.5C85.5159 87.6595 91.3406 93.4847 98.5003 93.4847C105.659 93.4847 111.484 87.6595 111.484 80.5C111.484 73.3406 105.664 67.5159 98.5003 67.5159Z" fill="#AAB2C5"/>
<path d="M98.5004 89.5134C103.478 89.5134 107.513 85.4779 107.513 80.4999C107.513 75.5218 103.478 71.4863 98.5004 71.4863C93.522 71.4863 89.4865 75.5218 89.4865 80.4999C89.4865 85.4779 93.522 89.5134 98.5004 89.5134Z" fill="#F31D1D"/>
<path d="M102.458 84.4618C102.006 84.9275 101.242 84.9275 100.79 84.4618L98.4964 82.1735L96.2066 84.4618C95.7453 84.9275 94.9907 84.9275 94.5387 84.4618C94.0727 84.0096 94.0727 83.2467 94.5387 82.7944L96.8276 80.5061L94.5387 78.2133C94.0727 77.7477 94.0727 77.0027 94.5387 76.5371C94.987 76.0758 95.7407 76.0714 96.2066 76.5371L98.4964 78.8253L100.79 76.5371C101.251 76.0758 102.001 76.0758 102.458 76.5371C102.902 76.9716 102.941 77.73 102.458 78.2133L100.169 80.5061L102.458 82.7944C102.928 83.2557 102.928 84.0051 102.458 84.4618Z" fill="white"/>
<path fill-rule="evenodd" clip-rule="evenodd" d="M117.602 38.0675L78.52 54.5231C78.2049 54.6558 78 54.9644 78 55.3061V99.7413C78 100.342 78.6071 100.753 79.1652 100.53L93.1627 94.9311C91.111 94.1803 89.1862 92.9816 87.5395 91.3351C81.4868 85.2819 81.4868 75.468 87.5395 69.4148C93.5932 63.3617 103.407 63.3617 109.461 69.4148C114.281 74.2357 115.262 81.4422 112.404 87.2344L117.072 85.3673C118.104 84.9546 118.781 83.9547 118.781 82.8431V38.8505C118.781 38.2429 118.162 37.8316 117.602 38.0675Z" fill="#4CDB06"/>
<path d="M36.059 117.16H37.827V126H36.462L31.678 120.449V126H29.91V117.16H31.223L36.059 122.867V117.16ZM42.5593 119.643C44.4963 119.643 45.8483 120.982 45.8483 122.906C45.8483 124.817 44.4963 126.156 42.5593 126.156C40.6093 126.156 39.2573 124.817 39.2573 122.906C39.2573 120.982 40.6093 119.643 42.5593 119.643ZM42.5593 124.609C43.4953 124.609 44.1453 123.907 44.1453 122.906C44.1453 121.892 43.4953 121.19 42.5593 121.19C41.6103 121.19 40.9603 121.892 40.9603 122.906C40.9603 123.907 41.6103 124.609 42.5593 124.609ZM54.6416 117.004C57.1896 117.004 59.2436 119.032 59.2436 121.58C59.2436 124.128 57.1896 126.156 54.6416 126.156C52.0936 126.156 50.0396 124.128 50.0396 121.58C50.0396 119.032 52.0936 117.004 54.6416 117.004ZM54.6416 124.505C56.2536 124.505 57.4496 123.192 57.4496 121.58C57.4496 119.968 56.2536 118.655 54.6416 118.655C53.0296 118.655 51.8336 119.968 51.8336 121.58C51.8336 123.192 53.0296 124.505 54.6416 124.505ZM62.4605 120.514C63.0195 119.981 63.7345 119.695 64.6575 119.695V121.307C63.6955 121.359 62.9935 121.645 62.4605 122.243V126H60.7575V119.799H62.4605V120.514ZM70.1831 116.77H71.8861V126H70.1831V125.649C69.7021 125.961 69.0911 126.156 68.4021 126.156C66.6861 126.156 65.3081 124.7 65.3081 122.893C65.3081 121.099 66.6861 119.643 68.4021 119.643C69.0911 119.643 69.7021 119.838 70.1831 120.15V116.77ZM68.6621 124.609C69.2211 124.609 69.7801 124.453 70.1831 123.881V121.918C69.7801 121.346 69.2211 121.19 68.6621 121.19C67.6871 121.19 67.0111 121.97 67.0111 122.893C67.0111 123.829 67.6871 124.609 68.6621 124.609ZM76.3645 119.643C78.4965 119.643 79.7835 121.255 79.4585 123.4H74.9085C75.0385 124.115 75.5065 124.661 76.4815 124.661C76.9365 124.661 77.2485 124.583 77.4695 124.31H79.3545C78.9385 125.48 77.8335 126.156 76.4685 126.156C74.4795 126.156 73.1665 124.752 73.1665 122.906C73.1665 121.06 74.4665 119.643 76.3645 119.643ZM76.3775 121.086C75.5455 121.086 75.1035 121.593 74.9475 122.243H77.7685C77.6775 121.45 77.1705 121.086 76.3775 121.086ZM82.4302 120.514C82.9892 119.981 83.7042 119.695 84.6272 119.695V121.307C83.6652 121.359 82.9632 121.645 82.4302 122.243V126H80.7272V119.799H82.4302V120.514ZM86.7208 123.855C86.8248 124.557 87.3318 124.778 88.0598 124.778C88.7098 124.778 89.1648 124.609 89.1648 124.258C89.1648 124.011 88.9568 123.803 88.5278 123.725L87.1888 123.491C86.2788 123.335 85.3558 122.841 85.3558 121.671C85.3558 120.397 86.4348 119.63 88.0078 119.63C89.1258 119.63 90.6078 119.942 90.7508 121.723H89.1778C89.1388 121.164 88.6058 120.982 88.0078 120.982C87.3578 120.982 87.0458 121.203 87.0458 121.502C87.0458 121.736 87.2148 122.009 87.8128 122.113L88.9308 122.295C89.8928 122.464 90.7898 122.906 90.7898 124.102C90.7898 125.48 89.5938 126.156 88.0208 126.156C86.6558 126.156 85.2778 125.649 85.1478 123.842L86.7208 123.855ZM102.005 118.798H97.3635V121.073H101.42V122.711H97.3635V126H95.5955V117.16H102.005V118.798ZM105.579 119.643C107.516 119.643 108.868 120.982 108.868 122.906C108.868 124.817 107.516 126.156 105.579 126.156C103.629 126.156 102.277 124.817 102.277 122.906C102.277 120.982 103.629 119.643 105.579 119.643ZM105.579 124.609C106.515 124.609 107.165 123.907 107.165 122.906C107.165 121.892 106.515 121.19 105.579 121.19C104.63 121.19 103.98 121.892 103.98 122.906C103.98 123.907 104.63 124.609 105.579 124.609ZM114.588 119.799H116.291V126H114.588V125.506C114.081 125.909 113.496 126.156 112.794 126.156C111.143 126.156 110.051 124.947 110.051 123.127V119.799H111.754V123.023C111.754 124.037 112.261 124.609 113.158 124.609C113.626 124.609 114.146 124.323 114.588 123.79V119.799ZM121.421 119.643C123.072 119.643 124.164 120.813 124.164 122.633V126H122.461V122.737C122.461 121.723 121.954 121.19 121.057 121.19C120.589 121.19 120.069 121.463 119.627 121.983V126H117.924V119.799H119.627V120.267C120.134 119.864 120.719 119.643 121.421 119.643ZM130.283 116.77H131.986V126H130.283V125.649C129.802 125.961 129.191 126.156 128.502 126.156C126.786 126.156 125.408 124.7 125.408 122.893C125.408 121.099 126.786 119.643 128.502 119.643C129.191 119.643 129.802 119.838 130.283 120.15V116.77ZM128.762 124.609C129.321 124.609 129.88 124.453 130.283 123.881V121.918C129.88 121.346 129.321 121.19 128.762 121.19C127.787 121.19 127.111 121.97 127.111 122.893C127.111 123.829 127.787 124.609 128.762 124.609Z" fill="#6B6B6B"/>
<defs>
<linearGradient id="paint0_linear_700_39" x1="23.1167" y1="10.3536" x2="114.438" y2="10.3536" gradientUnits="userSpaceOnUse">
<stop stop-color="#D6DCE8"/>
<stop offset="1" stop-color="white"/>
</linearGradient>
<linearGradient id="paint1_linear_700_39" x1="23.122" y1="39.8983" x2="114.438" y2="39.8983" gradientUnits="userSpaceOnUse">
<stop stop-color="#D6DCE8"/>
<stop offset="1" stop-color="white"/>
</linearGradient>
<linearGradient id="paint2_linear_700_39" x1="122.771" y1="7.99238" x2="117.53" y2="10.5086" gradientUnits="userSpaceOnUse">
<stop stop-color="#2E2E2E"/>
<stop offset="1" stop-color="white"/>
</linearGradient>
<linearGradient id="paint3_linear_700_39" x1="118.021" y1="0.484729" x2="112.729" y2="4.064" gradientUnits="userSpaceOnUse">
<stop stop-color="#2E2E2E"/>
<stop offset="1" stop-color="white"/>
</linearGradient>
<linearGradient id="paint4_linear_700_39" x1="115.662" y1="3.80913" x2="120.036" y2="10.2766" gradientUnits="userSpaceOnUse">
<stop/>
<stop offset="1" stop-color="#656565"/>
</linearGradient>
</defs>
</svg>
