<svg width="110" height="130" viewBox="0 0 110 130" fill="none" xmlns="http://www.w3.org/2000/svg">
<path d="M107.281 52.1451C107.281 64.4058 103.05 75.6723 95.9807 84.5679C86.4255 96.5753 71.6887 104.281 55.1403 104.281C26.4412 104.281 3 81.0211 3 52.1403C3 39.8892 7.23031 28.6227 14.3095 19.7223C24.0798 7.39945 38.9935 0 55.1403 0C83.9351 0.00478001 107.281 23.336 107.281 52.1451Z" fill="#EDEDED"/>
<path d="M9.64413 97.4071C10.9969 97.1442 12.3066 98.0476 12.5695 99.4004C12.8324 100.753 11.9433 102.058 10.5953 102.321C9.24261 102.584 7.91854 101.7 7.65564 100.347C7.39274 98.9988 8.29616 97.6652 9.64413 97.4071Z" fill="#D6DCE8"/>
<path d="M5.7342 92.6796C6.5946 92.5123 7.43111 93.0907 7.59363 93.9511C7.76093 94.8115 7.19688 95.6432 6.33648 95.8105C5.47608 95.9778 4.6348 95.4138 4.4675 94.5534C4.3002 93.693 4.8738 92.8469 5.7342 92.6796Z" fill="#D6DCE8"/>
<path d="M5.97315 0.492367C7.32589 0.229467 8.63561 1.13289 8.89851 2.48563C9.16141 3.83837 8.27233 5.14332 6.92437 5.40622C5.57163 5.66912 4.24756 4.78481 3.98466 3.43207C3.72654 2.07933 4.62518 0.750488 5.97315 0.492367Z" fill="#D6DCE8"/>
<path d="M91.7552 11.7398C91.4206 11.4339 91.4015 10.9176 91.7026 10.583C92.1472 10.0954 92.5726 9.58877 92.9645 9.07253C93.237 8.71403 93.7485 8.64233 94.1117 8.91479C94.4702 9.18725 94.5419 9.69871 94.2695 10.062C93.8488 10.6213 93.39 11.1662 92.912 11.692C92.606 12.0266 92.0898 12.0457 91.7552 11.7398Z" fill="url(#paint0_linear_163_122)"/>
<path d="M31.6036 37.2554C30.5042 36.6818 29.247 36.2086 27.856 35.8405C27.421 35.7258 27.1581 35.2765 27.2729 34.8415C27.3876 34.4065 27.8369 34.1484 28.2719 34.2584C29.7776 34.6551 31.1495 35.1761 32.354 35.8071C32.7555 36.0174 32.9085 36.5097 32.703 36.9113C32.4926 37.3128 31.9955 37.461 31.6036 37.2554ZM23.8456 35.1044C22.6984 34.9658 21.5321 34.8606 19.6918 34.6838C19.2425 34.6408 18.9126 34.2392 18.9557 33.7899C18.9987 33.3406 19.3859 33.006 19.8495 33.0538L20.9489 33.159C21.9814 33.2546 23.0139 33.3549 24.0416 33.4792C24.4909 33.5318 24.8112 33.9429 24.7538 34.3922C24.7012 34.8367 24.2997 35.157 23.8456 35.1044ZM15.4662 34.1436C13.6976 33.8282 12.2923 33.4171 11.2694 33.0203C10.8488 32.8578 10.6384 32.3798 10.8057 31.9592C10.9683 31.5385 11.4463 31.3282 11.8621 31.4955C13.0667 31.964 14.4577 32.3033 15.7531 32.5328C16.1976 32.614 16.494 33.0347 16.4127 33.4792C16.3362 33.9285 15.906 34.2201 15.4662 34.1436ZM7.42628 30.8454C6.16913 29.8655 5.16055 28.7518 4.42921 27.5281C4.19499 27.1409 4.32405 26.639 4.71123 26.4048C5.09841 26.1706 5.60031 26.2996 5.83453 26.6868C6.46071 27.7336 7.33545 28.6992 8.43486 29.5548C8.79336 29.8321 8.8555 30.3483 8.57826 30.702C8.29624 31.0557 7.78478 31.1274 7.42628 30.8454ZM3.94165 23.9192C3.50189 23.9192 3.13861 23.6085 3.12427 23.164C3.12427 23.1544 3.12427 23.0684 3.12427 23.0588V22.9728C3.12427 21.5292 3.49711 20.1048 4.23323 18.7281C4.44833 18.3314 4.94067 18.1784 5.33741 18.3935C5.73415 18.6086 5.88711 19.1009 5.67201 19.5025C5.06495 20.6401 4.75903 21.8064 4.75903 22.9775C4.75903 22.9871 4.75903 23.054 4.75903 23.0636C4.75903 23.5129 4.40053 23.9144 3.95599 23.9192C3.95121 23.9192 3.94643 23.9192 3.94165 23.9192ZM64.2223 21.4671C63.7778 21.4671 63.4145 21.1086 63.405 20.664C63.3954 20.2099 63.7587 19.8371 64.208 19.8323C65.5225 19.8084 66.7844 19.5264 67.9794 19.0197C68.3953 18.8428 68.8733 19.0388 69.0501 19.4547C69.227 19.8705 69.031 20.3533 68.6152 20.5254C67.2003 21.1277 65.7424 21.4384 64.2367 21.4671C64.2367 21.4671 64.2271 21.4671 64.2223 21.4671ZM59.8678 20.8696C58.3716 20.4633 56.9185 19.8849 55.8239 19.426C55.408 19.2539 55.2072 18.7711 55.3841 18.3553C55.5562 17.9394 56.039 17.7386 56.4548 17.9155C57.5064 18.3553 58.8974 18.9097 60.3027 19.2921C60.7377 19.4116 60.9958 19.861 60.8763 20.296C60.7568 20.7214 60.3171 20.9891 59.8678 20.8696ZM76.8416 18.6182C76.7938 18.1688 77.1188 17.7673 77.5681 17.7195C78.3042 17.6096 79.4562 17.5474 81.526 16.9356C81.9609 16.8065 82.415 17.0551 82.5441 17.4853C82.6732 17.9203 82.4246 18.3744 81.9944 18.5034C79.7669 19.1631 78.1656 19.2826 77.7402 19.3495C77.7115 19.3495 76.8894 19.0531 76.8416 18.6182ZM73.333 19.2348C71.8512 18.9671 70.3264 18.3983 69.141 17.4662C68.7872 17.1889 68.7251 16.6727 69.0023 16.319C69.2796 15.9653 69.7958 15.9031 70.1495 16.1804C70.4746 16.4337 70.8713 16.6727 71.2442 16.8591C72.2528 15.8936 73.0128 14.7703 73.4525 13.7569C73.6342 13.341 74.1122 13.1498 74.528 13.3363C74.9439 13.5179 75.1303 14.0007 74.9534 14.4118C74.5185 15.406 73.8254 16.5006 72.9315 17.4757C73.1562 17.5331 73.3856 17.5809 73.6198 17.6239C74.0644 17.7052 74.3607 18.1306 74.2795 18.5751C74.203 19.0245 73.7728 19.316 73.333 19.2348ZM51.9712 17.7912C50.6997 17.275 49.3947 16.7922 48.085 16.3524C47.6548 16.209 47.4254 15.7454 47.5736 15.3152C47.717 14.8898 48.1806 14.6555 48.6108 14.7989C49.9492 15.2483 51.2876 15.7454 52.5878 16.2712C53.0084 16.4385 53.2092 16.9165 53.0371 17.3371C52.865 17.753 52.3918 17.9633 51.9712 17.7912ZM85.6559 16.9882C84.7955 16.9882 84.523 15.8266 85.2878 15.4395C86.4924 14.8324 87.6444 14.1106 88.7199 13.3028C89.0784 13.0303 89.5946 13.102 89.8671 13.4605C90.1395 13.819 90.0678 14.3353 89.7093 14.6077C88.5574 15.4777 87.3193 16.2473 86.0335 16.9021C85.9045 16.9595 85.7802 16.9882 85.6559 16.9882ZM6.97695 16.4289C6.68537 16.08 6.73317 15.5637 7.08211 15.2769C8.22932 14.3209 9.51514 13.6039 10.9061 13.0447C11.322 12.8774 11.8048 13.0781 11.9721 13.4988C12.1394 13.9194 11.9386 14.3926 11.518 14.5647C10.2943 15.0571 9.15186 15.688 8.12894 16.5389C7.78955 16.8209 7.27331 16.7779 6.97695 16.4289ZM44.1176 15.1479C42.7888 14.7846 41.4313 14.4596 40.0881 14.1775C39.6435 14.0867 39.3615 13.6517 39.4571 13.2072C39.5479 12.7627 39.9829 12.4806 40.4275 12.5762C41.8041 12.863 43.1903 13.1976 44.5526 13.5705C44.9876 13.69 45.2457 14.1393 45.1262 14.5743C45.0067 15.0045 44.5574 15.2674 44.1176 15.1479ZM66.5311 13.6422C66.1869 12.4281 66.1917 11.1614 66.641 9.98069C66.7844 9.60785 66.9804 9.24935 67.229 8.91953C67.4966 8.55625 68.0081 8.47977 68.3714 8.75223C68.7347 9.01991 68.8111 9.53615 68.5387 9.89465C67.8599 10.8029 67.7834 12.0743 68.1037 13.1929C68.228 13.6278 67.9746 14.0819 67.5397 14.2062C67.1047 14.3305 66.6554 14.0772 66.5311 13.6422ZM14.4385 12.8152C14.3525 12.3707 14.6489 11.9453 15.0934 11.8592C17.1297 11.4768 19.0321 11.3382 19.3285 11.3095C19.7922 11.2761 20.1746 11.6011 20.2176 12.0504C20.2558 12.4998 19.926 12.8965 19.4767 12.9395L18.9031 12.9921C17.5456 13.1212 16.4366 13.2741 15.3993 13.4701C14.9548 13.5514 14.5246 13.2598 14.4385 12.8152ZM36.0107 13.4414C34.6484 13.2359 33.2622 13.0734 31.8951 12.9491C31.4458 12.9061 31.1112 12.5093 31.1542 12.06C31.1973 11.6107 31.6083 11.2856 32.0433 11.3191C33.4439 11.4434 34.8587 11.6155 36.2545 11.821C36.7038 11.8879 37.0097 12.3038 36.9428 12.7531C36.8711 13.2072 36.4553 13.5083 36.0107 13.4414ZM27.7556 12.7005C26.3742 12.6575 24.988 12.6575 23.6114 12.6957C23.1668 12.7101 22.7844 12.3516 22.7701 11.9023C22.7558 11.4482 23.1143 11.0753 23.5636 11.061C24.9737 11.0227 26.3886 11.0227 27.8034 11.0658C28.2528 11.0801 28.6113 11.4577 28.5969 11.907C28.5826 12.3755 28.1859 12.7196 27.7556 12.7005ZM73.8445 10.234C73.5242 9.17287 72.7069 8.47499 71.5071 8.45587C71.0577 8.44631 70.6945 8.07347 70.704 7.62415C70.7136 7.17961 71.0769 6.82111 71.5214 6.82111C71.5262 6.82111 71.531 6.82111 71.5357 6.82111C73.4477 6.85457 74.8818 8.02567 75.4123 9.76081C75.5414 10.1958 75.2976 10.6499 74.8674 10.7837C74.4372 10.9128 73.9783 10.669 73.8445 10.234Z" fill="#C7CFDE"/>
<path d="M35.9007 41.132C35.5852 40.6014 35.2124 40.0947 34.7822 39.6311C34.4762 39.2965 34.5001 38.7802 34.83 38.4743C35.1646 38.1684 35.6808 38.1923 35.9867 38.5221C36.4934 39.0718 36.9379 39.6693 37.306 40.2955C37.5354 40.6827 37.4064 41.1846 37.0192 41.414C36.6368 41.6482 36.1349 41.5239 35.9007 41.132Z" fill="url(#paint1_linear_163_122)"/>
<path d="M104.068 2.01719L104.781 1.53919C104.656 1.45793 104.513 1.39101 104.341 1.34321C103.5 1.01339 103.949 -0.23419 104.805 0.0430502C105.249 0.215131 105.665 0.449351 105.961 0.740932L106.315 0.501931C106.64 0.282051 107.056 0.377651 107.262 0.683571C107.467 0.989492 107.4 1.41013 107.08 1.63001L106.726 1.86901C106.874 2.26097 106.946 2.68162 106.941 3.15962C106.936 3.53724 106.64 3.8575 106.258 3.8575C105.88 3.85272 105.574 3.54202 105.579 3.1644C105.574 2.98275 105.56 2.82502 105.531 2.67684L104.838 3.14528C104.752 2.94452 104.637 2.74375 104.503 2.54777C104.365 2.35657 104.217 2.17493 104.068 2.01719Z" fill="black"/>
<path d="M98.2369 11.9309C98.1413 11.6202 98.1078 11.2904 98.103 10.9654C99.7713 10.2914 101.851 9.18719 103.16 8.08301C103.906 9.61739 103.251 12.1604 101.645 13.2454C100.24 14.2014 98.7149 13.6087 98.2369 11.9309Z" fill="url(#paint2_linear_163_122)"/>
<path d="M93.5047 1.21413C95.106 0.129065 97.7254 0.473226 98.8535 1.71125C97.3191 2.52863 95.517 4.05823 94.2981 5.33449C93.9827 5.21977 93.7054 5.05247 93.4616 4.86605C92.0802 3.80011 92.0993 2.16057 93.5047 1.21413Z" fill="url(#paint3_linear_163_122)"/>
<path d="M102.195 8.81433C98.5188 11.2999 92.41 13.3267 91.2007 11.5389C89.9913 9.75599 94.1499 4.83258 97.821 2.34698C101.492 -0.133844 103.289 0.760018 104.499 2.54296C105.708 4.33546 105.866 6.33351 102.195 8.81433Z" fill="url(#paint4_linear_163_122)"/>
<path d="M89.5109 33.5465V92.4962C89.5109 96.0932 86.5997 99 83.0072 99H29.5038C25.9068 99 23 96.0888 23 92.4962V18.5038C23 14.9068 25.9112 12 29.5038 12H66.615C66.9557 12 67.2875 12.0265 67.6149 12.0752C68.8714 12.2743 70.0572 12.8362 71.0084 13.7122L87.405 28.7549C88.3827 29.6531 89.0552 30.8211 89.3428 32.0909C89.4534 32.5687 89.5109 33.051 89.5109 33.5465Z" fill="#4CDB06"/>
<path d="M89.3382 32.0909H70.7649C69.0261 32.0909 67.6147 30.6795 67.6147 28.9407V12.0752C68.8713 12.2743 70.057 12.8362 71.0082 13.7122L87.4048 28.7549C88.3825 29.6531 89.055 30.8211 89.3382 32.0909Z" fill="url(#paint5_linear_163_122)"/>
<path d="M58.169 21.7114V19.3355C58.169 19.1983 58.0583 19.0922 57.9256 19.0922H35.0297C34.8926 19.0922 34.7864 19.2028 34.7864 19.3355V21.7114C34.7864 21.8485 34.897 21.9547 35.0297 21.9547H57.9256C58.0583 21.9591 58.169 21.8485 58.169 21.7114Z" fill="black"/>
<path d="M48.8026 28.5028V26.1269C48.8026 25.9898 48.692 25.8836 48.5593 25.8836H35.0297C34.8926 25.8836 34.7864 25.9942 34.7864 26.1269V28.5028C34.7864 28.64 34.897 28.7461 35.0297 28.7461H48.5593C48.692 28.7461 48.8026 28.6355 48.8026 28.5028Z" fill="black"/>
<path d="M63.4517 86.6384V88.5497C63.4517 88.824 63.2304 89.0452 62.9561 89.0452H35.2731C34.9988 89.0452 34.7776 88.824 34.7776 88.5497V86.6384C34.7776 86.3641 34.9988 86.1429 35.2731 86.1429H62.9561C63.2304 86.1473 63.4517 86.3685 63.4517 86.6384Z" fill="black"/>
<path d="M57.4124 72.7283C66.5071 72.7283 73.8798 65.3557 73.8798 56.261C73.8798 47.1663 66.5071 39.7936 57.4124 39.7936C48.3178 39.7936 40.9451 47.1663 40.9451 56.261C40.9451 65.3557 48.3178 72.7283 57.4124 72.7283Z" fill="url(#paint6_linear_163_122)"/>
<path d="M42.3655 41.2138C34.0566 49.5227 34.0566 62.9948 42.3655 71.3037C50.6743 79.6126 64.1464 79.6126 72.4553 71.3037C80.7642 62.9948 80.7642 49.5227 72.4553 41.2138C64.1464 32.905 50.6788 32.905 42.3655 41.2138ZM68.2787 67.1271C62.2749 73.131 52.5458 73.131 46.542 67.1271C40.5382 61.1233 40.5382 51.3942 46.542 45.3904C52.5458 39.3866 62.2749 39.3866 68.2787 45.3904C74.2826 51.3942 74.2826 61.1233 68.2787 67.1271Z" fill="black"/>
<path d="M78.9854 73.8034L74.9637 77.8251L70.3093 73.1752C71.8578 72.0071 73.2515 70.5913 74.3399 69.1534L78.9854 73.8034Z" fill="white"/>
<path d="M81.9985 73.1221L91.002 82.1256C93.1345 84.2581 93.1345 87.7179 91.002 89.8505C88.8695 91.983 85.4097 91.983 83.2771 89.8505L74.2736 80.847C73.6321 80.2054 73.6321 79.1613 74.2736 78.5198L79.6713 73.1221C80.3173 72.4805 81.357 72.4805 81.9985 73.1221Z" fill="#F31D1D"/>
<path d="M59.3414 59.9597C58.9653 59.9597 58.66 59.6544 58.66 59.2784C58.66 57.7697 56.3815 57.7697 56.3815 59.2784C56.3815 59.6544 56.0762 59.9597 55.7001 59.9597C55.3241 59.9597 55.0188 59.6544 55.0188 59.2784C55.0188 55.969 60.0183 55.9734 60.0183 59.2784C60.0227 59.6544 59.7174 59.9597 59.3414 59.9597Z" fill="black"/>
<path d="M65.133 54.186H62.3103C61.9342 54.186 61.6289 53.8807 61.6289 53.5047C61.6289 53.1286 61.9342 52.8233 62.3103 52.8233H65.133C65.509 52.8233 65.8143 53.1286 65.8143 53.5047C65.8143 53.8807 65.509 54.186 65.133 54.186Z" fill="black"/>
<path d="M52.7316 54.186H49.9133C49.5372 54.186 49.2319 53.8807 49.2319 53.5047C49.2319 53.1286 49.5372 52.8233 49.9133 52.8233H52.7316C53.1076 52.8233 53.4129 53.1286 53.4129 53.5047C53.4129 53.8807 53.1076 54.186 52.7316 54.186Z" fill="black"/>
<path d="M75.3265 37.5195C75.3265 38.0726 74.8753 38.5238 74.3222 38.5238C73.7648 38.5238 73.3135 38.0726 73.3135 37.5195C73.3135 36.9665 73.7648 36.5152 74.3222 36.5152C74.8753 36.5196 75.3265 36.9665 75.3265 37.5195Z" fill="black"/>
<path d="M78.8085 37.5195C78.8085 38.0726 78.3572 38.5238 77.8042 38.5238C77.2467 38.5238 76.7954 38.0726 76.7954 37.5195C76.7954 36.9665 77.2467 36.5152 77.8042 36.5152C78.3616 36.5196 78.8085 36.9665 78.8085 37.5195Z" fill="black"/>
<path d="M82.2948 37.5195C82.2948 38.0726 81.8435 38.5238 81.2905 38.5238C80.733 38.5238 80.2817 38.0726 80.2817 37.5195C80.2817 36.9665 80.733 36.5152 81.2905 36.5152C81.8435 36.5196 82.2948 36.9665 82.2948 37.5195Z" fill="black"/>
<path d="M7.00115 116.48H8.90515V126H7.43515L2.28315 120.022V126H0.37915V116.48H1.79315L7.00115 122.626V116.48Z" fill="#6B6B6B"/>
<path d="M13.4415 119.154C15.5275 119.154 16.9835 120.596 16.9835 122.668C16.9835 124.726 15.5275 126.168 13.4415 126.168C11.3415 126.168 9.88548 124.726 9.88548 122.668C9.88548 120.596 11.3415 119.154 13.4415 119.154ZM13.4415 124.502C14.4495 124.502 15.1495 123.746 15.1495 122.668C15.1495 121.576 14.4495 120.82 13.4415 120.82C12.4195 120.82 11.7195 121.576 11.7195 122.668C11.7195 123.746 12.4195 124.502 13.4415 124.502Z" fill="#6B6B6B"/>
<path d="M27.087 126L24.903 122.976H22.943V126H21.039V116.48H25.057C27.199 116.48 28.781 117.768 28.781 119.728C28.781 121.058 28.053 122.08 26.919 122.598L29.397 126H27.087ZM22.943 118.244V121.212H24.987C26.037 121.212 26.905 120.638 26.905 119.728C26.905 118.818 26.037 118.244 24.987 118.244H22.943Z" fill="#6B6B6B"/>
<path d="M32.5538 119.154C34.8498 119.154 36.2358 120.89 35.8858 123.2H30.9858C31.1258 123.97 31.6298 124.558 32.6798 124.558C33.1698 124.558 33.5058 124.474 33.7438 124.18H35.7738C35.3258 125.44 34.1358 126.168 32.6658 126.168C30.5238 126.168 29.1098 124.656 29.1098 122.668C29.1098 120.68 30.5098 119.154 32.5538 119.154ZM32.5678 120.708C31.6718 120.708 31.1958 121.254 31.0278 121.954H34.0658C33.9678 121.1 33.4218 120.708 32.5678 120.708Z" fill="#6B6B6B"/>
<path d="M40.5808 119.182C42.4288 119.182 43.9128 120.722 43.9128 122.668C43.9128 124.6 42.4288 126.14 40.5808 126.14C39.8388 126.14 39.1808 125.944 38.6628 125.608V129.262H36.8288V119.322H38.6628V119.714C39.1808 119.378 39.8388 119.182 40.5808 119.182ZM40.3008 124.558C41.3508 124.558 42.0788 123.662 42.0788 122.668C42.0788 121.66 41.3508 120.764 40.3008 120.764C39.6988 120.764 39.0968 120.974 38.6628 121.59V123.732C39.0968 124.348 39.6988 124.558 40.3008 124.558Z" fill="#6B6B6B"/>
<path d="M48.0341 119.154C50.1201 119.154 51.5761 120.596 51.5761 122.668C51.5761 124.726 50.1201 126.168 48.0341 126.168C45.9341 126.168 44.4781 124.726 44.4781 122.668C44.4781 120.596 45.9341 119.154 48.0341 119.154ZM48.0341 124.502C49.0421 124.502 49.7421 123.746 49.7421 122.668C49.7421 121.576 49.0421 120.82 48.0341 120.82C47.0121 120.82 46.3121 121.576 46.3121 122.668C46.3121 123.746 47.0121 124.502 48.0341 124.502Z" fill="#6B6B6B"/>
<path d="M54.1541 120.092C54.7561 119.518 55.5261 119.21 56.5201 119.21V120.946C55.4841 121.002 54.7281 121.31 54.1541 121.954V126H52.3201V119.322H54.1541V120.092Z" fill="#6B6B6B"/>
<path d="M62.1809 124.208L62.4329 125.874C61.8169 126.112 61.3129 126.168 60.8229 126.168C59.0309 126.168 58.0229 125.048 58.0229 123.34V120.862H56.5949V119.322H58.0229V116.9H59.8569V119.322H62.3069V120.862H59.8569V123.34C59.8569 124.124 60.3469 124.474 61.0329 124.474C61.4529 124.474 61.8449 124.348 62.1809 124.208Z" fill="#6B6B6B"/>
<path d="M64.3267 123.69C64.4387 124.446 64.9847 124.684 65.7687 124.684C66.4687 124.684 66.9587 124.502 66.9587 124.124C66.9587 123.858 66.7347 123.634 66.2727 123.55L64.8307 123.298C63.8507 123.13 62.8567 122.598 62.8567 121.338C62.8567 119.966 64.0187 119.14 65.7127 119.14C66.9167 119.14 68.5127 119.476 68.6667 121.394H66.9727C66.9307 120.792 66.3567 120.596 65.7127 120.596C65.0127 120.596 64.6767 120.834 64.6767 121.156C64.6767 121.408 64.8587 121.702 65.5027 121.814L66.7067 122.01C67.7427 122.192 68.7087 122.668 68.7087 123.956C68.7087 125.44 67.4207 126.168 65.7267 126.168C64.2567 126.168 62.7727 125.622 62.6327 123.676L64.3267 123.69Z" fill="#6B6B6B"/>
<path d="M79.6661 118.244H74.6681V120.694H79.0361V122.458H74.6681V126H72.7641V116.48H79.6661V118.244Z" fill="#6B6B6B"/>
<path d="M82.9553 119.154C85.0413 119.154 86.4973 120.596 86.4973 122.668C86.4973 124.726 85.0413 126.168 82.9553 126.168C80.8553 126.168 79.3993 124.726 79.3993 122.668C79.3993 120.596 80.8553 119.154 82.9553 119.154ZM82.9553 124.502C83.9633 124.502 84.6633 123.746 84.6633 122.668C84.6633 121.576 83.9633 120.82 82.9553 120.82C81.9333 120.82 81.2333 121.576 81.2333 122.668C81.2333 123.746 81.9333 124.502 82.9553 124.502Z" fill="#6B6B6B"/>
<path d="M92.0977 119.322H93.9317V126H92.0977V125.468C91.5517 125.902 90.9217 126.168 90.1657 126.168C88.3877 126.168 87.2117 124.866 87.2117 122.906V119.322H89.0457V122.794C89.0457 123.886 89.5917 124.502 90.5577 124.502C91.0617 124.502 91.6217 124.194 92.0977 123.62V119.322Z" fill="#6B6B6B"/>
<path d="M98.8966 119.154C100.675 119.154 101.851 120.414 101.851 122.374V126H100.017V122.486C100.017 121.394 99.4706 120.82 98.5046 120.82C98.0006 120.82 97.4406 121.114 96.9646 121.674V126H95.1306V119.322H96.9646V119.826C97.5106 119.392 98.1406 119.154 98.8966 119.154Z" fill="#6B6B6B"/>
<path d="M107.879 116.06H109.713V126H107.879V125.622C107.361 125.958 106.703 126.168 105.961 126.168C104.113 126.168 102.629 124.6 102.629 122.654C102.629 120.722 104.113 119.154 105.961 119.154C106.703 119.154 107.361 119.364 107.879 119.7V116.06ZM106.241 124.502C106.843 124.502 107.445 124.334 107.879 123.718V121.604C107.445 120.988 106.843 120.82 106.241 120.82C105.191 120.82 104.463 121.66 104.463 122.654C104.463 123.662 105.191 124.502 106.241 124.502Z" fill="#6B6B6B"/>
<defs>
<linearGradient id="paint0_linear_163_122" x1="3.1166" y1="10.3529" x2="94.4383" y2="10.3529" gradientUnits="userSpaceOnUse">
<stop stop-color="#D6DCE8"/>
<stop offset="1" stop-color="white"/>
</linearGradient>
<linearGradient id="paint1_linear_163_122" x1="3.12185" y1="39.8976" x2="94.438" y2="39.8976" gradientUnits="userSpaceOnUse">
<stop stop-color="#D6DCE8"/>
<stop offset="1" stop-color="white"/>
</linearGradient>
<linearGradient id="paint2_linear_163_122" x1="102.771" y1="7.99141" x2="97.5302" y2="10.5076" gradientUnits="userSpaceOnUse">
<stop stop-color="#2E2E2E"/>
<stop offset="1" stop-color="white"/>
</linearGradient>
<linearGradient id="paint3_linear_163_122" x1="98.0211" y1="0.485584" x2="92.7288" y2="4.06486" gradientUnits="userSpaceOnUse">
<stop stop-color="#2E2E2E"/>
<stop offset="1" stop-color="white"/>
</linearGradient>
<linearGradient id="paint4_linear_163_122" x1="95.662" y1="3.80937" x2="100.036" y2="10.2768" gradientUnits="userSpaceOnUse">
<stop/>
<stop offset="1" stop-color="#656565"/>
</linearGradient>
<linearGradient id="paint5_linear_163_122" x1="91.5" y1="12" x2="68.5778" y2="33.6128" gradientUnits="userSpaceOnUse">
<stop stop-color="#818181"/>
<stop offset="1"/>
</linearGradient>
<linearGradient id="paint6_linear_163_122" x1="40.9449" y1="56.2603" x2="73.8769" y2="56.2603" gradientUnits="userSpaceOnUse">
<stop stop-color="#D6DCE8"/>
<stop offset="1" stop-color="white"/>
</linearGradient>
</defs>
</svg>
