<svg width="156" height="132" viewBox="0 0 156 132" fill="none" xmlns="http://www.w3.org/2000/svg">
<path d="M127.281 52.1451C127.281 64.4058 123.05 75.6723 115.981 84.5679C106.425 96.5753 91.6887 104.281 75.1403 104.281C46.4412 104.281 23 81.0211 23 52.1403C23 39.8892 27.2303 28.6227 34.3095 19.7223C44.0798 7.39945 58.9935 0 75.1403 0C103.935 0.00478001 127.281 23.336 127.281 52.1451Z" fill="#EDEDED"/>
<path d="M29.6442 97.4069C30.997 97.144 32.3067 98.0475 32.5696 99.4002C32.8325 100.753 31.9434 102.058 30.5955 102.321C29.2427 102.584 27.9187 101.699 27.6558 100.347C27.3929 98.9987 28.2963 97.6651 29.6442 97.4069Z" fill="#D6DCE8"/>
<path d="M25.7342 92.6792C26.5946 92.5119 27.4311 93.0903 27.5936 93.9507C27.7609 94.8111 27.1969 95.6428 26.3365 95.8101C25.4761 95.9774 24.6348 95.4134 24.4675 94.553C24.3002 93.6926 24.8738 92.8465 25.7342 92.6792Z" fill="#D6DCE8"/>
<path d="M25.9731 0.492795C27.3259 0.229895 28.6356 1.13332 28.8985 2.48606C29.1614 3.8388 28.2723 5.14375 26.9244 5.40665C25.5716 5.66955 24.2476 4.78524 23.9847 3.4325C23.7265 2.07976 24.6252 0.750916 25.9731 0.492795Z" fill="#D6DCE8"/>
<path d="M111.755 11.7405C111.421 11.4346 111.401 10.9183 111.703 10.5837C112.147 10.0961 112.573 9.5895 112.965 9.07326C113.237 8.71476 113.748 8.64306 114.112 8.91552C114.47 9.18798 114.542 9.69944 114.269 10.0627C113.849 10.622 113.39 11.1669 112.912 11.6927C112.606 12.0273 112.09 12.0464 111.755 11.7405Z" fill="url(#paint0_linear_711_2)"/>
<path d="M51.6036 37.2546C50.5042 36.681 49.247 36.2078 47.856 35.8397C47.421 35.725 47.1581 35.2757 47.2729 34.8407C47.3876 34.4057 47.8369 34.1476 48.2719 34.2576C49.7776 34.6543 51.1495 35.1753 52.354 35.8063C52.7555 36.0166 52.9085 36.5089 52.703 36.9105C52.4926 37.312 51.9955 37.4602 51.6036 37.2546ZM43.8456 35.1036C42.6984 34.965 41.5321 34.8598 39.6918 34.683C39.2425 34.64 38.9126 34.2384 38.9557 33.7891C38.9987 33.3398 39.3859 33.0052 39.8495 33.053L40.9489 33.1582C41.9814 33.2538 43.0139 33.3541 44.0416 33.4784C44.4909 33.531 44.8112 33.9421 44.7538 34.3914C44.7012 34.8359 44.2997 35.1562 43.8456 35.1036ZM35.4662 34.1428C33.6976 33.8274 32.2923 33.4163 31.2694 33.0195C30.8488 32.857 30.6384 32.379 30.8057 31.9584C30.9683 31.5377 31.4463 31.3274 31.8621 31.4947C33.0667 31.9631 34.4577 32.3025 35.753 32.532C36.1976 32.6132 36.494 33.0339 36.4127 33.4784C36.3362 33.9277 35.906 34.2193 35.4662 34.1428ZM27.4263 30.8446C26.1691 29.8647 25.1606 28.751 24.4292 27.5273C24.195 27.1401 24.324 26.6382 24.7112 26.404C25.0984 26.1698 25.6003 26.2988 25.8345 26.686C26.4607 27.7328 27.3355 28.6984 28.4349 29.554C28.7934 29.8313 28.8555 30.3475 28.5783 30.7012C28.2962 31.0549 27.7848 31.1266 27.4263 30.8446ZM23.9416 23.9184C23.5019 23.9184 23.1386 23.6077 23.1243 23.1632C23.1243 23.1536 23.1243 23.0676 23.1243 23.058V22.972C23.1243 21.5284 23.4971 20.104 24.2332 18.7273C24.4483 18.3306 24.9407 18.1776 25.3374 18.3927C25.7342 18.6078 25.8871 19.1001 25.672 19.5017C25.065 20.6393 24.759 21.8056 24.759 22.9767C24.759 22.9863 24.759 23.0532 24.759 23.0628C24.759 23.5121 24.4005 23.9136 23.956 23.9184C23.9512 23.9184 23.9464 23.9184 23.9416 23.9184ZM84.2223 21.4663C83.7778 21.4663 83.4145 21.1078 83.405 20.6632C83.3954 20.2091 83.7587 19.8363 84.208 19.8315C85.5225 19.8076 86.7844 19.5256 87.9794 19.0189C88.3953 18.842 88.8733 19.038 89.0501 19.4539C89.227 19.8697 89.031 20.3525 88.6152 20.5246C87.2003 21.1269 85.7424 21.4376 84.2367 21.4663C84.2367 21.4663 84.2271 21.4663 84.2223 21.4663ZM79.8678 20.8688C78.3716 20.4625 76.9185 19.8841 75.8239 19.4252C75.408 19.2531 75.2072 18.7703 75.3841 18.3545C75.5562 17.9386 76.039 17.7378 76.4548 17.9147C77.5064 18.3545 78.8974 18.9089 80.3027 19.2913C80.7377 19.4108 80.9958 19.8602 80.8763 20.2952C80.7568 20.7206 80.3171 20.9883 79.8678 20.8688ZM96.8416 18.6174C96.7938 18.168 97.1188 17.7665 97.5681 17.7187C98.3042 17.6088 99.4562 17.5466 101.526 16.9348C101.961 16.8057 102.415 17.0543 102.544 17.4845C102.673 17.9195 102.425 18.3736 101.994 18.5026C99.7669 19.1623 98.1656 19.2818 97.7402 19.3487C97.7115 19.3487 96.8894 19.0523 96.8416 18.6174ZM93.333 19.234C91.8512 18.9663 90.3264 18.3975 89.141 17.4654C88.7872 17.1881 88.7251 16.6719 89.0023 16.3182C89.2796 15.9645 89.7958 15.9023 90.1495 16.1796C90.4746 16.4329 90.8713 16.6719 91.2442 16.8583C92.2528 15.8928 93.0128 14.7695 93.4525 13.7561C93.6342 13.3402 94.1122 13.149 94.528 13.3355C94.9439 13.5171 95.1303 13.9999 94.9535 14.411C94.5185 15.4052 93.8254 16.4998 92.9315 17.4749C93.1562 17.5323 93.3856 17.5801 93.6198 17.6231C94.0644 17.7044 94.3607 18.1298 94.2795 18.5743C94.203 19.0237 93.7728 19.3152 93.333 19.234ZM71.9712 17.7904C70.6997 17.2742 69.3947 16.7914 68.085 16.3516C67.6548 16.2082 67.4254 15.7446 67.5736 15.3144C67.717 14.889 68.1806 14.6547 68.6108 14.7981C69.9492 15.2475 71.2876 15.7446 72.5878 16.2704C73.0084 16.4377 73.2092 16.9157 73.0371 17.3363C72.865 17.7522 72.3918 17.9625 71.9712 17.7904ZM105.656 16.9874C104.795 16.9874 104.523 15.8258 105.288 15.4387C106.492 14.8316 107.644 14.1098 108.72 13.302C109.078 13.0295 109.595 13.1012 109.867 13.4597C110.14 13.8182 110.068 14.3345 109.709 14.6069C108.557 15.4769 107.319 16.2465 106.034 16.9013C105.904 16.9587 105.78 16.9874 105.656 16.9874ZM26.977 16.4281C26.6854 16.0792 26.7332 15.5629 27.0821 15.2761C28.2293 14.3201 29.5151 13.6031 30.9061 13.0439C31.322 12.8766 31.8048 13.0773 31.9721 13.498C32.1394 13.9186 31.9386 14.3918 31.518 14.5639C30.2943 15.0563 29.1519 15.6872 28.1289 16.5381C27.7896 16.8201 27.2733 16.7771 26.977 16.4281ZM64.1176 15.1471C62.7888 14.7838 61.4313 14.4588 60.0881 14.1767C59.6435 14.0859 59.3615 13.6509 59.4571 13.2064C59.5479 12.7619 59.9829 12.4798 60.4275 12.5754C61.8041 12.8622 63.1903 13.1968 64.5526 13.5697C64.9876 13.6892 65.2457 14.1385 65.1262 14.5735C65.0067 15.0037 64.5574 15.2666 64.1176 15.1471ZM86.5311 13.6414C86.1869 12.4273 86.1917 11.1606 86.641 9.97989C86.7844 9.60705 86.9804 9.24855 87.229 8.91873C87.4966 8.55545 88.0081 8.47897 88.3714 8.75143C88.7347 9.01911 88.8111 9.53535 88.5387 9.89385C87.8599 10.8021 87.7834 12.0735 88.1037 13.1921C88.228 13.627 87.9746 14.0811 87.5397 14.2054C87.1047 14.3297 86.6554 14.0764 86.5311 13.6414ZM34.4385 12.8144C34.3525 12.3699 34.6489 11.9445 35.0934 11.8584C37.1297 11.476 39.0321 11.3374 39.3285 11.3087C39.7922 11.2753 40.1746 11.6003 40.2176 12.0496C40.2558 12.499 39.926 12.8957 39.4767 12.9387L38.9031 12.9913C37.5456 13.1204 36.4366 13.2733 35.3993 13.4693C34.9548 13.5506 34.5246 13.259 34.4385 12.8144ZM56.0107 13.4406C54.6484 13.2351 53.2622 13.0726 51.8951 12.9483C51.4458 12.9053 51.1112 12.5085 51.1542 12.0592C51.1973 11.6099 51.6083 11.2848 52.0433 11.3183C53.4439 11.4426 54.8587 11.6147 56.2545 11.8202C56.7038 11.8871 57.0097 12.303 56.9428 12.7523C56.8711 13.2064 56.4553 13.5075 56.0107 13.4406ZM47.7556 12.6997C46.3742 12.6567 44.988 12.6567 43.6114 12.6949C43.1668 12.7093 42.7844 12.3508 42.7701 11.9015C42.7558 11.4474 43.1143 11.0745 43.5636 11.0602C44.9737 11.0219 46.3886 11.0219 47.8034 11.065C48.2528 11.0793 48.6113 11.4569 48.5969 11.9062C48.5826 12.3747 48.1859 12.7188 47.7556 12.6997ZM93.8445 10.2332C93.5242 9.17207 92.7069 8.47419 91.5071 8.45507C91.0577 8.44551 90.6945 8.07267 90.704 7.62335C90.7136 7.17881 91.0769 6.82031 91.5214 6.82031C91.5262 6.82031 91.531 6.82031 91.5357 6.82031C93.4477 6.85377 94.8818 8.02487 95.4123 9.76001C95.5414 10.195 95.2976 10.6491 94.8674 10.7829C94.4372 10.912 93.9783 10.6682 93.8445 10.2332Z" fill="#C7CFDE"/>
<path d="M55.9008 41.1327C55.5853 40.6021 55.2125 40.0954 54.7823 39.6318C54.4764 39.2972 54.5003 38.7809 54.8301 38.475C55.1647 38.1691 55.6809 38.193 55.9868 38.5228C56.4935 39.0725 56.9381 39.67 57.3061 40.2962C57.5356 40.6834 57.4065 41.1853 57.0193 41.4147C56.6369 41.6489 56.135 41.5246 55.9008 41.1327Z" fill="url(#paint1_linear_711_2)"/>
<path d="M124.068 2.01792L124.781 1.53992C124.656 1.45866 124.513 1.39174 124.341 1.34394C123.5 1.01412 123.949 -0.233458 124.805 0.0437826C125.249 0.215863 125.665 0.450083 125.961 0.741664L126.315 0.502663C126.64 0.282783 127.056 0.378383 127.262 0.684303C127.467 0.990224 127.4 1.41086 127.08 1.63074L126.726 1.86974C126.874 2.2617 126.946 2.68235 126.941 3.16035C126.936 3.53797 126.64 3.85823 126.258 3.85823C125.88 3.85345 125.574 3.54275 125.579 3.16513C125.574 2.98348 125.56 2.82575 125.531 2.67757L124.838 3.14601C124.752 2.94525 124.637 2.74448 124.503 2.5485C124.365 2.3573 124.217 2.17566 124.068 2.01792Z" fill="black"/>
<path d="M118.237 11.9319C118.141 11.6212 118.108 11.2914 118.103 10.9664C119.771 10.2924 121.851 9.18816 123.16 8.08398C123.906 9.61836 123.251 12.1614 121.645 13.2464C120.24 14.2024 118.715 13.6097 118.237 11.9319Z" fill="url(#paint2_linear_711_2)"/>
<path d="M113.505 1.21328C115.106 0.12821 117.725 0.472371 118.853 1.71039C117.319 2.52777 115.517 4.05737 114.298 5.33363C113.983 5.21891 113.705 5.05161 113.462 4.86519C112.08 3.79925 112.099 2.15971 113.505 1.21328Z" fill="url(#paint3_linear_711_2)"/>
<path d="M122.195 8.81409C118.519 11.2997 112.41 13.3265 111.201 11.5387C109.991 9.75575 114.15 4.83234 117.821 2.34674C121.492 -0.134088 123.289 0.759774 124.499 2.54272C125.708 4.33522 125.866 6.33327 122.195 8.81409Z" fill="url(#paint4_linear_711_2)"/>
<path d="M19.059 117.16H20.827V126H19.462L14.678 120.449V126H12.91V117.16H14.223L19.059 122.867V117.16ZM25.5593 119.643C27.4963 119.643 28.8483 120.982 28.8483 122.906C28.8483 124.817 27.4963 126.156 25.5593 126.156C23.6093 126.156 22.2573 124.817 22.2573 122.906C22.2573 120.982 23.6093 119.643 25.5593 119.643ZM25.5593 124.609C26.4953 124.609 27.1453 123.907 27.1453 122.906C27.1453 121.892 26.4953 121.19 25.5593 121.19C24.6103 121.19 23.9603 121.892 23.9603 122.906C23.9603 123.907 24.6103 124.609 25.5593 124.609ZM39.2701 126L37.2421 123.192H35.4221V126H33.6541V117.16H37.3851C39.3741 117.16 40.8431 118.356 40.8431 120.176C40.8431 121.411 40.1671 122.36 39.1141 122.841L41.4151 126H39.2701ZM35.4221 118.798V121.554H37.3201C38.2951 121.554 39.1011 121.021 39.1011 120.176C39.1011 119.331 38.2951 118.798 37.3201 118.798H35.4221ZM44.8664 119.643C46.9984 119.643 48.2854 121.255 47.9604 123.4H43.4104C43.5404 124.115 44.0084 124.661 44.9834 124.661C45.4384 124.661 45.7504 124.583 45.9714 124.31H47.8564C47.4404 125.48 46.3354 126.156 44.9704 126.156C42.9814 126.156 41.6684 124.752 41.6684 122.906C41.6684 121.06 42.9684 119.643 44.8664 119.643ZM44.8794 121.086C44.0474 121.086 43.6054 121.593 43.4494 122.243H46.2704C46.1794 121.45 45.6724 121.086 44.8794 121.086ZM53.5546 119.799H55.3616L52.5276 126H51.0456L48.2116 119.799H50.0186L51.7866 123.816L53.5546 119.799ZM57.4166 118.59C56.8316 118.59 56.3766 118.161 56.3766 117.589C56.3766 117.004 56.8316 116.575 57.4166 116.575C57.9886 116.575 58.4566 117.004 58.4566 117.589C58.4566 118.161 57.9886 118.59 57.4166 118.59ZM56.5716 119.799H58.2746V126H56.5716V119.799ZM62.9319 119.643C65.0639 119.643 66.3509 121.255 66.0259 123.4H61.4759C61.6059 124.115 62.0739 124.661 63.0489 124.661C63.5039 124.661 63.8159 124.583 64.0369 124.31H65.9219C65.5059 125.48 64.4009 126.156 63.0359 126.156C61.0469 126.156 59.7339 124.752 59.7339 122.906C59.7339 121.06 61.0339 119.643 62.9319 119.643ZM62.9449 121.086C62.1129 121.086 61.6709 121.593 61.5149 122.243H64.3359C64.2449 121.45 63.7379 121.086 62.9449 121.086ZM74.516 119.799H76.362L74.178 126H72.696L71.383 122.152L70.07 126H68.588L66.404 119.799H68.25L69.329 123.426L70.668 119.799H72.098L73.437 123.426L74.516 119.799ZM78.2648 123.855C78.3688 124.557 78.8758 124.778 79.6038 124.778C80.2538 124.778 80.7088 124.609 80.7088 124.258C80.7088 124.011 80.5008 123.803 80.0718 123.725L78.7328 123.491C77.8228 123.335 76.8998 122.841 76.8998 121.671C76.8998 120.397 77.9788 119.63 79.5518 119.63C80.6698 119.63 82.1518 119.942 82.2948 121.723H80.7218C80.6828 121.164 80.1498 120.982 79.5518 120.982C78.9018 120.982 78.5898 121.203 78.5898 121.502C78.5898 121.736 78.7588 122.009 79.3568 122.113L80.4748 122.295C81.4368 122.464 82.3338 122.906 82.3338 124.102C82.3338 125.48 81.1378 126.156 79.5648 126.156C78.1998 126.156 76.8218 125.649 76.6918 123.842L78.2648 123.855ZM93.8865 126L93.1585 124.232H89.0895L88.3615 126H86.4635L90.2985 117.16H91.9495L95.7715 126H93.8865ZM89.7265 122.659H92.5085L91.1175 119.279L89.7265 122.659ZM100.375 119.799H102.182L99.3479 126H97.8659L95.0319 119.799H96.8389L98.6069 123.816L100.375 119.799ZM107.252 119.799H108.955V126H107.252V125.649C106.771 125.961 106.16 126.156 105.471 126.156C103.755 126.156 102.377 124.7 102.377 122.906C102.377 121.099 103.755 119.643 105.471 119.643C106.16 119.643 106.771 119.838 107.252 120.15V119.799ZM105.731 124.609C106.29 124.609 106.849 124.453 107.252 123.881V121.918C106.849 121.346 106.29 121.19 105.731 121.19C104.756 121.19 104.08 121.97 104.08 122.906C104.08 123.829 104.756 124.609 105.731 124.609ZM111.638 118.59C111.053 118.59 110.598 118.161 110.598 117.589C110.598 117.004 111.053 116.575 111.638 116.575C112.21 116.575 112.678 117.004 112.678 117.589C112.678 118.161 112.21 118.59 111.638 118.59ZM110.793 119.799H112.496V126H110.793V119.799ZM114.318 116.77H116.021V126H114.318V116.77ZM122.169 119.799H123.872V126H122.169V125.649C121.688 125.961 121.077 126.156 120.388 126.156C118.672 126.156 117.294 124.7 117.294 122.906C117.294 121.099 118.672 119.643 120.388 119.643C121.077 119.643 121.688 119.838 122.169 120.15V119.799ZM120.648 124.609C121.207 124.609 121.766 124.453 122.169 123.881V121.918C121.766 121.346 121.207 121.19 120.648 121.19C119.673 121.19 118.997 121.97 118.997 122.906C118.997 123.829 119.673 124.609 120.648 124.609ZM128.999 119.643C130.715 119.643 132.093 121.099 132.093 122.893C132.093 124.7 130.715 126.156 128.999 126.156C128.31 126.156 127.699 125.961 127.218 125.649V126H125.515V116.77H127.218V120.15C127.699 119.838 128.31 119.643 128.999 119.643ZM128.739 124.609C129.714 124.609 130.39 123.829 130.39 122.893C130.39 121.97 129.714 121.19 128.739 121.19C128.18 121.19 127.621 121.346 127.218 121.918V123.881C127.621 124.453 128.18 124.609 128.739 124.609ZM133.374 116.77H135.077V126H133.374V116.77ZM139.548 119.643C141.68 119.643 142.967 121.255 142.642 123.4H138.092C138.222 124.115 138.69 124.661 139.665 124.661C140.12 124.661 140.432 124.583 140.653 124.31H142.538C142.122 125.48 141.017 126.156 139.652 126.156C137.663 126.156 136.35 124.752 136.35 122.906C136.35 121.06 137.65 119.643 139.548 119.643ZM139.561 121.086C138.729 121.086 138.287 121.593 138.131 122.243H140.952C140.861 121.45 140.354 121.086 139.561 121.086Z" fill="#6B6B6B"/>
<g clip-path="url(#clip0_711_2)">
<path d="M105.465 29.9226C103.454 31.9177 101.434 33.9045 99.4365 35.9134C97.1476 38.2139 94.8967 40.5557 92.5915 42.8452C92.0313 43.3734 91.589 44.0162 91.2938 44.7308C90.9986 45.4454 90.8574 46.2154 90.8795 46.9895C90.904 49.1221 90.8632 51.2548 90.8795 53.3875C90.9203 56.5411 92.8908 58.5389 95.9881 58.5774C98.1274 58.6022 100.267 58.5774 102.406 58.5774C103.154 58.595 103.898 58.4508 104.587 58.1547C105.276 57.8586 105.894 57.4173 106.401 56.8603C108.274 54.9175 110.187 53.0077 112.087 51.0814C112.318 50.8475 112.566 50.6246 112.974 50.2366V51.4062C112.974 61.0045 112.974 70.6029 112.974 80.2013C112.974 85.5701 109.548 89.0319 104.24 89.0319C90.1819 89.0319 76.1244 89.0237 62.0678 89.0072C61.118 89.0072 60.6335 89.3264 60.1926 90.1382C58.8318 92.6671 57.3757 95.1547 55.9495 97.6534C54.9262 99.4393 53.6443 99.4256 52.6127 97.6149C51.2356 95.207 49.8285 92.8129 48.5302 90.3638C48.0077 89.3841 47.4415 88.9879 46.2739 88.9879C42.0336 89.0374 38.7431 86.126 38.079 81.8937C38.0092 81.3463 37.9819 80.7942 37.9973 80.2426C37.9973 66.2743 37.9973 52.306 37.9973 38.3377C37.9973 33.0377 41.4348 29.5566 46.674 29.5566C65.8238 29.5566 84.9735 29.5566 104.123 29.5566H105.31L105.465 29.9226ZM75.4939 70.8891C68.0546 70.8891 60.6154 70.8891 53.1761 70.8891C51.799 70.8891 51.0451 71.4808 51.0451 72.5402C51.0451 73.5997 51.8017 74.1913 53.1761 74.1913H97.4986C97.8372 74.2125 98.1769 74.2033 98.5138 74.1638C99.3902 74.0014 99.9237 73.4538 99.9237 72.5402C99.9237 71.6266 99.3957 71.0762 98.5166 70.9166C98.1787 70.8771 97.8381 70.8679 97.4986 70.8891H75.4939Z" fill="#4CDB06"/>
<path d="M94.1455 50.0363C93.378 46.9653 94.9321 44.9922 96.9951 42.9779C102.934 37.177 108.717 31.211 114.542 25.2919C116.477 23.3271 118.72 22.5015 121.395 23.305C122.424 23.6193 123.36 24.1877 124.118 24.9589C124.875 25.7301 125.431 26.6798 125.735 27.7225C126.039 28.7652 126.082 29.868 125.859 30.9315C125.637 31.995 125.156 32.9857 124.46 33.8143C123.676 34.7582 122.769 35.6002 121.907 36.4753C116.055 42.4192 110.206 48.3641 104.36 54.3099C104.067 54.6391 103.705 54.8981 103.301 55.0681C102.896 55.238 102.459 55.3146 102.022 55.2923C100.155 55.2455 98.2879 55.2923 96.4208 55.2785C94.6354 55.2785 94.1537 54.7722 94.1455 52.9257C94.1428 51.9626 94.1455 50.9994 94.1455 50.0363Z" fill="black"/>
<path d="M65.3476 60.306C65.1159 60.3038 64.8848 60.2328 64.7079 60.0963C63.7807 59.3776 62.3298 59.358 61.3997 60.0505C61.0369 60.3221 60.4594 60.311 60.1056 60.0298C59.7553 59.7485 59.7632 59.3029 60.126 59.0313C61.7528 57.8201 64.3909 57.8484 66.0046 59.102C66.3621 59.3805 66.3613 59.8262 66.0057 60.1006C65.8189 60.2418 65.5829 60.3083 65.3476 60.306Z" fill="black"/>
<path d="M75.9806 52.379C75.9663 53.857 74.7559 55.0442 73.2779 55.0299C71.7999 55.0156 70.6126 53.8052 70.6269 52.3272C70.6412 50.8492 71.8517 49.662 73.3296 49.6763C74.8077 49.6873 75.9949 50.8977 75.9806 52.379Z" fill="black"/>
<path d="M78.3218 47.5834C78.2109 47.5824 78.1001 47.5606 77.9896 47.5215L71.2857 44.9445C70.815 44.764 70.5838 44.2476 70.7707 43.7938C70.9576 43.3402 71.4931 43.1176 71.9638 43.2982L78.6677 45.8752C79.1383 46.0557 79.3696 46.5721 79.1826 47.0259C79.0397 47.373 78.6904 47.587 78.3218 47.5834Z" fill="black"/>
<path d="M71.6868 53.4084C71.684 53.7046 72.1601 53.9484 72.7524 53.9541C73.3447 53.9599 73.8254 53.7253 73.8283 53.4291C73.8312 53.133 73.3551 52.8891 72.7627 52.8834C72.1704 52.8777 71.6897 53.1123 71.6868 53.4084Z" fill="white"/>
<path d="M50.2831 52.1319C50.2688 53.6099 51.6958 54.8226 53.4694 54.8398C55.2429 54.8569 56.6931 53.672 56.7074 52.194C56.7217 50.716 55.2947 49.5033 53.5211 49.4861C51.7475 49.469 50.2974 50.6506 50.2831 52.1319Z" fill="black"/>
<path d="M48.0349 47.2918C47.6663 47.2882 47.3213 47.071 47.1851 46.7177C47.007 46.2605 47.2446 45.7487 47.7222 45.5773L54.4739 43.1307C54.9516 42.9593 55.479 43.1887 55.6571 43.6494C55.8352 44.1065 55.5977 44.6183 55.12 44.7897L48.3682 47.2364C48.2569 47.2732 48.1422 47.2928 48.0349 47.2918Z" fill="black"/>
<path d="M52.4129 53.4084C52.41 53.7046 52.8861 53.9484 53.4785 53.9541C54.0708 53.9599 54.5515 53.7253 54.5544 53.4291C54.5572 53.133 54.0811 52.8891 53.4888 52.8834C52.8965 52.8777 52.4158 53.1123 52.4129 53.4084Z" fill="white"/>
<rect x="51" y="70" width="58" height="5" rx="2.5" fill="#4CDB06"/>
<rect x="52" y="75" width="28" height="3" rx="1.5" fill="#EDEDED"/>
<rect x="52" y="68" width="16" height="3" rx="1.5" fill="#EDEDED"/>
</g>
<path d="M115.199 91.1982C120.555 85.8417 120.555 77.157 115.199 71.8006C109.842 66.4441 101.158 66.4441 95.8009 71.8006C90.4448 77.1571 90.4448 85.8416 95.8009 91.1982C101.158 96.5548 109.842 96.5548 115.199 91.1982Z" fill="white"/>
<path d="M105.5 96C97.5057 96 91 89.4947 91 81.5C91 73.5054 97.5057 67 105.5 67C113.495 67 120 73.5054 120 81.5C120 89.4947 113.495 96 105.5 96ZM105.5 68.5159C98.3406 68.5159 92.5159 74.3406 92.5159 81.5C92.5159 88.6595 98.3406 94.4847 105.5 94.4847C112.659 94.4847 118.484 88.6595 118.484 81.5C118.484 74.3406 112.664 68.5159 105.5 68.5159Z" fill="#AAB2C5"/>
<path d="M105.5 90.5134C110.478 90.5134 114.513 86.4779 114.513 81.4999C114.513 76.5218 110.478 72.4863 105.5 72.4863C100.522 72.4863 96.4865 76.5218 96.4865 81.4999C96.4865 86.4779 100.522 90.5134 105.5 90.5134Z" fill="#F31D1D"/>
<path d="M109.458 85.4618C109.006 85.9275 108.242 85.9275 107.79 85.4618L105.496 83.1735L103.207 85.4618C102.745 85.9275 101.991 85.9275 101.539 85.4618C101.073 85.0096 101.073 84.2467 101.539 83.7944L103.828 81.5061L101.539 79.2133C101.073 78.7477 101.073 78.0027 101.539 77.5371C101.987 77.0758 102.741 77.0714 103.207 77.5371L105.496 79.8253L107.79 77.5371C108.251 77.0758 109.001 77.0758 109.458 77.5371C109.902 77.9716 109.941 78.73 109.458 79.2133L107.169 81.5061L109.458 83.7944C109.928 84.2557 109.928 85.0051 109.458 85.4618Z" fill="white"/>
<defs>
<linearGradient id="paint0_linear_711_2" x1="23.1167" y1="10.3536" x2="114.438" y2="10.3536" gradientUnits="userSpaceOnUse">
<stop stop-color="#D6DCE8"/>
<stop offset="1" stop-color="white"/>
</linearGradient>
<linearGradient id="paint1_linear_711_2" x1="23.122" y1="39.8983" x2="114.438" y2="39.8983" gradientUnits="userSpaceOnUse">
<stop stop-color="#D6DCE8"/>
<stop offset="1" stop-color="white"/>
</linearGradient>
<linearGradient id="paint2_linear_711_2" x1="122.771" y1="7.99238" x2="117.53" y2="10.5086" gradientUnits="userSpaceOnUse">
<stop stop-color="#2E2E2E"/>
<stop offset="1" stop-color="white"/>
</linearGradient>
<linearGradient id="paint3_linear_711_2" x1="118.021" y1="0.484729" x2="112.729" y2="4.064" gradientUnits="userSpaceOnUse">
<stop stop-color="#2E2E2E"/>
<stop offset="1" stop-color="white"/>
</linearGradient>
<linearGradient id="paint4_linear_711_2" x1="115.662" y1="3.80913" x2="120.036" y2="10.2766" gradientUnits="userSpaceOnUse">
<stop/>
<stop offset="1" stop-color="#656565"/>
</linearGradient>
<clipPath id="clip0_711_2">
<rect width="88" height="76" fill="white" transform="translate(38 23)"/>
</clipPath>
</defs>
</svg>
