<svg width="105" height="127" viewBox="0 0 105 127" fill="none" xmlns="http://www.w3.org/2000/svg">
<path d="M104.281 52.1451C104.281 64.4058 100.05 75.6723 92.9807 84.5679C83.4255 96.5753 68.6887 104.281 52.1403 104.281C23.4412 104.281 0 81.0211 0 52.1403C0 39.8892 4.23031 28.6227 11.3095 19.7223C21.0798 7.39945 35.9935 0 52.1403 0C80.9351 0.00478001 104.281 23.336 104.281 52.1451Z" fill="#EDEDED"/>
<path d="M6.64413 97.4071C7.99687 97.1442 9.30659 98.0476 9.56949 99.4004C9.83239 100.753 8.94331 102.058 7.59535 102.321C6.24261 102.584 4.91854 101.7 4.65564 100.347C4.39274 98.9988 5.29616 97.6652 6.64413 97.4071Z" fill="#D6DCE8"/>
<path d="M2.7342 92.6796C3.5946 92.5123 4.43111 93.0907 4.59363 93.9511C4.76093 94.8115 4.19688 95.6432 3.33648 95.8105C2.47608 95.9778 1.6348 95.4138 1.4675 94.5534C1.3002 93.693 1.8738 92.8469 2.7342 92.6796Z" fill="#D6DCE8"/>
<path d="M2.97315 0.492367C4.32589 0.229467 5.63561 1.13289 5.89851 2.48563C6.16141 3.83837 5.27233 5.14332 3.92437 5.40622C2.57163 5.66912 1.24756 4.78481 0.984664 3.43207C0.726544 2.07933 1.62518 0.750488 2.97315 0.492367Z" fill="#D6DCE8"/>
<path d="M88.7552 11.7398C88.4206 11.4339 88.4015 10.9176 88.7026 10.583C89.1472 10.0954 89.5726 9.58877 89.9645 9.07253C90.237 8.71403 90.7485 8.64233 91.1117 8.91479C91.4702 9.18725 91.5419 9.69871 91.2695 10.062C90.8488 10.6213 90.39 11.1662 89.912 11.692C89.606 12.0266 89.0898 12.0457 88.7552 11.7398Z" fill="url(#paint0_linear_163_21)"/>
<path d="M28.6036 37.2554C27.5042 36.6818 26.247 36.2086 24.856 35.8405C24.421 35.7258 24.1581 35.2765 24.2729 34.8415C24.3876 34.4065 24.8369 34.1484 25.2719 34.2584C26.7776 34.6551 28.1495 35.1761 29.354 35.8071C29.7555 36.0174 29.9085 36.5097 29.703 36.9113C29.4926 37.3128 28.9955 37.461 28.6036 37.2554ZM20.8456 35.1044C19.6984 34.9658 18.5321 34.8606 16.6918 34.6838C16.2425 34.6408 15.9126 34.2392 15.9557 33.7899C15.9987 33.3406 16.3859 33.006 16.8495 33.0538L17.9489 33.159C18.9814 33.2546 20.0139 33.3549 21.0416 33.4792C21.4909 33.5318 21.8112 33.9429 21.7538 34.3922C21.7012 34.8367 21.2997 35.157 20.8456 35.1044ZM12.4662 34.1436C10.6976 33.8282 9.29232 33.4171 8.2694 33.0203C7.84876 32.8578 7.63844 32.3798 7.80574 31.9592C7.96826 31.5385 8.44626 31.3282 8.86212 31.4955C10.0667 31.964 11.4577 32.3033 12.7531 32.5328C13.1976 32.614 13.494 33.0347 13.4127 33.4792C13.3362 33.9285 12.906 34.2201 12.4662 34.1436ZM4.42628 30.8454C3.16913 29.8655 2.16055 28.7518 1.42921 27.5281C1.19499 27.1409 1.32405 26.639 1.71123 26.4048C2.09841 26.1706 2.60031 26.2996 2.83453 26.6868C3.46071 27.7336 4.33545 28.6992 5.43486 29.5548C5.79336 29.8321 5.8555 30.3483 5.57826 30.702C5.29624 31.0557 4.78478 31.1274 4.42628 30.8454ZM0.941648 23.9192C0.501887 23.9192 0.138608 23.6085 0.124268 23.164C0.124268 23.1544 0.124268 23.0684 0.124268 23.0588V22.9728C0.124268 21.5292 0.497107 20.1048 1.23323 18.7281C1.44833 18.3314 1.94067 18.1784 2.33741 18.3935C2.73415 18.6086 2.88711 19.1009 2.67201 19.5025C2.06495 20.6401 1.75903 21.8064 1.75903 22.9775C1.75903 22.9871 1.75903 23.054 1.75903 23.0636C1.75903 23.5129 1.40053 23.9144 0.955989 23.9192C0.951209 23.9192 0.946428 23.9192 0.941648 23.9192ZM61.2223 21.4671C60.7778 21.4671 60.4145 21.1086 60.405 20.664C60.3954 20.2099 60.7587 19.8371 61.208 19.8323C62.5225 19.8084 63.7844 19.5264 64.9794 19.0197C65.3953 18.8428 65.8733 19.0388 66.0501 19.4547C66.227 19.8705 66.031 20.3533 65.6152 20.5254C64.2003 21.1277 62.7424 21.4384 61.2367 21.4671C61.2367 21.4671 61.2271 21.4671 61.2223 21.4671ZM56.8678 20.8696C55.3716 20.4633 53.9185 19.8849 52.8239 19.426C52.408 19.2539 52.2072 18.7711 52.3841 18.3553C52.5562 17.9394 53.039 17.7386 53.4548 17.9155C54.5064 18.3553 55.8974 18.9097 57.3027 19.2921C57.7377 19.4116 57.9958 19.861 57.8763 20.296C57.7568 20.7214 57.3171 20.9891 56.8678 20.8696ZM73.8416 18.6182C73.7938 18.1688 74.1188 17.7673 74.5681 17.7195C75.3042 17.6096 76.4562 17.5474 78.526 16.9356C78.9609 16.8065 79.415 17.0551 79.5441 17.4853C79.6732 17.9203 79.4246 18.3744 78.9944 18.5034C76.7669 19.1631 75.1656 19.2826 74.7402 19.3495C74.7115 19.3495 73.8894 19.0531 73.8416 18.6182ZM70.333 19.2348C68.8512 18.9671 67.3264 18.3983 66.141 17.4662C65.7872 17.1889 65.7251 16.6727 66.0023 16.319C66.2796 15.9653 66.7958 15.9031 67.1495 16.1804C67.4746 16.4337 67.8713 16.6727 68.2442 16.8591C69.2528 15.8936 70.0128 14.7703 70.4525 13.7569C70.6342 13.341 71.1122 13.1498 71.528 13.3363C71.9439 13.5179 72.1303 14.0007 71.9534 14.4118C71.5185 15.406 70.8254 16.5006 69.9315 17.4757C70.1562 17.5331 70.3856 17.5809 70.6198 17.6239C71.0644 17.7052 71.3607 18.1306 71.2795 18.5751C71.203 19.0245 70.7728 19.316 70.333 19.2348ZM48.9712 17.7912C47.6997 17.275 46.3947 16.7922 45.085 16.3524C44.6548 16.209 44.4254 15.7454 44.5736 15.3152C44.717 14.8898 45.1806 14.6555 45.6108 14.7989C46.9492 15.2483 48.2876 15.7454 49.5878 16.2712C50.0084 16.4385 50.2092 16.9165 50.0371 17.3371C49.865 17.753 49.3918 17.9633 48.9712 17.7912ZM82.6559 16.9882C81.7955 16.9882 81.523 15.8266 82.2878 15.4395C83.4924 14.8324 84.6444 14.1106 85.7199 13.3028C86.0784 13.0303 86.5946 13.102 86.8671 13.4605C87.1395 13.819 87.0678 14.3353 86.7093 14.6077C85.5574 15.4777 84.3193 16.2473 83.0335 16.9021C82.9045 16.9595 82.7802 16.9882 82.6559 16.9882ZM3.97695 16.4289C3.68537 16.08 3.73317 15.5637 4.08211 15.2769C5.22932 14.3209 6.51514 13.6039 7.90612 13.0447C8.32198 12.8774 8.80476 13.0781 8.97206 13.4988C9.13936 13.9194 8.9386 14.3926 8.51796 14.5647C7.29428 15.0571 6.15186 15.688 5.12894 16.5389C4.78955 16.8209 4.27331 16.7779 3.97695 16.4289ZM41.1176 15.1479C39.7888 14.7846 38.4313 14.4596 37.0881 14.1775C36.6435 14.0867 36.3615 13.6517 36.4571 13.2072C36.5479 12.7627 36.9829 12.4806 37.4275 12.5762C38.8041 12.863 40.1903 13.1976 41.5526 13.5705C41.9876 13.69 42.2457 14.1393 42.1262 14.5743C42.0067 15.0045 41.5574 15.2674 41.1176 15.1479ZM63.5311 13.6422C63.1869 12.4281 63.1917 11.1614 63.641 9.98069C63.7844 9.60785 63.9804 9.24935 64.229 8.91953C64.4966 8.55625 65.0081 8.47977 65.3714 8.75223C65.7347 9.01991 65.8111 9.53615 65.5387 9.89465C64.8599 10.8029 64.7834 12.0743 65.1037 13.1929C65.228 13.6278 64.9746 14.0819 64.5397 14.2062C64.1047 14.3305 63.6554 14.0772 63.5311 13.6422ZM11.4385 12.8152C11.3525 12.3707 11.6489 11.9453 12.0934 11.8592C14.1297 11.4768 16.0321 11.3382 16.3285 11.3095C16.7922 11.2761 17.1746 11.6011 17.2176 12.0504C17.2558 12.4998 16.926 12.8965 16.4767 12.9395L15.9031 12.9921C14.5456 13.1212 13.4366 13.2741 12.3993 13.4701C11.9548 13.5514 11.5246 13.2598 11.4385 12.8152ZM33.0107 13.4414C31.6484 13.2359 30.2622 13.0734 28.8951 12.9491C28.4458 12.9061 28.1112 12.5093 28.1542 12.06C28.1973 11.6107 28.6083 11.2856 29.0433 11.3191C30.4439 11.4434 31.8587 11.6155 33.2545 11.821C33.7038 11.8879 34.0097 12.3038 33.9428 12.7531C33.8711 13.2072 33.4553 13.5083 33.0107 13.4414ZM24.7556 12.7005C23.3742 12.6575 21.988 12.6575 20.6114 12.6957C20.1668 12.7101 19.7844 12.3516 19.7701 11.9023C19.7558 11.4482 20.1143 11.0753 20.5636 11.061C21.9737 11.0227 23.3886 11.0227 24.8034 11.0658C25.2528 11.0801 25.6113 11.4577 25.5969 11.907C25.5826 12.3755 25.1859 12.7196 24.7556 12.7005ZM70.8445 10.234C70.5242 9.17287 69.7069 8.47499 68.5071 8.45587C68.0577 8.44631 67.6945 8.07347 67.704 7.62415C67.7136 7.17961 68.0769 6.82111 68.5214 6.82111C68.5262 6.82111 68.531 6.82111 68.5357 6.82111C70.4477 6.85457 71.8818 8.02567 72.4123 9.76081C72.5414 10.1958 72.2976 10.6499 71.8674 10.7837C71.4372 10.9128 70.9783 10.669 70.8445 10.234Z" fill="#C7CFDE"/>
<path d="M32.9007 41.132C32.5852 40.6014 32.2124 40.0947 31.7822 39.6311C31.4762 39.2965 31.5001 38.7802 31.83 38.4743C32.1646 38.1684 32.6808 38.1923 32.9867 38.5221C33.4934 39.0718 33.9379 39.6693 34.306 40.2955C34.5354 40.6827 34.4064 41.1846 34.0192 41.414C33.6368 41.6482 33.1349 41.5239 32.9007 41.132Z" fill="url(#paint1_linear_163_21)"/>
<path d="M101.068 2.01719L101.781 1.53919C101.656 1.45793 101.513 1.39101 101.341 1.34321C100.5 1.01339 100.949 -0.23419 101.805 0.0430502C102.249 0.215131 102.665 0.449351 102.961 0.740932L103.315 0.501931C103.64 0.282051 104.056 0.377651 104.262 0.683571C104.467 0.989492 104.4 1.41013 104.08 1.63001L103.726 1.86901C103.874 2.26097 103.946 2.68162 103.941 3.15962C103.936 3.53724 103.64 3.8575 103.258 3.8575C102.88 3.85272 102.574 3.54202 102.579 3.1644C102.574 2.98275 102.56 2.82502 102.531 2.67684L101.838 3.14528C101.752 2.94452 101.637 2.74375 101.503 2.54777C101.365 2.35657 101.217 2.17493 101.068 2.01719Z" fill="black"/>
<path d="M95.2369 11.9309C95.1413 11.6202 95.1078 11.2904 95.103 10.9654C96.7713 10.2914 98.8506 9.18719 100.16 8.08301C100.906 9.61739 100.251 12.1604 98.645 13.2454C97.2397 14.2014 95.7149 13.6087 95.2369 11.9309Z" fill="url(#paint2_linear_163_21)"/>
<path d="M90.5047 1.21413C92.106 0.129065 94.7254 0.473226 95.8535 1.71125C94.3191 2.52863 92.517 4.05823 91.2981 5.33449C90.9827 5.21977 90.7054 5.05247 90.4616 4.86605C89.0802 3.80011 89.0993 2.16057 90.5047 1.21413Z" fill="url(#paint3_linear_163_21)"/>
<path d="M99.1947 8.81433C95.5188 11.2999 89.41 13.3267 88.2007 11.5389C86.9913 9.75599 91.1499 4.83258 94.821 2.34698C98.492 -0.133844 100.289 0.760018 101.499 2.54296C102.708 4.33546 102.866 6.33351 99.1947 8.81433Z" fill="url(#paint4_linear_163_21)"/>
<path d="M77.3524 88.8784C83.1559 83.0748 83.1559 73.6654 77.3524 67.8619C71.5488 62.0583 62.1394 62.0583 56.3359 67.8619C50.5323 73.6654 50.5323 83.0748 56.3359 88.8784C62.1394 94.6819 71.5488 94.6819 77.3524 88.8784Z" fill="white"/>
<path d="M66.8451 94.052C58.198 94.052 51.1619 87.0158 51.1619 78.3688C51.1619 69.7218 58.198 62.6856 66.8451 62.6856C75.4921 62.6856 82.5283 69.7218 82.5283 78.3688C82.5283 87.0158 75.4921 94.052 66.8451 94.052ZM66.8451 64.3252C59.1015 64.3252 52.8014 70.6252 52.8014 78.3688C52.8014 86.1124 59.1015 92.4125 66.8451 92.4125C74.5887 92.4125 80.8887 86.1124 80.8887 78.3688C80.8887 70.6252 74.5935 64.3252 66.8451 64.3252Z" fill="#AAB2C5"/>
<path d="M66.8451 88.3973C72.3837 88.3973 76.8736 83.9074 76.8736 78.3688C76.8736 72.8303 72.3837 68.3404 66.8451 68.3404C61.3065 68.3404 56.8167 72.8303 56.8167 78.3688C56.8167 83.9074 61.3065 88.3973 66.8451 88.3973Z" fill="#F31D1D"/>
<path d="M71.1136 82.6374C70.626 83.1393 69.8038 83.1393 69.3163 82.6374L66.845 80.1709L64.3785 82.6374C63.8814 83.1393 63.0688 83.1393 62.5813 82.6374C62.0794 82.1498 62.0794 81.3277 62.5813 80.8401L65.0477 78.3736L62.5813 75.9024C62.0794 75.4005 62.0794 74.5974 62.5813 74.0955C63.064 73.5984 63.8766 73.5936 64.3785 74.0955L66.845 76.562L69.3163 74.0955C69.8134 73.5984 70.6212 73.5984 71.1136 74.0955C71.5916 74.564 71.6346 75.3813 71.1136 75.9024L68.6471 78.3736L71.1136 80.8401C71.6203 81.3372 71.6203 82.1451 71.1136 82.6374Z" fill="white"/>
<path fill-rule="evenodd" clip-rule="evenodd" d="M39.2042 21.6084C40.7599 19.8359 42.9492 18.7449 45.301 18.57L74.7633 16.3792C79.7846 16.0058 84.1355 19.8244 84.4167 24.8518L86.0666 54.3493C86.1983 56.7039 85.4005 59.0162 83.8448 60.7887L79.2657 66.006C79.2561 65.9964 79.2466 65.9868 79.237 65.9772C72.3926 59.1328 61.2956 59.1329 54.4512 65.9773C47.6068 72.8217 47.6068 83.9186 54.4512 90.763C55.0059 91.3177 55.5886 91.8275 56.1946 92.2923L51.5774 97.5529C48.2986 101.289 42.6122 101.659 38.8764 98.3803L7.76423 71.0736C4.02847 67.7948 3.65805 62.1084 6.93686 58.3726L39.2042 21.6084ZM70.1189 39.6462C68.246 41.7801 64.9978 41.9917 62.8639 40.1188C60.73 38.2459 60.5184 34.9977 62.3913 32.8638C64.2642 30.7299 67.5124 30.5183 69.6463 32.3912C71.7802 34.2641 71.9918 37.5123 70.1189 39.6462Z" fill="#4CDB06"/>
<path d="M28.0951 69.956C29.4805 68.418 31.8774 66.9673 34.3972 68.8495L32.7709 70.655C31.8199 70.0164 30.8164 70.0816 29.7804 71.2317C28.8769 72.2348 28.6744 73.2395 29.4234 73.9141C30.0787 74.5044 30.7933 74.276 31.7502 73.5632L32.9279 72.6861C34.8913 71.2326 36.4889 70.8305 37.9868 72.1798C39.7121 73.7338 39.5586 76.1634 37.6311 78.3033C35.6072 80.5502 32.994 81.0308 30.9209 79.4056L32.5472 77.6001C33.6293 78.3083 34.9767 77.9958 36.1092 76.7386C37.0127 75.7356 37.1696 74.8352 36.5276 74.257C36.1264 73.8956 35.507 73.7495 34.4537 74.5692L32.8477 75.7873C30.8736 77.2796 29.2534 77.2495 27.8491 75.9846C26.1104 74.4185 26.2278 72.029 28.0951 69.956Z" fill="black"/>
<path d="M48.1159 66.3406L45.6223 65.4512L41.8516 69.6373L42.9959 72.0247L41.237 73.9773L35.6964 61.84L37.2264 60.1414L49.8627 64.4014L48.1159 66.3406ZM40.8237 67.5243L43.4017 64.6622L38.6354 62.9611L40.8237 67.5243Z" fill="black"/>
<path d="M50.8755 59.8882L55.104 55.1939L56.7891 56.7118L50.9222 63.2251L41.8278 55.0331L43.4662 53.2142L50.8755 59.8882Z" fill="black"/>
<path d="M56.5128 42.1189L52.1277 46.9871L54.2141 48.8664L58.1173 44.5332L59.8025 46.0511L55.8993 50.3843L57.8519 52.1432L62.237 47.275L63.9222 48.7929L57.8987 55.48L48.8042 47.2881L54.8277 40.601L56.5128 42.1189Z" fill="black"/>
<path d="M11.6034 116.48H13.5074V126H12.0374L6.88545 120.022V126H4.98145V116.48H6.39545L11.6034 122.626V116.48Z" fill="#6B6B6B"/>
<path d="M18.0438 119.154C20.1298 119.154 21.5858 120.596 21.5858 122.668C21.5858 124.726 20.1298 126.168 18.0438 126.168C15.9438 126.168 14.4878 124.726 14.4878 122.668C14.4878 120.596 15.9438 119.154 18.0438 119.154ZM18.0438 124.502C19.0518 124.502 19.7518 123.746 19.7518 122.668C19.7518 121.576 19.0518 120.82 18.0438 120.82C17.0218 120.82 16.3218 121.576 16.3218 122.668C16.3218 123.746 17.0218 124.502 18.0438 124.502Z" fill="#6B6B6B"/>
<path d="M29.3513 116.312C30.9613 116.312 33.0473 116.942 33.2713 119.378H31.3813C31.2553 118.496 30.6953 117.95 29.4913 117.95C28.4413 117.95 27.7553 118.356 27.7553 119.14C27.7553 119.826 28.2593 120.12 29.1693 120.302L30.2893 120.526C32.1513 120.904 33.2153 121.618 33.2153 123.186C33.2153 124.992 31.7313 126.168 29.4913 126.168C27.1393 126.168 25.5013 124.908 25.3613 122.864H27.2513C27.4053 123.858 28.2873 124.474 29.6033 124.474C30.6533 124.474 31.2553 124.096 31.2553 123.424C31.2553 123.004 31.0173 122.57 29.9953 122.388L28.4553 122.094C26.5653 121.73 25.7393 120.778 25.7393 119.308C25.7393 117.488 27.1813 116.312 29.3513 116.312Z" fill="#6B6B6B"/>
<path d="M39.1535 119.322H40.9875V126H39.1535V125.622C38.6355 125.958 37.9775 126.168 37.2355 126.168C35.3875 126.168 33.9035 124.6 33.9035 122.668C33.9035 120.722 35.3875 119.154 37.2355 119.154C37.9775 119.154 38.6355 119.364 39.1535 119.7V119.322ZM37.5155 124.502C38.1175 124.502 38.7195 124.334 39.1535 123.718V121.604C38.7195 120.988 38.1175 120.82 37.5155 120.82C36.4655 120.82 35.7375 121.66 35.7375 122.668C35.7375 123.662 36.4655 124.502 37.5155 124.502Z" fill="#6B6B6B"/>
<path d="M42.1967 116.06H44.0307V126H42.1967V116.06Z" fill="#6B6B6B"/>
<path d="M48.2861 119.154C50.5821 119.154 51.9681 120.89 51.6181 123.2H46.7181C46.8581 123.97 47.3621 124.558 48.4121 124.558C48.9021 124.558 49.2381 124.474 49.4761 124.18H51.5061C51.0581 125.44 49.8681 126.168 48.3981 126.168C46.2561 126.168 44.8421 124.656 44.8421 122.668C44.8421 120.68 46.2421 119.154 48.2861 119.154ZM48.3001 120.708C47.4041 120.708 46.9281 121.254 46.7601 121.954H49.7981C49.7001 121.1 49.1541 120.708 48.3001 120.708Z" fill="#6B6B6B"/>
<path d="M53.7247 123.69C53.8367 124.446 54.3827 124.684 55.1667 124.684C55.8667 124.684 56.3567 124.502 56.3567 124.124C56.3567 123.858 56.1327 123.634 55.6707 123.55L54.2287 123.298C53.2487 123.13 52.2547 122.598 52.2547 121.338C52.2547 119.966 53.4167 119.14 55.1107 119.14C56.3147 119.14 57.9107 119.476 58.0647 121.394H56.3707C56.3287 120.792 55.7547 120.596 55.1107 120.596C54.4107 120.596 54.0747 120.834 54.0747 121.156C54.0747 121.408 54.2567 121.702 54.9007 121.814L56.1047 122.01C57.1407 122.192 58.1067 122.668 58.1067 123.956C58.1067 125.44 56.8187 126.168 55.1247 126.168C53.6547 126.168 52.1707 125.622 52.0307 123.676L53.7247 123.69Z" fill="#6B6B6B"/>
<path d="M69.0641 118.244H64.0661V120.694H68.4341V122.458H64.0661V126H62.1621V116.48H69.0641V118.244Z" fill="#6B6B6B"/>
<path d="M72.3534 119.154C74.4394 119.154 75.8954 120.596 75.8954 122.668C75.8954 124.726 74.4394 126.168 72.3534 126.168C70.2534 126.168 68.7974 124.726 68.7974 122.668C68.7974 120.596 70.2534 119.154 72.3534 119.154ZM72.3534 124.502C73.3614 124.502 74.0614 123.746 74.0614 122.668C74.0614 121.576 73.3614 120.82 72.3534 120.82C71.3314 120.82 70.6314 121.576 70.6314 122.668C70.6314 123.746 71.3314 124.502 72.3534 124.502Z" fill="#6B6B6B"/>
<path d="M81.4958 119.322H83.3298V126H81.4958V125.468C80.9498 125.902 80.3198 126.168 79.5638 126.168C77.7858 126.168 76.6098 124.866 76.6098 122.906V119.322H78.4438V122.794C78.4438 123.886 78.9898 124.502 79.9558 124.502C80.4598 124.502 81.0198 124.194 81.4958 123.62V119.322Z" fill="#6B6B6B"/>
<path d="M88.2947 119.154C90.0727 119.154 91.2487 120.414 91.2487 122.374V126H89.4147V122.486C89.4147 121.394 88.8687 120.82 87.9027 120.82C87.3987 120.82 86.8387 121.114 86.3627 121.674V126H84.5287V119.322H86.3627V119.826C86.9087 119.392 87.5387 119.154 88.2947 119.154Z" fill="#6B6B6B"/>
<path d="M97.2775 116.06H99.1115V126H97.2775V125.622C96.7595 125.958 96.1015 126.168 95.3595 126.168C93.5115 126.168 92.0275 124.6 92.0275 122.654C92.0275 120.722 93.5115 119.154 95.3595 119.154C96.1015 119.154 96.7595 119.364 97.2775 119.7V116.06ZM95.6395 124.502C96.2415 124.502 96.8435 124.334 97.2775 123.718V121.604C96.8435 120.988 96.2415 120.82 95.6395 120.82C94.5895 120.82 93.8615 121.66 93.8615 122.654C93.8615 123.662 94.5895 124.502 95.6395 124.502Z" fill="#6B6B6B"/>
<defs>
<linearGradient id="paint0_linear_163_21" x1="0.116605" y1="10.3529" x2="91.4383" y2="10.3529" gradientUnits="userSpaceOnUse">
<stop stop-color="#D6DCE8"/>
<stop offset="1" stop-color="white"/>
</linearGradient>
<linearGradient id="paint1_linear_163_21" x1="0.121849" y1="39.8976" x2="91.438" y2="39.8976" gradientUnits="userSpaceOnUse">
<stop stop-color="#D6DCE8"/>
<stop offset="1" stop-color="white"/>
</linearGradient>
<linearGradient id="paint2_linear_163_21" x1="99.7711" y1="7.99141" x2="94.5302" y2="10.5076" gradientUnits="userSpaceOnUse">
<stop stop-color="#2E2E2E"/>
<stop offset="1" stop-color="white"/>
</linearGradient>
<linearGradient id="paint3_linear_163_21" x1="95.0211" y1="0.485584" x2="89.7288" y2="4.06486" gradientUnits="userSpaceOnUse">
<stop stop-color="#2E2E2E"/>
<stop offset="1" stop-color="white"/>
</linearGradient>
<linearGradient id="paint4_linear_163_21" x1="92.662" y1="3.80937" x2="97.036" y2="10.2768" gradientUnits="userSpaceOnUse">
<stop/>
<stop offset="1" stop-color="#656565"/>
</linearGradient>
</defs>
</svg>
