<svg width="32" height="64" viewBox="0 0 32 64" fill="none" xmlns="http://www.w3.org/2000/svg">
<path d="M16.0002 63.6666C13.4307 63.6666 11.2467 62.743 9.44808 60.8958C7.64947 59.0486 6.75016 56.8055 6.75016 54.1666C6.75016 51.5278 7.64947 49.2847 9.44808 47.4375C11.2467 45.5903 13.4307 44.6666 16.0002 44.6666C18.5696 44.6666 20.7536 45.5903 22.5522 47.4375C24.3509 49.2847 25.2502 51.5278 25.2502 54.1666C25.2502 56.8055 24.3509 59.0486 22.5522 60.8958C20.7536 62.743 18.5696 63.6666 16.0002 63.6666ZM16.0002 38.3333L0.583496 22.5L4.90016 18.0666L12.9168 26.2208V0.333313H19.0835V26.2208L27.0231 18.0666L31.4168 22.5L16.0002 38.3333Z" fill="#111111"/>
</svg>
