<svg width="77" height="41" viewBox="0 0 77 41" fill="none" xmlns="http://www.w3.org/2000/svg">
<rect width="77" height="41" rx="20.5" fill="#F3771D"/>
<path d="M37.9167 11.6667C37.8013 11.6667 37.6885 11.7009 37.5926 11.765C37.4967 11.8291 37.4219 11.9202 37.3777 12.0268C37.3336 12.1334 37.322 12.2506 37.3445 12.3638C37.367 12.477 37.4226 12.5809 37.5042 12.6625C37.5858 12.7441 37.6897 12.7996 37.8029 12.8221C37.916 12.8446 38.0333 12.8331 38.1399 12.7889C38.2465 12.7448 38.3376 12.67 38.4017 12.5741C38.4658 12.4782 38.5 12.3654 38.5 12.25C38.5 12.0953 38.4385 11.9469 38.3291 11.8375C38.2197 11.7281 38.0714 11.6667 37.9167 11.6667ZM44.9167 9.33333H44.3333V7.58333C44.3333 7.42862 44.2719 7.28025 44.1625 7.17085C44.0531 7.06146 43.9047 7 43.75 7H37.9167C37.762 7 37.6136 7.06146 37.5042 7.17085C37.3948 7.28025 37.3333 7.42862 37.3333 7.58333V9.33333H36.75C36.2859 9.33333 35.8408 9.51771 35.5126 9.8459C35.1844 10.1741 35 10.6192 35 11.0833V14.5833C35 15.0475 35.1844 15.4926 35.5126 15.8208C35.8408 16.149 36.2859 16.3333 36.75 16.3333H37.3333V18.0833C37.3333 18.238 37.3948 18.3864 37.5042 18.4958C37.6136 18.6052 37.762 18.6667 37.9167 18.6667H43.75C43.9047 18.6667 44.0531 18.6052 44.1625 18.4958C44.2719 18.3864 44.3333 18.238 44.3333 18.0833V16.3333H44.9167C45.3808 16.3333 45.8259 16.149 46.1541 15.8208C46.4823 15.4926 46.6667 15.0475 46.6667 14.5833V11.0833C46.6667 10.6192 46.4823 10.1741 46.1541 9.8459C45.8259 9.51771 45.3808 9.33333 44.9167 9.33333ZM38.5 8.16667H43.1667V9.33333H38.5V8.16667ZM43.1667 17.5H38.5V15.1667H43.1667V17.5ZM45.5 14.5833C45.5 14.738 45.4385 14.8864 45.3291 14.9958C45.2197 15.1052 45.0714 15.1667 44.9167 15.1667H44.3333V14.5833C44.3333 14.4286 44.2719 14.2803 44.1625 14.1709C44.0531 14.0615 43.9047 14 43.75 14H37.9167C37.762 14 37.6136 14.0615 37.5042 14.1709C37.3948 14.2803 37.3333 14.4286 37.3333 14.5833V15.1667H36.75C36.5953 15.1667 36.4469 15.1052 36.3375 14.9958C36.2281 14.8864 36.1667 14.738 36.1667 14.5833V11.0833C36.1667 10.9286 36.2281 10.7803 36.3375 10.6709C36.4469 10.5615 36.5953 10.5 36.75 10.5H44.9167C45.0714 10.5 45.2197 10.5615 45.3291 10.6709C45.4385 10.7803 45.5 10.9286 45.5 11.0833V14.5833Z" fill="white"/>
<path d="M29.648 23.3133C31.93 23.3133 33.442 24.6433 33.442 26.6453C33.442 28.7733 31.818 30.1733 29.368 30.1733H27.884V32.8333H25.98V23.3133H29.648ZM29.578 28.4233C30.768 28.4233 31.566 27.7093 31.566 26.6453C31.566 25.7073 30.768 25.0633 29.578 25.0633H27.884V28.4233H29.578ZM35.9197 26.9253C36.5217 26.3513 37.2917 26.0433 38.2857 26.0433V27.7793C37.2497 27.8353 36.4937 28.1433 35.9197 28.7873V32.8333H34.0857V26.1553H35.9197V26.9253ZM40.1418 24.8533C39.5118 24.8533 39.0218 24.3913 39.0218 23.7753C39.0218 23.1453 39.5118 22.6833 40.1418 22.6833C40.7578 22.6833 41.2618 23.1453 41.2618 23.7753C41.2618 24.3913 40.7578 24.8533 40.1418 24.8533ZM39.2318 26.1553H41.0658V32.8333H39.2318V26.1553ZM46.2336 25.9873C48.0116 25.9873 49.1876 27.2473 49.1876 29.2073V32.8333H47.3536V29.3193C47.3536 28.2273 46.8076 27.6533 45.8416 27.6533C45.3376 27.6533 44.7776 27.9473 44.3016 28.5073V32.8333H42.4676V26.1553H44.3016V26.6593C44.8476 26.2253 45.4776 25.9873 46.2336 25.9873ZM55.0081 31.0413L55.2601 32.7073C54.6441 32.9453 54.1401 33.0013 53.6501 33.0013C51.8581 33.0013 50.8501 31.8813 50.8501 30.1733V27.6953H49.4221V26.1553H50.8501V23.7333H52.6841V26.1553H55.1341V27.6953H52.6841V30.1733C52.6841 30.9573 53.1741 31.3073 53.8601 31.3073C54.2801 31.3073 54.6721 31.1813 55.0081 31.0413Z" fill="#FFE5E5"/>
</svg>
