<svg width="30" height="30" viewBox="0 0 30 30" fill="none" xmlns="http://www.w3.org/2000/svg">
<path d="M21.1515 0C26.1518 0 29.5 3.5105 29.5 8.732V20.7842C29.5 25.991 26.1518 29.5 21.1515 29.5H8.36325C3.363 29.5 0 25.991 0 20.7842V8.732C0 3.5105 3.363 0 8.36325 0H21.1515ZM19.1898 10.2822C18.6883 9.77925 17.877 9.77925 17.3608 10.2822L14.75 12.9062L12.1245 10.2822C11.6083 9.77925 10.797 9.77925 10.2955 10.2822C9.794 10.7837 9.794 11.6097 10.2955 12.1097L12.921 14.7367L10.2955 17.3475C9.794 17.8637 9.794 18.675 10.2955 19.175C10.5463 19.4258 10.8855 19.56 11.21 19.56C11.5492 19.56 11.8738 19.4258 12.1245 19.175L14.75 16.5657L17.3755 19.175C17.6262 19.442 17.9508 19.56 18.2753 19.56C18.6145 19.56 18.939 19.4258 19.1898 19.175C19.6912 18.675 19.6912 17.8637 19.1898 17.3622L16.5642 14.7367L19.1898 12.1097C19.6912 11.6097 19.6912 10.7837 19.1898 10.2822Z" fill="white"/>
</svg>
