<svg width="43" height="43" viewBox="0 0 43 43" fill="none" xmlns="http://www.w3.org/2000/svg">
<path d="M16.125 30.4587C17.6479 29.3299 19.5023 28.667 21.5 28.667C23.4977 28.667 25.3521 29.3299 26.875 30.4587" stroke="white" stroke-width="0.875" stroke-linecap="round"/>
<path d="M26.875 21.5C27.8646 21.5 28.6667 20.2968 28.6667 18.8125C28.6667 17.3282 27.8646 16.125 26.875 16.125C25.8855 16.125 25.0834 17.3282 25.0834 18.8125C25.0834 20.2968 25.8855 21.5 26.875 21.5Z" fill="white"/>
<path d="M16.125 21.5C17.1146 21.5 17.9167 20.2968 17.9167 18.8125C17.9167 17.3282 17.1146 16.125 16.125 16.125C15.1355 16.125 14.3334 17.3282 14.3334 18.8125C14.3334 20.2968 15.1355 21.5 16.125 21.5Z" fill="white"/>
<path d="M3.58337 21.5002C3.58337 13.0542 3.58337 8.83129 6.20637 6.2065C8.83296 3.5835 13.0541 3.5835 21.5 3.5835C29.946 3.5835 34.1689 3.5835 36.7919 6.2065C39.4167 8.83308 39.4167 13.0542 39.4167 21.5002C39.4167 29.9461 39.4167 34.169 36.7919 36.792C34.1707 39.4168 29.946 39.4168 21.5 39.4168C13.0541 39.4168 8.83117 39.4168 6.20637 36.792C3.58337 34.1708 3.58337 29.9461 3.58337 21.5002Z" stroke="white" stroke-width="0.875"/>
</svg>
