<svg width="60" height="60" viewBox="0 0 60 60" fill="none" xmlns="http://www.w3.org/2000/svg">
<circle cx="30" cy="30" r="30" fill="#4CDB06"/>
<path d="M14.7759 27.7617C14.4196 27.7617 14.078 27.6202 13.8261 27.3683C13.5741 27.1163 13.4326 26.7747 13.4326 26.4184V15.6748C13.4326 15.3186 13.5741 14.9769 13.8261 14.725C14.078 14.4731 14.4196 14.3315 14.7759 14.3315H25.5222C25.8784 14.3315 26.2201 14.4731 26.472 14.725C26.7239 14.9769 26.8655 15.3186 26.8655 15.6748V26.4184C26.8655 26.7747 26.7239 27.1163 26.472 27.3683C26.2201 27.6202 25.8784 27.7617 25.5222 27.7617H14.7759ZM33.5819 27.7617C33.2256 27.7617 32.8839 27.6202 32.632 27.3683C32.3801 27.1163 32.2386 26.7747 32.2386 26.4184V15.6748C32.2386 15.3186 32.3801 14.9769 32.632 14.725C32.8839 14.4731 33.2256 14.3315 33.5819 14.3315H44.3255C44.6817 14.3315 45.0234 14.4731 45.2753 14.725C45.5272 14.9769 45.6687 15.3186 45.6687 15.6748V26.4184C45.6687 26.7747 45.5272 27.1163 45.2753 27.3683C45.0234 27.6202 44.6817 27.7617 44.3255 27.7617H33.5819ZM14.7759 46.5677C14.4196 46.5677 14.078 46.4262 13.8261 46.1742C13.5741 45.9223 13.4326 45.5807 13.4326 45.2244V34.4781C13.4326 34.1219 13.5741 33.7802 13.8261 33.5283C14.078 33.2764 14.4196 33.1348 14.7759 33.1348H25.5222C25.8784 33.1348 26.2201 33.2764 26.472 33.5283C26.7239 33.7802 26.8655 34.1219 26.8655 34.4781V45.2244C26.8655 45.5807 26.7239 45.9223 26.472 46.1742C26.2201 46.4262 25.8784 46.5677 25.5222 46.5677H14.7759ZM33.5819 46.5677C33.2256 46.5677 32.8839 46.4262 32.632 46.1742C32.3801 45.9223 32.2386 45.5807 32.2386 45.2244V34.4781C32.2386 34.1219 32.3801 33.7802 32.632 33.5283C32.8839 33.2764 33.2256 33.1348 33.5819 33.1348H44.3255C44.6817 33.1348 45.0234 33.2764 45.2753 33.5283C45.5272 33.7802 45.6687 34.1219 45.6687 34.4781V45.2244C45.6687 45.5807 45.5272 45.9223 45.2753 46.1742C45.0234 46.4262 44.6817 46.5677 44.3255 46.5677H33.5819Z" fill="black"/>
</svg>
