<svg width="30" height="30" viewBox="0 0 30 30" fill="none" xmlns="http://www.w3.org/2000/svg">
<path fill-rule="evenodd" clip-rule="evenodd" d="M15 1.5625C15.1354 1.56241 15.2691 1.59164 15.3921 1.64818C15.5151 1.70471 15.6244 1.78721 15.7125 1.89L19.4625 6.265C19.6243 6.45397 19.7044 6.69946 19.6852 6.94748C19.6659 7.1955 19.549 7.42572 19.36 7.5875C19.171 7.74928 18.9255 7.82937 18.6775 7.81015C18.4295 7.79093 18.1993 7.67397 18.0375 7.485L15.9375 5.035V18.75C15.9375 18.9986 15.8387 19.2371 15.6629 19.4129C15.4871 19.5887 15.2486 19.6875 15 19.6875C14.7514 19.6875 14.5129 19.5887 14.3371 19.4129C14.1613 19.2371 14.0625 18.9986 14.0625 18.75V5.03375L11.9625 7.485C11.8824 7.57857 11.7846 7.65544 11.6748 7.71123C11.565 7.76702 11.4453 7.80063 11.3225 7.81015C11.1997 7.81967 11.0762 7.8049 10.9591 7.7667C10.842 7.7285 10.7336 7.66761 10.64 7.5875C10.5464 7.50739 10.4696 7.40964 10.4138 7.29983C10.358 7.19001 10.3244 7.07028 10.3149 6.94748C10.3053 6.82467 10.3201 6.7012 10.3583 6.5841C10.3965 6.467 10.4574 6.35857 10.5375 6.265L14.2875 1.89C14.3756 1.78721 14.4849 1.70471 14.6079 1.64818C14.7309 1.59164 14.8646 1.56241 15 1.5625ZM8.745 10.315C8.99364 10.3137 9.23262 10.4112 9.40938 10.5861C9.58613 10.7609 9.68617 10.9989 9.6875 11.2475C9.68883 11.4961 9.59133 11.7351 9.41645 11.9119C9.24157 12.0886 9.00364 12.1887 8.755 12.19C7.38875 12.1975 6.42 12.2325 5.68375 12.3675C4.97625 12.4987 4.565 12.7075 4.26125 13.0113C3.915 13.3575 3.69 13.8438 3.56625 14.7612C3.44 15.705 3.4375 16.9563 3.4375 18.75V20C3.4375 21.795 3.44 23.0462 3.56625 23.99C3.69 24.9075 3.91625 25.3925 4.26125 25.74C4.6075 26.085 5.0925 26.31 6.01125 26.4338C6.95375 26.5612 8.20625 26.5625 10 26.5625H20C21.7938 26.5625 23.045 26.5612 23.99 26.4338C24.9075 26.31 25.3925 26.085 25.7388 25.7388C26.085 25.3925 26.31 24.9075 26.4338 23.99C26.56 23.0462 26.5625 21.795 26.5625 20V18.75C26.5625 16.9563 26.56 15.705 26.4338 14.76C26.31 13.8438 26.0837 13.3575 25.7388 13.0113C25.4338 12.7075 25.0237 12.4987 24.3162 12.3675C23.58 12.2325 22.6112 12.1975 21.245 12.19C21.1219 12.1893 21.0001 12.1644 20.8866 12.1167C20.7731 12.069 20.6701 11.9994 20.5836 11.9119C20.497 11.8244 20.4285 11.7206 20.3819 11.6066C20.3354 11.4927 20.3118 11.3706 20.3125 11.2475C20.3132 11.1244 20.3381 11.0026 20.3858 10.8891C20.4335 10.7756 20.5031 10.6726 20.5906 10.5861C20.6781 10.4995 20.7819 10.431 20.8959 10.3844C21.0098 10.3379 21.1319 10.3143 21.255 10.315C22.6075 10.3225 23.7338 10.355 24.655 10.5237C25.6025 10.6987 26.4088 11.03 27.065 11.6862C27.8175 12.4375 28.14 13.3863 28.2925 14.5113C28.4375 15.5938 28.4375 16.9725 28.4375 18.6812V20.0688C28.4375 21.7788 28.4375 23.1562 28.2925 24.24C28.14 25.365 27.8175 26.3125 27.065 27.065C26.3125 27.8175 25.365 28.14 24.24 28.2925C23.1562 28.4375 21.7775 28.4375 20.0688 28.4375H9.93125C8.2225 28.4375 6.84375 28.4375 5.76 28.2925C4.635 28.1413 3.6875 27.8175 2.935 27.065C2.1825 26.3125 1.86 25.365 1.70875 24.24C1.5625 23.1562 1.5625 21.7775 1.5625 20.0688V18.6812C1.5625 16.9725 1.5625 15.5938 1.70875 14.51C1.85875 13.385 2.18375 12.4375 2.935 11.685C3.59125 11.03 4.3975 10.6975 5.345 10.5237C6.26625 10.355 7.3925 10.3225 8.745 10.315Z" fill="#111111"/>
</svg>
