<svg width="18" height="18" viewBox="0 0 18 18" fill="none" xmlns="http://www.w3.org/2000/svg">
<path fill-rule="evenodd" clip-rule="evenodd" d="M9.039 0.9375H8.961C8.28675 0.9375 7.725 0.9375 7.2795 0.9975C6.8085 1.0605 6.38325 1.2 6.042 1.54125C5.7 1.88325 5.5605 2.3085 5.4975 2.77875C5.4375 3.225 5.4375 3.7875 5.4375 4.461V4.5195C3.92175 4.569 3.01125 4.746 2.379 5.379C1.5 6.25725 1.5 7.67175 1.5 10.5C1.5 13.3282 1.5 14.7427 2.379 15.621C3.25725 16.5 4.67175 16.5 7.5 16.5H10.5C13.3282 16.5 14.7427 16.5 15.621 15.621C16.5 14.7427 16.5 13.3282 16.5 10.5C16.5 7.67175 16.5 6.25725 15.621 5.379C14.9887 4.746 14.0782 4.569 12.5625 4.5195V4.461C12.5625 3.7875 12.5625 3.225 12.5025 2.7795C12.4395 2.3085 12.3 1.88325 11.958 1.542C11.6167 1.2 11.1915 1.0605 10.7205 0.9975C10.275 0.9375 9.7125 0.9375 9.039 0.9375ZM11.4375 4.5015V4.5C11.4375 3.777 11.436 3.291 11.388 2.92875C11.3407 2.583 11.2605 2.4345 11.163 2.337C11.0655 2.2395 10.917 2.15925 10.5705 2.112C10.209 2.064 9.723 2.0625 9 2.0625C8.277 2.0625 7.791 2.064 7.42875 2.11275C7.083 2.15925 6.9345 2.2395 6.837 2.33775C6.7395 2.43525 6.65925 2.583 6.612 2.92875C6.56475 3.291 6.5625 3.777 6.5625 4.5V4.5015C6.8565 4.5 7.1685 4.5 7.5 4.5H10.5C10.8315 4.5 11.1435 4.5 11.4375 4.5015ZM12.75 6.75C12.75 6.94891 12.671 7.13968 12.5303 7.28033C12.3897 7.42098 12.1989 7.5 12 7.5C11.8011 7.5 11.6103 7.42098 11.4697 7.28033C11.329 7.13968 11.25 6.94891 11.25 6.75C11.25 6.55109 11.329 6.36032 11.4697 6.21967C11.6103 6.07902 11.8011 6 12 6C12.1989 6 12.3897 6.07902 12.5303 6.21967C12.671 6.36032 12.75 6.55109 12.75 6.75ZM6 7.5C6.19891 7.5 6.38968 7.42098 6.53033 7.28033C6.67098 7.13968 6.75 6.94891 6.75 6.75C6.75 6.55109 6.67098 6.36032 6.53033 6.21967C6.38968 6.07902 6.19891 6 6 6C5.80109 6 5.61032 6.07902 5.46967 6.21967C5.32902 6.36032 5.25 6.55109 5.25 6.75C5.25 6.94891 5.32902 7.13968 5.46967 7.28033C5.61032 7.42098 5.80109 7.5 6 7.5Z" fill="black"/>
</svg>
