<svg width="20" height="20" viewBox="0 0 20 20" fill="none" xmlns="http://www.w3.org/2000/svg">
<path d="M5 6.66667H8.33333" stroke="#111111" stroke-width="0.625" stroke-linecap="round" stroke-linejoin="round"/>
<path d="M17.3608 7.5H15.1925C13.705 7.5 12.5 8.61917 12.5 10C12.5 11.3808 13.7058 12.5 15.1917 12.5H17.3608C17.4308 12.5 17.465 12.5 17.4942 12.4983C17.9442 12.4708 18.3025 12.1383 18.3317 11.7208C18.3333 11.6942 18.3333 11.6617 18.3333 11.5975V8.4025C18.3333 8.33834 18.3333 8.30584 18.3317 8.27917C18.3017 7.86167 17.9442 7.52917 17.4942 7.50167C17.4658 7.5 17.4308 7.5 17.3608 7.5Z" stroke="#111111" stroke-width="0.625"/>
<path d="M17.4709 7.5C17.4059 5.94 17.1976 4.98334 16.5234 4.31C15.5476 3.33334 13.9759 3.33334 10.8334 3.33334H8.33342C5.19091 3.33334 3.61925 3.33334 2.64341 4.31C1.66675 5.28584 1.66675 6.8575 1.66675 10C1.66675 13.1425 1.66675 14.7142 2.64341 15.69C3.61925 16.6667 5.19091 16.6667 8.33342 16.6667H10.8334C13.9759 16.6667 15.5476 16.6667 16.5234 15.69C17.1976 15.0167 17.4067 14.06 17.4709 12.5" stroke="#111111" stroke-width="0.625"/>
<path d="M14.9927 10H14.9994" stroke="#111111" stroke-width="0.833333" stroke-linecap="round" stroke-linejoin="round"/>
</svg>
