<svg width="19" height="19" viewBox="0 0 19 19" fill="none" xmlns="http://www.w3.org/2000/svg">
<path fill-rule="evenodd" clip-rule="evenodd" d="M9.77864 7.32165C9.60054 7.1435 9.50049 6.90191 9.50049 6.65C9.50049 6.39809 9.60054 6.1565 9.77864 5.97835L12.6286 3.12835C12.7163 3.03761 12.8211 2.96524 12.937 2.91545C13.0529 2.86566 13.1776 2.83946 13.3037 2.83836C13.4298 2.83727 13.5549 2.8613 13.6717 2.90907C13.7884 2.95684 13.8945 3.02738 13.9837 3.11657C14.0729 3.20577 14.1434 3.31184 14.1912 3.42859C14.239 3.54534 14.263 3.67044 14.2619 3.79658C14.2608 3.92272 14.2346 4.04738 14.1848 4.16328C14.135 4.27919 14.0627 4.38401 13.9719 4.47165L11.1219 7.32165C10.9438 7.49975 10.7022 7.5998 10.4503 7.5998C10.1984 7.5998 9.95679 7.49975 9.77864 7.32165Z" fill="#818181"/>
<path fill-rule="evenodd" clip-rule="evenodd" d="M16.8218 7.32165C16.6436 7.49974 16.402 7.59979 16.1501 7.59979C15.8982 7.59979 15.6566 7.49974 15.4785 7.32165L12.6285 4.47165C12.4554 4.29248 12.3597 4.0525 12.3619 3.80342C12.364 3.55433 12.4639 3.31606 12.6401 3.13992C12.8162 2.96378 13.0545 2.86387 13.3036 2.86171C13.5526 2.85954 13.7926 2.9553 13.9718 3.12835L16.8218 5.97835C16.9999 6.1565 17.0999 6.39809 17.0999 6.65C17.0999 6.9019 16.9999 7.1435 16.8218 7.32165Z" fill="#818181"/>
<path fill-rule="evenodd" clip-rule="evenodd" d="M13.3 4.75C13.552 4.75 13.7936 4.85009 13.9718 5.02825C14.15 5.20641 14.25 5.44804 14.25 5.7V13.3C14.25 13.552 14.15 13.7936 13.9718 13.9718C13.7936 14.1499 13.552 14.25 13.3 14.25C13.0481 14.25 12.8065 14.1499 12.6283 13.9718C12.4501 13.7936 12.35 13.552 12.35 13.3V5.7C12.35 5.44804 12.4501 5.20641 12.6283 5.02825C12.8065 4.85009 13.0481 4.75 13.3 4.75ZM9.22169 11.6783C9.39979 11.8565 9.49984 12.0981 9.49984 12.35C9.49984 12.6019 9.39979 12.8435 9.22169 13.0216L6.37169 15.8716C6.19252 16.0447 5.95255 16.1405 5.70346 16.1383C5.45438 16.1361 5.21611 16.0362 5.03997 15.8601C4.86383 15.6839 4.76392 15.4457 4.76175 15.1966C4.75959 14.9475 4.85535 14.7075 5.0284 14.5283L7.8784 11.6783C8.05655 11.5003 8.29814 11.4002 8.55005 11.4002C8.80195 11.4002 9.04354 11.5003 9.22169 11.6783Z" fill="#818181"/>
<path fill-rule="evenodd" clip-rule="evenodd" d="M2.17854 11.6783C2.35669 11.5002 2.59828 11.4002 2.85019 11.4002C3.10209 11.4002 3.34369 11.5002 3.52184 11.6783L6.37184 14.5283C6.46257 14.616 6.53495 14.7208 6.58473 14.8367C6.63452 14.9526 6.66073 15.0773 6.66183 15.2034C6.66292 15.3296 6.63889 15.4547 6.59112 15.5714C6.54335 15.6882 6.47281 15.7942 6.38361 15.8834C6.29441 15.9726 6.18835 16.0432 6.07159 16.0909C5.95484 16.1387 5.82975 16.1627 5.70361 16.1616C5.57747 16.1605 5.45281 16.1343 5.3369 16.0845C5.221 16.0348 5.11617 15.9624 5.02854 15.8716L2.17854 13.0216C2.00044 12.8435 1.90039 12.6019 1.90039 12.35C1.90039 12.0981 2.00044 11.8565 2.17854 11.6783Z" fill="#818181"/>
<path fill-rule="evenodd" clip-rule="evenodd" d="M5.7 14.25C5.44804 14.25 5.20641 14.1499 5.02825 13.9718C4.85009 13.7936 4.75 13.552 4.75 13.3V5.7C4.75 5.44804 4.85009 5.20641 5.02825 5.02825C5.20641 4.85009 5.44804 4.75 5.7 4.75C5.95196 4.75 6.19359 4.85009 6.37175 5.02825C6.54991 5.20641 6.65 5.44804 6.65 5.7V13.3C6.65 13.552 6.54991 13.7936 6.37175 13.9718C6.19359 14.1499 5.95196 14.25 5.7 14.25Z" fill="#818181"/>
</svg>
