<svg width="28" height="22" viewBox="0 0 28 22" fill="none" xmlns="http://www.w3.org/2000/svg">
<path d="M14.6689 0C15.1005 0 15.4513 0.340709 15.4513 0.76129V3.95621C15.4513 4.4679 15.888 4.89223 16.4148 4.89223C16.9543 4.89223 17.3783 4.4679 17.3783 3.95621V0.76129C17.3783 0.340709 17.729 0 18.1619 0H22.35C25.1249 0 27.3731 2.18403 27.3731 4.87975V8.02475C27.3731 8.27435 27.2703 8.51148 27.0904 8.6862C26.9106 8.86092 26.6665 8.96076 26.4096 8.96076C25.4589 8.96076 24.6881 9.70957 24.6881 10.6206C24.6881 11.5379 25.4499 12.283 26.3916 12.293C26.9221 12.298 27.3731 12.6574 27.3731 13.1728V16.374C27.3731 19.0685 25.1249 21.2537 22.35 21.2537H18.1619C17.729 21.2537 17.3783 20.913 17.3783 20.4924V17.7967C17.3783 17.2726 16.9543 16.8607 16.4148 16.8607C15.888 16.8607 15.4513 17.2726 15.4513 17.7967V20.4924C15.4513 20.913 15.1005 21.2537 14.6689 21.2537H5.829C3.06694 21.2537 0.805908 19.0697 0.805908 16.374V13.1728C0.805908 12.6574 1.25683 12.298 1.7874 12.293C2.73036 12.283 3.49089 11.5379 3.49089 10.6206C3.49089 9.73453 2.74577 9.06061 1.76942 9.06061C1.51248 9.06061 1.26839 8.96076 1.08854 8.78604C0.908683 8.61132 0.805908 8.3742 0.805908 8.12459V4.89223C0.805908 2.2015 3.07208 0 5.84185 0H14.6689ZM16.4148 7.57546C15.888 7.57546 15.4513 7.99979 15.4513 8.51148V13.5035C15.4513 14.0152 15.888 14.4396 16.4148 14.4396C16.9543 14.4396 17.3783 14.0152 17.3783 13.5035V8.51148C17.3783 7.99979 16.9543 7.57546 16.4148 7.57546Z" fill="#838383"/>
</svg>
