<svg width="25" height="25" viewBox="0 0 25 25" fill="none" xmlns="http://www.w3.org/2000/svg">
<path d="M21.1874 9.70839L6.60406 2.41672C6.02853 2.13027 5.37866 2.02829 4.74305 2.12469C4.10745 2.22109 3.51704 2.51117 3.05232 2.95538C2.5876 3.3996 2.2712 3.97632 2.14624 4.60694C2.02128 5.23755 2.09385 5.89136 2.35406 6.47922L4.85406 12.073C4.91078 12.2082 4.94 12.3534 4.94 12.5001C4.94 12.6467 4.91078 12.7919 4.85406 12.9271L2.35406 18.5209C2.14229 18.9966 2.05276 19.5178 2.09362 20.0369C2.13447 20.556 2.30441 21.0567 2.588 21.4935C2.87158 21.9303 3.25981 22.2892 3.71742 22.5378C4.17502 22.7863 4.68748 22.9166 5.20822 22.9167C5.69597 22.9119 6.17644 22.798 6.61447 22.5834L21.1978 15.2917C21.7151 15.0315 22.1499 14.6327 22.4537 14.1397C22.7576 13.6468 22.9184 13.0791 22.9184 12.5001C22.9184 11.921 22.7576 11.3533 22.4537 10.8604C22.1499 10.3674 21.7151 9.96861 21.1978 9.70839H21.1874ZM20.2603 13.4271L5.67697 20.7188C5.48548 20.8108 5.27044 20.842 5.06071 20.8082C4.85098 20.7745 4.65657 20.6775 4.50355 20.5301C4.35053 20.3828 4.24623 20.1921 4.20461 19.9838C4.163 19.7755 4.18607 19.5595 4.27072 19.3646L6.76031 13.7709C6.79254 13.6962 6.82036 13.6197 6.84364 13.5417H14.0207C14.297 13.5417 14.5619 13.432 14.7573 13.2366C14.9526 13.0413 15.0624 12.7763 15.0624 12.5001C15.0624 12.2238 14.9526 11.9588 14.7573 11.7635C14.5619 11.5681 14.297 11.4584 14.0207 11.4584H6.84364C6.82036 11.3804 6.79254 11.3039 6.76031 11.2292L4.27072 5.63547C4.18607 5.44064 4.163 5.22458 4.20461 5.01627C4.24623 4.80796 4.35053 4.61735 4.50355 4.47C4.65657 4.32265 4.85098 4.2256 5.06071 4.19188C5.27044 4.15815 5.48548 4.18935 5.67697 4.2813L20.2603 11.573C20.4309 11.6604 20.5741 11.7932 20.6741 11.9568C20.7741 12.1203 20.827 12.3083 20.827 12.5001C20.827 12.6918 20.7741 12.8798 20.6741 13.0433C20.5741 13.2069 20.4309 13.3397 20.2603 13.4271Z" fill="#838383"/>
</svg>
