<svg width="16" height="14" viewBox="0 0 16 14" fill="none" xmlns="http://www.w3.org/2000/svg">
<path d="M13.1879 5.25C14.123 5.25 15.75 6.04297 15.75 7C15.75 7.98438 14.123 8.75 13.1879 8.75H9.99961L7.25156 13.5598C7.0957 13.8332 6.80586 14 6.49141 14H4.95469C4.66484 14 4.4543 13.7211 4.53359 13.4422L5.87344 8.75H3.0625L1.88125 10.325C1.79922 10.4344 1.66797 10.5 1.53125 10.5H0.382812C0.169531 10.5 0 10.3277 0 10.1172C0 10.0816 0.00546875 10.0461 0.0136719 10.0105L0.875 7L0.0136719 3.98945C0.00273437 3.95391 0 3.91836 0 3.88281C0 3.66953 0.172266 3.5 0.382812 3.5H1.53125C1.66797 3.5 1.79922 3.56562 1.88125 3.675L3.0625 5.25H5.87617L4.53633 0.557813C4.4543 0.278906 4.66484 0 4.95469 0H6.49141C6.80586 0 7.0957 0.169531 7.25156 0.440234L9.99961 5.25H13.1879Z" fill="#111111"/>
</svg>
