<svg width="26" height="27" viewBox="0 0 26 27" fill="none" xmlns="http://www.w3.org/2000/svg">
<path d="M8.81336 24.9377V20.876C8.81336 19.8391 9.66005 18.9986 10.7045 18.9986H14.5224C15.024 18.9986 15.505 19.1964 15.8597 19.5485C16.2143 19.9005 16.4135 20.3781 16.4135 20.876V24.9377C16.4104 25.3688 16.5807 25.7833 16.8866 26.0892C17.1925 26.3951 17.6088 26.5672 18.043 26.5672H20.6478C21.8643 26.5703 23.0321 26.0927 23.8934 25.2399C24.7547 24.387 25.2388 23.229 25.2388 22.0213V10.45C25.2388 9.47446 24.8032 8.5491 24.0494 7.92322L15.1885 0.897796C13.6471 -0.334 11.4386 -0.294229 9.94328 0.992256L1.28454 7.92322C0.495133 8.53065 0.0233157 9.45876 0 10.45V22.0095C0 24.5266 2.05548 26.5672 4.59104 26.5672H7.13633C8.0382 26.5672 8.77114 25.8448 8.77768 24.9495L8.81336 24.9377Z" fill="#838383"/>
</svg>
