<svg width="14" height="17" viewBox="0 0 14 17" fill="none" xmlns="http://www.w3.org/2000/svg">
<path d="M7.8335 6.07149H12.4168L7.8335 1.48816V6.07149ZM2.00016 0.238159H8.66683L13.6668 5.23816V15.2382C13.6668 15.6802 13.4912 16.1041 13.1787 16.4167C12.8661 16.7292 12.4422 16.9048 12.0002 16.9048H2.00016C1.55814 16.9048 1.13421 16.7292 0.821651 16.4167C0.509091 16.1041 0.333496 15.6802 0.333496 15.2382V1.90483C0.333496 0.979826 1.07516 0.238159 2.00016 0.238159ZM2.8335 15.2382H4.50016V10.2382H2.8335V15.2382ZM6.16683 15.2382H7.8335V8.57149H6.16683V15.2382ZM9.50016 15.2382H11.1668V11.9048H9.50016V15.2382Z" fill="#111111"/>
</svg>
