<svg width="16" height="17" viewBox="0 0 16 17" fill="none" xmlns="http://www.w3.org/2000/svg">
<path fill-rule="evenodd" clip-rule="evenodd" d="M8.0416 0H7.9584C7.2392 0 6.64 3.66245e-08 6.1648 0.0655422C5.6624 0.134361 5.2088 0.286747 4.8448 0.659518C4.48 1.03311 4.3312 1.49764 4.264 2.01133C4.2 2.4988 4.2 3.11325 4.2 3.84896V3.91287C2.5832 3.96694 1.612 4.16029 0.9376 4.85176C-9.53674e-08 5.81113 0 7.35629 0 10.4458C0 13.5353 -9.53674e-08 15.0804 0.9376 16.0398C1.8744 17 3.3832 17 6.4 17H9.6C12.6168 17 14.1256 17 15.0624 16.0398C16 15.0804 16 13.5353 16 10.4458C16 7.35629 16 5.81113 15.0624 4.85176C14.388 4.16029 13.4168 3.96694 11.8 3.91287V3.84896C11.8 3.11325 11.8 2.4988 11.736 2.01214C11.6688 1.49764 11.52 1.03311 11.1552 0.660337C10.7912 0.286747 10.3376 0.134361 9.8352 0.0655422C9.36 3.66245e-08 8.76 0 8.0416 0ZM10.6 3.8932V3.89157C10.6 3.10178 10.5984 2.57089 10.5472 2.17518C10.4968 1.79749 10.4112 1.63528 10.3072 1.52877C10.2032 1.42227 10.0448 1.3346 9.6752 1.28299C9.2896 1.23055 8.7712 1.22892 8 1.22892C7.2288 1.22892 6.7104 1.23055 6.324 1.28381C5.9552 1.3346 5.7968 1.42227 5.6928 1.52959C5.5888 1.6361 5.5032 1.79749 5.4528 2.17518C5.4024 2.57089 5.4 3.10178 5.4 3.89157V3.8932C5.7136 3.89157 6.0464 3.89157 6.4 3.89157H9.6C9.9536 3.89157 10.2864 3.89157 10.6 3.8932ZM12 6.3494C12 6.56668 11.9157 6.77507 11.7657 6.92871C11.6157 7.08236 11.4122 7.16867 11.2 7.16867C10.9878 7.16867 10.7843 7.08236 10.6343 6.92871C10.4843 6.77507 10.4 6.56668 10.4 6.3494C10.4 6.13211 10.4843 5.92373 10.6343 5.77008C10.7843 5.61644 10.9878 5.53012 11.2 5.53012C11.4122 5.53012 11.6157 5.61644 11.7657 5.77008C11.9157 5.92373 12 6.13211 12 6.3494ZM4.8 7.16867C5.01217 7.16867 5.21566 7.08236 5.36569 6.92871C5.51571 6.77507 5.6 6.56668 5.6 6.3494C5.6 6.13211 5.51571 5.92373 5.36569 5.77008C5.21566 5.61644 5.01217 5.53012 4.8 5.53012C4.58783 5.53012 4.38434 5.61644 4.23431 5.77008C4.08429 5.92373 4 6.13211 4 6.3494C4 6.56668 4.08429 6.77507 4.23431 6.92871C4.38434 7.08236 4.58783 7.16867 4.8 7.16867Z" fill="black"/>
</svg>
