<svg width="26" height="20" viewBox="0 0 26 20" fill="none" xmlns="http://www.w3.org/2000/svg">
<path d="M0 2.11484C0 1.55395 0.228273 1.01603 0.634602 0.619421C1.04093 0.222812 1.59203 0 2.16667 0H14.0833C14.658 0 15.2091 0.222812 15.6154 0.619421C16.0217 1.01603 16.25 1.55395 16.25 2.11484V4.22967H14.0833V2.11484H2.16667V9.51676H8.66667V11.6316H2.16667V15.8613H8.66667V17.9761H5.86517L3.79167 20L2.25983 18.5048L2.8015 17.9761H2.16667C1.59203 17.9761 1.04093 17.7533 0.634602 17.3567C0.228273 16.9601 0 16.4222 0 15.8613V2.11484ZM12.2666 5.28709H23.4834L26 11.4275V19.5622H23.8333V17.9761H11.9167V19.5622H9.75V11.4275L12.2666 5.28709ZM11.9167 15.8613H23.8333V11.8357L23.7499 11.6316H12.0001L11.9167 11.8357V15.8613ZM12.8668 9.51676H22.8832L22.0166 7.40193H13.7334L12.8668 9.51676ZM3.25 12.689H5.421V14.8081H3.25V12.689ZM13 12.689H15.171V14.8081H13V12.689ZM20.5833 12.689H22.7543V14.8081H20.5833V12.689Z" fill="#111111"/>
</svg>
