<svg width="26" height="26" viewBox="0 0 26 26" fill="none" xmlns="http://www.w3.org/2000/svg">
<path d="M2.65625 1.4375C2.33018 1.44565 2.0202 1.58094 1.7925 1.81448C1.5648 2.04803 1.4374 2.36132 1.4375 2.6875V6.875L19.125 24.5625H23.3437C23.6753 24.5625 23.9932 24.4308 24.2276 24.1964C24.4621 23.962 24.5937 23.644 24.5937 23.3125V2.65625C24.5856 2.33018 24.4503 2.0202 24.2168 1.7925C23.9832 1.5648 23.6699 1.4374 23.3437 1.4375H2.65625ZM16.85 3.86875C18.2497 3.87205 19.5911 4.42953 20.5808 5.41924C21.5705 6.40895 22.1279 7.75034 22.1313 9.15C22.1313 12.225 19.6312 14.6188 16.85 17.7625C14.1875 14.75 11.7875 12.425 11.5875 9.5375V9.15C11.5875 7.74933 12.1439 6.40602 13.1343 5.41559C14.1248 4.42517 15.4681 3.86875 16.8688 3.86875H16.85ZM16.85 6.6125C16.177 6.6125 15.5316 6.87984 15.0557 7.35572C14.5798 7.83159 14.3125 8.47701 14.3125 9.15C14.3125 9.82299 14.5798 10.4684 15.0557 10.9443C15.5316 11.4202 16.177 11.6875 16.85 11.6875C17.523 11.6875 18.1684 11.4202 18.6443 10.9443C19.1202 10.4684 19.3875 9.82299 19.3875 9.15C19.3875 8.47701 19.1202 7.83159 18.6443 7.35572C18.1684 6.87984 17.523 6.6125 16.85 6.6125ZM1.4375 14.9875V23.3437C1.4375 23.6753 1.5692 23.9932 1.80362 24.2276C2.03804 24.4621 2.35598 24.5937 2.6875 24.5937H11.0125L1.4375 14.9875Z" stroke="white" stroke-linecap="round" stroke-linejoin="round"/>
</svg>
