<svg width="18" height="18" viewBox="0 0 18 18" fill="none" xmlns="http://www.w3.org/2000/svg">
<path d="M5.66667 9.83333V13.1667M12.3333 3.16667V3.58333C12.3333 4.02536 12.5089 4.44928 12.8215 4.76184C13.134 5.07441 13.558 5.25 14 5.25C14.442 5.25 14.866 5.42559 15.1785 5.73816C15.4911 6.05072 15.6667 6.47464 15.6667 6.91667V7.33333M1.5 1.5L16.5 16.5M13.1667 9.83333H15.6667C15.8877 9.83333 16.0996 9.92113 16.2559 10.0774C16.4122 10.2337 16.5 10.4457 16.5 10.6667V12.3333C16.5 12.5667 16.4042 12.7775 16.25 12.9283M13.1667 13.1667H2.33333C2.11232 13.1667 1.90036 13.0789 1.74408 12.9226C1.5878 12.7663 1.5 12.5543 1.5 12.3333V10.6667C1.5 10.4457 1.5878 10.2337 1.74408 10.0774C1.90036 9.92113 2.11232 9.83333 2.33333 9.83333H9.83333" stroke="#111111" stroke-width="1.66667" stroke-linecap="round" stroke-linejoin="round"/>
</svg>
