<svg width="15" height="17" viewBox="0 0 15 17" fill="none" xmlns="http://www.w3.org/2000/svg">
<path d="M0 0.666992H2.5C2.73333 0.666992 2.94167 0.758659 3.09167 0.908659L4.825 2.65033L5.49167 1.99199C5.83333 1.66699 6.25 1.50033 6.66667 1.50033H11.6667C12.0833 1.50033 12.5 1.66699 12.8417 1.99199L13.675 2.82533C14 3.16699 14.1667 3.58366 14.1667 4.00033V14.8337C14.1667 15.2757 13.9911 15.6996 13.6785 16.0122C13.3659 16.3247 12.942 16.5003 12.5 16.5003H4.16667C3.72464 16.5003 3.30072 16.3247 2.98816 16.0122C2.67559 15.6996 2.5 15.2757 2.5 14.8337V5.66699C2.5 5.25033 2.66667 4.83366 2.99167 4.49199L3.65 3.82533L2.15833 2.33366H0V0.666992ZM6.66667 3.16699V4.83366H11.6667V3.16699H6.66667ZM7.00833 8.16699L5.34167 6.50033H4.16667V7.67533L5.83333 9.34199V11.992L4.16667 13.6587V14.8337H5.34167L7.00833 13.167H9.65833L11.325 14.8337H12.5V13.6587L10.8333 11.992V9.34199L12.5 7.67533V6.50033H11.325L9.65833 8.16699H7.00833ZM7.5 9.83366H9.16667V11.5003H7.5V9.83366Z" fill="#111111"/>
</svg>
