<svg width="13" height="16" viewBox="0 0 13 16" fill="none" xmlns="http://www.w3.org/2000/svg">
<path d="M4.37498 2.12467V0.708008H8.62498V2.12467H4.37498ZM5.08332 10.4476L4.30415 8.88926C4.24512 8.7594 4.15658 8.66188 4.03852 8.59672C3.92047 8.53155 3.79651 8.4992 3.66665 8.49967H0.1604C0.337484 6.90592 1.02811 5.56292 2.23228 4.47067C3.43644 3.37842 4.85901 2.83254 6.49998 2.83301C7.23193 2.83301 7.93436 2.95106 8.60728 3.18717C9.28019 3.42329 9.91179 3.76565 10.5021 4.21426L11.4937 3.22259L12.4854 4.21426L11.4937 5.20592C11.8715 5.70176 12.1726 6.22427 12.3969 6.77347C12.6212 7.32266 12.7687 7.89806 12.8396 8.49967H9.77602L8.55415 6.05592C8.42429 5.7844 8.21179 5.64863 7.91665 5.64863C7.62151 5.64863 7.40901 5.7844 7.27915 6.05592L5.08332 10.4476ZM6.49998 15.583C4.85901 15.583 3.43644 15.0369 2.23228 13.9446C1.02811 12.8524 0.337484 11.5096 0.1604 9.91634H3.22394L4.44582 12.3601C4.57568 12.6316 4.78818 12.7674 5.08332 12.7674C5.37846 12.7674 5.59096 12.6316 5.72082 12.3601L7.91665 7.96842L8.69582 9.52676C8.75484 9.65662 8.84339 9.75413 8.96144 9.8193C9.0795 9.88447 9.20346 9.91681 9.33332 9.91634H12.8396C12.6625 11.5101 11.9719 12.8529 10.7677 13.9446C9.56352 15.0364 8.14096 15.5825 6.49998 15.583Z" fill="#111111"/>
</svg>
