<svg width="12" height="11" viewBox="0 0 12 11" fill="none" xmlns="http://www.w3.org/2000/svg">
<path d="M10.5 2.62524H6.74352L8.62203 0.747275C8.70412 0.665182 8.75024 0.55384 8.75024 0.437743C8.75024 0.321647 8.70412 0.210305 8.62203 0.128212C8.53994 0.0461193 8.4286 0 8.3125 0C8.1964 0 8.08506 0.0461193 8.00297 0.128212L5.6875 2.44423L3.37203 0.128212C3.33138 0.0875638 3.28313 0.0553198 3.23002 0.0333212C3.17691 0.0113225 3.11999 0 3.0625 0C3.00501 0 2.94809 0.0113225 2.89498 0.0333212C2.84187 0.0553198 2.79362 0.0875638 2.75297 0.128212C2.67088 0.210305 2.62476 0.321647 2.62476 0.437743C2.62476 0.55384 2.67088 0.665182 2.75297 0.747275L4.63148 2.62524H0.875C0.642936 2.62524 0.420376 2.71743 0.256282 2.88153C0.0921872 3.04562 0 3.26818 0 3.50024V10.0627C0 10.2948 0.0921872 10.5174 0.256282 10.6815C0.420376 10.8456 0.642936 10.9377 0.875 10.9377H10.5C10.7321 10.9377 10.9546 10.8456 11.1187 10.6815C11.2828 10.5174 11.375 10.2948 11.375 10.0627V3.50024C11.375 3.26818 11.2828 3.04562 11.1187 2.88153C10.9546 2.71743 10.7321 2.62524 10.5 2.62524ZM10.5 10.0627H0.875V3.50024H10.5V10.0627Z" fill="#111111"/>
</svg>
