<svg width="57" height="38" viewBox="0 0 57 38" fill="none" xmlns="http://www.w3.org/2000/svg">
<path d="M33.9303 20.8379C37.4624 20.8379 39.8379 18.3582 39.8379 14.6803V6.16799C39.8379 2.47969 37.4624 -9.53674e-06 33.9303 -9.53674e-06H24.8971C21.3661 -9.53674e-06 19 2.47969 19 6.16799V14.6803C19 18.3582 21.3661 20.8379 24.8971 20.8379H33.9303ZM29.4189 15.4513C28.9813 15.4513 28.6375 15.1075 28.6375 14.6699V8.05389L26.064 10.6378C25.9182 10.7836 25.7098 10.867 25.5118 10.867C25.3149 10.867 25.1159 10.7836 24.9596 10.6378C24.6575 10.3356 24.6575 9.83549 24.9596 9.53329L28.8667 5.60539C29.1585 5.31369 29.6794 5.31369 29.9711 5.60539L33.8783 9.53329C34.1804 9.83549 34.1804 10.3356 33.8783 10.6378C33.5657 10.9399 33.076 10.9399 32.7634 10.6378L30.2004 8.05389V14.6699C30.2004 15.1075 29.8461 15.4513 29.4189 15.4513Z" fill="#212121"/>
<path d="M7.00519 25.8403H9.23719L5.70919 34.0483H3.65719L0.117188 25.8403H2.34919L4.67719 31.3723L7.00519 25.8403ZM10.6805 27.2683C10.0445 27.2683 9.54047 26.8003 9.54047 26.1763C9.54047 25.5403 10.0445 25.0723 10.6805 25.0723C11.3045 25.0723 11.8205 25.5403 11.8205 26.1763C11.8205 26.8003 11.3045 27.2683 10.6805 27.2683ZM9.72047 28.1803H11.6645V34.0003H9.72047V28.1803ZM15.4067 28.0243C17.4587 28.0243 18.6947 29.4883 18.4067 31.5523H14.1947C14.3267 32.1523 14.7227 32.6203 15.5147 32.6203C15.9467 32.6203 16.1987 32.5243 16.3787 32.3083H18.3467C17.9987 33.4483 16.9187 34.1563 15.5507 34.1563C13.6427 34.1563 12.3707 32.8603 12.3707 31.0843C12.3707 29.3203 13.6067 28.0243 15.4067 28.0243ZM15.4547 29.4643C14.7707 29.4643 14.3747 29.8483 14.2187 30.4363H16.6427C16.5347 29.7643 16.1147 29.4643 15.4547 29.4643ZM25.4863 28.1803H27.5263L25.6063 34.0003H23.8783L22.8343 30.6163L21.7783 34.0003H20.0503L18.1303 28.1803H20.1703L20.9863 31.5283L22.0543 28.1803H23.6023L24.6703 31.5043L25.4863 28.1803ZM36.2471 25.8403V34.0003H35.2991V27.9163L32.5751 32.4403H31.9511L29.2031 27.8923L29.2271 34.0003H28.2791V25.8403H28.9991L32.2631 31.2883L35.5271 25.8403H36.2471ZM40.4187 28.2883C42.2067 28.2883 43.3227 29.6683 43.1427 31.4923H38.4867C38.5947 32.5243 39.3027 33.3283 40.4667 33.3283C41.1747 33.3283 41.7147 33.0763 41.9547 32.6083H42.9747C42.6267 33.5683 41.6667 34.1443 40.4667 34.1443C38.7507 34.1443 37.5627 32.8603 37.5627 31.2163C37.5627 29.5723 38.7387 28.2883 40.4187 28.2883ZM40.4187 29.0803C39.3147 29.0803 38.6307 29.8603 38.4987 30.8443H42.2307C42.1827 29.7403 41.4747 29.0803 40.4187 29.0803ZM47.1536 28.2883C48.5696 28.2883 49.5416 29.2363 49.5416 30.8083V34.0003H48.6296V30.8563C48.6296 29.7283 47.9696 29.1283 46.9856 29.1283C46.3256 29.1283 45.6416 29.4643 45.1616 30.0883V34.0003H44.2496V28.4323H45.1616V29.0563C45.6776 28.5643 46.3616 28.2883 47.1536 28.2883ZM54.9529 28.4323H55.8649V34.0003H54.9529V33.3643C54.4369 33.8563 53.7529 34.1443 52.9609 34.1443C51.5449 34.1443 50.5729 33.1723 50.5729 31.6003V28.4323H51.4849V31.5523C51.4849 32.6803 52.1449 33.3043 53.1289 33.3043C53.7889 33.3043 54.4729 32.9563 54.9529 32.3203V28.4323Z" fill="#212121"/>
</svg>
