<svg width="77" height="41" viewBox="0 0 77 41" fill="none" xmlns="http://www.w3.org/2000/svg">
<rect width="77" height="41" fill="#F5F5F5"/>
<rect width="77" height="41" rx="20.5" fill="#4CDB06"/>
<path d="M32.6111 23.73H34.6971L30.4131 33.306H28.6631L24.3651 23.73H26.4651L29.5311 30.716L32.6111 23.73ZM36.4236 25.27C35.7936 25.27 35.3036 24.808 35.3036 24.192C35.3036 23.562 35.7936 23.1 36.4236 23.1C37.0396 23.1 37.5436 23.562 37.5436 24.192C37.5436 24.808 37.0396 25.27 36.4236 25.27ZM35.5136 26.572H37.3476V33.25H35.5136V26.572ZM41.8031 26.404C44.0991 26.404 45.4851 28.14 45.1351 30.45H40.2351C40.3751 31.22 40.8791 31.808 41.9291 31.808C42.4191 31.808 42.7551 31.724 42.9931 31.43H45.0231C44.5751 32.69 43.3851 33.418 41.9151 33.418C39.7731 33.418 38.3591 31.906 38.3591 29.918C38.3591 27.93 39.7591 26.404 41.8031 26.404ZM41.8171 27.958C40.9211 27.958 40.4451 28.504 40.2771 29.204H43.3151C43.2171 28.35 42.6711 27.958 41.8171 27.958ZM53.7183 26.572H55.7063L53.3543 33.25H51.7583L50.3443 29.106L48.9303 33.25H47.3343L44.9823 26.572H46.9703L48.1323 30.478L49.5743 26.572H51.1143L52.5563 30.478L53.7183 26.572Z" fill="black"/>
<path d="M35.9167 13.25C35.9167 13.25 37.4012 10.3333 40 10.3333C42.5982 10.3333 44.0833 13.25 44.0833 13.25C44.0833 13.25 42.5982 16.1667 40 16.1667C37.4012 16.1667 35.9167 13.25 35.9167 13.25Z" stroke="#111111" stroke-width="1.16667" stroke-linecap="round" stroke-linejoin="round"/>
<path d="M45.25 16.1667V17.3333C45.25 17.6428 45.1271 17.9395 44.9083 18.1583C44.6895 18.3771 44.3928 18.5 44.0833 18.5H35.9167C35.6072 18.5 35.3105 18.3771 35.0917 18.1583C34.8729 17.9395 34.75 17.6428 34.75 17.3333V16.1667M45.25 10.3333V9.16667C45.25 8.85725 45.1271 8.5605 44.9083 8.34171C44.6895 8.12292 44.3928 8 44.0833 8H35.9167C35.6072 8 35.3105 8.12292 35.0917 8.34171C34.8729 8.5605 34.75 8.85725 34.75 9.16667V10.3333M40 13.8333C40.1547 13.8333 40.3031 13.7719 40.4125 13.6625C40.5219 13.5531 40.5833 13.4047 40.5833 13.25C40.5833 13.0953 40.5219 12.9469 40.4125 12.8375C40.3031 12.7281 40.1547 12.6667 40 12.6667C39.8453 12.6667 39.6969 12.7281 39.5875 12.8375C39.4781 12.9469 39.4167 13.0953 39.4167 13.25C39.4167 13.4047 39.4781 13.5531 39.5875 13.6625C39.6969 13.7719 39.8453 13.8333 40 13.8333Z" stroke="#111111" stroke-width="1.16667" stroke-linecap="round" stroke-linejoin="round"/>
</svg>
