<svg width="57" height="38" viewBox="0 0 57 38" fill="none" xmlns="http://www.w3.org/2000/svg">
<path d="M33.9303 0C37.4624 0 39.8379 2.47971 39.8379 6.1576V14.6699C39.8379 18.3582 37.4624 20.8379 33.9303 20.8379H24.8971C21.3661 20.8379 19 18.3582 19 14.6699V6.1576C19 2.47971 21.3661 0 24.8971 0H33.9303ZM29.4189 5.38659C28.9813 5.38659 28.6375 5.73042 28.6375 6.16802V12.784L26.064 10.2001C25.9182 10.0543 25.7098 9.97093 25.5118 9.97093C25.3149 9.97093 25.1159 10.0543 24.9596 10.2001C24.6575 10.5023 24.6575 11.0024 24.9596 11.3046L28.8667 15.2325C29.1585 15.5242 29.6794 15.5242 29.9711 15.2325L33.8783 11.3046C34.1804 11.0024 34.1804 10.5023 33.8783 10.2001C33.5657 9.898 33.076 9.898 32.7634 10.2001L30.2004 12.784V6.16802C30.2004 5.73042 29.8461 5.38659 29.4189 5.38659Z" fill="#212121"/>
<path d="M7.008 25.84H9.24L5.712 34.048H3.66L0.12 25.84H2.352L4.68 31.372L7.008 25.84ZM10.6833 27.268C10.0473 27.268 9.54328 26.8 9.54328 26.176C9.54328 25.54 10.0473 25.072 10.6833 25.072C11.3073 25.072 11.8233 25.54 11.8233 26.176C11.8233 26.8 11.3073 27.268 10.6833 27.268ZM9.72328 28.18H11.6673V34H9.72328V28.18ZM15.4095 28.024C17.4615 28.024 18.6975 29.488 18.4095 31.552H14.1975C14.3295 32.152 14.7255 32.62 15.5175 32.62C15.9495 32.62 16.2015 32.524 16.3815 32.308H18.3495C18.0015 33.448 16.9215 34.156 15.5535 34.156C13.6455 34.156 12.3735 32.86 12.3735 31.084C12.3735 29.32 13.6095 28.024 15.4095 28.024ZM15.4575 29.464C14.7735 29.464 14.3775 29.848 14.2215 30.436H16.6455C16.5375 29.764 16.1175 29.464 15.4575 29.464ZM25.4891 28.18H27.5291L25.6091 34H23.8811L22.8371 30.616L21.7811 34H20.0531L18.1331 28.18H20.1731L20.9891 31.528L22.0571 28.18H23.6051L24.6731 31.504L25.4891 28.18ZM36.2499 25.84V34H35.3019V27.916L32.5779 32.44H31.9539L29.2059 27.892L29.2299 34H28.2819V25.84H29.0019L32.2659 31.288L35.5299 25.84H36.2499ZM40.4215 28.288C42.2095 28.288 43.3255 29.668 43.1455 31.492H38.4895C38.5975 32.524 39.3055 33.328 40.4695 33.328C41.1775 33.328 41.7175 33.076 41.9575 32.608H42.9775C42.6295 33.568 41.6695 34.144 40.4695 34.144C38.7535 34.144 37.5655 32.86 37.5655 31.216C37.5655 29.572 38.7415 28.288 40.4215 28.288ZM40.4215 29.08C39.3175 29.08 38.6335 29.86 38.5015 30.844H42.2335C42.1855 29.74 41.4775 29.08 40.4215 29.08ZM47.1564 28.288C48.5724 28.288 49.5444 29.236 49.5444 30.808V34H48.6324V30.856C48.6324 29.728 47.9724 29.128 46.9884 29.128C46.3284 29.128 45.6444 29.464 45.1644 30.088V34H44.2524V28.432H45.1644V29.056C45.6804 28.564 46.3644 28.288 47.1564 28.288ZM54.9557 28.432H55.8677V34H54.9557V33.364C54.4397 33.856 53.7557 34.144 52.9637 34.144C51.5477 34.144 50.5757 33.172 50.5757 31.6V28.432H51.4877V31.552C51.4877 32.68 52.1477 33.304 53.1317 33.304C53.7917 33.304 54.4757 32.956 54.9557 32.32V28.432Z" fill="#212121"/>
</svg>
