<svg width="65" height="38" viewBox="0 0 65 38" fill="none" xmlns="http://www.w3.org/2000/svg">
<path d="M28.9075 20.8379C25.3755 20.8379 23 18.3582 23 14.6803L23 6.16801C23 2.47971 25.3755 -9.68601e-07 28.9075 -7.83299e-07L37.9408 -3.09384e-07C41.4718 -1.24136e-07 43.8379 2.47971 43.8379 6.16802L43.8379 14.6803C43.8379 18.3582 41.4717 20.8379 37.9408 20.8379L28.9075 20.8379ZM33.4189 15.4513C33.8565 15.4513 34.2004 15.1075 34.2004 14.6699L34.2004 8.05384L36.7738 10.6377C36.9197 10.7836 37.1281 10.867 37.3261 10.867C37.523 10.867 37.722 10.7836 37.8783 10.6377C38.1804 10.3356 38.1804 9.83548 37.8783 9.53333L33.9712 5.60539C33.6794 5.31366 33.1585 5.31366 32.8667 5.60539L28.9596 9.53333C28.6575 9.83548 28.6575 10.3356 28.9596 10.6377C29.2722 10.9399 29.7619 10.9399 30.0745 10.6377L32.6375 8.05384L32.6375 14.6699C32.6375 15.1075 32.9918 15.4513 33.4189 15.4513Z" fill="#212121"/>
<path d="M7.008 25.6779H9.24L5.712 33.8859H3.66L0.12 25.6779H2.352L4.68 31.2099L7.008 25.6779ZM10.6833 27.1059C10.0473 27.1059 9.54328 26.6379 9.54328 26.0139C9.54328 25.3779 10.0473 24.9099 10.6833 24.9099C11.3073 24.9099 11.8233 25.3779 11.8233 26.0139C11.8233 26.6379 11.3073 27.1059 10.6833 27.1059ZM9.72328 28.0179H11.6673V33.8379H9.72328V28.0179ZM15.4095 27.8619C17.4615 27.8619 18.6975 29.3259 18.4095 31.3899H14.1975C14.3295 31.9899 14.7255 32.4579 15.5175 32.4579C15.9495 32.4579 16.2015 32.3619 16.3815 32.1459H18.3495C18.0015 33.2859 16.9215 33.9939 15.5535 33.9939C13.6455 33.9939 12.3735 32.6979 12.3735 30.9219C12.3735 29.1579 13.6095 27.8619 15.4095 27.8619ZM15.4575 29.3019C14.7735 29.3019 14.3775 29.6859 14.2215 30.2739H16.6455C16.5375 29.6019 16.1175 29.3019 15.4575 29.3019ZM25.4891 28.0179H27.5291L25.6091 33.8379H23.8811L22.8371 30.4539L21.7811 33.8379H20.0531L18.1331 28.0179H20.1731L20.9891 31.3659L22.0571 28.0179H23.6051L24.6731 31.3419L25.4891 28.0179ZM31.1499 25.6779C33.6699 25.6779 35.4579 27.3459 35.4579 29.6979C35.4579 32.1219 33.6699 33.8379 31.1499 33.8379H28.2819V25.6779H31.1499ZM31.1499 32.9619C33.0939 32.9619 34.4859 31.6059 34.4859 29.6979C34.4859 27.8739 33.0939 26.5539 31.1499 26.5539H29.2299V32.9619H31.1499ZM39.0856 28.1259C40.8736 28.1259 41.9896 29.5059 41.8096 31.3299H37.1536C37.2616 32.3619 37.9696 33.1659 39.1336 33.1659C39.8416 33.1659 40.3816 32.9139 40.6216 32.4459H41.6416C41.2936 33.4059 40.3336 33.9819 39.1336 33.9819C37.4176 33.9819 36.2296 32.6979 36.2296 31.0539C36.2296 29.4099 37.4056 28.1259 39.0856 28.1259ZM39.0856 28.9179C37.9816 28.9179 37.2976 29.6979 37.1656 30.6819H40.8976C40.8496 29.5779 40.1416 28.9179 39.0856 28.9179ZM46.5745 32.9379L46.7065 33.7779C46.2505 33.9339 45.8665 33.9819 45.5305 33.9819C44.1625 33.9819 43.5025 33.2259 43.5025 31.7739V29.0499H42.0505V28.2699H43.5025V26.2179H44.4145V28.2699H46.5145V29.0499H44.4145V31.7739C44.4145 32.7339 44.8225 33.1299 45.6145 33.1299C45.9265 33.1299 46.2745 33.0459 46.5745 32.9379ZM51.8241 28.2699H52.7361V33.8379H51.8241V33.2619C51.3321 33.7179 50.6601 33.9819 49.8681 33.9819C48.2721 33.9819 47.0001 32.6859 47.0001 31.0539C47.0001 29.4339 48.2721 28.1259 49.8681 28.1259C50.6601 28.1259 51.3321 28.3899 51.8241 28.8459V28.2699ZM49.9881 33.1419C50.7201 33.1419 51.3681 32.8659 51.8241 32.1939V29.9139C51.3681 29.2419 50.7201 28.9659 49.9881 28.9659C48.8121 28.9659 47.9121 29.9019 47.9121 31.0539C47.9121 32.2059 48.8121 33.1419 49.9881 33.1419ZM54.838 26.7819C54.49 26.7819 54.226 26.5179 54.226 26.1819C54.226 25.8339 54.49 25.5699 54.838 25.5699C55.186 25.5699 55.462 25.8339 55.462 26.1819C55.462 26.5179 55.186 26.7819 54.838 26.7819ZM54.394 28.2699H55.306V33.8379H54.394V28.2699ZM56.9335 25.3179H57.8455V33.8379H56.9335V25.3179ZM59.7926 32.0859C59.9606 32.8299 60.5366 33.2259 61.5566 33.2259C62.4206 33.2259 63.0086 32.9019 63.0086 32.3379C63.0086 31.8699 62.6366 31.5939 62.0966 31.4979L60.8366 31.2939C59.9246 31.1379 59.1806 30.7299 59.1806 29.7819C59.1806 28.7499 60.0926 28.1259 61.4366 28.1259C62.6006 28.1259 63.7526 28.5699 63.8606 29.8899H63.0086C62.9126 29.1939 62.3246 28.8699 61.4366 28.8699C60.5966 28.8699 60.0926 29.1939 60.0926 29.6979C60.0926 30.1059 60.3686 30.4059 61.1246 30.5379L62.2286 30.7179C63.0326 30.8499 63.8846 31.2099 63.8846 32.2779C63.8846 33.3699 62.9006 33.9819 61.5326 33.9819C60.1166 33.9819 59.1086 33.3939 58.9406 32.0859H59.7926Z" fill="#212121"/>
</svg>
