<svg width="47" height="31" viewBox="0 0 47 31" fill="none" xmlns="http://www.w3.org/2000/svg">
<path d="M0 15.5C0 6.93959 6.93959 0 15.5 0H31.5C40.0604 0 47 6.93959 47 15.5V15.5C47 24.0604 40.0604 31 31.5 31H15.5C6.93959 31 0 24.0604 0 15.5V15.5Z" fill="#4CDB06"/>
<path d="M23.5 18C24.8807 18 26 16.8807 26 15.5C26 14.1193 24.8807 13 23.5 13C22.1193 13 21 14.1193 21 15.5C21 16.8807 22.1193 18 23.5 18Z" fill="#111111"/>
<path d="M33.9583 15.2682C33.135 13.1939 31.7056 11.4 29.8469 10.1082C27.9883 8.81652 25.7817 8.08357 23.5 8C21.2183 8.08357 19.0117 8.81652 17.1531 10.1082C15.2944 11.4 13.865 13.1939 13.0417 15.2682C12.9861 15.418 12.9861 15.582 13.0417 15.7318C13.865 17.8061 15.2944 19.6 17.1531 20.8918C19.0117 22.1835 21.2183 22.9164 23.5 23C25.7817 22.9164 27.9883 22.1835 29.8469 20.8918C31.7056 19.6 33.135 17.8061 33.9583 15.7318C34.0139 15.582 34.0139 15.418 33.9583 15.2682ZM23.5 19.9318C22.6001 19.9318 21.7203 19.6719 20.9721 19.1849C20.2238 18.6979 19.6406 18.0058 19.2962 17.196C18.9518 16.3862 18.8617 15.4951 19.0373 14.6354C19.2129 13.7757 19.6462 12.986 20.2826 12.3662C20.9189 11.7464 21.7297 11.3243 22.6123 11.1533C23.495 10.9823 24.4098 11.0701 25.2413 11.4055C26.0727 11.741 26.7833 12.309 27.2833 13.0378C27.7833 13.7666 28.0501 14.6235 28.0501 15.5C28.0483 16.6748 27.5683 17.801 26.7154 18.6318C25.8625 19.4625 24.7062 19.93 23.5 19.9318Z" fill="#111111"/>
</svg>
